<?xml version="1.0" encoding="UTF-8"?>
<svg width="2076px" height="1493px" viewBox="0 0 2076 1493" version="1.1" xmlns="http://www.w3.org/2000/svg" xmlns:xlink="http://www.w3.org/1999/xlink">
    <!-- Generator: Sketch 56.3 (81716) - https://sketch.com -->
    <title>data</title>
    <desc>Created with Sketch.</desc>
    <defs>
        <linearGradient x1="15.5593305%" y1="63.4754951%" x2="100%" y2="63.4754951%" id="linearGradient-1">
            <stop stop-color="#734000" offset="0%"></stop>
            <stop stop-color="#FFC891" offset="100%"></stop>
        </linearGradient>
        <linearGradient x1="50%" y1="107.794005%" x2="50%" y2="8.61090421%" id="linearGradient-2">
            <stop stop-color="#816E2B" offset="0%"></stop>
            <stop stop-color="#503502" offset="100%"></stop>
        </linearGradient>
        <linearGradient x1="-33.0872066%" y1="81.1048471%" x2="87.8474659%" y2="53.9028994%" id="linearGradient-3">
            <stop stop-color="#A3C300" offset="0%"></stop>
            <stop stop-color="#4F7D00" offset="69.4995777%"></stop>
            <stop stop-color="#326F00" offset="100%"></stop>
        </linearGradient>
        <radialGradient cx="100%" cy="47.7398434%" fx="100%" fy="47.7398434%" r="137.359567%" gradientTransform="translate(1.000000,0.477398),scale(1.000000,0.363990),rotate(173.145835),translate(-1.000000,-0.477398)" id="radialGradient-4">
            <stop stop-color="#5D5D5D" offset="0%"></stop>
            <stop stop-color="#000000" offset="100%"></stop>
        </radialGradient>
    </defs>
    <g id="Page-1" stroke="none" stroke-width="1" fill="none" fill-rule="evenodd">
        <g id="Charecters" transform="translate(-370.000000, -3170.000000)">
            <g id="data" transform="translate(1415.000000, 3906.000000) scale(-1, 1) rotate(90.000000) translate(-1415.000000, -3906.000000) translate(670.000000, 2873.000000)">
                <g id="Group-2" transform="translate(828.500000, 804.500000) rotate(90.000000) translate(-828.500000, -804.500000) translate(161.000000, 312.000000)">
                    <path d="M315.963726,131.92041 C419.909709,20.9293277 571.731168,-36.309071 771.428102,-39.7947855 C971.125037,-43.2805 1132.88159,14.305259 1256.69775,132.962492 L1275.60276,1025.07164 L310.898451,1020.52508 L315.963726,131.92041 Z" id="Path-6" stroke="#979797" fill="url(#linearGradient-1)" transform="translate(793.250605, 492.563819) rotate(91.000000) translate(-793.250605, -492.563819) "></path>
                    <path d="M441.170902,18.5438196 C585.36342,50.5863025 657.45968,210.035801 657.45968,496.892314 C657.45968,783.748828 585.36342,943.198326 441.170902,975.240809" id="Path-5" stroke="#976300" stroke-width="12"></path>
                    <path d="M1073.30943,24.3548492 C1229.51799,56.3973321 1307.62227,215.84683 1307.62227,502.703344 C1307.62227,789.559858 1229.51799,949.009356 1073.30943,981.051839" id="Path-5" stroke="#976300" stroke-width="12"></path>
                    <path d="M871.767616,14.6697998 C1015.96013,46.7122827 1088.05639,206.161781 1088.05639,493.018295 C1088.05639,779.874808 1015.96013,939.324307 871.767616,971.36679" id="Path-5" stroke="#976300" stroke-width="12"></path>
                    <path d="M659.440521,14.6697998 C803.633039,46.7122827 875.729299,206.161781 875.729299,493.018295 C875.729299,779.874808 803.633039,939.324307 659.440521,971.36679" id="Path-5" stroke="#976300" stroke-width="12"></path>
                    <path d="M225.290837,6.51033723 L1091.3335,12.6299342" id="Line-5" stroke="#976300" stroke-width="12" stroke-linecap="square"></path>
                    <path d="M225.290837,965.247193 L1091.3335,971.36679" id="Line-5" stroke="#976300" stroke-width="12" stroke-linecap="square"></path>
                    <ellipse id="Oval" fill="#976300" cx="440.828612" cy="888.752231" rx="52.433643" ry="35.6976489"></ellipse>
                    <ellipse id="Oval" fill="#976300" cx="1099.52625" cy="888.752231" rx="52.433643" ry="35.6976489"></ellipse>
                    <ellipse id="Oval" fill="#976300" cx="879.960373" cy="888.752231" rx="52.433643" ry="35.6976489"></ellipse>
                    <ellipse id="Oval" fill="#976300" cx="660.394492" cy="888.752231" rx="52.433643" ry="35.6976489"></ellipse>
                    <ellipse id="Oval" fill="url(#linearGradient-2)" cx="216.347078" cy="495.05816" rx="216.288778" ry="478.348495"></ellipse>
                </g>
                <g id="Group" transform="translate(183.321376, 1858.429873) scale(-1, 1) rotate(-268.000000) translate(-183.321376, -1858.429873) translate(-17.678624, 1682.429873)">
                    <path d="M5.40012479e-13,344.641392 C25.1358065,289.889852 60.3259356,242.95996 105.570387,203.851717 C150.814839,164.743474 202.343242,129.057202 260.155597,96.7929017 L279.007452,112.925052 C213.661727,160.057244 167.027056,194.763952 139.103437,217.045176 C111.179818,239.3264 74.8663281,284.302737 30.1629678,351.974188 L5.40012479e-13,344.641392 Z" id="Path-22" stroke="#000000" stroke-width="3" fill="#4F8821"></path>
                    <ellipse id="Oval" stroke="#000000" stroke-width="3" fill="#FFFFFF" cx="308.175876" cy="80.6607514" rx="93.2647302" ry="80.6607514"></ellipse>
                    <ellipse id="Oval" fill="#000000" cx="352.392781" cy="96.9613015" rx="28.2777823" ry="36.6639779"></ellipse>
                </g>
                <path d="M942.671668,1189.94611 C858.076333,1212.56976 407.817902,1209.64326 270.069415,1237.07871 C132.320928,1264.51415 258.409106,1230.11961 146.643435,1280.4407 C72.132987,1313.9881 37.0004982,1238.57594 41.2459683,1054.20421 C-36.4153228,1320.66052 -36.4153228,1459.54459 41.2459683,1470.85642 C115.582702,1481.684 117.520451,1455.77398 199.342168,1463.3152 C281.163885,1470.85642 281.111642,1508.56757 356.051559,1506.67719 C430.991476,1504.78681 448.967746,1463.3152 504.440097,1453.88868 C559.912448,1444.46216 589.035432,1504.79189 648.668209,1506.67719 C708.300986,1508.5625 731.130529,1473.54892 794.28313,1470.85642 C840.108574,1468.90266 882.429572,1509.27211 942.671668,1506.67719 C991.247467,1504.5848 991.209975,1463.3152 1073.03169,1470.85642 C1154.85341,1478.39763 1179.81597,1502.90659 1229.74108,1506.67719 C1279.6662,1510.4478 1289.37386,1480.28294 1360.10111,1463.3152 C1380.58183,1458.4018 1424.21728,1475.05842 1472.43262,1470.85642 C1497.02692,1468.713 1529.40773,1436.98508 1587.53775,1435.03564 C1645.66776,1433.08619 1698.48245,1478.39763 1726.21862,1453.88868 C1753.9548,1429.37973 1555.64114,1184.29019 1572.28285,1142.8135 C1588.92455,1101.33681 1854.39576,853.162432 1824.68204,663.946264 C1794.96833,474.730096 1665.56008,216.139652 1419.73388,400.003691 C1173.90769,583.867731 1161.2944,969.248058 1131.27766,1022.15404 C1101.26092,1075.06003 1027.267,1167.32246 942.671668,1189.94611 Z" id="Path-8" stroke="#000000" stroke-width="23" fill="url(#linearGradient-3)" transform="translate(905.000000, 922.000000) scale(1, -1) rotate(-90.000000) translate(-905.000000, -922.000000) "></path>
                <path d="M1241.35679,661.635717 C1248.90635,661.941172 1252.25671,652.227932 1254.81789,642.870857 C1257.37908,633.513782 1256.11736,614.503218 1247.43666,620.122601 C1238.75595,625.741984 1231.22764,630.421946 1227.47852,641.764707 C1223.72939,653.107468 1233.80723,661.330262 1241.35679,661.635717 Z" id="Oval" fill="#B5B147" transform="translate(1241.331819, 640.372820) rotate(94.000000) translate(-1241.331819, -640.372820) "></path>
                <path d="M1281.58239,652.723062 C1293.93453,653.025087 1299.48735,645.421469 1303.74617,638.091184 C1308.00499,630.760899 1306.07762,615.814985 1291.83162,620.158479 C1277.58562,624.501974 1265.23224,628.116888 1259.01509,636.997454 C1252.79794,645.878019 1269.23024,652.421037 1281.58239,652.723062 Z" id="Oval" fill="#B5B147" transform="translate(1281.699619, 636.056462) rotate(94.000000) translate(-1281.699619, -636.056462) "></path>
                <path d="M1249.65687,472.224228 C1265.7181,471.630213 1273.34293,465.035376 1279.26927,458.752115 C1285.19561,452.468855 1283.46844,440.380146 1264.69937,444.90132 C1245.93031,449.422494 1229.66269,453.219121 1221.10642,460.903232 C1212.55016,468.587343 1233.59564,472.818242 1249.65687,472.224228 Z" id="Oval" fill="#B5B147" transform="translate(1250.715604, 458.095803) rotate(24.000000) translate(-1250.715604, -458.095803) "></path>
                <path d="M1247.17496,374.445293 C1261.58512,374.717374 1268.09198,369.211317 1273.08811,363.898544 C1278.08425,358.585771 1275.89136,347.708372 1259.25431,350.806644 C1242.61725,353.904916 1228.19103,356.481371 1220.90432,362.913251 C1213.61762,369.345131 1232.76481,374.173212 1247.17496,374.445293 Z" id="Oval" fill="#B5B147" transform="translate(1247.376029, 362.358094) rotate(94.000000) translate(-1247.376029, -362.358094) "></path>
                <path d="M1186.0746,1190.75837 C1198.10631,1190.99702 1203.53506,1185.91834 1207.70259,1181.01901 C1211.87013,1176.11968 1210.03123,1166.09914 1196.14268,1168.96776 C1182.25413,1171.83639 1170.2111,1174.22237 1164.13192,1180.15475 C1158.05273,1186.08713 1174.04289,1190.51971 1186.0746,1190.75837 Z" id="Oval" fill="#B5B147" transform="translate(1186.233273, 1179.613563) rotate(94.000000) translate(-1186.233273, -1179.613563) "></path>
                <path d="M1186.0746,1190.75837 C1198.10631,1190.99702 1203.53506,1185.91834 1207.70259,1181.01901 C1211.87013,1176.11968 1210.03123,1166.09914 1196.14268,1168.96776 C1182.25413,1171.83639 1170.2111,1174.22237 1164.13192,1180.15475 C1158.05273,1186.08713 1174.04289,1190.51971 1186.0746,1190.75837 Z" id="Oval" fill="#B5B147" transform="translate(1186.233273, 1179.613563) rotate(94.000000) translate(-1186.233273, -1179.613563) "></path>
                <path d="M1186.0746,1190.75837 C1198.10631,1190.99702 1203.53506,1185.91834 1207.70259,1181.01901 C1211.87013,1176.11968 1210.03123,1166.09914 1196.14268,1168.96776 C1182.25413,1171.83639 1170.2111,1174.22237 1164.13192,1180.15475 C1158.05273,1186.08713 1174.04289,1190.51971 1186.0746,1190.75837 Z" id="Oval" fill="#B5B147" transform="translate(1186.233273, 1179.613563) rotate(94.000000) translate(-1186.233273, -1179.613563) "></path>
                <path d="M1186.0746,1190.75837 C1198.10631,1190.99702 1203.53506,1185.91834 1207.70259,1181.01901 C1211.87013,1176.11968 1210.03123,1166.09914 1196.14268,1168.96776 C1182.25413,1171.83639 1170.2111,1174.22237 1164.13192,1180.15475 C1158.05273,1186.08713 1174.04289,1190.51971 1186.0746,1190.75837 Z" id="Oval" fill="#B5B147" transform="translate(1186.233273, 1179.613563) rotate(94.000000) translate(-1186.233273, -1179.613563) "></path>
                <path d="M1209.89984,1091.14776 C1233.41576,1088.6981 1266.22651,1105.80274 1270.92169,1065.72351 C1275.61687,1025.64428 1250.41851,943.558376 1226.9026,946.008036 C1203.38668,948.457696 1180.51707,982.934172 1175.82189,1023.0134 C1171.1267,1063.09263 1186.38392,1093.59742 1209.89984,1091.14776 Z" id="Oval" fill="#B5B147" transform="translate(1223.232115, 1019.344701) rotate(-149.000000) translate(-1223.232115, -1019.344701) "></path>
                <path d="M1264.23196,797.03971 C1271.71162,796.290014 1283.45337,814.583898 1282.42793,777.125528 C1281.40248,739.667159 1267.99816,660.641258 1260.51849,661.390954 C1254.76782,661.96735 1231.39224,655.319179 1230.12113,680.838498 C1229.73896,688.511098 1248.59506,721.913948 1248.8321,730.572775 C1249.85754,768.031145 1256.75229,797.789405 1264.23196,797.03971 Z" id="Oval" fill="#B5B147" transform="translate(1256.303122, 730.935431) rotate(-202.000000) translate(-1256.303122, -730.935431) "></path>
                <path d="M1263.03659,598.135508 C1278.69015,596.579238 1296.14903,578.904968 1299.12084,554.829673 C1284.44403,510.248043 1276.62404,497.210042 1260.97048,498.766312 C1245.31692,500.322582 1242.63824,557.406778 1230.62327,564.229492 C1218.60831,571.052205 1247.38303,599.691778 1263.03659,598.135508 Z" id="Oval" fill="#B5B147" transform="translate(1263.443010, 548.420444) rotate(-149.000000) translate(-1263.443010, -548.420444) "></path>
                <path d="M1249,1330 C1076.97588,1472.20221 978.688456,1581.58377 954.137732,1658.14465 C929.587008,1734.70554 960.586595,1839.67915 1047.13649,1973.06547 L1138.73004,2000.91826 C1159.05478,2008.80895 1168.79751,2005.25912 1167.95822,1990.26876 C1166.6993,1967.78322 1151.20059,1945.64086 1143.76647,1931.22951 C1104.06027,1854.25748 1112.01497,1878.66803 1086.61377,1837.17213 C1048.00527,1774.10052 1007.20322,1716.42457 1012.51744,1692.08287 C1015.58285,1678.04178 1060.29256,1627.34351 1105.5162,1570.37434 C1138.6925,1528.58146 1171.38476,1482.47608 1191.94885,1449.7188 C1224.34594,1398.11232 1243.36299,1358.20605 1249,1330 Z" id="Path-44" fill="#005402" transform="translate(1097.500000, 1667.500000) scale(1, -1) rotate(-90.000000) translate(-1097.500000, -1667.500000) "></path>
                <path d="M716.567943,1328.43852 C729.103191,1328.24461 734.923002,1324.10993 739.422361,1320.15506 C743.92172,1316.20018 742.321314,1308.43875 727.752179,1311.1161 C713.183043,1313.79344 700.553067,1316.03585 694.028215,1320.85727 C687.503363,1325.67868 704.032696,1328.63243 716.567943,1328.43852 Z" id="Oval" fill="#B5B147" transform="translate(717.099451, 1319.506867) scale(1, -1) rotate(-176.000000) translate(-717.099451, -1319.506867) "></path>
                <path d="M1303.33706,397.216116 C1310.88662,397.521571 1314.23698,387.808331 1316.79816,378.451256 C1319.35935,369.094182 1318.09763,350.083617 1309.41693,355.703001 C1300.73622,361.322384 1293.20791,366.002345 1289.45879,377.345107 C1285.70966,388.687868 1295.7875,396.910662 1303.33706,397.216116 Z" id="Oval" fill="#B5B147" transform="translate(1303.312088, 375.953220) rotate(94.000000) translate(-1303.312088, -375.953220) "></path>
                <path d="M1287.05617,736.535824 C1294.60573,736.841279 1297.95608,727.128039 1300.51727,717.770964 C1303.07846,708.413889 1301.81674,689.403325 1293.13603,695.022708 C1284.45533,700.642092 1276.92702,705.322053 1273.17789,716.664814 C1269.42877,728.007575 1279.50661,736.230369 1287.05617,736.535824 Z" id="Oval" fill="#B5B147" transform="translate(1287.031196, 715.272927) rotate(94.000000) translate(-1287.031196, -715.272927) "></path>
                <path d="M945.670066,1234.69901 C960.709703,1234.40068 967.729711,1225.61749 973.163979,1217.20637 C978.598248,1208.79525 976.75023,1192.19179 959.247644,1197.77916 C941.745057,1203.36653 926.572802,1208.04226 918.700634,1218.28669 C910.828467,1228.53112 930.630429,1234.99733 945.670066,1234.69901 Z" id="Oval" fill="#B5B147" transform="translate(946.391835, 1215.681391) scale(1, -1) rotate(-94.000000) translate(-946.391835, -1215.681391) "></path>
                <path d="M886.977148,1246.07551 C894.70019,1245.11091 898.716905,1240.82181 901.903093,1236.78569 C905.089281,1232.74956 904.93314,1225.47806 895.695667,1228.92783 C886.458194,1232.37761 878.458608,1235.29359 873.935482,1240.27879 C869.412356,1245.26399 879.254105,1247.0401 886.977148,1246.07551 Z" id="Oval" fill="#B5B147" transform="translate(888.284685, 1237.176565) scale(1, -1) rotate(-135.000000) translate(-888.284685, -1237.176565) "></path>
                <path d="M1003.79514,1238.783 C1011.51819,1237.81841 1015.91933,1230.45136 1019.4748,1223.45857 C1023.03027,1216.46578 1023.61418,1203.26903 1014.14365,1208.58475 C1004.67313,1213.90046 996.47898,1218.37422 991.507189,1226.95167 C986.535397,1235.52912 996.072101,1239.74759 1003.79514,1238.783 Z" id="Oval" fill="#B5B147" transform="translate(1005.997202, 1223.136000) scale(-1, 1) rotate(-135.000000) translate(-1005.997202, -1223.136000) "></path>
                <path d="M742.634219,1432.59512 C762.850838,1430.80035 771.981455,1395.75408 779.984927,1383.22941 C787.988399,1370.70474 786.904278,1347.1251 762.936021,1356.70878 C738.967764,1366.29246 711.287422,1329.33629 699.856693,1344.70489 C688.425964,1360.07348 722.417601,1434.38989 742.634219,1432.59512 Z" id="Oval" fill="#B5B147" transform="translate(741.010668, 1386.770401) scale(-1, 1) rotate(-110.000000) translate(-741.010668, -1386.770401) "></path>
                <path d="M1131.57445,1272.1635 C1151.12598,1272.55132 1159.85072,1258.02967 1166.52981,1244.04649 C1173.20891,1230.06332 1170.03402,1201.71216 1147.52392,1210.17398 C1125.01381,1218.6358 1105.49297,1225.6857 1095.72746,1242.64207 C1085.96196,1259.59845 1112.02292,1271.77568 1131.57445,1272.1635 Z" id="Oval" fill="#B5B147" transform="translate(1131.616621, 1240.398727) rotate(94.000000) translate(-1131.616621, -1240.398727) "></path>
                <path d="M1027.14176,1389.66016 C1075.46145,1395.4685 1094.75738,1372.08017 1109.08699,1349.10788 C1123.41661,1326.13558 1111.20721,1275.17883 1056.94966,1284.24149 C1002.6921,1293.30415 955.595295,1300.65375 934.105929,1328.07399 C912.616563,1355.49424 978.822071,1383.85181 1027.14176,1389.66016 Z" id="Oval" fill="#B5B147" transform="translate(1022.276494, 1336.866073) rotate(-57.000000) translate(-1022.276494, -1336.866073) "></path>
                <path d="M839.622352,1390.81072 C894.091818,1397.35831 938.682162,1387.17183 957.566662,1364.00276 C976.451163,1340.83369 908.821226,1316.43071 854.35176,1309.88312 C799.882295,1303.33552 774.763095,1321.04869 760.315279,1340.29184 C745.867464,1359.53499 785.152887,1384.26313 839.622352,1390.81072 Z" id="Oval" fill="#B5B147" transform="translate(859.051209, 1350.628527) rotate(-57.000000) translate(-859.051209, -1350.628527) "></path>
                <g id="Mouth" transform="translate(751.215458, 1666.706130) rotate(106.000000) translate(-751.215458, -1666.706130) translate(625.715458, 1609.706130)">
                    <path d="M81.5622873,56.2364275 C81.0565909,-3.9733958 95.968337,-64.0426182 119.367011,-63.8297984 C142.765684,-63.6158451 165.106974,-19.9396993 168.810052,46.4961802 C172.51313,112.93206 166.807685,178.929385 138.037917,178.667796 C109.268149,178.404647 82.0679837,116.446251 81.5622873,56.2364275 Z" id="Path-20" fill="url(#radialGradient-4)" transform="translate(125.683197, 57.418999) rotate(-444.000000) translate(-125.683197, -57.418999) "></path>
                    <path d="M34.0353793,24.9849566 C36.8098251,42.4951077 40.8164757,50.6282853 46.0553312,49.3844895 C51.2941867,48.1406937 59.3074879,37.2964568 70.0952349,16.8517789 C59.0769457,18.6591518 51.5644758,20.0146814 47.5578252,20.9183678 C43.5511745,21.8220542 39.0436926,23.1775838 34.0353793,24.9849566 Z" id="Path-21" stroke="#FFFFFF" fill="#FFFFFF"></path>
                    <path d="M170.555444,18.1831017 C180.592113,35.8007419 188.661452,45.2705831 194.763459,46.5926254 C200.865465,47.9146677 205.908802,41.2857789 209.893468,26.7059588 C201.176933,24.0712692 194.116262,22.1773009 188.711455,21.024054 C183.306648,19.8708072 177.254644,18.923823 170.555444,18.1831017 Z" id="Path-23" stroke="#FFFFFF" fill="#FFFFFF"></path>
                    <path d="M41.6965377,84.2222075 C62.8515437,62.924483 74.4319169,52.7344961 76.4376574,53.6522467 C78.443398,54.5699973 78.2583949,67.8032104 75.8826483,93.3518858 C69.9294205,92.1378608 64.5540997,90.9244804 59.7566859,89.7117445 C54.959272,88.4990086 48.9392226,86.6691629 41.6965377,84.2222075 Z" id="Path-24" stroke="#FFFFFF" fill="#FFFFFF" transform="translate(59.755733, 73.473631) rotate(2.000000) translate(-59.755733, -73.473631) "></path>
                    <path d="M114.999672,100.93923 C125.926901,78.7328461 132.880593,67.6296542 135.860746,67.6296542 C138.840899,67.6296542 142.814437,79.1954791 147.781359,102.327129 C146.787975,102.327129 143.807822,102.327129 138.840899,102.327129 C133.873977,102.327129 125.926901,101.864496 114.999672,100.93923 Z" id="Path-25" stroke="#FFFFFF" fill="#FFFFFF"></path>
                    <path d="M184.888908,99.4790524 C186.971005,83.6676082 188.892287,75.3581255 190.652756,74.5506045 C192.413225,73.7430834 199.121518,78.5956469 210.777635,89.1082949 C204.688774,91.991251 199.95821,94.1099744 196.585942,95.464465 C193.213674,96.8189556 189.314662,98.1571514 184.888908,99.4790524 Z" id="Path-26" stroke="#FFFFFF" fill="#FFFFFF" transform="translate(197.833271, 86.971625) rotate(6.000000) translate(-197.833271, -86.971625) "></path>
                </g>
                <g id="eye" transform="translate(389.000000, 1547.000000)">
                    <ellipse id="Oval" fill="#FFFFFF" transform="translate(119.131653, 82.423362) rotate(-91.000000) translate(-119.131653, -82.423362) " cx="119.131653" cy="82.4233621" rx="80.1863418" ry="117.530062"></ellipse>
                    <ellipse id="Oval" stroke="#000000" stroke-width="2" fill="#000000" cx="119.835618" cy="121.797367" rx="45.4992317" ry="19.5953212"></ellipse>
                </g>
                <g id="Group" transform="translate(239.359893, 1380.114834) scale(-1, -1) rotate(-292.000000) translate(-239.359893, -1380.114834) translate(74.359893, 1199.614834)">
                    <path d="M1.42108547e-13,353.440747 C25.1358065,298.689207 60.3259356,251.759315 105.570387,212.651072 C150.814839,173.542829 202.343242,137.856557 260.155597,105.592256 L279.007452,121.724407 C229.88687,153.492722 183.390915,190.449083 139.519587,232.59349 C95.6482583,274.737896 59.196052,317.464581 30.1629678,360.773543 L1.42108547e-13,353.440747 Z" id="Path-22" stroke="#000000" stroke-width="3" fill="#4F8821"></path>
                    <ellipse id="Oval" stroke="#000000" stroke-width="3" fill="#FFFFFF" cx="234.615283" cy="85.0604287" rx="95.1115566" ry="85.0604287"></ellipse>
                    <ellipse id="Oval" fill="#000000" transform="translate(206.723739, 79.560786) rotate(20.000000) translate(-206.723739, -79.560786) " cx="206.723739" cy="79.5607859" rx="29.5898712" ry="39.4635708"></ellipse>
                </g>
                <path d="M600.896027,1388.36137 C629.89212,1385.79327 656.843926,1350.58775 661.094572,1309.72765 C665.345217,1268.86755 655.979733,1235.27048 626.983641,1237.83858 C620.134599,1238.44518 621.857966,1240.22872 616.263322,1246.07388 C615.000156,1247.39361 610.60273,1253.22069 609.579914,1254.04491 C607.171758,1255.98549 609.265429,1254.39504 606.782593,1256.9675 C605.246359,1258.55918 602.639738,1261.04492 601.187949,1262.81266 C599.215044,1265.21493 599.096599,1265.17104 597.301863,1267.86111 C595.592675,1270.42295 590.434829,1273.84407 588.909897,1276.62885 C587.529385,1279.1499 585.147284,1281.12842 583.935048,1283.80317 C582.92057,1286.04157 578.757509,1290.77504 577.871436,1293.10336 C576.654216,1296.30181 569.344072,1300.66502 568.390706,1303.99697 C567.311541,1307.76857 563.034127,1309.41171 562.327093,1313.29715 C561.804756,1316.16761 556.565557,1319.69357 556.263481,1322.59734 C552.012836,1363.45744 571.899934,1390.92946 600.896027,1388.36137 Z" id="Oval" fill="#B5B147" transform="translate(608.879697, 1313.113917) rotate(25.000000) translate(-608.879697, -1313.113917) "></path>
                <path d="M1216.27674,1145.89938 C1228.30845,1145.66073 1233.92446,1138.63417 1238.27187,1131.90527 C1242.61928,1125.17638 1241.14087,1111.89361 1227.1388,1116.36351 C1213.13673,1120.83341 1200.99893,1124.57399 1194.70119,1132.76953 C1188.40346,1140.96508 1204.24503,1146.13804 1216.27674,1145.89938 Z" id="Oval" fill="#B5B147" transform="translate(1216.854154, 1130.685293) scale(1, -1) rotate(-94.000000) translate(-1216.854154, -1130.685293) "></path>
                <path d="M960.238406,1277.79511 C965.387101,1277.15205 968.609519,1269.93222 971.256794,1263.05287 C973.904068,1256.17351 974.848379,1242.93175 968.359907,1247.87501 C961.871435,1252.81827 956.262747,1256.96911 952.61172,1265.3816 C948.960693,1273.79409 955.089711,1278.43818 960.238406,1277.79511 Z" id="Oval" fill="#B5B147" transform="translate(962.390045, 1262.324612) scale(1, -1) rotate(-135.000000) translate(-962.390045, -1262.324612) "></path>
                <path d="M783.746608,1282.71393 C807.814187,1276.19476 892.619669,1276.66248 891.032453,1261.71402 C889.445238,1246.76556 797.754076,1218.82502 755.621135,1214.43602 C713.488195,1210.04701 701.720535,1225.78907 703.761919,1243.21482 C705.803302,1260.64057 759.679029,1289.23309 783.746608,1282.71393 Z" id="Oval" fill="#B5B147" transform="translate(797.298151, 1248.677549) rotate(-31.000000) translate(-797.298151, -1248.677549) "></path>
                <path d="M1069.01216,1197.2512 C1116.09746,1200.06911 1152.92681,1184.24078 1151.27282,1161.89764 C1149.79669,1141.95712 1118.16755,1123.56664 1077.91179,1117.83895 C1074.67819,1117.37887 1074.65789,1117.18453 1077.8509,1117.25593 L1070.79747,1121.33603 L1062.33613,1123.48677 L1055.68695,1126.15712 C1052.65118,1126.78827 1050.56953,1127.20848 1049.442,1127.41774 C1048.31447,1127.627 1046.83687,1128.22041 1045.00921,1129.19798 C1044.54188,1129.53265 1043.80309,1129.82935 1042.79281,1130.08809 C1041.2763,1130.47649 1039.0599,1131.36661 1036.14363,1132.75845 C1031.67068,1133.71502 1028.85023,1134.43193 1027.68229,1134.90918 C1026.62434,1135.34149 1024.40795,1136.23161 1021.0331,1137.57954 L1014.78815,1138.84015 L1008.13897,1141.51051 L1000.08187,1142.2515 L992.024762,1142.99248 C985.648412,1142.41868 982.292873,1142.57499 981.958144,1143.46142 C980.968696,1146.08169 980.550223,1148.83405 980.761868,1151.69308 C982.415858,1174.03623 1021.92686,1194.43329 1069.01216,1197.2512 Z" id="Oval" fill="#B5B147" transform="translate(1066.017345, 1157.408787) rotate(-16.000000) translate(-1066.017345, -1157.408787) "></path>
                <path d="M1279.90881,293.576451 C1293.31712,292.061572 1311.89871,303.781303 1314.81977,276.792817 C1317.74083,249.80433 1303.89522,194.327617 1290.48691,195.842496 C1277.07859,197.357375 1263.84101,220.463918 1260.91995,247.452404 C1257.99889,274.440891 1266.50049,295.09133 1279.90881,293.576451 Z" id="Oval" fill="#B5B147" transform="translate(1287.779470, 245.325654) rotate(-149.000000) translate(-1287.779470, -245.325654) "></path>
                <path d="M1226.74283,856.55484 C1232.34262,856.418067 1240.92666,864.335498 1240.55757,848.666501 C1240.18848,832.997503 1231.00602,799.675607 1225.40623,799.81196 C1219.80644,799.949154 1215.56613,812.762263 1215.93522,828.43126 C1216.30431,844.100258 1221.14304,856.691614 1226.74283,856.55484 Z" id="Oval" fill="#B5B147" transform="translate(1228.240963, 829.123610) scale(-1, 1) rotate(149.000000) translate(-1228.240963, -829.123610) "></path>
                <path d="M1250.99971,916.40007 C1260.81549,916.433862 1275.5695,925.757475 1275.48777,907.868956 C1275.40536,889.980438 1260.5183,851.653807 1250.70251,851.619955 C1240.88673,851.586222 1232.99599,866.060338 1233.07806,883.948856 C1233.16012,901.837375 1241.18392,916.366278 1250.99971,916.40007 Z" id="Oval" fill="#B5B147" transform="translate(1254.282597, 885.239286) scale(-1, 1) rotate(149.000000) translate(-1254.282597, -885.239286) "></path>
            </g>
        </g>
    </g>
</svg>