<?xml version="1.0" encoding="UTF-8"?>
<svg width="1230px" height="1857px" viewBox="0 0 1230 1857" version="1.1" xmlns="http://www.w3.org/2000/svg" xmlns:xlink="http://www.w3.org/1999/xlink">
    <!-- Generator: Sketch 56.3 (81716) - https://sketch.com -->
    <title>Hacker</title>
    <desc>Created with Sketch.</desc>
    <defs>
        <linearGradient x1="1.22715759%" y1="51.1387791%" x2="97.4613012%" y2="52.2594614%" id="linearGradient-1">
            <stop stop-color="#0CD300" offset="0%"></stop>
            <stop stop-color="#035400" offset="100%"></stop>
        </linearGradient>
        <linearGradient x1="36.4540657%" y1="-4.34238193%" x2="54.6580843%" y2="100%" id="linearGradient-2">
            <stop stop-color="#FF0000" offset="0%"></stop>
            <stop stop-color="#FFFFFF" offset="100%"></stop>
        </linearGradient>
        <linearGradient x1="50%" y1="0%" x2="50%" y2="81.1417863%" id="linearGradient-3">
            <stop stop-color="#FF0000" offset="0%"></stop>
            <stop stop-color="#FFFFFF" offset="100%"></stop>
        </linearGradient>
        <linearGradient x1="50%" y1="0%" x2="50%" y2="69.3566157%" id="linearGradient-4">
            <stop stop-color="#FF0000" offset="0%"></stop>
            <stop stop-color="#FFFFFF" offset="100%"></stop>
        </linearGradient>
        <linearGradient x1="50%" y1="99.9541476%" x2="50%" y2="45.7108034%" id="linearGradient-5">
            <stop stop-color="#FF0000" offset="0.0844594595%"></stop>
            <stop stop-color="#3EDA28" offset="100%"></stop>
        </linearGradient>
    </defs>
    <g id="Page-1" stroke="none" stroke-width="1" fill="none" fill-rule="evenodd">
        <g id="Artboard" transform="translate(-4442.000000, -223.000000)">
            <g id="Hacker" transform="translate(5057.000000, 1155.500000) scale(-1, 1) translate(-5057.000000, -1155.500000) translate(4445.000000, 228.000000)">
                <g id="Brain" transform="translate(233.000000, 0.000000)">
                    <path d="M35.8352804,308.035491 L19.1121495,282.553236 L75.0151869,196.363257 L125.662383,173.504175 L157.19743,196.363257 L157.19743,136.779749 L276.648364,84.3162839 L326.339953,136.779749 L326.339953,66.7035491 L477.325935,0 L603.466121,101.55428 L587.220794,164.135699 L628.78972,127.786013 L710.971963,154.017745 L693.771028,239.083507 L783.120327,219.222338 L818,254.822547 L755.885514,333.892484 C612.674429,302.736538 498.320067,285.623455 412.82243,282.553236 C327.324793,279.483017 201.662409,287.977102 35.8352804,308.035491 Z" id="Path-19" stroke="#000000" stroke-width="7" fill="#FE96CB"></path>
                    <path d="M16.7231308,332.768267 L0,307.286013 L55.9030374,221.096033 L106.550234,198.236952 L138.08528,221.096033 L138.08528,161.512526 L257.536215,109.049061 L307.227804,161.512526 L307.227804,91.4363257 L458.213785,24.7327766 L584.353972,126.287056 L568.108645,188.868476 L609.67757,152.518789 L691.859813,178.750522 L674.658879,263.816284 L764.008178,243.955115 L798.88785,279.555324 L736.773364,358.625261 C593.562279,327.469314 479.207918,310.356231 393.71028,307.286013 C308.212643,304.215794 182.55026,312.709878 16.7231308,332.768267 Z" id="Path-19" stroke="#000000" stroke-width="12" fill="#F367A5"></path>
                    <ellipse id="Oval" fill="#F7BDFF" transform="translate(212.033743, 156.522835) rotate(-28.000000) translate(-212.033743, -156.522835) " cx="212.033743" cy="156.522835" rx="47.8156771" ry="16.5231627"></ellipse>
                    <path d="M405.176389,133.205606 C428.855355,135.428515 459.063622,137.148016 472.228872,131.265454 C482.400416,126.720554 478.548574,115.89602 477.715568,108.146379 C456.139995,86.2108799 436.126539,75.4421723 394.153073,71.5018325 C352.179608,67.5614927 333.740648,79.2752884 325.716205,93.8771459 C326.626159,102.342648 323.674615,112.545141 336.715485,119.479094 C342.199868,122.395193 383.187349,131.141343 405.176389,133.205606 Z" id="Oval" fill="#F7BDFF" transform="translate(402.419430, 103.002984) rotate(-28.000000) translate(-402.419430, -103.002984) "></path>
                    <path d="M48.2581776,244.704593 L0,307.286013 L24.3679907,329.770355 C174.646257,312.631536 288.204279,305.136756 365.042056,307.286013 C441.879833,309.435269 556.074926,323.300614 707.627336,348.882046 L760.185748,285.551148 L731.517523,266.814196 L660.80257,285.551148 L660.80257,211.727557 L643.601636,225.967641 L620.667056,191.491649 L599.165888,225.967641 L523.195093,225.967641 L492.13785,152.518789 L467.76986,191.491649 L267.570093,179.5 L312.961449,211.727557 C325.702882,233.712248 328.88824,244.704593 322.517523,244.704593 C316.146807,244.704593 297.830997,246.703201 267.570093,250.700418 L190.643692,179.5 L190.643692,244.704593 L139.040888,244.704593 L111.328271,285.551148 L66.4147196,285.551148 L48.2581776,244.704593 Z" id="Path-14" fill="#D72171"></path>
                    <path d="M166.753505,311.782881 L137.129673,266.814196 C189.051012,258.819763 215.011682,254.822547 215.011682,254.822547 C215.011682,254.822547 208.800234,233.712248 196.377336,191.491649 L248.935748,266.814196 L166.753505,284.052192 L196.377336,309.159708 L166.753505,311.782881 Z" id="Path-15" fill="#96006C"></path>
                    <path d="M306.75,302.039666 C306.75,302.039666 332.551402,278.680932 384.154206,231.963466 L287.63785,188.493737 L490.704439,216.599165 L496.438084,154.017745 L511.25,227.841336 L409,216.599165 L446.746495,241.706681 L384.154206,283.302714 C524.309969,306.78636 594.38785,318.528184 594.38785,318.528184 C594.38785,318.528184 580.372274,294.045233 552.341121,245.079332 C593.432243,247.327766 613.977804,247.327766 613.977804,245.079332 C613.977804,242.830898 615.729751,228.590814 619.233645,202.359081 L634.045561,258.195198 L587.220794,258.195198 L629.267523,332.018789 C552.346906,318.858122 498.67362,310.863689 468.247664,308.035491 C364.612325,298.402226 306.75,302.039666 306.75,302.039666 Z" id="Path-18" fill="#96006C"></path>
                </g>
                <path d="M526.445434,1077.58192 L525.344725,1154.32086 L638.395176,1153.047 L639.495885,1076.30806 L526.445434,1077.58192 Z" id="Rectangle" stroke="#000000" stroke-width="4" fill="#499F41" transform="translate(582.420305, 1115.314458) rotate(3.000000) translate(-582.420305, -1115.314458) "></path>
                <g id="Head" transform="translate(163.000000, 304.000000)">
                    <path d="M19.8620742,55.2250358 C19.8070176,55.7136151 19.6118352,56.5232032 19.4264838,57.4792659 C18.6678385,61.3924403 17.9279687,66.9686637 17.241069,74.0226818 C15.855131,88.2553736 14.7220202,108.076324 13.9114239,132.179448 C12.2568094,181.379499 12.0336894,245.417901 13.3656501,310.868399 C16.52608,466.167057 27.2847399,597.184058 43.7532609,650.960734 L44.0845607,652.042567 L44.2162252,653.166306 C46.5484426,673.071457 84.1657201,699.013598 147.138017,721.084742 C213.041585,744.183267 299.586259,760.999876 387.629075,767.161957 C484.364167,773.932407 577.165918,767.655978 654.014921,747.481885 C739.946219,724.923544 803.131735,685.944581 837.849093,630.748647 L839.477048,628.160417 L842.115919,626.615901 C842.037193,626.661979 843.230024,625.083467 844.757391,621.96602 C846.834898,617.725706 849.029047,611.710036 851.25337,604.084002 C855.686432,588.885358 860.103099,567.799131 864.380059,541.673367 C872.304135,493.26923 879.552364,428.701972 885.225191,358.307589 C890.488558,292.994224 894.041629,226.732896 895.09188,175.237051 C895.615664,149.554862 895.499326,128.305289 894.736546,112.92147 C894.355201,105.230477 893.816572,99.1166759 893.14816,94.782011 C892.8829,93.0617935 892.584945,91.7720777 892.675839,91.3913204 C892.211838,91.1316343 891.47664,90.7165542 890.520018,90.2339608 C887.836752,88.8803157 884.103403,87.3123485 879.428866,85.590601 C869.840493,82.0589667 856.65397,78.0085193 840.545435,73.6467597 C807.959215,64.8232841 764.871692,55.1124711 718.347481,46.146773 C612.435342,25.7364052 507.686902,12.5 440.115617,12.5 C370.068787,12.5 269.006544,19.1642782 176.171219,29.3615715 C132.404901,34.1689871 93.6061356,39.4461853 64.8948583,44.5209325 C50.29662,47.1011859 38.522782,49.5911959 30.0468832,51.8944557 C25.938405,53.0109028 22.6947153,54.0604833 20.4215905,54.9909774 C20.2163025,55.0750112 20.0292072,55.1540754 19.8620742,55.2250358 Z" id="Rectangle" stroke="#000000" stroke-width="25" fill="url(#linearGradient-1)"></path>
                    <polygon id="Path-67" fill="#000000" points="576.220439 20.2112811 591.448951 46.7853728 615.2435 57.6395793 615.2435 72.9851816 586.21415 95.0678776 606.201571 110.787763 576.220439 136.613289 634.279139 174.41587 624.761319 213.3413 639.989831 228.31262 634.279139 213.3413 643.796959 169.175908 597.159642 136.239006 615.2435 117.524857 674.253982 130.999044 712.325261 117.524857 748.492976 154.204589 706.138678 102.553537 679.964674 117.524857 610.48459 98.8107075 639.989831 72.9851816 624.761319 47.1596558 664.260271 33.3111855"></polygon>
                    <path d="M145.539097,30.3169216 L180.279139,46.7853728 L217.874527,52.0253346 L217.874527,72.2366157 L193.604087,91.6993308 L208.832598,110.039197 L158.388154,131.373327 L228.82002,118.647706 L214.54329,95.0678776 L244.048531,66.248088 L285.926938,77.1022945 C285.926938,93.3212237 285.926938,101.430688 285.926938,101.430688 C285.926938,101.430688 291.320369,89.7031549 302.107231,66.248088 L255.469915,55.0195985 L222.157546,39.6739962 L259.277043,15.7198853 L145.539097,30.3169216 Z" id="Path-68" fill="#000000"></path>
                </g>
                <g id="Eye" transform="translate(253.000000, 544.000000)">
                    <path d="M35.6914784,19.2989691 L230.319065,19.2989691 C227.147866,102.43299 194.789246,144 133.243203,144 C71.6971595,144 39.1799181,102.43299 35.6914784,19.2989691 Z" id="Path-27" fill="#14522A"></path>
                    <path d="M36.1655172,19.2989691 L230.793103,19.2989691 C230.793103,82.8865979 200.02069,114.680412 138.475862,114.680412 C76.9310345,114.680412 42.8275862,82.8865979 36.1655172,19.2989691 Z" id="Path-57" fill="#DE6A6A"></path>
                    <path d="M50.9172414,19.2989691 L211.282759,19.2989691 C203.986207,73.9793814 179.875862,101.319588 138.951724,101.319588 C98.0275862,101.319588 68.6827586,73.9793814 50.9172414,19.2989691 Z" id="Path-58" fill="#F2D630"></path>
                    <path d="M67.5724138,19.2989691 L168.455172,19.2989691 C164.331034,46.5154639 149.262069,60.1237113 123.248276,60.1237113 C97.2344828,60.1237113 78.6758621,46.5154639 67.5724138,19.2989691 Z" id="Path-59" fill="#914617"></path>
                    <path d="M84.2275862,19.2989691 L153.227586,19.2989691 C149.42069,40.0824742 139.427586,50.4742268 123.248276,50.4742268 C107.068966,50.4742268 94.062069,40.0824742 84.2275862,19.2989691 Z" id="Path-60" fill="#000000"></path>
                    <ellipse id="Oval" fill="#14522A" cx="138" cy="11.5051546" rx="138" ry="11.5051546"></ellipse>
                </g>
                <g id="Eye" transform="translate(586.000000, 550.000000)">
                    <path d="M35.6914784,19.1370558 L241.262069,18.4010152 C223.973658,71.4677775 207.742735,104.974558 192.5693,118.921356 C173.654441,136.307119 150.230191,145 122.296552,145 C60.7505087,145 31.8821509,103.045685 35.6914784,19.1370558 Z" id="Path-27" fill="#14522A"></path>
                    <path d="M36.1655172,19.1370558 L236.503448,19.1370558 C225.398785,83.6632826 189.074039,115.926396 127.529211,115.926396 C65.9843837,115.926396 35.529819,83.6632826 36.1655172,19.1370558 Z" id="Path-57" fill="#DE6A6A"></path>
                    <path d="M50.9172414,19.1370558 L220.8,19.1370558 C199.860853,74.8307953 168.929211,102.677665 128.005073,102.677665 C87.0809354,102.677665 61.3849914,74.8307953 50.9172414,19.1370558 Z" id="Path-58" fill="#F2D630"></path>
                    <path d="M67.5724138,19.1370558 L168.455172,19.1370558 C157.034483,49.8054146 138.317241,65.1395939 112.303448,65.1395939 C86.2896552,65.1395939 71.3793103,49.8054146 67.5724138,19.1370558 Z" id="Path-59" fill="#914617"></path>
                    <path d="M84.2275862,19.1370558 L153.227586,19.1370558 C142.122922,41.2182741 128.480935,52.2588832 112.301625,52.2588832 C96.1223147,52.2588832 86.7643018,41.2182741 84.2275862,19.1370558 Z" id="Path-60" fill="#000000"></path>
                    <ellipse id="Oval" fill="#14522A" cx="138" cy="11.4086294" rx="138" ry="11.4086294"></ellipse>
                </g>
                <g id="Nose" transform="translate(438.000000, 555.000000)">
                    <path d="M58.7487992,131 C90.2189569,131 119.139726,128.005714 127.419127,92.4485714 C135.698528,56.8914286 110.373301,1.87142857 76.7686724,0 C49.4953509,6.36285714 25.1441709,42.6685714 5.17620337,77.8514286 C-14.7917642,113.034286 27.2786416,131 58.7487992,131 Z" id="Oval" stroke="#000000" stroke-width="5" fill="#499F41"></path>
                    <path d="M47.8880597,78.6 C66.9089113,78.6 79.9029851,72.5673568 79.9029851,65.1257143 C79.9029851,57.6840718 66.9089113,51.6514286 47.8880597,51.6514286 C28.8672081,51.6514286 17.3283582,57.6840718 17.3283582,65.1257143 C17.3283582,72.5673568 28.8672081,78.6 47.8880597,78.6 Z" id="Oval" fill-opacity="0.65" fill="#FFFFFF"></path>
                    <ellipse id="Oval" fill="#073F00" transform="translate(26.826738, 110.342880) rotate(19.000000) translate(-26.826738, -110.342880) " cx="26.8267379" cy="110.34288" rx="20.0229843" ry="7.49030356"></ellipse>
                    <ellipse id="Oval" fill="#073F00" transform="translate(80.011559, 108.734882) rotate(-27.000000) translate(-80.011559, -108.734882) " cx="80.0115585" cy="108.734882" rx="26.0598013" ry="8.74900937"></ellipse>
                </g>
                <g id="Glasses" transform="translate(86.000000, 438.000000)" fill="#000000">
                    <path d="M429.67442,54.7526943 C481.426009,61.2604287 485.532094,39.809642 499.377159,34.1007207 C513.222224,28.3917995 521.743004,18.8453351 558.576746,13.4487472 C595.410488,8.05215916 614.09853,7.25251378 668.382431,9.33940774 C722.666332,11.4263017 747.17468,13.455078 813.516902,23.2496838 C879.859123,33.0442895 934.303155,46.3709923 948.14822,54.7526943 C961.993284,63.1343964 974.883517,79.8376568 974.883517,105.348519 C974.883517,130.859382 977.395857,161.371228 948.14822,216.300683 C928.649795,252.920321 912.099373,275.58395 898.496954,284.291572 C873.011315,302.87119 844.684631,314.701107 813.516902,319.781321 C766.765307,327.401643 703.2338,332.482916 653.105118,319.781321 C602.976436,307.079727 565.912272,283.322926 534.705945,264.772765 C503.499617,246.222604 504.628735,231.617312 493.170751,207.334852 C481.712766,183.052392 470.732198,140.464692 463.093541,131.059987 C458.001104,124.790183 451.31728,120.12307 443.042068,117.058649 L406.758451,116.929385 C404.474594,124.871037 401.928375,132.71614 399.119794,140.464692 C394.906923,152.087522 374.294161,220.666773 354.720104,244.820858 C335.146047,268.974943 348.46796,269.079999 308.41075,284.374638 C268.353541,299.669277 257.186226,300.145333 202.424393,302.970387 C147.662561,305.795442 141.758424,300.902454 121.741086,294.004556 C101.723747,287.106658 66.53118,266.574207 46.3093541,244.820858 C26.0875283,223.067509 16.497662,202.162306 5.72899226,159.062663 C-1.45012089,130.329567 -1.45012089,104.777125 5.72899226,82.405337 C6.72135567,63.652505 20.248143,47.5158741 46.3093541,33.9954442 C72.3705653,20.4750143 105.789687,12.2563355 146.566719,9.33940774 C204.111811,-0.767028349 254.558771,-2.38585902 297.907598,4.48291572 C362.930838,14.7860778 377.922831,48.2449599 429.67442,54.7526943 Z M344.216952,72.1002278 C332.713174,55.8839942 324.494813,57.6743889 285.494781,48.9384966 C246.494749,40.2026043 201.946977,43.3348519 201.946977,43.3348519 C201.946977,43.3348519 124.851681,55.9294663 103.121861,62.3872437 C81.3920405,68.8450212 64.928579,84.428246 64.928579,95.6355353 C64.928579,106.842825 64.928579,156.154897 64.928579,156.154897 C64.928579,156.154897 67.8480435,198.835271 85.934884,220.783599 C104.021724,242.731927 111.32929,256.891617 154.205375,264.492027 C197.08146,272.092437 216.746874,268.601367 250.643412,264.492027 C284.539949,260.382688 303.159174,238.715262 315.094575,233.485194 C327.029975,228.255125 344.216952,192.765376 344.216952,192.765376 C344.216952,192.765376 364.380698,163.023218 361.881345,128.510251 C359.381992,93.9972827 355.72073,88.3164614 344.216952,72.1002278 Z M550.460673,88.1640091 C538.057247,101.733054 537.118458,102.582471 534.705945,118.050114 C532.293431,133.517757 525.411878,151.81276 535.660777,183.052392 C545.909676,214.292024 549.926423,215.651706 575.763723,243.198178 C601.601022,270.744649 633.430366,279.875625 653.105118,285.038724 C672.779871,290.201823 727.717327,290.296416 758.136643,285.038724 C788.555959,279.781033 819.245894,268.601367 844.071527,254.405467 C868.89716,240.209567 877.702601,219.631543 887.516385,202.104784 C897.330169,184.578024 896.372338,182.76774 898.496954,162.879271 C900.621569,142.990802 909.000106,99.3712984 898.496954,88.1640091 C887.993801,76.9567198 861.969493,67.791581 822.587806,60.5193622 C783.206119,53.2471434 736.652922,51.5535308 736.652922,51.5535308 C736.652922,51.5535308 691.649812,47.9519908 648.330958,51.5535308 C605.012104,55.1550707 611.966569,53.7486651 583.879795,64.2551253 C555.79302,74.7615855 562.864099,74.5949646 550.460673,88.1640091 Z" id="Combined-Shape"></path>
                </g>
                <g id="Scar" transform="translate(740.000000, 797.000000)" stroke="#000000" stroke-linecap="square">
                    <path d="M0,10.5147036 C31.257359,12.9971557 64.857359,19.8860994 100.8,31.1815348 C136.742641,42.4769702 166.982641,55.6505644 191.52,70.7023173" id="Line" stroke-width="7"></path>
                    <path d="M45.6,0.362575986 L33.12,31.5441108" id="Line-2" stroke-width="5"></path>
                    <path d="M173.369269,38.1738552 L157.830731,71.3240926" id="Line-2" stroke-width="5" transform="translate(165.600000, 54.748974) rotate(13.000000) translate(-165.600000, -54.748974) "></path>
                    <path d="M140.99153,24.1530544 L126.84847,56.3388145" id="Line-2" stroke-width="5" transform="translate(133.920000, 40.245934) rotate(4.000000) translate(-133.920000, -40.245934) "></path>
                    <path d="M109.396103,15.4087876 L95.0838973,47.679434" id="Line-2" stroke-width="5" transform="translate(102.240000, 31.544111) rotate(5.000000) translate(-102.240000, -31.544111) "></path>
                    <path d="M76.8,5.80121578 L64.32,36.9827506" id="Line-2" stroke-width="5"></path>
                </g>
                <g id="Mouth" transform="translate(320.000000, 862.000000)">
                    <path d="M256.684428,147.699781 C420.133759,161.526239 512.786722,203.752989 493.780986,102.857215 C445.791502,36.7144306 403.374109,8.31413885 256.684428,8.31413885 C109.994747,8.31413885 73.2790742,9.435203 30.9913113,63.2462821 C-77.8165281,173.857945 124.594562,170.121064 256.684428,147.699781 Z" id="Oval" fill="#640A0A"></path>
                    <path d="M105.588826,160.549281 C137.581815,108.731205 163.873083,83.3204179 184.462631,84.3169194 C215.346952,85.8116716 220.098386,106.738202 248.131847,106.738202 C276.165307,106.738202 311.801063,82.0747911 336.983663,84.3169194 C353.772063,85.8116716 378.004377,113.090899 409.680604,166.154602 L257.634715,148.217576 C219.15761,153.759328 190.490624,157.247083 171.633759,158.680841 C152.776893,160.1146 130.761915,160.737413 105.588826,160.549281 Z" id="Path-62" fill="#D05858"></path>
                    <path d="M119.843128,13.1720835 L119.843128,27.3722294 L183.512344,24.382725 L187.788634,8.31413885 C169.259693,9.14066406 155.322153,9.88804015 145.976015,10.5562671 C136.629877,11.2244941 127.918914,12.0964329 119.843128,13.1720835 Z" id="Path-65" fill="#F3C02A"></path>
                    <path d="M304.307998,19.2446705 L305.762389,39.3590916 L369.533468,27.6877055 L381.559214,10.1511838 C366.338449,10.6305892 354.099206,11.4599369 344.841484,12.6392267 C335.583762,13.8185166 322.0726,16.0203312 304.307998,19.2446705 Z" id="Path-65" fill="#F3C02A" transform="translate(342.933606, 24.755138) rotate(15.000000) translate(-342.933606, -24.755138) "></path>
                    <polygon id="Path-66" fill="#F3C02A" points="98.9368179 160.405175 101.312535 102.857215 149.302019 102.857215 153.578309 160.405175"></polygon>
                    <polygon id="Path-66" fill="#F3C02A" points="331.281942 156.668294 340.78481 112.573105 360.079202 115.205423 360.26569 144.336589 382.122286 118.925801 387.348864 118.925801 397.326875 164.889431"></polygon>
                </g>
                <g id="Ear" transform="translate(0.000000, 708.000000)">
                    <polygon id="Path-69" stroke="#000000" stroke-width="4" fill="#2F7529" points="176.993291 50.7591019 154.631235 50.7591019 123.704988 12.7837738 89.9240105 0 28.5473049 19.9276474 0 59.0309555 17.6041714 97.7582702 39.9662269 130.093698 104.197663 128.965718 123.704988 113.925984 140.833371 102.646184 176.993291 108.286084"></polygon>
                    <polygon id="Path-69" stroke="#000000" stroke-width="10" fill="#2F7529" transform="translate(1132.668268, 90.621970) rotate(182.000000) translate(-1132.668268, -90.621970) " points="1221.18061 75.509905 1198.82426 75.6734968 1168.25746 37.9121364 1134.60345 25.371358 1073.05794 45.7544547 1044.15593 85.0792444 1061.3971 123.690294 1083.4541 155.872583 1147.67958 154.274347 1167.32116 139.087043 1184.54959 127.678292 1220.64807 133.055484"></polygon>
                    <path d="" id="Path-70" stroke="#979797"></path>
                    <path d="M42.345169,37.0144562 L110.699274,68.4307892 L135.599698,60.9694101 C128.438792,49.7118908 120.138651,42.9050186 110.699274,40.5487936 C96.5402096,37.0144562 88.2400683,33.0874145 83.8458758,33.0874145 C80.9164141,33.0874145 70.1750547,33.0874145 51.6217975,33.0874145 L42.345169,37.0144562 Z" id="Path-72" fill="#164C07"></path>
                    <path d="M154.631235,90.6143966 C113.237643,97.7582702 89.9240105,73.3187027 129.414449,65.046849 C168.904887,56.7749954 53.2883025,7.51986694 38.5388616,41.3592682" id="Path-71" stroke="#000000" stroke-width="9"></path>
                    <path d="M1092.88599,68.4307892 C1092.88599,67.4281402 1124.60522,62.0389023 1188.04367,52.2630752 L1180.90685,45.495195 L1171.86687,43.2392349 L1158.069,41.3592682 L1146.65008,41.3592682 L1130.47327,43.2392349 L1115.72383,46.9991684 L1099.54703,52.2630752 L1089.07968,59.0309555 L1085.74916,64.2948623 C1090.50705,68.0547958 1092.88599,69.4334381 1092.88599,68.4307892 Z" id="Path-74" fill="#164C07"></path>
                    <path d="M1087.17653,97.7582702 C1132.85222,102.646184 1130.47327,71.4387359 1087.17653,68.4307892 C1072.42709,46.2471817 1190.42262,27.071521 1188.04367,56.3990021" id="Path-73" stroke="#000000" stroke-width="4"></path>
                </g>
                <g id="Pants" transform="translate(390.000000, 1411.000000)">
                    <path d="M99.554389,245.623839 L64.7251061,305.089309 L43.4305697,299.09552 L21.0652345,304.471118 L14.7184536,324.114471 L54.275437,355.033367 L45.2498189,416.382138 L55.5118199,434.74272 L131.504651,429.367477 C140.112831,422.82275 139.929702,417.689614 130.955265,413.968069 C121.980828,410.246524 116.849089,406.239107 115.560047,401.945816 L104.588241,355.745759 L145.944612,261.46009 L99.554389,245.623839 Z" id="Path-87" stroke="#000000" stroke-width="6" fill="#36B72B" transform="translate(80.331533, 340.183280) rotate(-9.000000) translate(-80.331533, -340.183280) "></path>
                    <path d="M257.311688,237.026042 C277.774293,289.819238 289.304121,321.119801 291.901174,330.927733 C294.498226,340.735664 294.498226,352.978223 291.901174,367.65541 L337.32592,359.325422 C333.18935,359.278587 326.799324,347.288452 318.155844,323.355016 C309.512363,299.42158 298.399275,262.946326 284.81658,213.929255 L257.311688,237.026042 Z" id="Path-89" stroke="#000000" stroke-width="4" fill="url(#linearGradient-2)"></path>
                    <path d="M60.6100321,12.1163472 L77.6964047,98.0666852 L84.2124217,200.542646 L46.4408451,274.368785 L84.2124217,258.575133 L84.2124217,293.10079 L116.724665,258.575133 L105.727877,318.811386 L133.458908,274.368785 L145.890059,293.10079 L176.489818,242.414187 L186.052242,200.542646 L165.49303,143.612041 L185.574121,87.4160251 L185.574121,143.612041 L215.695758,200.542646 L246.295516,304.486911 L259.68291,258.575133 C268.926587,288.448397 273.548426,299.956949 273.548426,293.10079 C273.548426,286.244631 273.548426,262.860232 273.548426,222.947593 L293.629517,282.449258 L300.801336,242.414187 L354.829034,274.368785 L318.491821,213.030649 L293.629517,191.36029 L273.548426,143.612041 L280.720244,107.249913 L318.491821,60.6035468 L343.354125,0 L60.6100321,12.1163472 Z" id="Path-86" stroke="#000000" stroke-width="8" fill="#4C4C4C"></path>
                    <path d="M84.3642575,433.912382 C99.3669261,431.640567 100.617149,415.359225 79.7801087,418.388312" id="Path-88" stroke="#000000" stroke-width="5"></path>
                    <path d="M136.873598,421.038763 C151.876266,418.766948 153.126489,402.485607 132.289449,405.514693" id="Path-88" stroke="#000000" stroke-width="5"></path>
                    <path d="M118.537003,426.339665 C133.539671,424.06785 134.789894,407.786508 113.952854,410.815595" id="Path-88" stroke="#000000" stroke-width="5"></path>
                    <path d="M102.700852,430.126024 C117.703521,427.854209 118.953744,411.572867 98.1167037,414.601954" id="Path-88" stroke="#000000" stroke-width="5"></path>
                    <path d="M86.9449815,427.974617 C88.785797,427.983416 90.2820559,428.748029 90.2621407,424.960627 C90.2422254,421.173225 88.7539326,421.923572 86.9131171,421.914773 C85.0723015,421.905974 83.5871588,423.255383 83.595919,424.928763 C83.604757,426.602142 85.104166,427.965817 86.9449815,427.974617 Z" id="Oval" fill="#FFB400" transform="translate(86.929128, 424.951700) rotate(177.000000) translate(-86.929128, -424.951700) "></path>
                    <path d="M139.806191,415.033547 C141.647007,415.042346 143.143266,415.80696 143.123351,412.019557 C143.103435,408.232155 141.615142,408.982503 139.774327,408.973703 C137.933511,408.964904 136.448369,410.314313 136.457129,411.987693 C136.465967,413.661073 137.965376,415.024748 139.806191,415.033547 Z" id="Oval" fill="#FFB400" transform="translate(139.790338, 412.010631) rotate(177.000000) translate(-139.790338, -412.010631) "></path>
                    <path d="M122.303078,420.334449 C124.143893,420.343248 125.640152,421.107861 125.620237,417.320459 C125.600322,413.533057 124.112029,414.283404 122.271214,414.274605 C120.430398,414.265806 118.945255,415.615215 118.954015,417.288595 C118.962853,418.961974 120.462262,420.32565 122.303078,420.334449 Z" id="Oval" fill="#FFB400" transform="translate(122.287225, 417.311533) rotate(177.000000) translate(-122.287225, -417.311533) "></path>
                    <path d="M105.633446,424.120807 C107.474262,424.129606 108.970521,424.89422 108.950605,421.106818 C108.93069,417.319416 107.442397,418.069763 105.601582,418.060964 C103.760766,418.052165 102.275623,419.401574 102.284384,421.074953 C102.293222,422.748333 103.792631,424.112008 105.633446,424.120807 Z" id="Oval" fill="#FFB400" transform="translate(105.617593, 421.097891) rotate(177.000000) translate(-105.617593, -421.097891) "></path>
                    <path d="M281.899395,354.781791 C296.261925,354.233027 307.236099,353.09712 314.821917,351.374069 C322.407736,349.651018 333.104083,345.864659 346.910959,340.014993 C371.081925,363.237992 381.361531,376.742671 377.749778,380.529029 C372.332147,386.208567 277.325206,415.124082 257.728428,417.256707 C244.66391,418.678456 234.801045,411.863011 228.139832,396.810371 C244.399526,391.530567 256.901749,385.472394 265.646504,378.63585 C274.391258,371.799306 279.808888,363.847954 281.899395,354.781791 Z" id="Path-90" stroke="#000000" stroke-width="4" fill="#804D00"></path>
                </g>
                <g id="Body" transform="translate(59.000000, 1061.000000)">
                    <polygon id="Path-77" stroke="#000000" stroke-width="5" fill="#36B72B" points="314.073229 177.641682 256.405762 169.396709 238.295318 257.468007 123.913565 235.731261 109.139256 270.210238 288.337335 307.687386"></polygon>
                    <polygon id="Path-85" stroke="#000000" stroke-width="4" fill="#36B72B" points="383.655462 197.50457 379.366146 293.820841 449.901561 297.568556 451.331333 194.506399"></polygon>
                    <polygon id="Path-81" stroke="#000000" stroke-width="4" fill="#36B72B" points="87.2160864 277.705667 124.866747 280.329068 148.696279 233.107861 136.781513 215.868373 87.2160864 208.372943 83.4033613 223.363803 109.139256 223.363803 130.109244 233.107861 124.866747 238.354662 97.7010804 233.107861 74.3481393 229.734918 74.3481393 277.705667"></polygon>
                    <polygon id="Path-78" stroke="#000000" stroke-width="4" fill="url(#linearGradient-3)" points="86.2629052 186.636197 86.2629052 281.828154 99.607443 294.195612 99.607443 303.564899 92.9351741 313.308958 75.7779112 313.308958 67.1992797 303.564899 55.2845138 313.308958 40.5102041 313.308958 24.7827131 303.564899 30.0252101 289.323583 50.0420168 281.828154 55.2845138 186.636197"></polygon>
                    <path d="M719.651861,211.371115 C728.24885,231.682954 732.855893,243.925489 733.472989,248.09872 C734.398634,254.358567 726.80072,253.589706 726.80072,259.716636 C726.80072,265.843566 727.780244,267.607552 733.472989,272.084095 C739.165735,276.560638 744.223123,276.206581 747.770708,276.206581 C751.318294,276.206581 750.65693,275.699259 754.442977,272.084095 C758.229024,268.468932 757.423867,263.464351 761.115246,263.464351 C764.806625,263.464351 763.534968,270.286917 768.740696,272.084095 C773.946425,273.881273 775.358461,274.578771 780.655462,270.210238 C785.952463,265.841704 787.685225,259.917071 788.280912,255.968921 C788.8766,252.020772 787.68764,251.524141 783.991597,248.09872 C780.295553,244.673299 781.623849,244.916152 774.936375,243.601463 C768.2489,242.286773 763.498199,249.597806 761.115246,243.601463 C759.526611,239.6039 756.031613,223.363803 750.630252,194.88117 L719.651861,211.371115 Z" id="Path-76" stroke="#000000" stroke-width="5" fill="url(#linearGradient-4)"></path>
                    <path d="M615.843829,40.8500914 C599.122163,42.4116093 576.14122,43.2764178 561.42377,48.7202925 C558.771927,49.7011891 557.97761,53.6987515 559.040816,60.7129799 C551.719236,52.8999465 547.184913,49.1247855 545.43785,49.3874971 C537.708177,50.5498331 530.036234,51.7809321 522.42202,53.080794 C520.697946,53.3751197 516.382402,57.5431914 509.47539,65.5850091 C509.046338,59.0339915 507.457702,55.2862767 504.709484,54.3418647 C490.842613,49.5765818 478.208208,41.9832257 474.207683,40.8500914 C469.056107,39.3909259 462.701565,43.8881837 455.144058,54.3418647 C457.60476,44.002613 457.65944,38.5572374 455.308095,38.0057379 C442.789179,35.0694703 431.360546,32.8086264 421.022196,31.2232064 C383.676324,25.4960934 327.417767,28.857404 322.17527,31.1060329 C316.932773,33.3546618 299.438302,28.9964542 260.709021,82.2875797 C234.8895,117.814997 222.65236,156.460412 223.997599,198.223826 L242.568156,185.066134 L250.147975,206.99562 L265.686604,188.198918 L276.677342,206.99562 L289.563035,188.198918 L300.174782,206.99562 L314.576438,188.198918 L334.283968,203.549558 L356.265443,148.412566 C364.111482,176.371719 368.321357,196.357911 368.895068,208.371142 C368.9822,210.195644 380.733464,211.320558 404.14886,211.745887 L387.944778,227.86106 L431.791116,240.978062 L397,254.844607 L435.127251,267.961609 C389.473621,275.598915 366.597271,279.721401 366.498199,280.329068 C361.732293,309.561243 364.72418,314.803019 361.950308,337.006141 C361.806568,338.156687 362.096386,366.858368 361.950308,368.020699 C360.839151,376.862065 356.038599,389.602051 347.548651,406.24066 L383.552792,377.41905 L383.552792,410 L440.862674,405.172176 L461.62493,368.020699 L465.79383,410 L504.717755,405.468314 L514.683664,380.865112 L519.610546,405.300825 L559.262739,400.299644 L568.121389,384.937731 L578.205776,397.910431 L617.076203,393.007852 L624.212051,368.020699 L647.202654,389.208117 L681.060694,384.937731 C684.767155,371.946714 684.767155,355.969518 681.060694,337.006141 C675.251501,307.284549 650.153867,231.446354 647.330499,211.694795 C641.805027,173.039997 641.047045,146.82904 645.056553,133.061926 L705.695107,221.719703 L710.621989,203.549558 L728.813555,216.080692 L728.813555,198.223826 L748.521085,216.080692 L748.521085,193.211372 L773.913479,211.694795 L773.913479,193.211372 L794,211.694795 C770.889745,161.364126 753.19336,125.301116 740.910845,103.505764 C722.487073,70.8127369 705.830732,40.8500914 693.915966,40.8500914 C682.0012,40.8500914 668.032439,35.9765669 615.843829,40.8500914 Z" id="Path-75" stroke="#000000" stroke-width="7" fill="#5890AB"></path>
                    <polygon id="Star" stroke="#000000" stroke-width="4" fill="#36B72B" points="367.927971 89.9451554 347.758399 102.106808 358.396158 86.9469835 335.292918 81.1564457 357.843185 79.3670711 347.911164 65.9597806 378.012757 79.3670711 400.563025 81.1564457 384.245498 89.8422525 377.936375 110.182815"></polygon>
                    <path d="M418.923169,393.510055 L418.923169,410" id="Line-3" stroke="#000000" stroke-width="3" stroke-linecap="square"></path>
                    <path d="M650.4509,362.02925 L661.507803,388.699035" id="Line-4" stroke="#000000" stroke-width="3" stroke-linecap="square"></path>
                    <path d="M36.2208884,171.270567 C36.2208884,173.769043 37.6506603,184.262645 40.5102041,202.751371 L40.5102041,226.361974 L36.2208884,238.354662 L47.6590636,230.859232 L51.4717887,235.731261 L51.4717887,206.873857 C58.7795118,223.863498 62.4333733,230.984156 62.4333733,228.235832 C62.4333733,225.487508 65.2929172,215.493601 71.0120048,198.254113 L76.7310924,238.354662 L87.2160864,233.482633 L91.5054022,241.727605 C95.6358543,226.486898 97.7010804,218.866545 97.7010804,218.866545 C97.7010804,218.866545 97.7010804,204.000609 97.7010804,174.268739 L87.2160864,96.691042 L47.6590636,96.691042 C40.0336134,143.912249 36.2208884,168.77209 36.2208884,171.270567 Z" id="Path-79" stroke="#000000" stroke-width="4" fill="url(#linearGradient-5)"></path>
                    <path d="M105.10259,107.934186 L28.067169,107.934186 L0,84.5851584 L0,57.271201 L21.4982571,44.4953177 L28.067169,52.865724 L21.4982571,65.2010596 L28.067169,76.2147521 L35.2332547,76.2147521 L40.607819,68.2848935 L44.7880357,44.4953177 L35.2332547,23.3490281 L21.4982571,17.1813603 L35.2332547,4.8460247 L60.9117285,17.1813603 L66.8834666,37.8871022 L60.9117285,60.7955826 L60.9117285,71.8092751 L71.0636833,71.8092751 L78.8269428,60.7955826 L89.5760714,44.4953177 L89.5760714,29.5166959 L78.8269428,13.216431 L66.8834666,4.8460247 L85.3958547,0 L97.3393309,4.8460247 L105.10259,13.216431 L107.491286,34.8032683 L107.491286,49.3413424 L97.3393309,60.7955826 L89.5760714,71.8092751 L105.10259,71.8092751 L113.463024,60.7955826 C121.425341,49.9287393 125.4065,44.4953177 125.4065,44.4953177 C125.4065,44.4953177 125.4065,37.5934037 125.4065,23.7895758 L119.434762,13.216431 L139.738671,13.216431 L148.696279,23.3490281 L148.696279,34.8032683 L139.738671,53.7468194 L125.4065,68.2848935 L119.434762,81.0607768 L125.4065,89.4311831 L125.4065,98.2421371 L105.10259,107.934186 Z" id="Path-80" stroke="#000000" stroke-width="4" fill="#36B72B"></path>
                    <polygon id="Path-82" stroke="#000000" stroke-width="4" fill="#36B72B" points="40.5102041 240.603291 47.182473 233.107861 61.9567827 233.107861 86.7394958 233.107861 81.9735894 245.47532 67.6758703 240.603291 54.8079232 245.47532 54.8079232 249.972578 91.5054022 249.972578 91.5054022 261.215722 54.8079232 261.215722 54.8079232 268.33638 75.3013205 268.33638 86.7394958 268.33638 86.7394958 277.705667 61.9567827 277.705667 40.0336134 273.583181"></polygon>
                    <path d="M633.865546,46.0968921 C608.496005,52.6561709 601.196587,60.3384712 617.184874,67.833638 C641.967587,79.4515539 680.094838,148.784278 696.77551,154.40585 C707.895958,158.153565 729.819128,158.153565 762.545018,154.40585 C750.286897,129.470441 740.755085,110.856791 733.94958,98.5648995 C728.417619,88.5732431 721.127355,74.2760125 708.213685,56.5904936 C706.231733,53.8761717 702.419008,49.7536854 696.77551,44.2230347 C678.571305,42.4617517 665.067903,41.7122087 656.265306,41.9744059 C647.462709,42.236603 639.996122,43.6107651 633.865546,46.0968921 Z" id="Path-83" fill="#4F839C"></path>
                    <path d="M640.061224,138.665448 C639.536073,156.548535 639.536073,169.665537 640.061224,178.016453 C640.586376,186.36737 641.69842,197.48559 643.397359,211.371115 C647.527811,236.355881 646.415766,255.094455 640.061224,267.586837 C630.529412,286.325411 604.539265,302.012963 591.92557,303.564899 C579.311875,305.116836 585.729892,276.206581 570.002401,276.206581 C554.27491,276.206581 482.786315,314.808044 503.279712,291.946984 C523.773109,269.085923 562.572171,254.168409 570.002401,238.354662 C577.432631,222.540914 549.756471,218.144317 547.12605,198.628885 C544.495629,179.113452 543.707248,173.630191 575.244898,153.281536 C596.269998,139.715765 617.87544,134.843736 640.061224,138.665448 Z" id="Path-84" fill="#4A839E"></path>
                </g>
            </g>
        </g>
    </g>
</svg>