<?xml version="1.0" encoding="UTF-8"?>
<svg width="349px" height="581px" viewBox="0 0 349 581" version="1.1" xmlns="http://www.w3.org/2000/svg" xmlns:xlink="http://www.w3.org/1999/xlink">
    <!-- Generator: Sketch 56.3 (81716) - https://sketch.com -->
    <title>Ice Cream</title>
    <desc>Created with Sketch.</desc>
    <defs>
        <linearGradient x1="36.637137%" y1="55.0551445%" x2="66.6954777%" y2="67.9585459%" id="linearGradient-1">
            <stop stop-color="#935200" offset="0%"></stop>
            <stop stop-color="#CF8300" offset="100%"></stop>
        </linearGradient>
        <linearGradient x1="21.4242971%" y1="77.4583392%" x2="75.9379518%" y2="22.1469984%" id="linearGradient-2">
            <stop stop-color="#632424" offset="0%"></stop>
            <stop stop-color="#FF0000" offset="100%"></stop>
        </linearGradient>
        <linearGradient x1="35.0210005%" y1="78.8346157%" x2="63.1440201%" y2="21.5731109%" id="linearGradient-3">
            <stop stop-color="#784500" offset="0.174197635%"></stop>
            <stop stop-color="#FFE38F" offset="100%"></stop>
        </linearGradient>
        <linearGradient x1="32.3765543%" y1="100%" x2="32.3765543%" y2="0%" id="linearGradient-4">
            <stop stop-color="#FFD784" offset="0%"></stop>
            <stop stop-color="#A56D25" offset="100%"></stop>
        </linearGradient>
        <linearGradient x1="32.3765543%" y1="100%" x2="32.3765543%" y2="0%" id="linearGradient-5">
            <stop stop-color="#FFD784" offset="0%"></stop>
            <stop stop-color="#A56D25" offset="100%"></stop>
        </linearGradient>
        <linearGradient x1="32.3765543%" y1="100%" x2="32.3765543%" y2="0%" id="linearGradient-6">
            <stop stop-color="#FFD784" offset="0%"></stop>
            <stop stop-color="#A56D25" offset="100%"></stop>
        </linearGradient>
        <linearGradient x1="32.3765543%" y1="100%" x2="32.3765543%" y2="0%" id="linearGradient-7">
            <stop stop-color="#FFD784" offset="0%"></stop>
            <stop stop-color="#A56D25" offset="100%"></stop>
        </linearGradient>
        <linearGradient x1="49.2457191%" y1="73.7130391%" x2="51.4767244%" y2="27.9434984%" id="linearGradient-8">
            <stop stop-color="#D88D27" offset="0%"></stop>
            <stop stop-color="#9A490E" offset="100%"></stop>
        </linearGradient>
        <linearGradient x1="50%" y1="0%" x2="50%" y2="100%" id="linearGradient-9">
            <stop stop-color="#D09191" offset="0%"></stop>
            <stop stop-color="#B96851" offset="100%"></stop>
        </linearGradient>
    </defs>
    <g id="Ice-Cream" stroke="none" stroke-width="1" fill="none" fill-rule="evenodd">
        <g id="Cone" transform="translate(60.000000, 225.000000)" stroke="#000000">
            <path d="M121,18 C135,18 171,120.666667 229,326 L13,326 C71,120.666667 107,18 121,18 Z" id="Triangle" stroke-width="3" fill="url(#linearGradient-1)" transform="translate(121.000000, 172.000000) scale(1, -1) translate(-121.000000, -172.000000) "></path>
            <path d="M35,0 C19.0395693,0.873446379 8.53956927,6.55972089 3.5,17.0588235 C-4.0593539,32.8074775 4.01905787,46.7346408 11,50 C17.9809421,53.2653592 31,34.9411765 45,36.4705882 C59,38 65.5,56.5 76.5,58 C87.5,59.5 91,50.5 95.5,52 C100,53.5 93.3263965,64.4028334 112,63.5 C120.189833,63.1040371 122.267938,57.3433941 150.5,53 C157,52 168.792822,66.7268797 178.5,65 C188.207178,63.2731203 189.271232,43.4409765 193.304635,46.3176994 C208.864024,57.4150419 220.929146,62.4758088 229.5,61.5 C245.688967,59.6568539 239,32.4117647 232.5,21 C228.166667,13.3921569 222.5,8.94117647 215.5,7.64705882 L35,0 Z" id="Path-207" stroke-width="2" fill="#FFCFA6"></path>
            <path d="M27,65 C69.4444444,75.3333333 101.277778,80.5 122.5,80.5 C143.722222,80.5 175.555556,75.3333333 218,65" id="Path-208" stroke-width="2"></path>
            <path d="M194.25,78 L115.75,301" id="Line-10" stroke-linecap="square"></path>
            <path d="M169,84 L105.5,265.5" id="Line" stroke-linecap="square"></path>
            <path d="M144.5,89.5 L92.25,236.25" id="Line" stroke-linecap="square"></path>
            <path d="M120.375,89.125 L80.5,201.5" id="Line" stroke-linecap="square"></path>
            <path d="M95.59375,89.03125 L65.90625,170.59375" id="Line" stroke-linecap="square"></path>
            <path d="M74.296875,88.984375 L58.203125,127.453125" id="Line" stroke-linecap="square"></path>
            <path d="M56.296875,83.984375 L47.5,100.5" id="Line" stroke-linecap="square"></path>
            <path d="M127.518987,77.5 L52,300.5" id="Line-10" stroke-linecap="square" transform="translate(90.000000, 189.000000) scale(1, -1) translate(-90.000000, -189.000000) "></path>
            <path d="M138,83.5 L77.4765625,265" id="Line" stroke-linecap="square" transform="translate(107.500000, 174.500000) scale(1, -1) translate(-107.500000, -174.500000) "></path>
            <path d="M151.754717,89 L100.490566,235.75" id="Line" stroke-linecap="square" transform="translate(126.000000, 162.250000) scale(1, -1) translate(-126.000000, -162.250000) "></path>
            <path d="M162.762195,88.625 L124.832317,201" id="Line" stroke-linecap="square" transform="translate(143.500000, 144.875000) scale(1, -1) translate(-143.500000, -144.875000) "></path>
            <path d="M176.75,88.53125 L147.0625,170.09375" id="Line" stroke-linecap="square" transform="translate(162.000000, 129.281250) scale(1, -1) translate(-162.000000, -129.281250) "></path>
            <path d="M183.764706,88.484375 L168.617647,126.953125" id="Line" stroke-linecap="square" transform="translate(176.000000, 107.734375) scale(1, -1) translate(-176.000000, -107.734375) "></path>
            <path d="M194.75,83.484375 L185.953125,100" id="Line" stroke-linecap="square" transform="translate(190.000000, 91.734375) scale(1, -1) translate(-190.000000, -91.734375) "></path>
        </g>
        <g id="Cat" transform="translate(17.000000, 34.000000)">
            <path d="M47,128 C64.1208272,128 78,116.583261 78,102.5 C78,98.2216558 72.7635262,100.040847 70.5,96.5 C65.3125523,88.3852469 58.919703,77 47,77 C29.8791728,77 16,88.4167389 16,102.5 C16,116.583261 29.8791728,128 47,128 Z" id="Oval" stroke="#000000" stroke-width="2" fill="url(#linearGradient-2)"></path>
            <circle id="Oval" fill-opacity="0.4" fill="#FFFFFF" cx="46.5" cy="91.5" r="4.5"></circle>
            <ellipse id="Oval" fill-opacity="0.4" fill="#FFFFFF" cx="51.5" cy="104" rx="2.5" ry="2"></ellipse>
            <path d="M73.3322023,207.779331 C78.0266227,207.779331 85.9540658,199.496613 85.9540658,192.040768 C85.9540658,184.584924 78.0266227,180.779331 73.3322023,180.779331 C68.6377819,180.779331 58.9521612,183.637748 58.9521612,191.093592 C58.9521612,198.549436 68.6377819,207.779331 73.3322023,207.779331 Z" id="Oval" stroke="#000000" stroke-width="2" fill="#7D4A05" transform="translate(72.453113, 194.279331) rotate(49.000000) translate(-72.453113, -194.279331) "></path>
            <path d="M152.380041,241 C157.074462,241 165.001905,232.717281 165.001905,225.261437 C165.001905,217.805593 157.074462,214 152.380041,214 C147.685621,214 138,216.858416 138,224.31426 C138,231.770105 147.685621,241 152.380041,241 Z" id="Oval" stroke="#000000" stroke-width="2" fill="#7D4A05" transform="translate(151.500952, 227.500000) rotate(-9.000000) translate(-151.500952, -227.500000) "></path>
            <path d="M219.613194,238.469154 C225.350414,238.469154 235.038828,230.186436 235.038828,222.730592 C235.038828,215.274747 225.350414,211.469154 219.613194,211.469154 C213.875974,211.469154 202.038828,214.327571 202.038828,221.783415 C202.038828,229.239259 213.875974,238.469154 219.613194,238.469154 Z" id="Oval" stroke="#000000" stroke-width="2" fill="#7D4A05" transform="translate(218.538828, 224.969154) rotate(-9.000000) translate(-218.538828, -224.969154) "></path>
            <path d="M271,146 C272.357421,134.81272 272.857421,126.979387 272.5,122.5 C271.170305,105.835557 266.038392,96.1130774 262,93.5 C256.333333,89.8333333 252.666667,93.3333333 251,104" id="Path-4" stroke="#000000" stroke-width="4" fill="#E2C171"></path>
            <path d="M157,229 C217,231.5 272.5,214.929485 272.5,165.5 C272.5,116.070515 219.408177,51 157,51 C94.5918233,51 49,91.0705149 49,140.5 C49,189.929485 97,226.5 157,229 Z" id="Oval" stroke="#000000" stroke-width="5" fill="url(#linearGradient-3)"></path>
            <path d="M229.5,216.5 C260.241862,206.002779 272.5,184 269.563065,159.541734 C258.940491,151.080794 245.333531,146 230.5,146 C196.534488,146 173.788913,173.252662 167,205.5 C165,215 164.5,226 164.5,226 C198,225 209,223.5 229.5,216.5 Z" id="Oval" fill="#E6CFAB"></path>
            <path d="M209.870943,187.519599 C217.050645,187.519599 222.870943,185.281023 222.870943,182.519599 C222.870943,179.758175 216.231011,176.885197 209.051309,176.885197 C201.871607,176.885197 196.870943,179.758175 196.870943,182.519599 C196.870943,185.281023 202.691241,187.519599 209.870943,187.519599 Z" id="Oval" fill="#FFA26E" transform="translate(209.870943, 182.202398) rotate(-6.000000) translate(-209.870943, -182.202398) "></path>
            <path d="M261,187 C262.63318,187 264.19602,186.869294 265.636015,186.63067 C266.878672,183.87689 267.5,182.333333 267.5,182 C268.166667,179.666667 268.625416,177.87225 268.876248,176.616751 C266.437488,175.636601 263.361923,175 260.180366,175 C253.000664,175 248,178.241907 248,181.357934 C248,184.473961 253.820298,187 261,187 Z" id="Oval" fill="#FFA26E"></path>
            <ellipse id="Oval" fill="#874900" cx="259.5" cy="162" rx="8.5" ry="9"></ellipse>
            <ellipse id="Oval" fill="#874900" cx="208.5" cy="168" rx="8.5" ry="9"></ellipse>
            <path d="M110.737117,216.574722 C119.353648,218.125621 128.874433,218.828157 139.299469,218.682331 C143.120941,218.487 144.983515,218.431878 144.887193,218.516964 C144.887193,204.709846 129.469976,193.822232 111.034798,192.666446 C99.4561938,191.940531 89.0494231,196.307629 79.8144852,205.76774 L87.212003,209.307052 C94.2788806,212.601266 102.120585,215.023823 110.737117,216.574722 Z" id="Oval" fill-opacity="0.4" fill="#DFC198" transform="translate(112.352615, 205.644989) rotate(12.000000) translate(-112.352615, -205.644989) "></path>
            <path d="M99,92 L90,109 C87.2988877,114.312225 84.9655544,119.645559 83,125 C80.0516684,133.031662 77.5,143 76.5,150.5 C75.5,158 78,174 76.5,175 C75,176 71.8448616,171.54093 69.5,165 C67.1551384,158.45907 67,152.5 67,147 C67,141.5 74,121 76.5,116 C79,111 86.5,99.5 90,96.5 C92.3333333,94.5 95.3333333,93 99,92 Z" id="Path-205" fill-opacity="0.6" fill="url(#linearGradient-4)"></path>
            <path d="M122.555761,105.516504 L113.555761,124.737073 C109.062926,130.283983 105.833732,136.084361 103.868177,142.138209 C100.919846,151.21898 101.051005,163.448926 100.051005,171.928589 C99.0510049,180.408252 104.238589,199.187011 102.738589,200.317633 C101.238589,201.448254 98.0834504,196.406733 95.7385888,189.011416 C93.3937273,181.616099 90.5510049,174.189832 90.5510049,167.971413 C90.5510049,161.752993 94.8681773,137.615722 97.3681773,131.962613 C99.8681773,126.309505 110.055761,113.996167 113.555761,110.604302 C115.889095,108.343058 118.889095,106.647126 122.555761,105.516504 Z" id="Path-205" fill-opacity="0.6" fill="url(#linearGradient-5)" transform="translate(106.553383, 152.996267) rotate(7.000000) translate(-106.553383, -152.996267) "></path>
            <path d="M136.606395,101.837143 L127.606395,121.057713 C129.777715,130.996641 129.880597,138.993029 127.915043,145.046876 C124.966712,154.127648 125.097871,166.357593 124.097871,174.837256 C123.097871,183.316919 125.491117,199.432879 123.991117,200.5635 C122.491117,201.694122 119.597347,198.207364 117.252485,190.812047 C114.907624,183.41673 114.597871,177.0985 114.597871,170.88008 C114.597871,164.661661 118.915043,140.524389 121.415043,134.871281 C123.915043,129.218172 124.106395,110.316806 127.606395,106.924941 C129.939729,104.663698 132.939729,102.967765 136.606395,101.837143 Z" id="Path-205" fill-opacity="0.6" fill="url(#linearGradient-6)" transform="translate(125.602133, 151.304799) rotate(7.000000) translate(-125.602133, -151.304799) "></path>
            <path d="M163.096547,116.095594 L164.619914,128.502421 C157.361904,143.059608 152.750121,153.365125 150.784567,159.418973 C147.836236,168.499744 145.430936,180.072157 144.430936,188.55182 C143.430936,197.031483 145.824183,213.147442 144.324183,214.278064 C142.824183,215.408685 141.122122,212.619034 138.777261,205.223717 C136.432399,197.8284 136.339874,191.591214 136.339874,185.372794 C136.339874,179.154375 139.248109,154.238953 141.748109,148.585844 C144.248109,142.932736 155.556632,123.509783 159.056632,120.117918 C161.389965,117.856674 162.736604,116.5159 163.096547,116.095594 Z" id="Path-205" fill-opacity="0.6" fill="url(#linearGradient-7)" transform="translate(150.479894, 165.308099) rotate(7.000000) translate(-150.479894, -165.308099) "></path>
            <path d="M223.5,179 C228.103546,181.54612 231.436879,182.54612 233.5,182 C235.563121,181.45388 237.896454,178.95388 240.5,174.5 C242.611421,177.150263 244.611421,178.650263 246.5,179 C248.388579,179.349737 250.888579,178.68307 254,177" id="Path" stroke="#874900" stroke-width="2"></path>
            <path d="M272.5,175 C281.23393,172.880835 287.23393,171.714169 290.5,171.5 C293.76607,171.285831 300.599404,171.285831 311,171.5 C301.422213,172.079086 294.588879,172.579086 290.5,173 C286.411121,173.420914 280.411121,174.087581 272.5,175 Z" id="Path" stroke="#874900" stroke-width="2"></path>
            <path d="M265,195 C271.351949,192.684369 275.715585,191.409542 278.090909,191.175518 C280.466233,190.941494 285.43593,190.941494 293,191.175518 C286.034336,191.80829 281.064639,192.354645 278.090909,192.814582 C275.117179,193.274518 270.753542,194.002991 265,195 Z" id="Path" stroke="#874900" stroke-width="2"></path>
            <path d="M171,204 C177.351949,201.684369 181.715585,200.409542 184.090909,200.175518 C186.466233,199.941494 191.43593,199.941494 199,200.175518 C192.034336,200.80829 187.064639,201.354645 184.090909,201.814582 C181.117179,202.274518 176.753542,203.002991 171,204 Z" id="Path" stroke="#874900" stroke-width="2"></path>
            <path d="M180,188 C183.87044,187.017703 186.653989,186.409542 188.350649,186.175518 C190.047309,185.941494 193.597093,185.941494 199,186.175518 C194.024526,186.80829 190.474742,187.354645 188.350649,187.814582 C186.226556,188.274518 183.443006,188.336324 180,188 Z" id="Path" stroke="#874900" stroke-width="2"></path>
            <path d="M59,102.5 C69.5611574,100.943449 76.727824,100.443449 80.5,101 C86.1582639,101.834826 87,102.5 89.5,105.5 C92,108.5 92,106.52355 92,122 C92,137.47645 88.733424,148.948098 89.5,153 C90.266576,157.051902 94.5565502,159.588499 98,160.5 C101.44345,161.411501 104.5,160 106.5,157.5 C108.5,155 105.690472,128.476227 106.5,122 C107.309528,115.523773 109.419555,111.493229 112.5,109.5 C115.580445,107.506771 119.614848,107.264277 123.5,111 C127.385152,114.735723 125.5,122.5 125.5,126 C125.5,129.5 125.5,137 128,140.5 C130.5,144 133.865865,143.048289 134,143 C134.134135,142.951711 138.10623,142.326393 140.5,136 C142.89377,129.673607 139.29583,126.515637 140.5,122 C141.70417,117.484363 143.157267,115.538155 146,113 C148.842733,110.461845 151.5,109.5 154.5,109.5 C157.5,109.5 161,113.5 162,117.5 C163,121.5 164.018415,160.421464 164.5,165.5 C164.981585,170.578536 167,179 176,178.5 C185,178 186.164941,175.008512 185,162 C183.835059,148.991488 183,140.5 182,136 C181,131.5 181.87776,124.669034 181,119.5 C180.12224,114.330966 180,100.5 182,96.5 C183.091422,94.3171552 186.662477,90.487902 190.5,88 C193.694627,85.9288934 197.329798,84.9659595 197.5,85 C202.968242,86.0936484 208.134909,90.9269818 213,99.5 L219,117.5 C220.666667,123.833333 221.5,127.333333 221.5,128 C221.5,129 220,151 220,154 C220,157 221.5,167.5 231,162 C237.333333,158.333333 239.166667,152 236.5,143 C235.833333,138.333333 235.5,135 235.5,133 C235.5,130 236.5,117.5 236.5,117.5 C236.5,117.5 237.81108,107.928202 240,113.5 C242.18892,119.071798 241.091525,129.853389 242,131.5 C242.908475,133.146611 245.504776,132.657752 248,128 C249.663483,124.894832 250.163483,121.394832 249.5,117.5 L251,109.5 C244.574287,98.4076208 237.907621,89.4076208 231,82.5 C220.638569,72.1385689 212.59867,68.4473593 205.5,64 C198.40133,59.5526407 201.272269,60.2326706 189.5,56.5 C177.727731,52.7673294 164.5,50.9994633 164.5,50.9994633 C164.5,50.9994633 147.90215,50.9264938 137,52.5 C126.09785,54.0735062 124.740142,55.3549571 116,58 C107.259858,60.6450429 99,64 99,64 C99,64 88.5192803,70.0728198 83,74 C77.4807197,77.9271802 77.5161867,77.9838133 73,82.5 C69.9892088,85.5107912 67.3225422,88.6774578 65,92 L59,102.5 Z" id="Path-2" stroke="#000000" stroke-width="2" fill="url(#linearGradient-8)"></path>
            <path d="M189.5,141.5 C185.234147,129.837402 182.56748,121.337402 181.5,116 C179,103.5 185,86 195.5,86 C206,86 212.427173,95.4850304 217,108.5 C220.048551,117.176646 219.048551,128.176646 214,141.5" id="Path-3" stroke="#000000" stroke-width="4"></path>
            <ellipse id="Oval" fill="url(#linearGradient-9)" transform="translate(198.000000, 114.500000) rotate(-4.000000) translate(-198.000000, -114.500000) " cx="198" cy="114.5" rx="7" ry="20.5"></ellipse>
            <path d="M114.5,42.5 C107.179419,43.1817283 102.012753,44.0150616 99,45 C95.9872474,45.9849384 92.4872474,47.9849384 88.5,51 C87.3543439,58.677463 88.3543439,64.177463 91.5,67.5 C107.496151,84.3956183 117,90 130.5,93.5 C144,97 149.479619,97.2014759 180,94.5 C190.807115,93.5434208 210.473782,90.0434208 239,84 C243.503837,81.807864 246.503837,79.807864 248,78 C249.496163,76.192136 250.496163,73.3588027 251,69.5 C249.440714,63.2309767 245.940714,58.5643101 240.5,55.5 C235.059286,52.4356899 224.059286,48.9356899 207.5,45 C205.265806,40.430248 203.432473,37.2635814 202,35.5 C198.262149,30.8981658 193.581006,27.8720038 190.5,26 C185.647872,23.0518717 177.814539,21.3852051 167,21 C164.333333,18 163.5,15.8333333 164.5,14.5 C166,12.5 170.890807,9.58997047 178,10 C183.995556,10.3457995 192.141269,15.6386368 194,16.5 C198.06271,18.3827193 182.5,24 185,24 C187.5,24 204,18.5 204,16.5 C204,14.5 208.742702,13.0866628 200,8 C191.257298,2.91333725 182.5,0.5 176.5,0.5 C170.5,0.5 164.551012,0.267179553 157.5,2.5 C150.448988,4.73282045 148.5,5.5 146.5,10 C145.166667,13 146.5,16.6666667 150.5,21 C145.221755,21.2333044 139.888422,22.2333044 134.5,24 C126.417368,26.6500434 125.237698,26.155129 120,31 C116.508201,34.229914 114.674868,38.0632474 114.5,42.5 Z" id="Path-5" stroke="#000000" stroke-width="2" fill="#FFCFA6"></path>
            <path d="M132.5,51 C145.914684,54.3147267 156.581351,56.14806 164.5,56.5 C172.418649,56.85194 184.251982,56.0186066 200,54" id="Path-206" stroke="#000000" stroke-width="2"></path>
            <path d="M220.5,50 C195.857143,58.5355466 176.357143,62.7022133 162,62.5 C147.642857,62.2977867 130.809524,57.6311201 111.5,48.5 C123.072995,65.9178572 137.239662,75.2511905 154,76.5 C170.760338,77.7488095 199.927005,71.5821428 241.5,58 C239.506572,56.8280403 238.006572,55.9947069 237,55.5 C233.577762,53.8180489 229.935279,52.6289656 228,52 C225.210895,51.0935409 222.710895,50.4268742 220.5,50 Z" id="Path-6" fill="#E3E3E3"></path>
            <path d="M202,37 C195.596617,41.1077997 188.92995,43.4411331 182,44 C175.07005,44.5588669 160.403383,43.7255336 138,41.5 C144.754415,38.733444 149.254415,36.4001107 151.5,34.5 C153.745585,32.5998893 155.745585,29.4332227 157.5,25 C155.435579,18.4437391 155.768912,13.6104057 158.5,10.5 C161.231088,7.38959427 166.897755,5.38959427 175.5,4.5 C180.649397,4.96461563 184.149397,5.46461563 186,6 C192.916035,8.00082795 196.309708,10.6210481 198,11.5 C200.368728,12.7317386 201.202061,14.7317386 200.5,17.5 L192.5,21 L196,17 C191.968358,14.4589995 189.135024,12.7923328 187.5,12 C182.636075,9.64294191 179.386389,9 178.5,9 C176.5,9 172.19035,9.63524452 169.5,10.5 C166.80965,11.3647555 165.98447,11.62972 164.5,13 C163.01553,14.37028 163,15.5 163,16.5 C163,17.1666667 164.166667,19 166.5,22 C170.243034,22.0283379 173.243034,22.1950046 175.5,22.5 C177.756966,22.8049954 180.923633,23.4716621 185,24.5 C189.032494,26.4445055 192.032494,28.1111722 194,29.5 C195.967506,30.8888278 198.634173,33.3888278 202,37 Z" id="Path-7" fill="#E1E1E1"></path>
            <path d="M26.5,82 C20.1243281,81.6009025 15.4576615,80.7675692 12.5,79.5 C9.54233853,78.2324308 6.04233853,75.5657641 2,71.5 C1.14689421,69.5787485 0.646894208,68.0787485 0.5,67 C-0.00765904477,63.2718991 1.55980815,57.8297972 4.5,55.5 C5.41138222,54.7778241 7.74471555,54.1111574 11.5,53.5 C15.280415,53.357905 18.4470817,53.857905 21,55 C23.5529183,56.142095 26.5529183,58.142095 30,61" id="Path-8" stroke="#000000" stroke-width="2"></path>
        </g>
    </g>
</svg>