<?xml version="1.0" encoding="UTF-8"?>
<svg width="655px" height="1051px" viewBox="0 0 655 1051" version="1.1" xmlns="http://www.w3.org/2000/svg" xmlns:xlink="http://www.w3.org/1999/xlink">
    <!-- Generator: Sketch 56.3 (81716) - https://sketch.com -->
    <title>Logo</title>
    <desc>Created with Sketch.</desc>
    <g id="Page-1" stroke="none" stroke-width="1" fill="none" fill-rule="evenodd">
        <g id="Logo" transform="translate(-1.000000, 3.000000)">
            <g id="Banner">
                <polygon id="Path-9" stroke="#FFFFFF" stroke-width="5" fill="#303841" points="87 761.5 579 761.5 579 1043.5 333 896.552109 87 1043.5"></polygon>
                <path d="M7.6171875,685.566406 C7.29166504,684.850257 6.96614746,684.16667 6.640625,683.515625 C6.31510254,682.86458 5.98958496,682.278648 5.6640625,681.757812 C4.88280859,680.195305 4.19922168,678.795579 3.61328125,677.558594 C3.02734082,676.321608 2.47396094,674.889331 1.953125,673.261719 C2.14843848,672.154942 2.49023193,670.299492 2.97851562,667.695312 C3.46679932,665.091133 4.03645508,662.242854 4.6875,659.150391 C5.33854492,656.057927 6.03840771,652.916683 6.78710938,649.726562 C7.53581104,646.536442 8.30077734,643.802095 9.08203125,641.523438 C9.79818066,639.505198 10.5956987,637.356782 11.4746094,635.078125 C12.35352,632.799468 13.3300728,630.699879 14.4042969,628.779297 C15.478521,626.858714 16.6341084,625.214851 17.8710938,623.847656 C19.1080791,622.480462 20.4427012,621.666668 21.875,621.40625 C22.265627,621.927086 22.6887998,622.333983 23.1445312,622.626953 C23.6002627,622.919923 24.0234355,623.13151 24.4140625,623.261719 C25.5208389,624.824227 26.5950469,626.142573 27.6367187,627.216797 C28.6783906,628.291021 29.9153574,629.348953 31.3476562,630.390625 C30.9570293,632.34376 30.3873735,634.508452 29.6386719,636.884766 C28.8899702,639.26108 28.108728,641.653634 27.2949219,644.0625 C26.4811157,646.471366 25.6835977,648.798817 24.9023438,651.044922 C24.1210898,653.291027 23.5026064,655.227856 23.046875,656.855469 C22.656248,658.157559 22.265627,659.654939 21.875,661.347656 C21.5494775,662.779955 21.2076841,664.505198 20.8496094,666.523438 C20.4915347,668.541677 20.1497412,670.755196 19.8242188,673.164062 C20.7356816,672.903645 21.761062,672.382816 22.9003906,671.601562 C24.0397192,670.820309 25.0976514,670.006515 26.0742188,669.160156 C27.2460996,668.183589 28.3854111,667.141933 29.4921875,666.035156 C30.9895908,664.537753 32.2591094,663.170579 33.3007812,661.933594 C34.3424531,660.696608 35.30273,659.410814 36.1816406,658.076172 C37.0605513,656.74153 37.9720005,655.276701 38.9160156,653.681641 C39.8600308,652.086581 40.9830664,650.182303 42.2851562,647.96875 C43.4570371,646.08072 44.677728,644.062511 45.9472656,641.914062 C47.2168032,639.765614 48.5025977,637.714854 49.8046875,635.761719 C51.1067773,633.808584 52.3762959,632.001961 53.6132812,630.341797 C54.8502666,628.681632 55.9895781,627.395838 57.03125,626.484375 C57.7473994,627.200524 58.5774692,627.949215 59.5214844,628.730469 C60.4654995,629.511723 61.4908799,630.065103 62.5976562,630.390625 C63.0533877,631.106774 63.4928364,631.741534 63.9160156,632.294922 C64.3391948,632.84831 64.7460918,633.385414 65.1367188,633.90625 C65.6575547,634.622399 66.1295552,635.273435 66.5527344,635.859375 C66.9759136,636.445315 67.3502588,637.096351 67.6757812,637.8125 C67.6106768,638.333336 67.4967456,639.016923 67.3339844,639.863281 C67.1712231,640.70964 66.9921885,641.637365 66.796875,642.646484 C66.6015615,643.655604 66.3899751,644.680984 66.1621094,645.722656 C65.9342437,646.764328 65.7226572,647.773433 65.5273438,648.75 C64.8762988,651.679702 64.3880225,653.893222 64.0625,655.390625 C63.7369775,656.888028 63.5091152,658.059892 63.3789062,658.90625 C63.2486973,659.752608 63.1673179,660.468747 63.1347656,661.054688 C63.1022134,661.640628 63.0859375,662.454422 63.0859375,663.496094 C63.0859375,664.277348 63.151041,665.05859 63.28125,665.839844 C63.411459,666.555993 63.5579419,667.288408 63.7207031,668.037109 C63.8834644,668.785811 64.1927061,669.485674 64.6484375,670.136719 L69.3359375,666.523438 C70.6380273,665.54687 71.89127,664.16342 73.0957031,662.373047 C74.3001362,660.582673 75.4719995,658.531913 76.6113281,656.220703 C77.7506567,653.909494 78.8736924,651.403008 79.9804688,648.701172 C81.0872451,645.999335 82.1940049,643.21616 83.3007812,640.351562 C84.0820352,638.268219 84.8795532,636.201182 85.6933594,634.150391 C86.5071655,632.099599 87.3372354,630.146494 88.1835938,628.291016 C89.0299521,626.435538 89.860022,624.742846 90.6738281,623.212891 C91.4876343,621.682935 92.2851523,620.397141 93.0664062,619.355469 C94.8242275,620.462245 96.3378843,621.569005 97.6074219,622.675781 C98.8769595,623.782558 99.9837192,625.003249 100.927734,626.337891 C101.87175,627.672533 102.62044,629.202465 103.173828,630.927734 C103.727216,632.653003 104.134113,634.687488 104.394531,637.03125 C102.962232,639.765639 101.62761,642.56509 100.390625,645.429688 C99.1536396,648.294285 97.9166729,651.191392 96.6796875,654.121094 C95.1171797,657.897154 93.5058677,661.656882 91.8457031,665.400391 C90.1855386,669.143899 88.3463643,672.708316 86.328125,676.09375 C84.3098857,679.479184 82.0475386,682.587876 79.5410156,685.419922 C77.0344927,688.251967 74.1536621,690.644521 70.8984375,692.597656 C69.9869746,692.402343 69.2057324,692.304688 68.5546875,692.304688 C67.8385381,692.304688 67.2363306,692.402343 66.7480469,692.597656 C66.2597632,692.79297 65.8203145,693.053384 65.4296875,693.378906 C62.7604033,692.141921 60.6119873,690.302747 58.984375,687.861328 C57.3567627,685.41991 55.7617266,682.701838 54.1992188,679.707031 C54.0039053,679.2513 53.7923188,678.811851 53.5644531,678.388672 C53.3365874,677.965493 53.0924492,677.526044 52.8320312,677.070312 L51.171875,674.042969 L50.1953125,672.1875 L48.828125,673.457031 L46.7773438,675.3125 L45.6054688,676.484375 C43.5872295,678.372405 41.5364687,680.21158 39.453125,682.001953 C37.3697813,683.792327 35.1888135,685.419915 32.9101562,686.884766 C30.631499,688.349617 28.2063931,689.537756 25.6347656,690.449219 C23.0631382,691.360682 20.3125146,691.848958 17.3828125,691.914062 C16.8619766,691.653645 16.3899761,691.425782 15.9667969,691.230469 C15.5436177,691.035155 15.1367207,690.839845 14.7460938,690.644531 C13.2486904,689.928382 12.0117236,689.244795 11.0351562,688.59375 C10.0585889,687.942705 8.91927734,686.933601 7.6171875,685.566406 Z M153.90625,637.519531 C153.971354,637.975263 153.98763,638.317056 153.955078,638.544922 C153.922526,638.772788 153.889974,638.984374 153.857422,639.179688 C153.82487,639.375001 153.808594,639.586587 153.808594,639.814453 C153.808594,640.042319 153.873697,640.384112 154.003906,640.839844 C152.636712,643.053396 151.057952,644.567053 149.267578,645.380859 C147.477205,646.194666 145.540375,646.780597 143.457031,647.138672 C141.373687,647.496747 139.241547,647.871092 137.060547,648.261719 C134.879546,648.652346 132.714854,649.498691 130.566406,650.800781 C129.720048,650.475259 128.955082,650.475259 128.271484,650.800781 C127.587887,651.126304 126.595059,651.223959 125.292969,651.09375 C124.902342,651.484377 124.414065,651.761067 123.828125,651.923828 C123.242185,652.086589 122.656253,652.265624 122.070312,652.460938 C122.33073,653.046878 122.444662,653.649085 122.412109,654.267578 C122.379557,654.886071 122.460937,655.390623 122.65625,655.78125 C124.934907,655.976563 127.457668,655.944012 130.224609,655.683594 C132.99155,655.423176 135.709622,655.260417 138.378906,655.195312 C138.444011,655.520835 138.411459,655.732421 138.28125,655.830078 C138.151041,655.927735 138.118489,656.10677 138.183594,656.367188 C138.639325,656.69271 139.09505,657.099607 139.550781,657.587891 C140.006513,658.076174 140.462237,658.548175 140.917969,659.003906 C141.3737,659.459638 141.845701,659.833983 142.333984,660.126953 C142.822268,660.419923 143.391924,660.533854 144.042969,660.46875 C144.303387,660.989586 144.482421,661.559242 144.580078,662.177734 C144.677735,662.796227 144.596355,663.430986 144.335938,664.082031 C143.294266,664.798181 142.252609,665.530595 141.210938,666.279297 C140.169266,667.027999 139.078782,667.69531 137.939453,668.28125 C136.800125,668.86719 135.595709,669.339191 134.326172,669.697266 C133.056634,670.05534 131.640633,670.201823 130.078125,670.136719 L129.345703,670.136719 C129.182942,670.136719 128.971355,670.039063 128.710938,669.84375 C128.190102,670.169272 127.457687,670.266928 126.513672,670.136719 C125.569657,670.00651 124.837242,670.104165 124.316406,670.429688 C123.600257,670.104165 122.737635,669.957682 121.728516,669.990234 C120.719396,670.022787 119.824223,669.908855 119.042969,669.648438 C118.001297,671.015632 117.057296,672.480461 116.210938,674.042969 C115.364579,675.605477 114.615889,677.265616 113.964844,679.023438 C116.178396,679.34896 118.017571,679.479167 119.482422,679.414062 C120.947273,679.348958 122.330723,679.235027 123.632812,679.072266 C124.934902,678.909504 126.269524,678.746746 127.636719,678.583984 C129.003913,678.421223 130.729156,678.372396 132.8125,678.4375 C134.11459,677.721351 135.660798,677.24935 137.451172,677.021484 C139.241545,676.793619 140.885409,676.419273 142.382812,675.898438 C142.903648,676.093751 143.359373,676.435544 143.75,676.923828 C144.140627,677.412112 144.514972,677.867836 144.873047,678.291016 C145.231122,678.714195 145.605467,679.08854 145.996094,679.414062 C146.386721,679.739585 146.874997,679.869792 147.460938,679.804688 C147.721355,680.065105 147.90039,680.374347 147.998047,680.732422 C148.095704,681.090497 148.177083,681.43229 148.242188,681.757812 C148.307292,682.083335 148.421223,682.360025 148.583984,682.587891 C148.746746,682.815756 149.023436,682.897136 149.414062,682.832031 C148.437495,684.980479 147.314459,686.624343 146.044922,687.763672 C144.775384,688.903 143.326831,689.765622 141.699219,690.351562 C140.071606,690.937503 138.264984,691.393228 136.279297,691.71875 C134.29361,692.044272 132.096366,692.434894 129.6875,692.890625 C129.10156,693.020834 128.613283,693.004558 128.222656,692.841797 C127.832029,692.679036 127.376305,692.597656 126.855469,692.597656 C125.358065,692.923179 123.567719,693.216145 121.484375,693.476562 C119.401031,693.73698 117.285167,693.834636 115.136719,693.769531 C112.988271,693.704427 110.93751,693.427737 108.984375,692.939453 C107.03124,692.451169 105.436204,691.588548 104.199219,690.351562 C103.678383,689.895831 103.336589,689.358727 103.173828,688.740234 C103.011067,688.121742 102.571618,687.649741 101.855469,687.324219 C101.790364,686.47786 101.660157,685.533859 101.464844,684.492188 C101.26953,683.450516 101.07422,682.360032 100.878906,681.220703 C100.683593,680.081375 100.53711,678.958339 100.439453,677.851562 C100.341796,676.744786 100.390625,675.735682 100.585938,674.824219 C100.781251,673.847651 101.188148,672.968754 101.806641,672.1875 C102.425133,671.406246 102.63672,670.5599 102.441406,669.648438 C102.766929,669.583333 102.962239,669.404298 103.027344,669.111328 C103.092448,668.818358 103.352862,668.704427 103.808594,668.769531 C104.199221,667.59765 104.622394,666.490891 105.078125,665.449219 C105.533856,664.407547 106.005857,663.398442 106.494141,662.421875 C106.982424,661.445308 107.470701,660.452479 107.958984,659.443359 C108.447268,658.43424 108.919269,657.311204 109.375,656.074219 C108.463537,655.22786 107.796226,654.300135 107.373047,653.291016 C106.949868,652.281896 106.640626,651.272792 106.445312,650.263672 C106.249999,649.254552 106.08724,648.212896 105.957031,647.138672 C105.826822,646.064448 105.59896,644.973964 105.273438,643.867188 C105.924482,642.89062 106.722,642.093102 107.666016,641.474609 C108.610031,640.856117 109.635411,640.351564 110.742188,639.960938 C111.848964,639.570311 113.053379,639.244793 114.355469,638.984375 C115.657559,638.723957 117.024732,638.430991 118.457031,638.105469 C121.061211,637.25911 123.388662,636.608075 125.439453,636.152344 C127.490245,635.696612 129.508454,635.322267 131.494141,635.029297 C133.479828,634.736327 135.546864,634.459637 137.695312,634.199219 C139.843761,633.938801 142.285143,633.54818 145.019531,633.027344 C145.605472,633.613284 146.158852,633.90625 146.679688,633.90625 C146.940105,633.32031 147.249347,633.141275 147.607422,633.369141 C147.965497,633.597006 148.111979,633.417972 148.046875,632.832031 C148.69792,633.938808 149.52799,634.866533 150.537109,635.615234 C151.546229,636.363936 152.669265,636.998695 153.90625,637.519531 Z M205.175781,676.582031 C205.566408,676.777345 205.794271,677.102862 205.859375,677.558594 C205.924479,678.014325 205.924479,678.372395 205.859375,678.632812 C204.687494,680.130216 203.8737,681.171872 203.417969,681.757812 C202.962237,682.343753 202.63672,682.783202 202.441406,683.076172 C202.246093,683.369142 202.034506,683.61328 201.806641,683.808594 C201.578775,684.003907 201.074223,684.42708 200.292969,685.078125 C197.363267,686.835946 194.352229,688.398431 191.259766,689.765625 C188.167302,691.132819 184.928402,692.07682 181.542969,692.597656 C181.022133,693.313806 180.029304,693.818358 178.564453,694.111328 C177.099602,694.404298 175.748704,694.680988 174.511719,694.941406 C174.251301,694.811197 174.104818,694.632163 174.072266,694.404297 C174.039713,694.176431 173.89323,693.997396 173.632812,693.867188 C173.567708,694.518232 173.274742,694.860026 172.753906,694.892578 C172.23307,694.92513 171.598311,694.794923 170.849609,694.501953 C170.100908,694.208983 169.319666,693.818362 168.505859,693.330078 C167.692053,692.841794 166.99219,692.402346 166.40625,692.011719 C166.080728,692.532555 165.738934,693.053383 165.380859,693.574219 C165.022785,694.095055 164.583336,694.453124 164.0625,694.648438 L162.451172,694.355469 C162.093097,694.290364 161.751304,694.420571 161.425781,694.746094 C161.035156,694.55078 160.725913,694.322918 160.498047,694.0625 C160.270181,693.802082 160.042319,693.557944 159.814453,693.330078 C159.586587,693.102212 159.326173,692.890626 159.033203,692.695312 C158.740233,692.499999 158.333336,692.33724 157.8125,692.207031 C157.942709,691.946613 157.877605,691.539716 157.617188,690.986328 C157.35677,690.43294 156.966148,690.091146 156.445312,689.960938 C156.70573,689.505206 156.591799,688.93555 156.103516,688.251953 C155.615232,687.568356 155.240887,686.80339 154.980469,685.957031 C155.110678,685.240882 155.208333,684.45964 155.273438,683.613281 C155.338542,682.766923 155.729163,682.278646 156.445312,682.148438 C156.380208,681.692706 156.282553,681.302085 156.152344,680.976562 L155.761719,680 C156.21745,679.609373 156.542968,679.137373 156.738281,678.583984 C156.933595,678.030596 157.096354,677.46094 157.226562,676.875 C157.356771,676.28906 157.51953,675.703128 157.714844,675.117188 C157.910157,674.531247 158.268227,674.042971 158.789062,673.652344 C159.375003,671.699209 159.830728,670.250656 160.15625,669.306641 C160.481772,668.362625 160.725911,667.4349 160.888672,666.523438 C161.051433,665.611975 161.246744,664.635422 161.474609,663.59375 C161.702475,662.552078 162.109372,661.250008 162.695312,659.6875 C162.630208,658.710933 162.727863,657.848311 162.988281,657.099609 C163.248699,656.350908 163.525389,655.602217 163.818359,654.853516 C164.11133,654.104814 164.355468,653.323572 164.550781,652.509766 C164.746095,651.695959 164.713543,650.735683 164.453125,649.628906 C163.541662,649.694011 162.890627,650.003252 162.5,650.556641 C162.109373,651.110029 161.848959,651.842443 161.71875,652.753906 C161.197914,653.274742 160.563155,653.51888 159.814453,653.486328 C159.065751,653.453776 158.39844,653.535155 157.8125,653.730469 C155.533843,652.819006 153.645841,651.516936 152.148438,649.824219 C150.651034,648.131502 149.446619,646.145845 148.535156,643.867188 C149.121097,642.369784 149.999994,641.116542 151.171875,640.107422 C152.343756,639.098302 153.678378,638.251957 155.175781,637.568359 C156.673185,636.884762 158.268221,636.331382 159.960938,635.908203 L164.84375,634.6875 C167.382825,634.231769 169.921862,633.71094 172.460938,633.125 C175.000013,632.53906 177.73436,632.343749 180.664062,632.539062 C181.054689,632.343749 181.52669,632.229818 182.080078,632.197266 C182.633466,632.164713 183.203122,632.148438 183.789062,632.148438 C184.375003,632.148438 184.944659,632.132162 185.498047,632.099609 C186.051435,632.067057 186.523436,631.953126 186.914062,631.757812 C187.239585,632.148439 187.711585,632.392578 188.330078,632.490234 C188.948571,632.587891 189.615882,632.897133 190.332031,633.417969 C191.113285,632.832028 191.780596,632.701821 192.333984,633.027344 C192.887373,633.352866 193.391925,633.710936 193.847656,634.101562 C194.303388,634.492189 194.742836,634.850259 195.166016,635.175781 C195.589195,635.501304 196.028644,635.664062 196.484375,635.664062 C196.940106,636.250003 197.509762,636.803383 198.193359,637.324219 C198.876957,637.845055 199.527992,638.382159 200.146484,638.935547 C200.764977,639.488935 201.285805,640.091143 201.708984,640.742188 C202.132164,641.393232 202.34375,642.141923 202.34375,642.988281 C202.278646,643.313804 202.376301,643.509114 202.636719,643.574219 C202.897137,643.639323 203.092447,643.76953 203.222656,643.964844 C203.287761,645.983083 202.978519,647.724602 202.294922,649.189453 C201.611325,650.654304 200.764979,652.005202 199.755859,653.242188 C198.74674,654.479173 197.63998,655.651036 196.435547,656.757812 C195.231114,657.864589 194.14063,659.036452 193.164062,660.273438 C193.815107,661.119796 194.563798,661.868486 195.410156,662.519531 C196.256515,663.170576 197.119136,663.821611 197.998047,664.472656 C198.876958,665.123701 199.707027,665.807288 200.488281,666.523438 C201.269535,667.239587 201.92057,668.085933 202.441406,669.0625 C202.571615,669.192709 202.734374,669.30664 202.929688,669.404297 C203.125001,669.501954 203.320312,669.615885 203.515625,669.746094 C203.710938,670.397139 203.971353,671.06445 204.296875,671.748047 C204.622397,672.431644 204.899087,673.082679 205.126953,673.701172 C205.354819,674.319665 205.501302,674.873044 205.566406,675.361328 C205.631511,675.849612 205.501304,676.256509 205.175781,676.582031 Z M187.988281,643.964844 C184.667952,643.834635 181.363949,644.127601 178.076172,644.84375 C174.788395,645.559899 172.037771,646.569004 169.824219,647.871094 C170.930995,648.782557 172.054031,649.596351 173.193359,650.3125 C174.332688,651.028649 175.227861,652.005202 175.878906,653.242188 C178.417981,652.200516 180.664053,650.882169 182.617188,649.287109 C184.570322,647.692049 186.360669,645.917979 187.988281,643.964844 Z M189.257812,675.117188 C189.453126,674.466143 189.811195,673.945314 190.332031,673.554688 C190.852867,673.164061 191.373695,672.789715 191.894531,672.431641 C192.415367,672.073566 192.871092,671.682945 193.261719,671.259766 C193.652346,670.836586 193.815104,670.234379 193.75,669.453125 C191.666656,668.346349 189.762378,667.679038 188.037109,667.451172 C186.31184,667.223306 184.684252,667.223306 183.154297,667.451172 C181.624341,667.679038 180.159512,668.020831 178.759766,668.476562 C177.360019,668.932294 175.944018,669.257812 174.511719,669.453125 C173.795569,671.341155 173.046879,673.391916 172.265625,675.605469 C171.484371,677.819021 170.735681,679.967437 170.019531,682.050781 C171.972666,681.790363 173.763013,681.383466 175.390625,680.830078 C177.018237,680.27669 178.596998,679.674482 180.126953,679.023438 C181.656909,678.372393 183.15429,677.705082 184.619141,677.021484 C186.083992,676.337887 187.6302,675.703128 189.257812,675.117188 Z M257.03125,666.132812 C256.966146,666.458335 256.901042,666.735025 256.835938,666.962891 C256.770833,667.190756 256.705729,667.402343 256.640625,667.597656 C256.575521,667.79297 256.542969,668.037108 256.542969,668.330078 L256.542969,669.453125 C254.589834,672.903663 252.132176,675.80077 249.169922,678.144531 C246.207667,680.488293 242.952492,682.55533 239.404297,684.345703 C235.856102,686.136077 232.161478,687.763665 228.320312,689.228516 C224.479147,690.693367 220.735695,692.272127 217.089844,693.964844 C215.527336,693.574217 214.339197,692.923182 213.525391,692.011719 C212.711584,691.100256 212.093101,690.042324 211.669922,688.837891 C211.246743,687.633458 210.953777,686.298835 210.791016,684.833984 C210.628254,683.369133 210.481771,681.855477 210.351562,680.292969 C210.546876,679.576819 210.823566,678.974612 211.181641,678.486328 C211.539715,677.998044 211.71875,677.298182 211.71875,676.386719 C212.239586,674.694002 212.760414,673.033862 213.28125,671.40625 C213.802086,669.778638 214.127604,668.118498 214.257812,666.425781 C214.453126,665.904945 214.811195,665.546876 215.332031,665.351562 C215.657554,662.226547 215.67383,659.05275 215.380859,655.830078 C215.087889,652.607406 214.550785,649.596368 213.769531,646.796875 C213.834636,646.14583 213.916015,645.67383 214.013672,645.380859 C214.111329,645.087889 214.095053,644.876303 213.964844,644.746094 C213.899739,644.225258 214.078774,643.964844 214.501953,643.964844 L215.820312,643.964844 C215.820312,642.988276 215.641278,642.011724 215.283203,641.035156 C214.925128,640.058589 214.583335,638.951829 214.257812,637.714844 C214.713544,636.738276 215.00651,635.778 215.136719,634.833984 C215.266928,633.889969 215.559894,633.059899 216.015625,632.34375 C219.531268,633.450526 222.900375,634.785148 226.123047,636.347656 C229.345719,637.910164 232.519516,639.049476 235.644531,639.765625 C237.988293,641.458342 240.397123,643.134757 242.871094,644.794922 C245.345064,646.455086 247.591136,648.277985 249.609375,650.263672 C251.627614,652.249359 253.320306,654.511706 254.6875,657.050781 C256.054694,659.589856 256.835937,662.61717 257.03125,666.132812 Z M233.886719,671.503906 C235.253913,670.98307 236.604811,670.42969 237.939453,669.84375 C239.274095,669.25781 240.511062,668.590499 241.650391,667.841797 C242.789719,667.093095 243.8151,666.230474 244.726562,665.253906 C245.638025,664.277339 246.386716,663.105476 246.972656,661.738281 C246.582029,660.957027 246.061201,660.257165 245.410156,659.638672 C244.759111,659.020179 244.108076,658.434248 243.457031,657.880859 C242.805986,657.327471 242.171227,656.757815 241.552734,656.171875 C240.934242,655.585935 240.429689,654.869796 240.039062,654.023438 C239.192704,653.893229 238.444014,653.64909 237.792969,653.291016 C237.141924,652.932941 236.507165,652.574872 235.888672,652.216797 C235.270179,651.858722 234.619144,651.516929 233.935547,651.191406 C233.25195,650.865884 232.454432,650.670573 231.542969,650.605469 C230.11067,649.889319 228.824875,649.368491 227.685547,649.042969 C226.546218,648.717446 225.683597,648.294273 225.097656,647.773438 C224.641925,647.773438 224.283855,647.871093 224.023438,648.066406 C224.674482,650.540377 225.162759,652.867828 225.488281,655.048828 C225.813804,657.229829 225.992838,659.410796 226.025391,661.591797 C226.057943,663.772797 225.944012,666.002593 225.683594,668.28125 C225.423176,670.559907 225.065106,673.033841 224.609375,675.703125 C225.26042,675.638021 225.862627,675.491538 226.416016,675.263672 C226.969404,675.035806 227.522784,674.791668 228.076172,674.53125 C228.62956,674.270832 229.215492,674.026694 229.833984,673.798828 C230.452477,673.570962 231.184892,673.424479 232.03125,673.359375 C232.226563,672.968748 232.503253,672.64323 232.861328,672.382812 C233.219403,672.122395 233.561196,671.829429 233.886719,671.503906 Z M312.109375,637.519531 C312.174479,637.975263 312.190755,638.317056 312.158203,638.544922 C312.125651,638.772788 312.093099,638.984374 312.060547,639.179688 C312.027995,639.375001 312.011719,639.586587 312.011719,639.814453 C312.011719,640.042319 312.076822,640.384112 312.207031,640.839844 C310.839837,643.053396 309.261077,644.567053 307.470703,645.380859 C305.68033,646.194666 303.7435,646.780597 301.660156,647.138672 C299.576812,647.496747 297.444672,647.871092 295.263672,648.261719 C293.082671,648.652346 290.917979,649.498691 288.769531,650.800781 C287.923173,650.475259 287.158207,650.475259 286.474609,650.800781 C285.791012,651.126304 284.798184,651.223959 283.496094,651.09375 C283.105467,651.484377 282.61719,651.761067 282.03125,651.923828 C281.44531,652.086589 280.859378,652.265624 280.273437,652.460938 C280.533855,653.046878 280.647787,653.649085 280.615234,654.267578 C280.582682,654.886071 280.664062,655.390623 280.859375,655.78125 C283.138032,655.976563 285.660793,655.944012 288.427734,655.683594 C291.194675,655.423176 293.912747,655.260417 296.582031,655.195312 C296.647136,655.520835 296.614584,655.732421 296.484375,655.830078 C296.354166,655.927735 296.321614,656.10677 296.386719,656.367188 C296.84245,656.69271 297.298175,657.099607 297.753906,657.587891 C298.209638,658.076174 298.665362,658.548175 299.121094,659.003906 C299.576825,659.459638 300.048826,659.833983 300.537109,660.126953 C301.025393,660.419923 301.595049,660.533854 302.246094,660.46875 C302.506512,660.989586 302.685546,661.559242 302.783203,662.177734 C302.88086,662.796227 302.79948,663.430986 302.539062,664.082031 C301.497391,664.798181 300.455734,665.530595 299.414062,666.279297 C298.372391,667.027999 297.281907,667.69531 296.142578,668.28125 C295.00325,668.86719 293.798834,669.339191 292.529297,669.697266 C291.259759,670.05534 289.843758,670.201823 288.28125,670.136719 L287.548828,670.136719 C287.386067,670.136719 287.17448,670.039063 286.914062,669.84375 C286.393227,670.169272 285.660812,670.266928 284.716797,670.136719 C283.772782,670.00651 283.040367,670.104165 282.519531,670.429688 C281.803382,670.104165 280.94076,669.957682 279.931641,669.990234 C278.922521,670.022787 278.027348,669.908855 277.246094,669.648438 C276.204422,671.015632 275.260421,672.480461 274.414062,674.042969 C273.567704,675.605477 272.819014,677.265616 272.167969,679.023438 C274.381521,679.34896 276.220696,679.479167 277.685547,679.414062 C279.150398,679.348958 280.533848,679.235027 281.835937,679.072266 C283.138027,678.909504 284.472649,678.746746 285.839844,678.583984 C287.207038,678.421223 288.932281,678.372396 291.015625,678.4375 C292.317715,677.721351 293.863923,677.24935 295.654297,677.021484 C297.44467,676.793619 299.088534,676.419273 300.585937,675.898438 C301.106773,676.093751 301.562498,676.435544 301.953125,676.923828 C302.343752,677.412112 302.718097,677.867836 303.076172,678.291016 C303.434247,678.714195 303.808592,679.08854 304.199219,679.414062 C304.589846,679.739585 305.078122,679.869792 305.664062,679.804688 C305.92448,680.065105 306.103515,680.374347 306.201172,680.732422 C306.298829,681.090497 306.380208,681.43229 306.445312,681.757812 C306.510417,682.083335 306.624348,682.360025 306.787109,682.587891 C306.949871,682.815756 307.226561,682.897136 307.617187,682.832031 C306.64062,684.980479 305.517584,686.624343 304.248047,687.763672 C302.978509,688.903 301.529956,689.765622 299.902344,690.351562 C298.274731,690.937503 296.468109,691.393228 294.482422,691.71875 C292.496735,692.044272 290.299491,692.434894 287.890625,692.890625 C287.304685,693.020834 286.816408,693.004558 286.425781,692.841797 C286.035154,692.679036 285.57943,692.597656 285.058594,692.597656 C283.56119,692.923179 281.770844,693.216145 279.6875,693.476562 C277.604156,693.73698 275.488292,693.834636 273.339844,693.769531 C271.191396,693.704427 269.140635,693.427737 267.1875,692.939453 C265.234365,692.451169 263.639329,691.588548 262.402344,690.351562 C261.881508,689.895831 261.539714,689.358727 261.376953,688.740234 C261.214192,688.121742 260.774743,687.649741 260.058594,687.324219 C259.993489,686.47786 259.863282,685.533859 259.667969,684.492188 C259.472655,683.450516 259.277345,682.360032 259.082031,681.220703 C258.886718,680.081375 258.740235,678.958339 258.642578,677.851562 C258.544921,676.744786 258.59375,675.735682 258.789062,674.824219 C258.984376,673.847651 259.391273,672.968754 260.009766,672.1875 C260.628258,671.406246 260.839845,670.5599 260.644531,669.648438 C260.970054,669.583333 261.165364,669.404298 261.230469,669.111328 C261.295573,668.818358 261.555987,668.704427 262.011719,668.769531 C262.402346,667.59765 262.825519,666.490891 263.28125,665.449219 C263.736981,664.407547 264.208982,663.398442 264.697266,662.421875 C265.185549,661.445308 265.673826,660.452479 266.162109,659.443359 C266.650393,658.43424 267.122394,657.311204 267.578125,656.074219 C266.666662,655.22786 265.999351,654.300135 265.576172,653.291016 C265.152993,652.281896 264.843751,651.272792 264.648437,650.263672 C264.453124,649.254552 264.290365,648.212896 264.160156,647.138672 C264.029947,646.064448 263.802085,644.973964 263.476562,643.867188 C264.127607,642.89062 264.925125,642.093102 265.869141,641.474609 C266.813156,640.856117 267.838536,640.351564 268.945312,639.960938 C270.052089,639.570311 271.256504,639.244793 272.558594,638.984375 C273.860684,638.723957 275.227857,638.430991 276.660156,638.105469 C279.264336,637.25911 281.591787,636.608075 283.642578,636.152344 C285.69337,635.696612 287.711579,635.322267 289.697266,635.029297 C291.682953,634.736327 293.749989,634.459637 295.898437,634.199219 C298.046886,633.938801 300.488268,633.54818 303.222656,633.027344 C303.808597,633.613284 304.361977,633.90625 304.882812,633.90625 C305.14323,633.32031 305.452472,633.141275 305.810547,633.369141 C306.168622,633.597006 306.315104,633.417972 306.25,632.832031 C306.901045,633.938808 307.731115,634.866533 308.740234,635.615234 C309.749354,636.363936 310.87239,636.998695 312.109375,637.519531 Z M342.285156,675.3125 C342.220052,676.223963 342.008465,677.086584 341.650391,677.900391 C341.292316,678.714197 340.852867,679.495439 340.332031,680.244141 C339.811195,680.992842 339.24154,681.708981 338.623047,682.392578 C338.004554,683.076175 337.402347,683.678383 336.816406,684.199219 C337.01172,685.045577 337.027996,685.680336 336.865234,686.103516 C336.702473,686.526695 336.653646,687.161454 336.71875,688.007812 C335.742183,690.611992 334.261078,692.353511 332.275391,693.232422 C330.289704,694.111333 328.417978,693.932298 326.660156,692.695312 C325.944007,692.174477 325.341799,691.507166 324.853516,690.693359 C324.365232,689.879553 323.697921,689.375001 322.851562,689.179688 C323.046876,688.072911 322.949221,686.966151 322.558594,685.859375 C322.167967,684.752599 321.744794,684.166667 321.289062,684.101562 C321.093749,682.734368 320.800783,681.269539 320.410156,679.707031 C320.019529,678.144523 319.66146,676.565763 319.335938,674.970703 C319.010415,673.375643 318.733725,671.813159 318.505859,670.283203 C318.277994,668.753248 318.196614,667.337246 318.261719,666.035156 C318.326823,665.384111 318.212892,664.79818 317.919922,664.277344 C317.626952,663.756508 317.415365,663.138024 317.285156,662.421875 C317.024738,660.924472 316.943359,659.345711 317.041016,657.685547 C317.138672,656.025382 317.1875,654.446622 317.1875,652.949219 C317.1875,651.51692 317.106121,649.970711 316.943359,648.310547 C316.780598,646.650382 316.634115,645.055346 316.503906,643.525391 C316.373697,641.995435 316.308594,640.595709 316.308594,639.326172 C316.308594,638.056634 316.471353,637.063806 316.796875,636.347656 C317.187502,635.566402 317.724606,634.931643 318.408203,634.443359 C319.0918,633.955076 319.72656,633.417972 320.3125,632.832031 C321.744799,632.96224 322.88411,633.548172 323.730469,634.589844 C324.576827,635.631516 324.902345,636.608068 324.707031,637.519531 C326.074226,638.36589 327.164709,639.456374 327.978516,640.791016 C328.792322,642.125658 329.443357,643.623039 329.931641,645.283203 C330.419924,646.943368 330.761718,648.701163 330.957031,650.556641 C331.152345,652.412119 331.315104,654.235017 331.445312,656.025391 C331.575521,657.815764 331.705729,659.524731 331.835938,661.152344 C331.966146,662.779956 332.226561,664.179682 332.617188,665.351562 C335.026054,661.901024 337.044263,658.824883 338.671875,656.123047 C340.299487,653.42121 341.959627,650.833346 343.652344,648.359375 C345.345061,645.885404 347.233062,643.378919 349.316406,640.839844 C351.39975,638.300769 354.101546,635.436214 357.421875,632.246094 C358.07292,632.311198 358.610024,632.441405 359.033203,632.636719 C359.456382,632.832032 359.830728,632.994791 360.15625,633.125 C360.481772,633.255209 360.872394,633.36914 361.328125,633.466797 C361.783856,633.564454 362.40234,633.548178 363.183594,633.417969 C363.444012,634.069014 363.639322,634.541014 363.769531,634.833984 C363.89974,635.126955 364.013671,635.41992 364.111328,635.712891 C364.208985,636.005861 364.339192,636.380206 364.501953,636.835938 C364.664714,637.291669 364.941404,637.942704 365.332031,638.789062 C365.527345,638.984376 365.592448,639.24479 365.527344,639.570312 C365.462239,639.895835 365.413412,640.205077 365.380859,640.498047 C365.348307,640.791017 365.332031,641.002604 365.332031,641.132812 C365.332031,641.263021 365.49479,641.263021 365.820312,641.132812 C365.624999,642.044275 365.283206,642.874345 364.794922,643.623047 C364.306638,644.371749 364.095052,645.266922 364.160156,646.308594 C362.662753,648.261729 361.018889,650.279937 359.228516,652.363281 C357.438142,654.446625 355.647795,656.595041 353.857422,658.808594 C352.067048,661.022146 350.358081,663.349597 348.730469,665.791016 C347.102856,668.232434 345.703131,670.787747 344.53125,673.457031 C344.205728,673.457031 343.961589,673.554687 343.798828,673.75 C343.636067,673.945313 343.489584,674.1569 343.359375,674.384766 C343.229166,674.612631 343.082683,674.824218 342.919922,675.019531 C342.757161,675.214845 342.545574,675.3125 342.285156,675.3125 Z M396.582031,648.457031 C396.777345,647.480464 396.907552,646.682946 396.972656,646.064453 C397.037761,645.44596 396.809898,644.778649 396.289062,644.0625 C396.54948,643.020828 396.761067,642.207034 396.923828,641.621094 C397.086589,641.035153 397.102865,640.221359 396.972656,639.179688 C397.558597,637.486971 398.45377,636.054693 399.658203,634.882812 C400.862636,633.710932 402.180982,632.718103 403.613281,631.904297 C405.04558,631.090491 406.542961,630.406904 408.105469,629.853516 C409.667977,629.300127 411.132806,628.828127 412.5,628.4375 C412.5,628.177082 412.369793,628.046875 412.109375,628.046875 C411.848957,628.046875 411.783854,627.884116 411.914062,627.558594 C415.429705,626.907549 418.961571,625.963548 422.509766,624.726562 C426.05796,623.489577 429.687481,622.382817 433.398438,621.40625 C437.109394,620.429683 440.917949,619.827475 444.824219,619.599609 C448.730488,619.371744 452.83201,619.876296 457.128906,621.113281 C457.389324,621.894535 457.747394,622.643226 458.203125,623.359375 C458.658856,624.075524 459.130857,624.775387 459.619141,625.458984 C460.107424,626.142582 460.546873,626.809893 460.9375,627.460938 C461.328127,628.111982 461.555989,628.795569 461.621094,629.511719 C462.402348,630.227868 463.037107,630.992834 463.525391,631.806641 C464.013674,632.620447 464.095054,633.710931 463.769531,635.078125 C463.053382,635.598961 462.304691,636.119789 461.523438,636.640625 C460.742184,637.161461 459.92839,637.649737 459.082031,638.105469 C456.152329,637.389319 453.222671,637.128905 450.292969,637.324219 C447.363267,637.519532 444.726574,637.747395 442.382812,638.007812 C441.666663,637.226559 440.820317,636.852213 439.84375,636.884766 C438.867183,636.917318 437.841802,637.080077 436.767578,637.373047 C435.693354,637.666017 434.635422,637.958983 433.59375,638.251953 C432.552078,638.544923 431.575525,638.626303 430.664062,638.496094 C429.947913,639.147139 429.003912,639.586587 427.832031,639.814453 C426.66015,640.042319 425.423184,640.221354 424.121094,640.351562 C424.055989,640.677085 424.121093,640.904947 424.316406,641.035156 C424.51172,641.165365 424.544271,641.425779 424.414062,641.816406 C424.869794,642.402347 425.488277,642.809244 426.269531,643.037109 C427.050785,643.264975 427.848303,643.476562 428.662109,643.671875 C429.475916,643.867188 430.20833,644.143878 430.859375,644.501953 C431.51042,644.860028 431.933593,645.429684 432.128906,646.210938 C433.300787,646.276042 434.309892,646.585284 435.15625,647.138672 C436.002608,647.69206 436.718747,648.359371 437.304688,649.140625 C437.890628,649.921879 438.313801,650.751949 438.574219,651.630859 C438.834637,652.50977 438.932292,653.307288 438.867188,654.023438 C439.127605,654.674482 439.404295,654.934896 439.697266,654.804688 C439.990236,654.674479 440.332029,654.837237 440.722656,655.292969 C440.983074,656.269536 441.585282,657.294917 442.529297,658.369141 C443.473312,659.443365 444.205727,660.598952 444.726562,661.835938 C444.856771,663.789072 444.970703,665.546867 445.068359,667.109375 C445.166016,668.671883 444.889326,670.201815 444.238281,671.699219 C443.131505,674.563816 441.536469,677.135405 439.453125,679.414062 C437.369781,681.69272 435.009779,683.694653 432.373047,685.419922 C429.736315,687.145191 426.95314,688.642572 424.023438,689.912109 C421.093735,691.181647 418.196629,692.239579 415.332031,693.085938 C415.071613,693.020833 414.762372,693.020833 414.404297,693.085938 C414.046222,693.151042 413.964843,692.955731 414.160156,692.5 C413.574216,693.020836 412.906905,693.346354 412.158203,693.476562 C411.409501,693.606771 410.595708,693.655599 409.716797,693.623047 C408.837886,693.590495 407.958989,693.541667 407.080078,693.476562 C406.201167,693.411458 405.338546,693.44401 404.492188,693.574219 C403.971352,693.053383 403.499351,692.532555 403.076172,692.011719 C402.652993,691.490883 402.311199,690.872399 402.050781,690.15625 C401.725259,690.091146 401.578776,689.879559 401.611328,689.521484 C401.64388,689.16341 401.497397,688.984375 401.171875,688.984375 C401.171875,688.723957 401.204427,688.528646 401.269531,688.398438 L401.464844,688.007812 C401.725262,687.812499 401.839193,687.666016 401.806641,687.568359 C401.774088,687.470703 401.676433,687.373047 401.513672,687.275391 C401.350911,687.177734 401.188152,687.063803 401.025391,686.933594 C400.862629,686.803385 400.813802,686.640626 400.878906,686.445312 C401.204429,685.859372 401.31836,685.159509 401.220703,684.345703 C401.123046,683.531897 401.041667,682.701827 400.976562,681.855469 C400.911458,681.00911 400.976562,680.211592 401.171875,679.462891 C401.367188,678.714189 401.920568,678.07943 402.832031,677.558594 C405.501315,677.819012 408.024077,677.688805 410.400391,677.167969 C412.776705,676.647133 415.022776,675.930994 417.138672,675.019531 C419.254568,674.108068 421.272777,673.11524 423.193359,672.041016 C425.113942,670.966792 426.985668,669.973963 428.808594,669.0625 C429.003907,668.411455 429.313149,667.858075 429.736328,667.402344 C430.159507,666.946612 430.598956,666.507164 431.054688,666.083984 C431.510419,665.660805 431.933592,665.205081 432.324219,664.716797 C432.714846,664.228513 433.007812,663.626306 433.203125,662.910156 C433.268229,662.649738 433.268229,662.454428 433.203125,662.324219 C433.138021,662.19401 433.040365,662.080079 432.910156,661.982422 C432.779947,661.884765 432.64974,661.770834 432.519531,661.640625 C432.389322,661.510416 432.324219,661.315105 432.324219,661.054688 C432.128905,660.989583 431.949871,660.924479 431.787109,660.859375 C431.624348,660.794271 431.477865,660.761719 431.347656,660.761719 C429.654939,659.91536 427.864593,659.199222 425.976562,658.613281 C424.088532,658.027341 422.493496,657.376306 421.191406,656.660156 C420.410152,657.180992 419.62891,657.311199 418.847656,657.050781 C418.066402,656.790363 417.122401,656.529949 416.015625,656.269531 C413.281236,656.139322 410.693372,655.878908 408.251953,655.488281 C405.810535,655.097654 403.450532,654.414067 401.171875,653.4375 C401.041666,653.046873 400.878907,652.70508 400.683594,652.412109 C400.48828,652.119139 400.032556,652.03776 399.316406,652.167969 C398.860675,651.516924 398.388674,650.914716 397.900391,650.361328 C397.412107,649.80794 396.972658,649.173181 396.582031,648.457031 Z M478.710938,691.425781 C476.888012,692.011722 474.902354,692.597653 472.753906,693.183594 C470.605458,693.769534 468.457042,694.0625 466.308594,694.0625 C463.053369,694.0625 460.48178,693.248706 458.59375,691.621094 C458.268228,690.904944 457.975262,690.416668 457.714844,690.15625 C457.51953,689.895832 457.340496,689.619142 457.177734,689.326172 C457.014973,689.033202 456.901042,688.626305 456.835938,688.105469 C456.054684,687.194006 455.4362,686.136074 454.980469,684.931641 C454.524737,683.727208 454.215496,682.490241 454.052734,681.220703 C453.889973,679.951166 453.857421,678.665371 453.955078,677.363281 C454.052735,676.061191 454.264321,674.824225 454.589844,673.652344 C454.720053,673.391926 454.801432,673.131512 454.833984,672.871094 C454.866537,672.610676 454.915364,672.31771 454.980469,671.992188 C455.240887,670.950516 455.517577,669.941411 455.810547,668.964844 C456.103517,667.988276 456.510414,667.141931 457.03125,666.425781 C456.770832,665.839841 456.770832,665.188806 457.03125,664.472656 C457.291668,663.756507 457.584634,663.105472 457.910156,662.519531 C458.821619,660.045561 459.586585,657.945972 460.205078,656.220703 C460.823571,654.495434 461.45833,652.786467 462.109375,651.09375 C463.216151,648.164048 464.257808,645.266941 465.234375,642.402344 C466.210942,639.537746 467.08984,636.445329 467.871094,633.125 C468.39193,632.799478 468.782551,632.571615 469.042969,632.441406 C469.433596,632.311197 469.759113,632.213542 470.019531,632.148438 C471.191412,632.734378 472.558586,633.304034 474.121094,633.857422 C475.683602,634.41081 476.985672,634.6875 478.027344,634.6875 C478.54818,635.013022 478.873697,635.257161 479.003906,635.419922 C479.134115,635.582683 479.264322,635.729166 479.394531,635.859375 C480.110681,636.705733 480.729164,637.568355 481.25,638.447266 C481.770836,639.326176 481.933595,640.481764 481.738281,641.914062 C481.347654,642.500003 481.054688,642.792969 480.859375,642.792969 C480.533853,644.095059 480.192059,645.201818 479.833984,646.113281 C479.47591,647.024744 479.101564,647.936193 478.710938,648.847656 C478.255206,649.824224 477.832033,650.800776 477.441406,651.777344 C477.050779,652.753911 476.725262,653.958326 476.464844,655.390625 C476.204426,655.716147 476.025391,656.009113 475.927734,656.269531 C475.830078,656.529949 475.716146,656.822915 475.585938,657.148438 C475.455729,657.47396 475.309246,657.815753 475.146484,658.173828 C474.983723,658.531903 474.739585,658.841145 474.414062,659.101562 C474.218749,660.794279 473.909507,662.161453 473.486328,663.203125 C473.063149,664.244797 472.6237,665.286453 472.167969,666.328125 C471.386715,668.216155 470.686852,670.104157 470.068359,671.992188 C469.449867,673.880218 469.075521,676.028634 468.945312,678.4375 C469.270835,678.307291 469.580077,678.242188 469.873047,678.242188 L470.703125,678.242188 C471.289065,678.242188 471.972652,678.339843 472.753906,678.535156 C474.707041,677.493484 476.839181,676.875001 479.150391,676.679688 C481.4616,676.484374 483.756499,676.354167 486.035156,676.289062 L488.769531,676.289062 C489.680994,676.289062 490.52734,676.223959 491.308594,676.09375 C491.894534,676.419272 492.268879,676.598307 492.431641,676.630859 C492.594402,676.663412 492.83854,676.679688 493.164062,676.679688 C493.619794,676.679688 494.010415,676.712239 494.335938,676.777344 C495.117191,677.493493 495.865882,678.014321 496.582031,678.339844 C497.298181,678.665366 498.046871,678.958332 498.828125,679.21875 C499.544274,679.479168 500.244137,679.755858 500.927734,680.048828 C501.611332,680.341798 502.278643,680.748695 502.929688,681.269531 L503.613281,685.46875 C504.069013,686.05469 504.264323,686.445312 504.199219,686.640625 C504.199219,687.161461 504.069012,687.552082 503.808594,687.8125 L504.003906,688.886719 C503.027339,689.082032 502.360028,689.309895 502.001953,689.570312 C501.643878,689.83073 501.302085,690.123696 500.976562,690.449219 C500.455727,690.514323 500.081381,690.546875 499.853516,690.546875 L499.21875,690.546875 C498.307287,690.546875 497.200527,690.709634 495.898438,691.035156 C494.140616,690.449216 492.317718,690.15625 490.429688,690.15625 C489.713538,690.15625 488.964848,690.188802 488.183594,690.253906 L485.839844,690.449219 C485.05859,690.579428 484.261072,690.677083 483.447266,690.742188 C482.633459,690.807292 481.80339,690.839844 480.957031,690.839844 L478.710938,691.425781 Z M557.910156,684.296875 C557.519529,685.403651 556.949874,686.526687 556.201172,687.666016 C555.45247,688.805344 554.573573,689.814449 553.564453,690.693359 C552.555333,691.57227 551.432298,692.304685 550.195312,692.890625 C548.958327,693.476565 547.656257,693.802083 546.289062,693.867188 C545.442704,693.671874 544.873048,693.460288 544.580078,693.232422 C544.287108,693.004556 543.977866,692.79297 543.652344,692.597656 C543.45703,692.467447 543.277996,692.353516 543.115234,692.255859 C542.952473,692.158203 542.80599,692.076823 542.675781,692.011719 L541.503906,691.523438 L541.894531,690.253906 C542.02474,689.73307 541.992188,689.326173 541.796875,689.033203 C541.601562,688.740233 541.210938,688.333336 540.625,687.8125 L540.039062,687.226562 C539.843749,687.031249 539.68099,686.835938 539.550781,686.640625 L537.890625,684.785156 L540.527344,684.101562 C542.154956,683.645831 543.24544,683.059899 543.798828,682.34375 C544.352216,681.627601 544.563803,680.423186 544.433594,678.730469 C543.131504,678.470051 542.04102,678.437499 541.162109,678.632812 C540.283199,678.828126 539.388025,679.055988 538.476562,679.316406 C537.304682,679.641929 536.116542,679.918619 534.912109,680.146484 C533.707676,680.37435 532.38933,680.488281 530.957031,680.488281 C530.436195,680.488281 529.947919,680.472005 529.492188,680.439453 C529.036456,680.406901 528.54818,680.358073 528.027344,680.292969 L527.050781,680.097656 C526.920572,679.381507 526.790365,678.97461 526.660156,678.876953 C526.529947,678.779296 526.39974,678.665365 526.269531,678.535156 C525.944009,678.209634 525.602215,677.770185 525.244141,677.216797 C524.886066,676.663409 524.804687,675.963546 525,675.117188 C524.674478,674.531247 524.479167,673.945315 524.414062,673.359375 C524.023436,674.140629 523.73047,674.954423 523.535156,675.800781 L523.144531,676.777344 L522.167969,676.972656 C522.03776,677.037761 521.940104,677.184244 521.875,677.412109 C521.809896,677.639975 521.777344,677.81901 521.777344,677.949219 L521.289062,679.609375 C521.158854,679.739584 521.028646,679.853515 520.898438,679.951172 C520.768229,680.048829 520.638021,680.16276 520.507812,680.292969 C520.377604,680.878909 520.214845,681.464841 520.019531,682.050781 C519.824218,682.636719 519.628907,683.190102 519.433594,683.710938 C519.108071,684.557296 518.831381,685.387366 518.603516,686.201172 C518.37565,687.014978 518.294271,687.812496 518.359375,688.59375 L517.96875,689.667969 C517.643228,690.058596 517.285158,690.367837 516.894531,690.595703 C516.503904,690.823569 516.113283,691.035155 515.722656,691.230469 C515.592447,691.360678 515.413413,691.474609 515.185547,691.572266 C514.957681,691.669922 514.778646,691.751302 514.648438,691.816406 L514.355469,692.890625 L513.183594,693.085938 C512.467444,693.216146 511.962892,693.313802 511.669922,693.378906 C511.376952,693.444011 511.035158,693.476562 510.644531,693.476562 L509.667969,693.378906 C508.951819,692.792966 508.398439,692.320965 508.007812,691.962891 C507.617186,691.604816 507.161461,691.263022 506.640625,690.9375 C506.054685,690.156246 505.729167,689.570314 505.664062,689.179688 C505.598958,688.789061 505.533854,688.430991 505.46875,688.105469 C505.338541,687.714842 505.257162,687.389324 505.224609,687.128906 C505.192057,686.868488 505.110678,686.673178 504.980469,686.542969 L503.710938,685.371094 L504.785156,684.492188 L504.882812,682.832031 C506.184902,679.511702 507.568352,676.32163 509.033203,673.261719 C510.498054,670.201808 512.011711,667.076839 513.574219,663.886719 C514.095055,662.845047 514.599607,661.803391 515.087891,660.761719 C515.576174,659.720047 516.080727,658.678391 516.601562,657.636719 C516.536458,657.441405 516.503906,657.213543 516.503906,656.953125 C516.503906,656.692707 516.56901,656.399741 516.699219,656.074219 C517.415368,654.967442 518.0013,653.974614 518.457031,653.095703 C518.912763,652.216792 519.368487,651.321619 519.824219,650.410156 C520.345055,649.30338 520.882159,648.229172 521.435547,647.1875 C521.988935,646.145828 522.688798,645.07162 523.535156,643.964844 L525.097656,643.28125 C525.29297,643.216146 525.520832,643.134766 525.78125,643.037109 C526.041668,642.939453 526.334634,642.890625 526.660156,642.890625 L528.125,643.085938 C529.947926,642.239579 531.542962,641.05144 532.910156,639.521484 C534.277351,637.991529 535.677076,636.152354 537.109375,634.003906 L538.085938,632.636719 L539.355469,633.417969 C539.680991,633.613282 540.136716,633.792317 540.722656,633.955078 C541.308597,634.117839 541.92708,634.296874 542.578125,634.492188 C543.750006,634.752605 544.856766,635.045571 545.898438,635.371094 C546.940109,635.696616 547.786455,636.184893 548.4375,636.835938 C548.828127,637.877609 549.055989,638.658852 549.121094,639.179688 C549.186198,639.700523 549.283854,640.221352 549.414062,640.742188 C549.609376,641.848964 549.788411,642.955724 549.951172,644.0625 C550.113933,645.169276 550.227864,646.406243 550.292969,647.773438 C550.618491,648.880214 550.895181,649.970698 551.123047,651.044922 C551.350913,652.119146 551.562499,653.20963 551.757812,654.316406 C552.083335,655.878914 552.408853,657.392571 552.734375,658.857422 C553.059897,660.322273 553.48307,661.705723 554.003906,663.007812 C554.524742,663.007812 554.85026,663.040364 554.980469,663.105469 C555.305991,662.97526 555.647785,662.877604 556.005859,662.8125 C556.363934,662.747396 556.770831,662.682292 557.226562,662.617188 L558.300781,662.519531 L558.691406,663.496094 C558.756511,663.821616 559.082028,664.147134 559.667969,664.472656 C560.514327,664.537761 561.132811,664.716795 561.523438,665.009766 C561.914064,665.302736 562.272134,665.611978 562.597656,665.9375 C562.858074,666.197918 563.118488,666.393229 563.378906,666.523438 L564.84375,667.109375 L564.0625,668.574219 C563.411455,669.7461 562.48373,670.869135 561.279297,671.943359 C560.074864,673.017583 558.723966,673.912757 557.226562,674.628906 C557.291667,675.019533 557.340495,675.393878 557.373047,675.751953 C557.405599,676.110028 557.486979,676.484373 557.617188,676.875 C557.812501,677.981776 557.97526,679.121088 558.105469,680.292969 C558.235678,681.46485 558.235678,682.669265 558.105469,683.90625 L557.910156,684.296875 Z M529.6875,667.402344 C531.640635,667.272135 533.414706,667.125652 535.009766,666.962891 C536.604826,666.800129 538.378896,666.523439 540.332031,666.132812 C539.8763,664.179678 539.388023,662.145193 538.867188,660.029297 C538.346352,657.913401 537.792972,655.813813 537.207031,653.730469 L536.621094,654.707031 C535.319004,656.074226 534.065761,657.604158 532.861328,659.296875 C531.656895,660.989592 530.631515,662.584628 529.785156,664.082031 L528.613281,665.839844 C528.222654,666.425784 527.864585,667.011716 527.539062,667.597656 C527.929689,667.532552 528.304035,667.5 528.662109,667.5 C529.020184,667.5 529.361978,667.467448 529.6875,667.402344 Z M592.578125,666.914062 C592.122394,667.304689 591.731772,667.77669 591.40625,668.330078 C591.080728,668.883466 590.75521,669.453122 590.429688,670.039062 C590.104165,670.755212 589.746096,671.438799 589.355469,672.089844 C588.964842,672.740889 588.476565,673.32682 587.890625,673.847656 C587.565103,674.824224 587.239585,675.58919 586.914062,676.142578 C586.58854,676.695966 586.067712,677.330726 585.351562,678.046875 C584.700518,680.651055 583.170585,683.483058 580.761719,686.542969 C580.696614,687.128909 580.51758,687.698565 580.224609,688.251953 C579.931639,688.805341 579.622397,689.342445 579.296875,689.863281 C579.166666,690.058595 579.036459,690.270181 578.90625,690.498047 C578.776041,690.725913 578.678386,690.904947 578.613281,691.035156 L578.417969,692.011719 C578.092446,692.532555 577.734377,692.988279 577.34375,693.378906 L576.269531,694.453125 C576.139322,694.648438 575.91146,694.908853 575.585938,695.234375 L574.121094,695.820312 C569.368466,695.169268 566.471359,692.63023 565.429688,688.203125 L565.527344,687.226562 C565.657553,686.90104 565.771484,686.559247 565.869141,686.201172 C565.966797,685.843097 566.080729,685.468752 566.210938,685.078125 C566.471355,684.166662 566.780597,683.255213 567.138672,682.34375 C567.496747,681.432287 568.033851,680.618493 568.75,679.902344 C568.880209,679.446612 569.173175,678.714198 569.628906,677.705078 C570.084638,676.695958 570.86588,675.182302 571.972656,673.164062 C572.884119,671.601555 573.600258,670.364588 574.121094,669.453125 C574.64193,668.541662 575.065103,667.825523 575.390625,667.304688 C574.73958,666.263016 573.958338,665.319015 573.046875,664.472656 C572.200517,662.845044 571.468102,661.28256 570.849609,659.785156 C570.231117,658.287753 569.759116,656.953131 569.433594,655.78125 C569.368489,654.934892 569.270834,654.218753 569.140625,653.632812 C569.010416,653.046872 568.880209,652.428389 568.75,651.777344 C568.554687,651.061194 568.391928,650.345056 568.261719,649.628906 C568.13151,648.912757 568.066406,648.164066 568.066406,647.382812 C567.740884,646.927081 567.545573,646.471356 567.480469,646.015625 L567.675781,645.039062 C567.871095,644.583331 567.903646,643.981124 567.773438,643.232422 C567.643229,642.48372 567.48047,641.718754 567.285156,640.9375 C567.154947,640.286455 567.008464,639.570316 566.845703,638.789062 C566.682942,638.007809 566.634114,637.226566 566.699219,636.445312 C566.764323,635.664059 566.97591,634.931644 567.333984,634.248047 C567.692059,633.56445 568.294267,632.962242 569.140625,632.441406 L570.800781,632.34375 C571.386722,632.669272 571.956377,632.978514 572.509766,633.271484 C573.063154,633.564455 573.600258,633.873696 574.121094,634.199219 C574.837243,634.524741 575.52083,634.850259 576.171875,635.175781 C576.82292,635.501304 577.506507,635.924477 578.222656,636.445312 L578.90625,637.8125 L580.175781,638.886719 L580.175781,639.960938 C580.240886,640.221355 580.273438,640.579425 580.273438,641.035156 C580.273438,641.881515 580.403645,642.402343 580.664062,642.597656 L581.054688,643.769531 C581.054688,644.680994 581.152343,645.543616 581.347656,646.357422 C581.54297,647.171228 581.73828,647.936194 581.933594,648.652344 C582.128907,649.368493 582.324218,650.117184 582.519531,650.898438 C582.714845,651.679691 582.747396,652.526037 582.617188,653.4375 C583.007814,653.242187 583.333332,653.014324 583.59375,652.753906 C583.723959,652.623697 583.854166,652.526042 583.984375,652.460938 C584.114584,652.395833 584.244791,652.298178 584.375,652.167969 L590.136719,644.355469 L589.941406,643.378906 L591.992188,641.425781 C592.513023,640.904945 593.017576,640.416669 593.505859,639.960938 C593.994143,639.505206 594.40104,639.01693 594.726562,638.496094 L595.800781,637.714844 C597.884125,634.459619 600.846335,632.44141 604.6875,631.660156 L606.054688,631.464844 L606.445312,632.734375 C606.70573,633.450524 607.242834,634.10156 608.056641,634.6875 C608.870447,635.27344 609.733068,635.82682 610.644531,636.347656 L611.523438,636.933594 C611.84896,637.584639 612.011719,638.072915 612.011719,638.398438 C612.011719,638.72396 611.979167,639.016926 611.914062,639.277344 L612.304688,640.253906 C611.783852,641.816414 611.149092,642.955726 610.400391,643.671875 C609.651689,644.388024 608.919274,645.03906 608.203125,645.625 C607.617185,646.145836 607.080081,646.617836 606.591797,647.041016 C606.103513,647.464195 605.729168,648.001299 605.46875,648.652344 L604.785156,649.433594 C603.417962,650.214848 602.539064,651.256504 602.148438,652.558594 L601.855469,653.730469 L600.683594,653.730469 C600.618489,653.730469 600.472006,653.8444 600.244141,654.072266 C600.016275,654.300131 599.674481,654.869787 599.21875,655.78125 C598.763019,656.432295 598.437501,656.855468 598.242188,657.050781 L597.753906,657.539062 C597.688802,657.79948 597.607422,658.043619 597.509766,658.271484 C597.412109,658.49935 597.298178,658.77604 597.167969,659.101562 C596.32161,659.947921 595.800782,660.58268 595.605469,661.005859 C595.410155,661.429039 595.182293,661.901039 594.921875,662.421875 C594.661457,662.942711 594.417319,663.447263 594.189453,663.935547 C593.961587,664.423831 593.587242,664.928383 593.066406,665.449219 L592.578125,666.914062 Z M617.089844,682.34375 C616.373694,684.94793 615.738935,686.917311 615.185547,688.251953 C614.632159,689.586595 613.802089,690.970045 612.695312,692.402344 C611.848954,692.272135 611.263022,692.36979 610.9375,692.695312 C610.611978,693.020835 610.253908,693.313801 609.863281,693.574219 C609.277341,693.704428 608.854168,693.704428 608.59375,693.574219 C608.333332,693.44401 608.10547,693.297527 607.910156,693.134766 C607.714843,692.972004 607.470705,692.809246 607.177734,692.646484 C606.884764,692.483723 606.445315,692.402344 605.859375,692.402344 C605.729166,691.881508 605.582683,691.393231 605.419922,690.9375 C605.257161,690.481769 604.817712,690.31901 604.101562,690.449219 C604.231771,689.928383 604.264323,689.488934 604.199219,689.130859 C604.134114,688.772785 604.052735,688.447267 603.955078,688.154297 C603.857421,687.861327 603.776042,687.568361 603.710938,687.275391 C603.645833,686.98242 603.678385,686.608075 603.808594,686.152344 C603.483071,686.152344 603.222657,685.924481 603.027344,685.46875 C602.83203,685.013019 602.604168,684.557294 602.34375,684.101562 C602.539063,682.929682 602.734374,681.822922 602.929688,680.78125 C603.125001,679.739578 603.369139,678.763025 603.662109,677.851562 C603.95508,676.9401 604.199218,676.02865 604.394531,675.117188 C604.589845,674.205725 604.492189,673.261724 604.101562,672.285156 C604.36198,672.48047 604.557291,672.431642 604.6875,672.138672 C604.817709,671.845702 604.915364,671.455081 604.980469,670.966797 C605.045573,670.478513 605.078125,669.990237 605.078125,669.501953 C605.078125,669.013669 605.045573,668.606772 604.980469,668.28125 C605.631514,666.588533 606.168618,664.847014 606.591797,663.056641 C607.014976,661.266267 607.405597,659.492196 607.763672,657.734375 C608.121747,655.976554 608.496092,654.251311 608.886719,652.558594 C609.277346,650.865877 609.798174,649.303393 610.449219,647.871094 C611.165368,647.740885 611.962886,647.822264 612.841797,648.115234 C613.720708,648.408205 614.257812,648.78255 614.453125,649.238281 C616.145842,647.936191 617.643223,646.357431 618.945312,644.501953 C620.247402,642.646475 621.582024,640.839853 622.949219,639.082031 C624.316413,637.32421 625.83007,635.761726 627.490234,634.394531 C629.150399,633.027337 631.249987,632.213543 633.789062,631.953125 C635.091152,632.929692 636.539706,633.922521 638.134766,634.931641 C639.729826,635.94076 641.048172,637.259106 642.089844,638.886719 C642.61068,639.147137 643.050128,639.423827 643.408203,639.716797 C643.766278,640.009767 644.205727,640.319009 644.726562,640.644531 L644.726562,641.816406 C645.507816,642.532556 646.142576,643.362625 646.630859,644.306641 C647.119143,645.250656 647.558592,646.25976 647.949219,647.333984 L649.121094,650.556641 C649.511721,651.630865 649.967445,652.656245 650.488281,653.632812 C650.358072,653.958335 650.292969,654.235025 650.292969,654.462891 C650.292969,654.690756 650.341796,654.934895 650.439453,655.195312 C650.53711,655.45573 650.618489,655.716145 650.683594,655.976562 C650.748698,656.23698 650.748698,656.59505 650.683594,657.050781 C650.48828,659.915379 649.560555,662.226554 647.900391,663.984375 C646.240226,665.742196 644.238293,667.19075 641.894531,668.330078 C639.55077,669.469407 637.044284,670.429684 634.375,671.210938 C631.705716,671.992191 629.296886,672.838537 627.148438,673.75 C627.148438,674.010418 627.262369,674.140625 627.490234,674.140625 C627.7181,674.140625 627.799479,674.303384 627.734375,674.628906 C629.296883,675.605474 630.53385,676.386716 631.445312,676.972656 C632.356775,677.558597 633.219397,678.046873 634.033203,678.4375 C634.847009,678.828127 635.725907,679.16992 636.669922,679.462891 C637.613937,679.755861 638.932283,680.097654 640.625,680.488281 C642.317717,680.878908 643.636063,681.18815 644.580078,681.416016 C645.524093,681.643881 646.386715,681.839192 647.167969,682.001953 C647.949223,682.164714 648.746741,682.294921 649.560547,682.392578 C650.374353,682.490235 651.52994,682.604166 653.027344,682.734375 C653.613284,683.320315 654.117836,684.020178 654.541016,684.833984 C654.964195,685.647791 655.240885,686.461584 655.371094,687.275391 C655.501303,688.089197 655.533854,688.870439 655.46875,689.619141 C655.403646,690.367842 655.175783,690.97005 654.785156,691.425781 C654.850261,691.621095 654.996744,691.702474 655.224609,691.669922 C655.452475,691.63737 655.696613,691.653646 655.957031,691.71875 C655.566404,691.979168 655.240887,692.304686 654.980469,692.695312 L654.199219,693.867188 C653.938801,694.257814 653.645835,694.599608 653.320312,694.892578 C652.99479,695.185548 652.539065,695.364583 651.953125,695.429688 C649.934886,696.210941 647.395849,696.259769 644.335938,695.576172 C641.276026,694.892575 637.402367,693.639332 632.714844,691.816406 C630.371082,690.904943 628.466804,690.107425 627.001953,689.423828 C625.537102,688.740231 624.267583,688.056644 623.193359,687.373047 C622.119135,686.68945 621.142583,685.957035 620.263672,685.175781 C619.384761,684.394527 618.326829,683.450526 617.089844,682.34375 Z M631.054688,648.847656 C630.338538,649.889328 629.54102,650.833329 628.662109,651.679688 C627.783199,652.526046 626.936853,653.388667 626.123047,654.267578 C625.309241,655.146489 624.576826,656.123042 623.925781,657.197266 C623.274736,658.27149 622.819012,659.524732 622.558594,660.957031 C624.837251,660.696613 627.213529,660.061854 629.6875,659.052734 C632.161471,658.043615 634.505197,657.083338 636.71875,656.171875 C636.458332,654.153636 635.758469,652.526048 634.619141,651.289062 C633.479812,650.052077 632.291673,649.238283 631.054688,648.847656 Z" id="text-logo" fill="#FFFFFF" fill-rule="nonzero"></path>
                <polygon id="Path-12" stroke="#FFFFFF" stroke-width="5" fill="#303841" points="87 581.5 579 581.5 579 0 87 0"></polygon>
                <path d="M147,522 L507.5,62.5" id="Path-18" stroke="#FFFFFF" stroke-width="7"></path>
            </g>
            <g id="Shield" transform="translate(365.000000, 325.000000)" stroke="#FFFFFF">
                <path d="M86.5,0 C79.719751,13.9914299 68.7032416,27.2535214 53.4504717,39.7862745 C38.1977018,52.3190276 20.3808779,62.7484394 0,71.0745098 C3.53616352,93.220915 12.9205975,115.882353 28.1533019,139.058824 C43.3860063,162.235294 62.8349057,181.54902 86.5,197 C109.420255,182.820411 129.277173,163.506685 146.070755,139.058824 C162.864337,114.610962 171.840752,91.949524 173,71.0745098 C150.209571,61.2155913 132.120734,50.7861795 118.733491,39.7862745 C105.346247,28.7863695 94.60175,15.524278 86.5,0 Z" id="Path-11" stroke-width="5"></path>
                <path d="M86.5,60.5 L86.5,154.5" id="Path-16" stroke-width="4"></path>
                <path d="M56,83 L117.5,83" id="Path-17" stroke-width="4"></path>
            </g>
            <g id="Sword" transform="translate(147.000000, 44.000000)" stroke="#FFFFFF">
                <polygon id="Path-13" stroke-width="5" points="44.16 267 44.16 205.064327 0 205.064327 0 194.134503 44.16 194.134503 31.36 54.6491228 56.32 0 81.28 54.6491228 67.84 194.134503 112 194.134503 112 205.064327 67.84 205.064327 67.84 267"></polygon>
                <path d="M56.5,39 L56.5,174" id="Path-14" stroke-width="3"></path>
                <path d="M68,212 L44,221" id="Path-15" stroke-width="2"></path>
                <path d="M68,248 L44,257" id="Path-15" stroke-width="2"></path>
                <path d="M68,239 L44,248" id="Path-15" stroke-width="2"></path>
                <path d="M68,229 L44,238" id="Path-15" stroke-width="2"></path>
                <path d="M68,221 L44,230" id="Path-15" stroke-width="2"></path>
            </g>
        </g>
    </g>
</svg>