<?xml version="1.0" encoding="UTF-8"?>
<svg width="655px" height="1044px" viewBox="0 0 655 1044" version="1.1" xmlns="http://www.w3.org/2000/svg" xmlns:xlink="http://www.w3.org/1999/xlink">
    <!-- Generator: Sketch 56.3 (81716) - https://sketch.com -->
    <title>Logo</title>
    <desc>Created with Sketch.</desc>
    <g id="Page-1" stroke="none" stroke-width="1" fill="none" fill-rule="evenodd">
        <g id="Logo">
            <g id="Banner">
                <polygon id="Path-9" fill="#303841" points="86 761.5 578 761.5 578 1043.5 332 896.552109 86 1043.5"></polygon>
                <path d="M6.6171875,685.566406 C6.29166504,684.850257 5.96614746,684.16667 5.640625,683.515625 C5.31510254,682.86458 4.98958496,682.278648 4.6640625,681.757812 C3.88280859,680.195305 3.19922168,678.795579 2.61328125,677.558594 C2.02734082,676.321608 1.47396094,674.889331 0.953125,673.261719 C1.14843848,672.154942 1.49023193,670.299492 1.97851562,667.695312 C2.46679932,665.091133 3.03645508,662.242854 3.6875,659.150391 C4.33854492,656.057927 5.03840771,652.916683 5.78710938,649.726562 C6.53581104,646.536442 7.30077734,643.802095 8.08203125,641.523438 C8.79818066,639.505198 9.59569873,637.356782 10.4746094,635.078125 C11.35352,632.799468 12.3300728,630.699879 13.4042969,628.779297 C14.478521,626.858714 15.6341084,625.214851 16.8710938,623.847656 C18.1080791,622.480462 19.4427012,621.666668 20.875,621.40625 C21.265627,621.927086 21.6887998,622.333983 22.1445312,622.626953 C22.6002627,622.919923 23.0234355,623.13151 23.4140625,623.261719 C24.5208389,624.824227 25.5950469,626.142573 26.6367187,627.216797 C27.6783906,628.291021 28.9153574,629.348953 30.3476562,630.390625 C29.9570293,632.34376 29.3873735,634.508452 28.6386719,636.884766 C27.8899702,639.26108 27.108728,641.653634 26.2949219,644.0625 C25.4811157,646.471366 24.6835977,648.798817 23.9023438,651.044922 C23.1210898,653.291027 22.5026064,655.227856 22.046875,656.855469 C21.656248,658.157559 21.265627,659.654939 20.875,661.347656 C20.5494775,662.779955 20.2076841,664.505198 19.8496094,666.523438 C19.4915347,668.541677 19.1497412,670.755196 18.8242188,673.164062 C19.7356816,672.903645 20.761062,672.382816 21.9003906,671.601562 C23.0397192,670.820309 24.0976514,670.006515 25.0742188,669.160156 C26.2460996,668.183589 27.3854111,667.141933 28.4921875,666.035156 C29.9895908,664.537753 31.2591094,663.170579 32.3007812,661.933594 C33.3424531,660.696608 34.30273,659.410814 35.1816406,658.076172 C36.0605513,656.74153 36.9720005,655.276701 37.9160156,653.681641 C38.8600308,652.086581 39.9830664,650.182303 41.2851562,647.96875 C42.4570371,646.08072 43.677728,644.062511 44.9472656,641.914062 C46.2168032,639.765614 47.5025977,637.714854 48.8046875,635.761719 C50.1067773,633.808584 51.3762959,632.001961 52.6132812,630.341797 C53.8502666,628.681632 54.9895781,627.395838 56.03125,626.484375 C56.7473994,627.200524 57.5774692,627.949215 58.5214844,628.730469 C59.4654995,629.511723 60.4908799,630.065103 61.5976562,630.390625 C62.0533877,631.106774 62.4928364,631.741534 62.9160156,632.294922 C63.3391948,632.84831 63.7460918,633.385414 64.1367188,633.90625 C64.6575547,634.622399 65.1295552,635.273435 65.5527344,635.859375 C65.9759136,636.445315 66.3502588,637.096351 66.6757812,637.8125 C66.6106768,638.333336 66.4967456,639.016923 66.3339844,639.863281 C66.1712231,640.70964 65.9921885,641.637365 65.796875,642.646484 C65.6015615,643.655604 65.3899751,644.680984 65.1621094,645.722656 C64.9342437,646.764328 64.7226572,647.773433 64.5273438,648.75 C63.8762988,651.679702 63.3880225,653.893222 63.0625,655.390625 C62.7369775,656.888028 62.5091152,658.059892 62.3789062,658.90625 C62.2486973,659.752608 62.1673179,660.468747 62.1347656,661.054688 C62.1022134,661.640628 62.0859375,662.454422 62.0859375,663.496094 C62.0859375,664.277348 62.151041,665.05859 62.28125,665.839844 C62.411459,666.555993 62.5579419,667.288408 62.7207031,668.037109 C62.8834644,668.785811 63.1927061,669.485674 63.6484375,670.136719 L68.3359375,666.523438 C69.6380273,665.54687 70.89127,664.16342 72.0957031,662.373047 C73.3001362,660.582673 74.4719995,658.531913 75.6113281,656.220703 C76.7506567,653.909494 77.8736924,651.403008 78.9804688,648.701172 C80.0872451,645.999335 81.1940049,643.21616 82.3007812,640.351562 C83.0820352,638.268219 83.8795532,636.201182 84.6933594,634.150391 C85.5071655,632.099599 86.3372354,630.146494 87.1835938,628.291016 C88.0299521,626.435538 88.860022,624.742846 89.6738281,623.212891 C90.4876343,621.682935 91.2851523,620.397141 92.0664062,619.355469 C93.8242275,620.462245 95.3378843,621.569005 96.6074219,622.675781 C97.8769595,623.782558 98.9837192,625.003249 99.9277344,626.337891 C100.87175,627.672533 101.62044,629.202465 102.173828,630.927734 C102.727216,632.653003 103.134113,634.687488 103.394531,637.03125 C101.962232,639.765639 100.62761,642.56509 99.390625,645.429688 C98.1536396,648.294285 96.9166729,651.191392 95.6796875,654.121094 C94.1171797,657.897154 92.5058677,661.656882 90.8457031,665.400391 C89.1855386,669.143899 87.3463643,672.708316 85.328125,676.09375 C83.3098857,679.479184 81.0475386,682.587876 78.5410156,685.419922 C76.0344927,688.251967 73.1536621,690.644521 69.8984375,692.597656 C68.9869746,692.402343 68.2057324,692.304688 67.5546875,692.304688 C66.8385381,692.304688 66.2363306,692.402343 65.7480469,692.597656 C65.2597632,692.79297 64.8203145,693.053384 64.4296875,693.378906 C61.7604033,692.141921 59.6119873,690.302747 57.984375,687.861328 C56.3567627,685.41991 54.7617266,682.701838 53.1992188,679.707031 C53.0039053,679.2513 52.7923188,678.811851 52.5644531,678.388672 C52.3365874,677.965493 52.0924492,677.526044 51.8320312,677.070312 L50.171875,674.042969 L49.1953125,672.1875 L47.828125,673.457031 L45.7773438,675.3125 L44.6054688,676.484375 C42.5872295,678.372405 40.5364687,680.21158 38.453125,682.001953 C36.3697813,683.792327 34.1888135,685.419915 31.9101562,686.884766 C29.631499,688.349617 27.2063931,689.537756 24.6347656,690.449219 C22.0631382,691.360682 19.3125146,691.848958 16.3828125,691.914062 C15.8619766,691.653645 15.3899761,691.425782 14.9667969,691.230469 C14.5436177,691.035155 14.1367207,690.839845 13.7460938,690.644531 C12.2486904,689.928382 11.0117236,689.244795 10.0351562,688.59375 C9.05858887,687.942705 7.91927734,686.933601 6.6171875,685.566406 Z M152.90625,637.519531 C152.971354,637.975263 152.98763,638.317056 152.955078,638.544922 C152.922526,638.772788 152.889974,638.984374 152.857422,639.179688 C152.82487,639.375001 152.808594,639.586587 152.808594,639.814453 C152.808594,640.042319 152.873697,640.384112 153.003906,640.839844 C151.636712,643.053396 150.057952,644.567053 148.267578,645.380859 C146.477205,646.194666 144.540375,646.780597 142.457031,647.138672 C140.373687,647.496747 138.241547,647.871092 136.060547,648.261719 C133.879546,648.652346 131.714854,649.498691 129.566406,650.800781 C128.720048,650.475259 127.955082,650.475259 127.271484,650.800781 C126.587887,651.126304 125.595059,651.223959 124.292969,651.09375 C123.902342,651.484377 123.414065,651.761067 122.828125,651.923828 C122.242185,652.086589 121.656253,652.265624 121.070312,652.460938 C121.33073,653.046878 121.444662,653.649085 121.412109,654.267578 C121.379557,654.886071 121.460937,655.390623 121.65625,655.78125 C123.934907,655.976563 126.457668,655.944012 129.224609,655.683594 C131.99155,655.423176 134.709622,655.260417 137.378906,655.195312 C137.444011,655.520835 137.411459,655.732421 137.28125,655.830078 C137.151041,655.927735 137.118489,656.10677 137.183594,656.367188 C137.639325,656.69271 138.09505,657.099607 138.550781,657.587891 C139.006513,658.076174 139.462237,658.548175 139.917969,659.003906 C140.3737,659.459638 140.845701,659.833983 141.333984,660.126953 C141.822268,660.419923 142.391924,660.533854 143.042969,660.46875 C143.303387,660.989586 143.482421,661.559242 143.580078,662.177734 C143.677735,662.796227 143.596355,663.430986 143.335938,664.082031 C142.294266,664.798181 141.252609,665.530595 140.210938,666.279297 C139.169266,667.027999 138.078782,667.69531 136.939453,668.28125 C135.800125,668.86719 134.595709,669.339191 133.326172,669.697266 C132.056634,670.05534 130.640633,670.201823 129.078125,670.136719 L128.345703,670.136719 C128.182942,670.136719 127.971355,670.039063 127.710938,669.84375 C127.190102,670.169272 126.457687,670.266928 125.513672,670.136719 C124.569657,670.00651 123.837242,670.104165 123.316406,670.429688 C122.600257,670.104165 121.737635,669.957682 120.728516,669.990234 C119.719396,670.022787 118.824223,669.908855 118.042969,669.648438 C117.001297,671.015632 116.057296,672.480461 115.210938,674.042969 C114.364579,675.605477 113.615889,677.265616 112.964844,679.023438 C115.178396,679.34896 117.017571,679.479167 118.482422,679.414062 C119.947273,679.348958 121.330723,679.235027 122.632812,679.072266 C123.934902,678.909504 125.269524,678.746746 126.636719,678.583984 C128.003913,678.421223 129.729156,678.372396 131.8125,678.4375 C133.11459,677.721351 134.660798,677.24935 136.451172,677.021484 C138.241545,676.793619 139.885409,676.419273 141.382812,675.898438 C141.903648,676.093751 142.359373,676.435544 142.75,676.923828 C143.140627,677.412112 143.514972,677.867836 143.873047,678.291016 C144.231122,678.714195 144.605467,679.08854 144.996094,679.414062 C145.386721,679.739585 145.874997,679.869792 146.460938,679.804688 C146.721355,680.065105 146.90039,680.374347 146.998047,680.732422 C147.095704,681.090497 147.177083,681.43229 147.242188,681.757812 C147.307292,682.083335 147.421223,682.360025 147.583984,682.587891 C147.746746,682.815756 148.023436,682.897136 148.414062,682.832031 C147.437495,684.980479 146.314459,686.624343 145.044922,687.763672 C143.775384,688.903 142.326831,689.765622 140.699219,690.351562 C139.071606,690.937503 137.264984,691.393228 135.279297,691.71875 C133.29361,692.044272 131.096366,692.434894 128.6875,692.890625 C128.10156,693.020834 127.613283,693.004558 127.222656,692.841797 C126.832029,692.679036 126.376305,692.597656 125.855469,692.597656 C124.358065,692.923179 122.567719,693.216145 120.484375,693.476562 C118.401031,693.73698 116.285167,693.834636 114.136719,693.769531 C111.988271,693.704427 109.93751,693.427737 107.984375,692.939453 C106.03124,692.451169 104.436204,691.588548 103.199219,690.351562 C102.678383,689.895831 102.336589,689.358727 102.173828,688.740234 C102.011067,688.121742 101.571618,687.649741 100.855469,687.324219 C100.790364,686.47786 100.660157,685.533859 100.464844,684.492188 C100.26953,683.450516 100.07422,682.360032 99.8789062,681.220703 C99.6835928,680.081375 99.5371099,678.958339 99.4394531,677.851562 C99.3417964,676.744786 99.3906247,675.735682 99.5859375,674.824219 C99.781251,673.847651 100.188148,672.968754 100.806641,672.1875 C101.425133,671.406246 101.63672,670.5599 101.441406,669.648438 C101.766929,669.583333 101.962239,669.404298 102.027344,669.111328 C102.092448,668.818358 102.352862,668.704427 102.808594,668.769531 C103.199221,667.59765 103.622394,666.490891 104.078125,665.449219 C104.533856,664.407547 105.005857,663.398442 105.494141,662.421875 C105.982424,661.445308 106.470701,660.452479 106.958984,659.443359 C107.447268,658.43424 107.919269,657.311204 108.375,656.074219 C107.463537,655.22786 106.796226,654.300135 106.373047,653.291016 C105.949868,652.281896 105.640626,651.272792 105.445312,650.263672 C105.249999,649.254552 105.08724,648.212896 104.957031,647.138672 C104.826822,646.064448 104.59896,644.973964 104.273438,643.867188 C104.924482,642.89062 105.722,642.093102 106.666016,641.474609 C107.610031,640.856117 108.635411,640.351564 109.742188,639.960938 C110.848964,639.570311 112.053379,639.244793 113.355469,638.984375 C114.657559,638.723957 116.024732,638.430991 117.457031,638.105469 C120.061211,637.25911 122.388662,636.608075 124.439453,636.152344 C126.490245,635.696612 128.508454,635.322267 130.494141,635.029297 C132.479828,634.736327 134.546864,634.459637 136.695312,634.199219 C138.843761,633.938801 141.285143,633.54818 144.019531,633.027344 C144.605472,633.613284 145.158852,633.90625 145.679688,633.90625 C145.940105,633.32031 146.249347,633.141275 146.607422,633.369141 C146.965497,633.597006 147.111979,633.417972 147.046875,632.832031 C147.69792,633.938808 148.52799,634.866533 149.537109,635.615234 C150.546229,636.363936 151.669265,636.998695 152.90625,637.519531 Z M204.175781,676.582031 C204.566408,676.777345 204.794271,677.102862 204.859375,677.558594 C204.924479,678.014325 204.924479,678.372395 204.859375,678.632812 C203.687494,680.130216 202.8737,681.171872 202.417969,681.757812 C201.962237,682.343753 201.63672,682.783202 201.441406,683.076172 C201.246093,683.369142 201.034506,683.61328 200.806641,683.808594 C200.578775,684.003907 200.074223,684.42708 199.292969,685.078125 C196.363267,686.835946 193.352229,688.398431 190.259766,689.765625 C187.167302,691.132819 183.928402,692.07682 180.542969,692.597656 C180.022133,693.313806 179.029304,693.818358 177.564453,694.111328 C176.099602,694.404298 174.748704,694.680988 173.511719,694.941406 C173.251301,694.811197 173.104818,694.632163 173.072266,694.404297 C173.039713,694.176431 172.89323,693.997396 172.632812,693.867188 C172.567708,694.518232 172.274742,694.860026 171.753906,694.892578 C171.23307,694.92513 170.598311,694.794923 169.849609,694.501953 C169.100908,694.208983 168.319666,693.818362 167.505859,693.330078 C166.692053,692.841794 165.99219,692.402346 165.40625,692.011719 C165.080728,692.532555 164.738934,693.053383 164.380859,693.574219 C164.022785,694.095055 163.583336,694.453124 163.0625,694.648438 L161.451172,694.355469 C161.093097,694.290364 160.751304,694.420571 160.425781,694.746094 C160.035156,694.55078 159.725913,694.322918 159.498047,694.0625 C159.270181,693.802082 159.042319,693.557944 158.814453,693.330078 C158.586587,693.102212 158.326173,692.890626 158.033203,692.695312 C157.740233,692.499999 157.333336,692.33724 156.8125,692.207031 C156.942709,691.946613 156.877605,691.539716 156.617188,690.986328 C156.35677,690.43294 155.966148,690.091146 155.445312,689.960938 C155.70573,689.505206 155.591799,688.93555 155.103516,688.251953 C154.615232,687.568356 154.240887,686.80339 153.980469,685.957031 C154.110678,685.240882 154.208333,684.45964 154.273438,683.613281 C154.338542,682.766923 154.729163,682.278646 155.445312,682.148438 C155.380208,681.692706 155.282553,681.302085 155.152344,680.976562 L154.761719,680 C155.21745,679.609373 155.542968,679.137373 155.738281,678.583984 C155.933595,678.030596 156.096354,677.46094 156.226562,676.875 C156.356771,676.28906 156.51953,675.703128 156.714844,675.117188 C156.910157,674.531247 157.268227,674.042971 157.789062,673.652344 C158.375003,671.699209 158.830728,670.250656 159.15625,669.306641 C159.481772,668.362625 159.725911,667.4349 159.888672,666.523438 C160.051433,665.611975 160.246744,664.635422 160.474609,663.59375 C160.702475,662.552078 161.109372,661.250008 161.695312,659.6875 C161.630208,658.710933 161.727863,657.848311 161.988281,657.099609 C162.248699,656.350908 162.525389,655.602217 162.818359,654.853516 C163.11133,654.104814 163.355468,653.323572 163.550781,652.509766 C163.746095,651.695959 163.713543,650.735683 163.453125,649.628906 C162.541662,649.694011 161.890627,650.003252 161.5,650.556641 C161.109373,651.110029 160.848959,651.842443 160.71875,652.753906 C160.197914,653.274742 159.563155,653.51888 158.814453,653.486328 C158.065751,653.453776 157.39844,653.535155 156.8125,653.730469 C154.533843,652.819006 152.645841,651.516936 151.148438,649.824219 C149.651034,648.131502 148.446619,646.145845 147.535156,643.867188 C148.121097,642.369784 148.999994,641.116542 150.171875,640.107422 C151.343756,639.098302 152.678378,638.251957 154.175781,637.568359 C155.673185,636.884762 157.268221,636.331382 158.960938,635.908203 L163.84375,634.6875 C166.382825,634.231769 168.921862,633.71094 171.460938,633.125 C174.000013,632.53906 176.73436,632.343749 179.664062,632.539062 C180.054689,632.343749 180.52669,632.229818 181.080078,632.197266 C181.633466,632.164713 182.203122,632.148438 182.789062,632.148438 C183.375003,632.148438 183.944659,632.132162 184.498047,632.099609 C185.051435,632.067057 185.523436,631.953126 185.914062,631.757812 C186.239585,632.148439 186.711585,632.392578 187.330078,632.490234 C187.948571,632.587891 188.615882,632.897133 189.332031,633.417969 C190.113285,632.832028 190.780596,632.701821 191.333984,633.027344 C191.887373,633.352866 192.391925,633.710936 192.847656,634.101562 C193.303388,634.492189 193.742836,634.850259 194.166016,635.175781 C194.589195,635.501304 195.028644,635.664062 195.484375,635.664062 C195.940106,636.250003 196.509762,636.803383 197.193359,637.324219 C197.876957,637.845055 198.527992,638.382159 199.146484,638.935547 C199.764977,639.488935 200.285805,640.091143 200.708984,640.742188 C201.132164,641.393232 201.34375,642.141923 201.34375,642.988281 C201.278646,643.313804 201.376301,643.509114 201.636719,643.574219 C201.897137,643.639323 202.092447,643.76953 202.222656,643.964844 C202.287761,645.983083 201.978519,647.724602 201.294922,649.189453 C200.611325,650.654304 199.764979,652.005202 198.755859,653.242188 C197.74674,654.479173 196.63998,655.651036 195.435547,656.757812 C194.231114,657.864589 193.14063,659.036452 192.164062,660.273438 C192.815107,661.119796 193.563798,661.868486 194.410156,662.519531 C195.256515,663.170576 196.119136,663.821611 196.998047,664.472656 C197.876958,665.123701 198.707027,665.807288 199.488281,666.523438 C200.269535,667.239587 200.92057,668.085933 201.441406,669.0625 C201.571615,669.192709 201.734374,669.30664 201.929688,669.404297 C202.125001,669.501954 202.320312,669.615885 202.515625,669.746094 C202.710938,670.397139 202.971353,671.06445 203.296875,671.748047 C203.622397,672.431644 203.899087,673.082679 204.126953,673.701172 C204.354819,674.319665 204.501302,674.873044 204.566406,675.361328 C204.631511,675.849612 204.501304,676.256509 204.175781,676.582031 Z M186.988281,643.964844 C183.667952,643.834635 180.363949,644.127601 177.076172,644.84375 C173.788395,645.559899 171.037771,646.569004 168.824219,647.871094 C169.930995,648.782557 171.054031,649.596351 172.193359,650.3125 C173.332688,651.028649 174.227861,652.005202 174.878906,653.242188 C177.417981,652.200516 179.664053,650.882169 181.617188,649.287109 C183.570322,647.692049 185.360669,645.917979 186.988281,643.964844 Z M188.257812,675.117188 C188.453126,674.466143 188.811195,673.945314 189.332031,673.554688 C189.852867,673.164061 190.373695,672.789715 190.894531,672.431641 C191.415367,672.073566 191.871092,671.682945 192.261719,671.259766 C192.652346,670.836586 192.815104,670.234379 192.75,669.453125 C190.666656,668.346349 188.762378,667.679038 187.037109,667.451172 C185.31184,667.223306 183.684252,667.223306 182.154297,667.451172 C180.624341,667.679038 179.159512,668.020831 177.759766,668.476562 C176.360019,668.932294 174.944018,669.257812 173.511719,669.453125 C172.795569,671.341155 172.046879,673.391916 171.265625,675.605469 C170.484371,677.819021 169.735681,679.967437 169.019531,682.050781 C170.972666,681.790363 172.763013,681.383466 174.390625,680.830078 C176.018237,680.27669 177.596998,679.674482 179.126953,679.023438 C180.656909,678.372393 182.15429,677.705082 183.619141,677.021484 C185.083992,676.337887 186.6302,675.703128 188.257812,675.117188 Z M256.03125,666.132812 C255.966146,666.458335 255.901042,666.735025 255.835938,666.962891 C255.770833,667.190756 255.705729,667.402343 255.640625,667.597656 C255.575521,667.79297 255.542969,668.037108 255.542969,668.330078 L255.542969,669.453125 C253.589834,672.903663 251.132176,675.80077 248.169922,678.144531 C245.207667,680.488293 241.952492,682.55533 238.404297,684.345703 C234.856102,686.136077 231.161478,687.763665 227.320312,689.228516 C223.479147,690.693367 219.735695,692.272127 216.089844,693.964844 C214.527336,693.574217 213.339197,692.923182 212.525391,692.011719 C211.711584,691.100256 211.093101,690.042324 210.669922,688.837891 C210.246743,687.633458 209.953777,686.298835 209.791016,684.833984 C209.628254,683.369133 209.481771,681.855477 209.351562,680.292969 C209.546876,679.576819 209.823566,678.974612 210.181641,678.486328 C210.539715,677.998044 210.71875,677.298182 210.71875,676.386719 C211.239586,674.694002 211.760414,673.033862 212.28125,671.40625 C212.802086,669.778638 213.127604,668.118498 213.257812,666.425781 C213.453126,665.904945 213.811195,665.546876 214.332031,665.351562 C214.657554,662.226547 214.67383,659.05275 214.380859,655.830078 C214.087889,652.607406 213.550785,649.596368 212.769531,646.796875 C212.834636,646.14583 212.916015,645.67383 213.013672,645.380859 C213.111329,645.087889 213.095053,644.876303 212.964844,644.746094 C212.899739,644.225258 213.078774,643.964844 213.501953,643.964844 L214.820312,643.964844 C214.820312,642.988276 214.641278,642.011724 214.283203,641.035156 C213.925128,640.058589 213.583335,638.951829 213.257812,637.714844 C213.713544,636.738276 214.00651,635.778 214.136719,634.833984 C214.266928,633.889969 214.559894,633.059899 215.015625,632.34375 C218.531268,633.450526 221.900375,634.785148 225.123047,636.347656 C228.345719,637.910164 231.519516,639.049476 234.644531,639.765625 C236.988293,641.458342 239.397123,643.134757 241.871094,644.794922 C244.345064,646.455086 246.591136,648.277985 248.609375,650.263672 C250.627614,652.249359 252.320306,654.511706 253.6875,657.050781 C255.054694,659.589856 255.835937,662.61717 256.03125,666.132812 Z M232.886719,671.503906 C234.253913,670.98307 235.604811,670.42969 236.939453,669.84375 C238.274095,669.25781 239.511062,668.590499 240.650391,667.841797 C241.789719,667.093095 242.8151,666.230474 243.726562,665.253906 C244.638025,664.277339 245.386716,663.105476 245.972656,661.738281 C245.582029,660.957027 245.061201,660.257165 244.410156,659.638672 C243.759111,659.020179 243.108076,658.434248 242.457031,657.880859 C241.805986,657.327471 241.171227,656.757815 240.552734,656.171875 C239.934242,655.585935 239.429689,654.869796 239.039062,654.023438 C238.192704,653.893229 237.444014,653.64909 236.792969,653.291016 C236.141924,652.932941 235.507165,652.574872 234.888672,652.216797 C234.270179,651.858722 233.619144,651.516929 232.935547,651.191406 C232.25195,650.865884 231.454432,650.670573 230.542969,650.605469 C229.11067,649.889319 227.824875,649.368491 226.685547,649.042969 C225.546218,648.717446 224.683597,648.294273 224.097656,647.773438 C223.641925,647.773438 223.283855,647.871093 223.023438,648.066406 C223.674482,650.540377 224.162759,652.867828 224.488281,655.048828 C224.813804,657.229829 224.992838,659.410796 225.025391,661.591797 C225.057943,663.772797 224.944012,666.002593 224.683594,668.28125 C224.423176,670.559907 224.065106,673.033841 223.609375,675.703125 C224.26042,675.638021 224.862627,675.491538 225.416016,675.263672 C225.969404,675.035806 226.522784,674.791668 227.076172,674.53125 C227.62956,674.270832 228.215492,674.026694 228.833984,673.798828 C229.452477,673.570962 230.184892,673.424479 231.03125,673.359375 C231.226563,672.968748 231.503253,672.64323 231.861328,672.382812 C232.219403,672.122395 232.561196,671.829429 232.886719,671.503906 Z M311.109375,637.519531 C311.174479,637.975263 311.190755,638.317056 311.158203,638.544922 C311.125651,638.772788 311.093099,638.984374 311.060547,639.179688 C311.027995,639.375001 311.011719,639.586587 311.011719,639.814453 C311.011719,640.042319 311.076822,640.384112 311.207031,640.839844 C309.839837,643.053396 308.261077,644.567053 306.470703,645.380859 C304.68033,646.194666 302.7435,646.780597 300.660156,647.138672 C298.576812,647.496747 296.444672,647.871092 294.263672,648.261719 C292.082671,648.652346 289.917979,649.498691 287.769531,650.800781 C286.923173,650.475259 286.158207,650.475259 285.474609,650.800781 C284.791012,651.126304 283.798184,651.223959 282.496094,651.09375 C282.105467,651.484377 281.61719,651.761067 281.03125,651.923828 C280.44531,652.086589 279.859378,652.265624 279.273437,652.460938 C279.533855,653.046878 279.647787,653.649085 279.615234,654.267578 C279.582682,654.886071 279.664062,655.390623 279.859375,655.78125 C282.138032,655.976563 284.660793,655.944012 287.427734,655.683594 C290.194675,655.423176 292.912747,655.260417 295.582031,655.195312 C295.647136,655.520835 295.614584,655.732421 295.484375,655.830078 C295.354166,655.927735 295.321614,656.10677 295.386719,656.367188 C295.84245,656.69271 296.298175,657.099607 296.753906,657.587891 C297.209638,658.076174 297.665362,658.548175 298.121094,659.003906 C298.576825,659.459638 299.048826,659.833983 299.537109,660.126953 C300.025393,660.419923 300.595049,660.533854 301.246094,660.46875 C301.506512,660.989586 301.685546,661.559242 301.783203,662.177734 C301.88086,662.796227 301.79948,663.430986 301.539062,664.082031 C300.497391,664.798181 299.455734,665.530595 298.414062,666.279297 C297.372391,667.027999 296.281907,667.69531 295.142578,668.28125 C294.00325,668.86719 292.798834,669.339191 291.529297,669.697266 C290.259759,670.05534 288.843758,670.201823 287.28125,670.136719 L286.548828,670.136719 C286.386067,670.136719 286.17448,670.039063 285.914062,669.84375 C285.393227,670.169272 284.660812,670.266928 283.716797,670.136719 C282.772782,670.00651 282.040367,670.104165 281.519531,670.429688 C280.803382,670.104165 279.94076,669.957682 278.931641,669.990234 C277.922521,670.022787 277.027348,669.908855 276.246094,669.648438 C275.204422,671.015632 274.260421,672.480461 273.414062,674.042969 C272.567704,675.605477 271.819014,677.265616 271.167969,679.023438 C273.381521,679.34896 275.220696,679.479167 276.685547,679.414062 C278.150398,679.348958 279.533848,679.235027 280.835937,679.072266 C282.138027,678.909504 283.472649,678.746746 284.839844,678.583984 C286.207038,678.421223 287.932281,678.372396 290.015625,678.4375 C291.317715,677.721351 292.863923,677.24935 294.654297,677.021484 C296.44467,676.793619 298.088534,676.419273 299.585937,675.898438 C300.106773,676.093751 300.562498,676.435544 300.953125,676.923828 C301.343752,677.412112 301.718097,677.867836 302.076172,678.291016 C302.434247,678.714195 302.808592,679.08854 303.199219,679.414062 C303.589846,679.739585 304.078122,679.869792 304.664062,679.804688 C304.92448,680.065105 305.103515,680.374347 305.201172,680.732422 C305.298829,681.090497 305.380208,681.43229 305.445312,681.757812 C305.510417,682.083335 305.624348,682.360025 305.787109,682.587891 C305.949871,682.815756 306.226561,682.897136 306.617187,682.832031 C305.64062,684.980479 304.517584,686.624343 303.248047,687.763672 C301.978509,688.903 300.529956,689.765622 298.902344,690.351562 C297.274731,690.937503 295.468109,691.393228 293.482422,691.71875 C291.496735,692.044272 289.299491,692.434894 286.890625,692.890625 C286.304685,693.020834 285.816408,693.004558 285.425781,692.841797 C285.035154,692.679036 284.57943,692.597656 284.058594,692.597656 C282.56119,692.923179 280.770844,693.216145 278.6875,693.476562 C276.604156,693.73698 274.488292,693.834636 272.339844,693.769531 C270.191396,693.704427 268.140635,693.427737 266.1875,692.939453 C264.234365,692.451169 262.639329,691.588548 261.402344,690.351562 C260.881508,689.895831 260.539714,689.358727 260.376953,688.740234 C260.214192,688.121742 259.774743,687.649741 259.058594,687.324219 C258.993489,686.47786 258.863282,685.533859 258.667969,684.492188 C258.472655,683.450516 258.277345,682.360032 258.082031,681.220703 C257.886718,680.081375 257.740235,678.958339 257.642578,677.851562 C257.544921,676.744786 257.59375,675.735682 257.789062,674.824219 C257.984376,673.847651 258.391273,672.968754 259.009766,672.1875 C259.628258,671.406246 259.839845,670.5599 259.644531,669.648438 C259.970054,669.583333 260.165364,669.404298 260.230469,669.111328 C260.295573,668.818358 260.555987,668.704427 261.011719,668.769531 C261.402346,667.59765 261.825519,666.490891 262.28125,665.449219 C262.736981,664.407547 263.208982,663.398442 263.697266,662.421875 C264.185549,661.445308 264.673826,660.452479 265.162109,659.443359 C265.650393,658.43424 266.122394,657.311204 266.578125,656.074219 C265.666662,655.22786 264.999351,654.300135 264.576172,653.291016 C264.152993,652.281896 263.843751,651.272792 263.648437,650.263672 C263.453124,649.254552 263.290365,648.212896 263.160156,647.138672 C263.029947,646.064448 262.802085,644.973964 262.476562,643.867188 C263.127607,642.89062 263.925125,642.093102 264.869141,641.474609 C265.813156,640.856117 266.838536,640.351564 267.945312,639.960938 C269.052089,639.570311 270.256504,639.244793 271.558594,638.984375 C272.860684,638.723957 274.227857,638.430991 275.660156,638.105469 C278.264336,637.25911 280.591787,636.608075 282.642578,636.152344 C284.69337,635.696612 286.711579,635.322267 288.697266,635.029297 C290.682953,634.736327 292.749989,634.459637 294.898437,634.199219 C297.046886,633.938801 299.488268,633.54818 302.222656,633.027344 C302.808597,633.613284 303.361977,633.90625 303.882812,633.90625 C304.14323,633.32031 304.452472,633.141275 304.810547,633.369141 C305.168622,633.597006 305.315104,633.417972 305.25,632.832031 C305.901045,633.938808 306.731115,634.866533 307.740234,635.615234 C308.749354,636.363936 309.87239,636.998695 311.109375,637.519531 Z M341.285156,675.3125 C341.220052,676.223963 341.008465,677.086584 340.650391,677.900391 C340.292316,678.714197 339.852867,679.495439 339.332031,680.244141 C338.811195,680.992842 338.24154,681.708981 337.623047,682.392578 C337.004554,683.076175 336.402347,683.678383 335.816406,684.199219 C336.01172,685.045577 336.027996,685.680336 335.865234,686.103516 C335.702473,686.526695 335.653646,687.161454 335.71875,688.007812 C334.742183,690.611992 333.261078,692.353511 331.275391,693.232422 C329.289704,694.111333 327.417978,693.932298 325.660156,692.695312 C324.944007,692.174477 324.341799,691.507166 323.853516,690.693359 C323.365232,689.879553 322.697921,689.375001 321.851562,689.179688 C322.046876,688.072911 321.949221,686.966151 321.558594,685.859375 C321.167967,684.752599 320.744794,684.166667 320.289062,684.101562 C320.093749,682.734368 319.800783,681.269539 319.410156,679.707031 C319.019529,678.144523 318.66146,676.565763 318.335938,674.970703 C318.010415,673.375643 317.733725,671.813159 317.505859,670.283203 C317.277994,668.753248 317.196614,667.337246 317.261719,666.035156 C317.326823,665.384111 317.212892,664.79818 316.919922,664.277344 C316.626952,663.756508 316.415365,663.138024 316.285156,662.421875 C316.024738,660.924472 315.943359,659.345711 316.041016,657.685547 C316.138672,656.025382 316.1875,654.446622 316.1875,652.949219 C316.1875,651.51692 316.106121,649.970711 315.943359,648.310547 C315.780598,646.650382 315.634115,645.055346 315.503906,643.525391 C315.373697,641.995435 315.308594,640.595709 315.308594,639.326172 C315.308594,638.056634 315.471353,637.063806 315.796875,636.347656 C316.187502,635.566402 316.724606,634.931643 317.408203,634.443359 C318.0918,633.955076 318.72656,633.417972 319.3125,632.832031 C320.744799,632.96224 321.88411,633.548172 322.730469,634.589844 C323.576827,635.631516 323.902345,636.608068 323.707031,637.519531 C325.074226,638.36589 326.164709,639.456374 326.978516,640.791016 C327.792322,642.125658 328.443357,643.623039 328.931641,645.283203 C329.419924,646.943368 329.761718,648.701163 329.957031,650.556641 C330.152345,652.412119 330.315104,654.235017 330.445312,656.025391 C330.575521,657.815764 330.705729,659.524731 330.835938,661.152344 C330.966146,662.779956 331.226561,664.179682 331.617188,665.351562 C334.026054,661.901024 336.044263,658.824883 337.671875,656.123047 C339.299487,653.42121 340.959627,650.833346 342.652344,648.359375 C344.345061,645.885404 346.233062,643.378919 348.316406,640.839844 C350.39975,638.300769 353.101546,635.436214 356.421875,632.246094 C357.07292,632.311198 357.610024,632.441405 358.033203,632.636719 C358.456382,632.832032 358.830728,632.994791 359.15625,633.125 C359.481772,633.255209 359.872394,633.36914 360.328125,633.466797 C360.783856,633.564454 361.40234,633.548178 362.183594,633.417969 C362.444012,634.069014 362.639322,634.541014 362.769531,634.833984 C362.89974,635.126955 363.013671,635.41992 363.111328,635.712891 C363.208985,636.005861 363.339192,636.380206 363.501953,636.835938 C363.664714,637.291669 363.941404,637.942704 364.332031,638.789062 C364.527345,638.984376 364.592448,639.24479 364.527344,639.570312 C364.462239,639.895835 364.413412,640.205077 364.380859,640.498047 C364.348307,640.791017 364.332031,641.002604 364.332031,641.132812 C364.332031,641.263021 364.49479,641.263021 364.820312,641.132812 C364.624999,642.044275 364.283206,642.874345 363.794922,643.623047 C363.306638,644.371749 363.095052,645.266922 363.160156,646.308594 C361.662753,648.261729 360.018889,650.279937 358.228516,652.363281 C356.438142,654.446625 354.647795,656.595041 352.857422,658.808594 C351.067048,661.022146 349.358081,663.349597 347.730469,665.791016 C346.102856,668.232434 344.703131,670.787747 343.53125,673.457031 C343.205728,673.457031 342.961589,673.554687 342.798828,673.75 C342.636067,673.945313 342.489584,674.1569 342.359375,674.384766 C342.229166,674.612631 342.082683,674.824218 341.919922,675.019531 C341.757161,675.214845 341.545574,675.3125 341.285156,675.3125 Z M395.582031,648.457031 C395.777345,647.480464 395.907552,646.682946 395.972656,646.064453 C396.037761,645.44596 395.809898,644.778649 395.289062,644.0625 C395.54948,643.020828 395.761067,642.207034 395.923828,641.621094 C396.086589,641.035153 396.102865,640.221359 395.972656,639.179688 C396.558597,637.486971 397.45377,636.054693 398.658203,634.882812 C399.862636,633.710932 401.180982,632.718103 402.613281,631.904297 C404.04558,631.090491 405.542961,630.406904 407.105469,629.853516 C408.667977,629.300127 410.132806,628.828127 411.5,628.4375 C411.5,628.177082 411.369793,628.046875 411.109375,628.046875 C410.848957,628.046875 410.783854,627.884116 410.914062,627.558594 C414.429705,626.907549 417.961571,625.963548 421.509766,624.726562 C425.05796,623.489577 428.687481,622.382817 432.398438,621.40625 C436.109394,620.429683 439.917949,619.827475 443.824219,619.599609 C447.730488,619.371744 451.83201,619.876296 456.128906,621.113281 C456.389324,621.894535 456.747394,622.643226 457.203125,623.359375 C457.658856,624.075524 458.130857,624.775387 458.619141,625.458984 C459.107424,626.142582 459.546873,626.809893 459.9375,627.460938 C460.328127,628.111982 460.555989,628.795569 460.621094,629.511719 C461.402348,630.227868 462.037107,630.992834 462.525391,631.806641 C463.013674,632.620447 463.095054,633.710931 462.769531,635.078125 C462.053382,635.598961 461.304691,636.119789 460.523438,636.640625 C459.742184,637.161461 458.92839,637.649737 458.082031,638.105469 C455.152329,637.389319 452.222671,637.128905 449.292969,637.324219 C446.363267,637.519532 443.726574,637.747395 441.382812,638.007812 C440.666663,637.226559 439.820317,636.852213 438.84375,636.884766 C437.867183,636.917318 436.841802,637.080077 435.767578,637.373047 C434.693354,637.666017 433.635422,637.958983 432.59375,638.251953 C431.552078,638.544923 430.575525,638.626303 429.664062,638.496094 C428.947913,639.147139 428.003912,639.586587 426.832031,639.814453 C425.66015,640.042319 424.423184,640.221354 423.121094,640.351562 C423.055989,640.677085 423.121093,640.904947 423.316406,641.035156 C423.51172,641.165365 423.544271,641.425779 423.414062,641.816406 C423.869794,642.402347 424.488277,642.809244 425.269531,643.037109 C426.050785,643.264975 426.848303,643.476562 427.662109,643.671875 C428.475916,643.867188 429.20833,644.143878 429.859375,644.501953 C430.51042,644.860028 430.933593,645.429684 431.128906,646.210938 C432.300787,646.276042 433.309892,646.585284 434.15625,647.138672 C435.002608,647.69206 435.718747,648.359371 436.304688,649.140625 C436.890628,649.921879 437.313801,650.751949 437.574219,651.630859 C437.834637,652.50977 437.932292,653.307288 437.867188,654.023438 C438.127605,654.674482 438.404295,654.934896 438.697266,654.804688 C438.990236,654.674479 439.332029,654.837237 439.722656,655.292969 C439.983074,656.269536 440.585282,657.294917 441.529297,658.369141 C442.473312,659.443365 443.205727,660.598952 443.726562,661.835938 C443.856771,663.789072 443.970703,665.546867 444.068359,667.109375 C444.166016,668.671883 443.889326,670.201815 443.238281,671.699219 C442.131505,674.563816 440.536469,677.135405 438.453125,679.414062 C436.369781,681.69272 434.009779,683.694653 431.373047,685.419922 C428.736315,687.145191 425.95314,688.642572 423.023438,689.912109 C420.093735,691.181647 417.196629,692.239579 414.332031,693.085938 C414.071613,693.020833 413.762372,693.020833 413.404297,693.085938 C413.046222,693.151042 412.964843,692.955731 413.160156,692.5 C412.574216,693.020836 411.906905,693.346354 411.158203,693.476562 C410.409501,693.606771 409.595708,693.655599 408.716797,693.623047 C407.837886,693.590495 406.958989,693.541667 406.080078,693.476562 C405.201167,693.411458 404.338546,693.44401 403.492188,693.574219 C402.971352,693.053383 402.499351,692.532555 402.076172,692.011719 C401.652993,691.490883 401.311199,690.872399 401.050781,690.15625 C400.725259,690.091146 400.578776,689.879559 400.611328,689.521484 C400.64388,689.16341 400.497397,688.984375 400.171875,688.984375 C400.171875,688.723957 400.204427,688.528646 400.269531,688.398438 L400.464844,688.007812 C400.725262,687.812499 400.839193,687.666016 400.806641,687.568359 C400.774088,687.470703 400.676433,687.373047 400.513672,687.275391 C400.350911,687.177734 400.188152,687.063803 400.025391,686.933594 C399.862629,686.803385 399.813802,686.640626 399.878906,686.445312 C400.204429,685.859372 400.31836,685.159509 400.220703,684.345703 C400.123046,683.531897 400.041667,682.701827 399.976562,681.855469 C399.911458,681.00911 399.976562,680.211592 400.171875,679.462891 C400.367188,678.714189 400.920568,678.07943 401.832031,677.558594 C404.501315,677.819012 407.024077,677.688805 409.400391,677.167969 C411.776705,676.647133 414.022776,675.930994 416.138672,675.019531 C418.254568,674.108068 420.272777,673.11524 422.193359,672.041016 C424.113942,670.966792 425.985668,669.973963 427.808594,669.0625 C428.003907,668.411455 428.313149,667.858075 428.736328,667.402344 C429.159507,666.946612 429.598956,666.507164 430.054688,666.083984 C430.510419,665.660805 430.933592,665.205081 431.324219,664.716797 C431.714846,664.228513 432.007812,663.626306 432.203125,662.910156 C432.268229,662.649738 432.268229,662.454428 432.203125,662.324219 C432.138021,662.19401 432.040365,662.080079 431.910156,661.982422 C431.779947,661.884765 431.64974,661.770834 431.519531,661.640625 C431.389322,661.510416 431.324219,661.315105 431.324219,661.054688 C431.128905,660.989583 430.949871,660.924479 430.787109,660.859375 C430.624348,660.794271 430.477865,660.761719 430.347656,660.761719 C428.654939,659.91536 426.864593,659.199222 424.976562,658.613281 C423.088532,658.027341 421.493496,657.376306 420.191406,656.660156 C419.410152,657.180992 418.62891,657.311199 417.847656,657.050781 C417.066402,656.790363 416.122401,656.529949 415.015625,656.269531 C412.281236,656.139322 409.693372,655.878908 407.251953,655.488281 C404.810535,655.097654 402.450532,654.414067 400.171875,653.4375 C400.041666,653.046873 399.878907,652.70508 399.683594,652.412109 C399.48828,652.119139 399.032556,652.03776 398.316406,652.167969 C397.860675,651.516924 397.388674,650.914716 396.900391,650.361328 C396.412107,649.80794 395.972658,649.173181 395.582031,648.457031 Z M477.710938,691.425781 C475.888012,692.011722 473.902354,692.597653 471.753906,693.183594 C469.605458,693.769534 467.457042,694.0625 465.308594,694.0625 C462.053369,694.0625 459.48178,693.248706 457.59375,691.621094 C457.268228,690.904944 456.975262,690.416668 456.714844,690.15625 C456.51953,689.895832 456.340496,689.619142 456.177734,689.326172 C456.014973,689.033202 455.901042,688.626305 455.835938,688.105469 C455.054684,687.194006 454.4362,686.136074 453.980469,684.931641 C453.524737,683.727208 453.215496,682.490241 453.052734,681.220703 C452.889973,679.951166 452.857421,678.665371 452.955078,677.363281 C453.052735,676.061191 453.264321,674.824225 453.589844,673.652344 C453.720053,673.391926 453.801432,673.131512 453.833984,672.871094 C453.866537,672.610676 453.915364,672.31771 453.980469,671.992188 C454.240887,670.950516 454.517577,669.941411 454.810547,668.964844 C455.103517,667.988276 455.510414,667.141931 456.03125,666.425781 C455.770832,665.839841 455.770832,665.188806 456.03125,664.472656 C456.291668,663.756507 456.584634,663.105472 456.910156,662.519531 C457.821619,660.045561 458.586585,657.945972 459.205078,656.220703 C459.823571,654.495434 460.45833,652.786467 461.109375,651.09375 C462.216151,648.164048 463.257808,645.266941 464.234375,642.402344 C465.210942,639.537746 466.08984,636.445329 466.871094,633.125 C467.39193,632.799478 467.782551,632.571615 468.042969,632.441406 C468.433596,632.311197 468.759113,632.213542 469.019531,632.148438 C470.191412,632.734378 471.558586,633.304034 473.121094,633.857422 C474.683602,634.41081 475.985672,634.6875 477.027344,634.6875 C477.54818,635.013022 477.873697,635.257161 478.003906,635.419922 C478.134115,635.582683 478.264322,635.729166 478.394531,635.859375 C479.110681,636.705733 479.729164,637.568355 480.25,638.447266 C480.770836,639.326176 480.933595,640.481764 480.738281,641.914062 C480.347654,642.500003 480.054688,642.792969 479.859375,642.792969 C479.533853,644.095059 479.192059,645.201818 478.833984,646.113281 C478.47591,647.024744 478.101564,647.936193 477.710938,648.847656 C477.255206,649.824224 476.832033,650.800776 476.441406,651.777344 C476.050779,652.753911 475.725262,653.958326 475.464844,655.390625 C475.204426,655.716147 475.025391,656.009113 474.927734,656.269531 C474.830078,656.529949 474.716146,656.822915 474.585938,657.148438 C474.455729,657.47396 474.309246,657.815753 474.146484,658.173828 C473.983723,658.531903 473.739585,658.841145 473.414062,659.101562 C473.218749,660.794279 472.909507,662.161453 472.486328,663.203125 C472.063149,664.244797 471.6237,665.286453 471.167969,666.328125 C470.386715,668.216155 469.686852,670.104157 469.068359,671.992188 C468.449867,673.880218 468.075521,676.028634 467.945312,678.4375 C468.270835,678.307291 468.580077,678.242188 468.873047,678.242188 L469.703125,678.242188 C470.289065,678.242188 470.972652,678.339843 471.753906,678.535156 C473.707041,677.493484 475.839181,676.875001 478.150391,676.679688 C480.4616,676.484374 482.756499,676.354167 485.035156,676.289062 L487.769531,676.289062 C488.680994,676.289062 489.52734,676.223959 490.308594,676.09375 C490.894534,676.419272 491.268879,676.598307 491.431641,676.630859 C491.594402,676.663412 491.83854,676.679688 492.164062,676.679688 C492.619794,676.679688 493.010415,676.712239 493.335938,676.777344 C494.117191,677.493493 494.865882,678.014321 495.582031,678.339844 C496.298181,678.665366 497.046871,678.958332 497.828125,679.21875 C498.544274,679.479168 499.244137,679.755858 499.927734,680.048828 C500.611332,680.341798 501.278643,680.748695 501.929688,681.269531 L502.613281,685.46875 C503.069013,686.05469 503.264323,686.445312 503.199219,686.640625 C503.199219,687.161461 503.069012,687.552082 502.808594,687.8125 L503.003906,688.886719 C502.027339,689.082032 501.360028,689.309895 501.001953,689.570312 C500.643878,689.83073 500.302085,690.123696 499.976562,690.449219 C499.455727,690.514323 499.081381,690.546875 498.853516,690.546875 L498.21875,690.546875 C497.307287,690.546875 496.200527,690.709634 494.898438,691.035156 C493.140616,690.449216 491.317718,690.15625 489.429688,690.15625 C488.713538,690.15625 487.964848,690.188802 487.183594,690.253906 L484.839844,690.449219 C484.05859,690.579428 483.261072,690.677083 482.447266,690.742188 C481.633459,690.807292 480.80339,690.839844 479.957031,690.839844 L477.710938,691.425781 Z M556.910156,684.296875 C556.519529,685.403651 555.949874,686.526687 555.201172,687.666016 C554.45247,688.805344 553.573573,689.814449 552.564453,690.693359 C551.555333,691.57227 550.432298,692.304685 549.195312,692.890625 C547.958327,693.476565 546.656257,693.802083 545.289062,693.867188 C544.442704,693.671874 543.873048,693.460288 543.580078,693.232422 C543.287108,693.004556 542.977866,692.79297 542.652344,692.597656 C542.45703,692.467447 542.277996,692.353516 542.115234,692.255859 C541.952473,692.158203 541.80599,692.076823 541.675781,692.011719 L540.503906,691.523438 L540.894531,690.253906 C541.02474,689.73307 540.992188,689.326173 540.796875,689.033203 C540.601562,688.740233 540.210938,688.333336 539.625,687.8125 L539.039062,687.226562 C538.843749,687.031249 538.68099,686.835938 538.550781,686.640625 L536.890625,684.785156 L539.527344,684.101562 C541.154956,683.645831 542.24544,683.059899 542.798828,682.34375 C543.352216,681.627601 543.563803,680.423186 543.433594,678.730469 C542.131504,678.470051 541.04102,678.437499 540.162109,678.632812 C539.283199,678.828126 538.388025,679.055988 537.476562,679.316406 C536.304682,679.641929 535.116542,679.918619 533.912109,680.146484 C532.707676,680.37435 531.38933,680.488281 529.957031,680.488281 C529.436195,680.488281 528.947919,680.472005 528.492188,680.439453 C528.036456,680.406901 527.54818,680.358073 527.027344,680.292969 L526.050781,680.097656 C525.920572,679.381507 525.790365,678.97461 525.660156,678.876953 C525.529947,678.779296 525.39974,678.665365 525.269531,678.535156 C524.944009,678.209634 524.602215,677.770185 524.244141,677.216797 C523.886066,676.663409 523.804687,675.963546 524,675.117188 C523.674478,674.531247 523.479167,673.945315 523.414062,673.359375 C523.023436,674.140629 522.73047,674.954423 522.535156,675.800781 L522.144531,676.777344 L521.167969,676.972656 C521.03776,677.037761 520.940104,677.184244 520.875,677.412109 C520.809896,677.639975 520.777344,677.81901 520.777344,677.949219 L520.289062,679.609375 C520.158854,679.739584 520.028646,679.853515 519.898438,679.951172 C519.768229,680.048829 519.638021,680.16276 519.507812,680.292969 C519.377604,680.878909 519.214845,681.464841 519.019531,682.050781 C518.824218,682.636719 518.628907,683.190102 518.433594,683.710938 C518.108071,684.557296 517.831381,685.387366 517.603516,686.201172 C517.37565,687.014978 517.294271,687.812496 517.359375,688.59375 L516.96875,689.667969 C516.643228,690.058596 516.285158,690.367837 515.894531,690.595703 C515.503904,690.823569 515.113283,691.035155 514.722656,691.230469 C514.592447,691.360678 514.413413,691.474609 514.185547,691.572266 C513.957681,691.669922 513.778646,691.751302 513.648438,691.816406 L513.355469,692.890625 L512.183594,693.085938 C511.467444,693.216146 510.962892,693.313802 510.669922,693.378906 C510.376952,693.444011 510.035158,693.476562 509.644531,693.476562 L508.667969,693.378906 C507.951819,692.792966 507.398439,692.320965 507.007812,691.962891 C506.617186,691.604816 506.161461,691.263022 505.640625,690.9375 C505.054685,690.156246 504.729167,689.570314 504.664062,689.179688 C504.598958,688.789061 504.533854,688.430991 504.46875,688.105469 C504.338541,687.714842 504.257162,687.389324 504.224609,687.128906 C504.192057,686.868488 504.110678,686.673178 503.980469,686.542969 L502.710938,685.371094 L503.785156,684.492188 L503.882812,682.832031 C505.184902,679.511702 506.568352,676.32163 508.033203,673.261719 C509.498054,670.201808 511.011711,667.076839 512.574219,663.886719 C513.095055,662.845047 513.599607,661.803391 514.087891,660.761719 C514.576174,659.720047 515.080727,658.678391 515.601562,657.636719 C515.536458,657.441405 515.503906,657.213543 515.503906,656.953125 C515.503906,656.692707 515.56901,656.399741 515.699219,656.074219 C516.415368,654.967442 517.0013,653.974614 517.457031,653.095703 C517.912763,652.216792 518.368487,651.321619 518.824219,650.410156 C519.345055,649.30338 519.882159,648.229172 520.435547,647.1875 C520.988935,646.145828 521.688798,645.07162 522.535156,643.964844 L524.097656,643.28125 C524.29297,643.216146 524.520832,643.134766 524.78125,643.037109 C525.041668,642.939453 525.334634,642.890625 525.660156,642.890625 L527.125,643.085938 C528.947926,642.239579 530.542962,641.05144 531.910156,639.521484 C533.277351,637.991529 534.677076,636.152354 536.109375,634.003906 L537.085938,632.636719 L538.355469,633.417969 C538.680991,633.613282 539.136716,633.792317 539.722656,633.955078 C540.308597,634.117839 540.92708,634.296874 541.578125,634.492188 C542.750006,634.752605 543.856766,635.045571 544.898438,635.371094 C545.940109,635.696616 546.786455,636.184893 547.4375,636.835938 C547.828127,637.877609 548.055989,638.658852 548.121094,639.179688 C548.186198,639.700523 548.283854,640.221352 548.414062,640.742188 C548.609376,641.848964 548.788411,642.955724 548.951172,644.0625 C549.113933,645.169276 549.227864,646.406243 549.292969,647.773438 C549.618491,648.880214 549.895181,649.970698 550.123047,651.044922 C550.350913,652.119146 550.562499,653.20963 550.757812,654.316406 C551.083335,655.878914 551.408853,657.392571 551.734375,658.857422 C552.059897,660.322273 552.48307,661.705723 553.003906,663.007812 C553.524742,663.007812 553.85026,663.040364 553.980469,663.105469 C554.305991,662.97526 554.647785,662.877604 555.005859,662.8125 C555.363934,662.747396 555.770831,662.682292 556.226562,662.617188 L557.300781,662.519531 L557.691406,663.496094 C557.756511,663.821616 558.082028,664.147134 558.667969,664.472656 C559.514327,664.537761 560.132811,664.716795 560.523438,665.009766 C560.914064,665.302736 561.272134,665.611978 561.597656,665.9375 C561.858074,666.197918 562.118488,666.393229 562.378906,666.523438 L563.84375,667.109375 L563.0625,668.574219 C562.411455,669.7461 561.48373,670.869135 560.279297,671.943359 C559.074864,673.017583 557.723966,673.912757 556.226562,674.628906 C556.291667,675.019533 556.340495,675.393878 556.373047,675.751953 C556.405599,676.110028 556.486979,676.484373 556.617188,676.875 C556.812501,677.981776 556.97526,679.121088 557.105469,680.292969 C557.235678,681.46485 557.235678,682.669265 557.105469,683.90625 L556.910156,684.296875 Z M528.6875,667.402344 C530.640635,667.272135 532.414706,667.125652 534.009766,666.962891 C535.604826,666.800129 537.378896,666.523439 539.332031,666.132812 C538.8763,664.179678 538.388023,662.145193 537.867188,660.029297 C537.346352,657.913401 536.792972,655.813813 536.207031,653.730469 L535.621094,654.707031 C534.319004,656.074226 533.065761,657.604158 531.861328,659.296875 C530.656895,660.989592 529.631515,662.584628 528.785156,664.082031 L527.613281,665.839844 C527.222654,666.425784 526.864585,667.011716 526.539062,667.597656 C526.929689,667.532552 527.304035,667.5 527.662109,667.5 C528.020184,667.5 528.361978,667.467448 528.6875,667.402344 Z M591.578125,666.914062 C591.122394,667.304689 590.731772,667.77669 590.40625,668.330078 C590.080728,668.883466 589.75521,669.453122 589.429688,670.039062 C589.104165,670.755212 588.746096,671.438799 588.355469,672.089844 C587.964842,672.740889 587.476565,673.32682 586.890625,673.847656 C586.565103,674.824224 586.239585,675.58919 585.914062,676.142578 C585.58854,676.695966 585.067712,677.330726 584.351562,678.046875 C583.700518,680.651055 582.170585,683.483058 579.761719,686.542969 C579.696614,687.128909 579.51758,687.698565 579.224609,688.251953 C578.931639,688.805341 578.622397,689.342445 578.296875,689.863281 C578.166666,690.058595 578.036459,690.270181 577.90625,690.498047 C577.776041,690.725913 577.678386,690.904947 577.613281,691.035156 L577.417969,692.011719 C577.092446,692.532555 576.734377,692.988279 576.34375,693.378906 L575.269531,694.453125 C575.139322,694.648438 574.91146,694.908853 574.585938,695.234375 L573.121094,695.820312 C568.368466,695.169268 565.471359,692.63023 564.429688,688.203125 L564.527344,687.226562 C564.657553,686.90104 564.771484,686.559247 564.869141,686.201172 C564.966797,685.843097 565.080729,685.468752 565.210938,685.078125 C565.471355,684.166662 565.780597,683.255213 566.138672,682.34375 C566.496747,681.432287 567.033851,680.618493 567.75,679.902344 C567.880209,679.446612 568.173175,678.714198 568.628906,677.705078 C569.084638,676.695958 569.86588,675.182302 570.972656,673.164062 C571.884119,671.601555 572.600258,670.364588 573.121094,669.453125 C573.64193,668.541662 574.065103,667.825523 574.390625,667.304688 C573.73958,666.263016 572.958338,665.319015 572.046875,664.472656 C571.200517,662.845044 570.468102,661.28256 569.849609,659.785156 C569.231117,658.287753 568.759116,656.953131 568.433594,655.78125 C568.368489,654.934892 568.270834,654.218753 568.140625,653.632812 C568.010416,653.046872 567.880209,652.428389 567.75,651.777344 C567.554687,651.061194 567.391928,650.345056 567.261719,649.628906 C567.13151,648.912757 567.066406,648.164066 567.066406,647.382812 C566.740884,646.927081 566.545573,646.471356 566.480469,646.015625 L566.675781,645.039062 C566.871095,644.583331 566.903646,643.981124 566.773438,643.232422 C566.643229,642.48372 566.48047,641.718754 566.285156,640.9375 C566.154947,640.286455 566.008464,639.570316 565.845703,638.789062 C565.682942,638.007809 565.634114,637.226566 565.699219,636.445312 C565.764323,635.664059 565.97591,634.931644 566.333984,634.248047 C566.692059,633.56445 567.294267,632.962242 568.140625,632.441406 L569.800781,632.34375 C570.386722,632.669272 570.956377,632.978514 571.509766,633.271484 C572.063154,633.564455 572.600258,633.873696 573.121094,634.199219 C573.837243,634.524741 574.52083,634.850259 575.171875,635.175781 C575.82292,635.501304 576.506507,635.924477 577.222656,636.445312 L577.90625,637.8125 L579.175781,638.886719 L579.175781,639.960938 C579.240886,640.221355 579.273438,640.579425 579.273438,641.035156 C579.273438,641.881515 579.403645,642.402343 579.664062,642.597656 L580.054688,643.769531 C580.054688,644.680994 580.152343,645.543616 580.347656,646.357422 C580.54297,647.171228 580.73828,647.936194 580.933594,648.652344 C581.128907,649.368493 581.324218,650.117184 581.519531,650.898438 C581.714845,651.679691 581.747396,652.526037 581.617188,653.4375 C582.007814,653.242187 582.333332,653.014324 582.59375,652.753906 C582.723959,652.623697 582.854166,652.526042 582.984375,652.460938 C583.114584,652.395833 583.244791,652.298178 583.375,652.167969 L589.136719,644.355469 L588.941406,643.378906 L590.992188,641.425781 C591.513023,640.904945 592.017576,640.416669 592.505859,639.960938 C592.994143,639.505206 593.40104,639.01693 593.726562,638.496094 L594.800781,637.714844 C596.884125,634.459619 599.846335,632.44141 603.6875,631.660156 L605.054688,631.464844 L605.445312,632.734375 C605.70573,633.450524 606.242834,634.10156 607.056641,634.6875 C607.870447,635.27344 608.733068,635.82682 609.644531,636.347656 L610.523438,636.933594 C610.84896,637.584639 611.011719,638.072915 611.011719,638.398438 C611.011719,638.72396 610.979167,639.016926 610.914062,639.277344 L611.304688,640.253906 C610.783852,641.816414 610.149092,642.955726 609.400391,643.671875 C608.651689,644.388024 607.919274,645.03906 607.203125,645.625 C606.617185,646.145836 606.080081,646.617836 605.591797,647.041016 C605.103513,647.464195 604.729168,648.001299 604.46875,648.652344 L603.785156,649.433594 C602.417962,650.214848 601.539064,651.256504 601.148438,652.558594 L600.855469,653.730469 L599.683594,653.730469 C599.618489,653.730469 599.472006,653.8444 599.244141,654.072266 C599.016275,654.300131 598.674481,654.869787 598.21875,655.78125 C597.763019,656.432295 597.437501,656.855468 597.242188,657.050781 L596.753906,657.539062 C596.688802,657.79948 596.607422,658.043619 596.509766,658.271484 C596.412109,658.49935 596.298178,658.77604 596.167969,659.101562 C595.32161,659.947921 594.800782,660.58268 594.605469,661.005859 C594.410155,661.429039 594.182293,661.901039 593.921875,662.421875 C593.661457,662.942711 593.417319,663.447263 593.189453,663.935547 C592.961587,664.423831 592.587242,664.928383 592.066406,665.449219 L591.578125,666.914062 Z M616.089844,682.34375 C615.373694,684.94793 614.738935,686.917311 614.185547,688.251953 C613.632159,689.586595 612.802089,690.970045 611.695312,692.402344 C610.848954,692.272135 610.263022,692.36979 609.9375,692.695312 C609.611978,693.020835 609.253908,693.313801 608.863281,693.574219 C608.277341,693.704428 607.854168,693.704428 607.59375,693.574219 C607.333332,693.44401 607.10547,693.297527 606.910156,693.134766 C606.714843,692.972004 606.470705,692.809246 606.177734,692.646484 C605.884764,692.483723 605.445315,692.402344 604.859375,692.402344 C604.729166,691.881508 604.582683,691.393231 604.419922,690.9375 C604.257161,690.481769 603.817712,690.31901 603.101562,690.449219 C603.231771,689.928383 603.264323,689.488934 603.199219,689.130859 C603.134114,688.772785 603.052735,688.447267 602.955078,688.154297 C602.857421,687.861327 602.776042,687.568361 602.710938,687.275391 C602.645833,686.98242 602.678385,686.608075 602.808594,686.152344 C602.483071,686.152344 602.222657,685.924481 602.027344,685.46875 C601.83203,685.013019 601.604168,684.557294 601.34375,684.101562 C601.539063,682.929682 601.734374,681.822922 601.929688,680.78125 C602.125001,679.739578 602.369139,678.763025 602.662109,677.851562 C602.95508,676.9401 603.199218,676.02865 603.394531,675.117188 C603.589845,674.205725 603.492189,673.261724 603.101562,672.285156 C603.36198,672.48047 603.557291,672.431642 603.6875,672.138672 C603.817709,671.845702 603.915364,671.455081 603.980469,670.966797 C604.045573,670.478513 604.078125,669.990237 604.078125,669.501953 C604.078125,669.013669 604.045573,668.606772 603.980469,668.28125 C604.631514,666.588533 605.168618,664.847014 605.591797,663.056641 C606.014976,661.266267 606.405597,659.492196 606.763672,657.734375 C607.121747,655.976554 607.496092,654.251311 607.886719,652.558594 C608.277346,650.865877 608.798174,649.303393 609.449219,647.871094 C610.165368,647.740885 610.962886,647.822264 611.841797,648.115234 C612.720708,648.408205 613.257812,648.78255 613.453125,649.238281 C615.145842,647.936191 616.643223,646.357431 617.945312,644.501953 C619.247402,642.646475 620.582024,640.839853 621.949219,639.082031 C623.316413,637.32421 624.83007,635.761726 626.490234,634.394531 C628.150399,633.027337 630.249987,632.213543 632.789062,631.953125 C634.091152,632.929692 635.539706,633.922521 637.134766,634.931641 C638.729826,635.94076 640.048172,637.259106 641.089844,638.886719 C641.61068,639.147137 642.050128,639.423827 642.408203,639.716797 C642.766278,640.009767 643.205727,640.319009 643.726562,640.644531 L643.726562,641.816406 C644.507816,642.532556 645.142576,643.362625 645.630859,644.306641 C646.119143,645.250656 646.558592,646.25976 646.949219,647.333984 L648.121094,650.556641 C648.511721,651.630865 648.967445,652.656245 649.488281,653.632812 C649.358072,653.958335 649.292969,654.235025 649.292969,654.462891 C649.292969,654.690756 649.341796,654.934895 649.439453,655.195312 C649.53711,655.45573 649.618489,655.716145 649.683594,655.976562 C649.748698,656.23698 649.748698,656.59505 649.683594,657.050781 C649.48828,659.915379 648.560555,662.226554 646.900391,663.984375 C645.240226,665.742196 643.238293,667.19075 640.894531,668.330078 C638.55077,669.469407 636.044284,670.429684 633.375,671.210938 C630.705716,671.992191 628.296886,672.838537 626.148438,673.75 C626.148438,674.010418 626.262369,674.140625 626.490234,674.140625 C626.7181,674.140625 626.799479,674.303384 626.734375,674.628906 C628.296883,675.605474 629.53385,676.386716 630.445312,676.972656 C631.356775,677.558597 632.219397,678.046873 633.033203,678.4375 C633.847009,678.828127 634.725907,679.16992 635.669922,679.462891 C636.613937,679.755861 637.932283,680.097654 639.625,680.488281 C641.317717,680.878908 642.636063,681.18815 643.580078,681.416016 C644.524093,681.643881 645.386715,681.839192 646.167969,682.001953 C646.949223,682.164714 647.746741,682.294921 648.560547,682.392578 C649.374353,682.490235 650.52994,682.604166 652.027344,682.734375 C652.613284,683.320315 653.117836,684.020178 653.541016,684.833984 C653.964195,685.647791 654.240885,686.461584 654.371094,687.275391 C654.501303,688.089197 654.533854,688.870439 654.46875,689.619141 C654.403646,690.367842 654.175783,690.97005 653.785156,691.425781 C653.850261,691.621095 653.996744,691.702474 654.224609,691.669922 C654.452475,691.63737 654.696613,691.653646 654.957031,691.71875 C654.566404,691.979168 654.240887,692.304686 653.980469,692.695312 L653.199219,693.867188 C652.938801,694.257814 652.645835,694.599608 652.320312,694.892578 C651.99479,695.185548 651.539065,695.364583 650.953125,695.429688 C648.934886,696.210941 646.395849,696.259769 643.335938,695.576172 C640.276026,694.892575 636.402367,693.639332 631.714844,691.816406 C629.371082,690.904943 627.466804,690.107425 626.001953,689.423828 C624.537102,688.740231 623.267583,688.056644 622.193359,687.373047 C621.119135,686.68945 620.142583,685.957035 619.263672,685.175781 C618.384761,684.394527 617.326829,683.450526 616.089844,682.34375 Z M630.054688,648.847656 C629.338538,649.889328 628.54102,650.833329 627.662109,651.679688 C626.783199,652.526046 625.936853,653.388667 625.123047,654.267578 C624.309241,655.146489 623.576826,656.123042 622.925781,657.197266 C622.274736,658.27149 621.819012,659.524732 621.558594,660.957031 C623.837251,660.696613 626.213529,660.061854 628.6875,659.052734 C631.161471,658.043615 633.505197,657.083338 635.71875,656.171875 C635.458332,654.153636 634.758469,652.526048 633.619141,651.289062 C632.479812,650.052077 631.291673,649.238283 630.054688,648.847656 Z" id="text-logo" fill="#FFFFFF" fill-rule="nonzero"></path>
                <polygon id="Path-12" fill="#303841" points="86 581.5 578 581.5 578 0 86 0"></polygon>
                <path d="M146,522 L506.5,62.5" id="Path-18" stroke="#FFFFFF" stroke-width="7"></path>
            </g>
            <g id="Shield" transform="translate(364.000000, 325.000000)" stroke="#FFFFFF">
                <path d="M86.5,0 C79.719751,13.9914299 68.7032416,27.2535214 53.4504717,39.7862745 C38.1977018,52.3190276 20.3808779,62.7484394 0,71.0745098 C3.53616352,93.220915 12.9205975,115.882353 28.1533019,139.058824 C43.3860063,162.235294 62.8349057,181.54902 86.5,197 C109.420255,182.820411 129.277173,163.506685 146.070755,139.058824 C162.864337,114.610962 171.840752,91.949524 173,71.0745098 C150.209571,61.2155913 132.120734,50.7861795 118.733491,39.7862745 C105.346247,28.7863695 94.60175,15.524278 86.5,0 Z" id="Path-11" stroke-width="5"></path>
                <polyline id="Path-7" stroke-width="4" points="67 75 37 98.5 67 125"></polyline>
                <polyline id="Path-7" stroke-width="4" transform="translate(118.000000, 100.000000) scale(-1, 1) translate(-118.000000, -100.000000) " points="133 75 103 98.5 133 125"></polyline>
                <path d="M99.5,66.5 L73.5,133.5" id="Line-6" stroke-width="4" stroke-linecap="square"></path>
            </g>
            <g id="Sword" transform="translate(146.000000, 44.000000)" stroke="#FFFFFF">
                <polygon id="Path-13" stroke-width="5" points="44.16 267 44.16 205.064327 0 205.064327 0 194.134503 44.16 194.134503 31.36 54.6491228 56.32 0 81.28 54.6491228 67.84 194.134503 112 194.134503 112 205.064327 67.84 205.064327 67.84 267"></polygon>
                <path d="M56.5,39 L56.5,174" id="Path-14" stroke-width="3"></path>
                <path d="M68,212 L44,221" id="Path-15" stroke-width="2"></path>
                <path d="M68,248 L44,257" id="Path-15" stroke-width="2"></path>
                <path d="M68,239 L44,248" id="Path-15" stroke-width="2"></path>
                <path d="M68,229 L44,238" id="Path-15" stroke-width="2"></path>
                <path d="M68,221 L44,230" id="Path-15" stroke-width="2"></path>
            </g>
        </g>
    </g>
</svg>