<?xml version="1.0" encoding="UTF-8"?>
<svg width="2099px" height="1817px" viewBox="0 0 2099 1817" version="1.1" xmlns="http://www.w3.org/2000/svg" xmlns:xlink="http://www.w3.org/1999/xlink">
    <!-- Generator: Sketch 56.3 (81716) - https://sketch.com -->
    <title>Merge</title>
    <desc>Created with Sketch.</desc>
    <defs>
        <linearGradient x1="64.5853709%" y1="-54.0021814%" x2="75.2178852%" y2="95.2146021%" id="linearGradient-1">
            <stop stop-color="#6F008B" offset="0%"></stop>
            <stop stop-color="#1F0020" offset="100%"></stop>
        </linearGradient>
        <linearGradient x1="73.7028033%" y1="-54.0021814%" x2="90.9817876%" y2="95.2146021%" id="linearGradient-2">
            <stop stop-color="#6F008B" offset="0%"></stop>
            <stop stop-color="#1F0020" offset="100%"></stop>
        </linearGradient>
        <linearGradient x1="39.4505468%" y1="71.1438155%" x2="37.7966831%" y2="35.4246615%" id="linearGradient-3">
            <stop stop-color="#3A0040" offset="0%"></stop>
            <stop stop-color="#79009B" offset="100%"></stop>
        </linearGradient>
        <linearGradient x1="43.1998741%" y1="-1.90728783%" x2="51.217065%" y2="119.263583%" id="linearGradient-4">
            <stop stop-color="#470058" offset="0%"></stop>
            <stop stop-color="#9C00C7" offset="100%"></stop>
        </linearGradient>
    </defs>
    <g id="Page-1" stroke="none" stroke-width="1" fill="none" fill-rule="evenodd">
        <g id="Charecters" transform="translate(-388.000000, -356.000000)">
            <g id="Merge" transform="translate(382.000000, 361.000000)">
                <path d="M647,112 C485.543089,419.088608 408.35881,579.721519 415.447162,593.898734 C422.535515,608.075949 472.416511,617.443038 565.090153,622 L647,112 Z" id="Path-4" stroke="#000000" stroke-width="9" fill="#2F003C"></path>
                <path d="M473.014341,1595.21459 L313.739453,1418.6815 C174.237156,1137.84693 96.677651,961.600823 81.0609378,889.943187 C57.635868,782.456733 126.365534,660.055274 141.099671,643.670118 C155.833809,627.284963 230.42228,569.833251 298.265737,573.631483 C366.109193,577.429716 410.641885,622.423437 422.656312,643.092439 C434.670739,663.76144 444.330205,710.001179 443.690076,765.896738 C443.049948,821.792298 375.361979,867.079515 364.686607,867.212385 C354.011235,867.345255 440.73945,835.515303 393.86354,766.5169 C362.612933,720.517964 326.476084,686.325642 285.452992,663.939935 C244.763884,648.714172 233.671348,696.713237 252.175385,807.937129 C270.679422,919.161022 311.509124,1029.21135 374.664492,1138.08812 L654.744946,1706.06611 L473.014341,1595.21459 Z" id="Path-3" stroke="#000000" stroke-width="9" fill="url(#linearGradient-1)" transform="translate(365.491268, 1139.758883) rotate(-8.000000) translate(-365.491268, -1139.758883) "></path>
                <path d="M928.112499,1254.71452 C954.062472,1249.1051 1004.18688,1236.05701 1078.48574,1215.57027 C1189.93401,1184.84016 1264.21439,1167.09062 1301.17868,1151.84738 C1338.14298,1136.60414 1366.86025,1123.15468 1411.343,1022.32948 C1440.99816,955.112671 1458.50856,875.362682 1463.87418,783.079511 C1373.65858,687.526013 1308.93634,648.591136 1269.70749,666.274879 C1210.8642,692.800494 1198.4159,902.743872 1198.4159,902.743872 C1198.4159,902.743872 1115.37011,753.021025 1117.10779,669.705446 C1118.84547,586.389866 1137.82114,557.599041 1206.52451,513.964616 C1275.22789,470.330191 1350.94654,498.974575 1368.04238,510.333561 C1385.13821,521.692548 1478.53848,632.127121 1531.17253,761.816468 C1566.26189,848.276033 1580.65346,933.892212 1574.34722,1018.66501 C1555.37454,1105.20917 1542.43295,1155.85402 1535.52246,1170.59955 C1528.61196,1185.34509 1449.16821,1242.82283 1297.19121,1343.03278 L1072.86094,1485.25918 L928.112499,1254.71452 Z" id="Path" stroke="#000000" stroke-width="9" fill="url(#linearGradient-2)" transform="translate(1251.950383, 987.911896) rotate(-15.000000) translate(-1251.950383, -987.911896) "></path>
                <path d="M348.920799,1224 C252.733599,1072.94605 195.952511,974.380483 178.577536,928.30331 C152.515073,859.187551 159.994634,754.21709 159.994634,722.981524 C159.994634,702.157814 171.940785,688.830639 195.833087,683 C194.653221,742.694637 202.912288,805.998717 220.610289,872.91224 C238.308291,939.825763 283.438194,1020.62176 356,1115.30023 L348.920799,1224 Z" id="Path-10" stroke="#000000" stroke-width="5" fill="#A36A89"></path>
                <path d="M1093.52476,56.8476725 C930.461545,365.469302 852.397388,526.847334 859.332289,540.981768 C866.267189,555.116202 915.800351,564.102091 1007.93177,567.939436 L1093.52476,56.8476725 Z" id="Path-4" stroke="#000000" stroke-width="9" fill="#2F003C" transform="translate(976.216348, 312.393554) scale(-1, 1) rotate(14.000000) translate(-976.216348, -312.393554) "></path>
                <ellipse id="Oval" stroke="#000000" stroke-width="4" fill="#FAD0D0" transform="translate(325.732413, 1125.506095) rotate(-11.000000) translate(-325.732413, -1125.506095) " cx="325.732413" cy="1125.50609" rx="15.8454958" ry="29.5661263"></ellipse>
                <ellipse id="Oval" stroke="#000000" stroke-width="5" fill="#FAD0D0" transform="translate(287.367337, 1075.231910) rotate(-11.000000) translate(-287.367337, -1075.231910) " cx="287.367337" cy="1075.23191" rx="13.6429112" ry="16.6573565"></ellipse>
                <path d="M1403.94333,735 C1427.70297,765.592298 1449.51414,798.634561 1469.37682,834.126791 C1499.17083,887.365135 1499,916.663324 1499,938.645415 C1499,960.627507 1488.3879,1060.16905 1483.08248,1083.81017 C1477.77706,1107.45129 1419.85958,1168.00573 1392.44825,1190.81734 C1374.17404,1206.02507 1316.10918,1247.08596 1218.25369,1314 C1194.08456,1254.27507 1182,1224.41261 1182,1224.41261 C1182,1224.41261 1211.76929,1207.82235 1271.30787,1174.64183 C1305.92665,1154.11297 1329.35892,1138.49048 1341.60466,1127.77436 C1367.91004,1104.7548 1382.90273,1079.16004 1392.44825,1061.41332 C1403.68421,1040.5238 1420.51759,979.124132 1419.85958,882.653295 C1419.66534,854.176445 1414.35993,804.95868 1403.94333,735 Z" id="Path-52" stroke="#000000" stroke-width="9" fill="#A36A89"></path>
                <ellipse id="Oval" stroke="#000000" stroke-width="3" fill="#FAD0D0" transform="translate(1432.145946, 1101.407725) rotate(33.000000) translate(-1432.145946, -1101.407725) " cx="1432.14595" cy="1101.40773" rx="15.1796551" ry="19.8876057"></ellipse>
                <ellipse id="Oval" stroke="#000000" stroke-width="3" fill="#FAD0D0" transform="translate(1466.080978, 891.132057) rotate(-11.000000) translate(-1466.080978, -891.132057) " cx="1466.08098" cy="891.132057" rx="11.0030244" ry="17.0735283"></ellipse>
                <ellipse id="Oval" stroke="#000000" stroke-width="3" fill="#FAD0D0" transform="translate(1438.031678, 844.726163) rotate(-11.000000) translate(-1438.031678, -844.726163) " cx="1438.03168" cy="844.726163" rx="11.0026177" ry="14.9915018"></ellipse>
                <ellipse id="Oval" stroke="#000000" stroke-width="3" fill="#FAD0D0" transform="translate(1443.692919, 933.627390) rotate(6.000000) translate(-1443.692919, -933.627390) " cx="1443.69292" cy="933.62739" rx="11.0180319" ry="17.0466041"></ellipse>
                <ellipse id="Oval" stroke="#000000" stroke-width="3" fill="#FAD0D0" transform="translate(1462.573420, 983.408812) rotate(6.000000) translate(-1462.573420, -983.408812) " cx="1462.57342" cy="983.408812" rx="13.2215809" ry="19.5412436"></ellipse>
                <ellipse id="Oval" stroke="#000000" stroke-width="3" fill="#FAD0D0" transform="translate(1433.909857, 1038.253377) rotate(6.000000) translate(-1433.909857, -1038.253377) " cx="1433.90986" cy="1038.25338" rx="15.4251318" ry="22.0358835"></ellipse>
                <ellipse id="Oval" stroke="#000000" stroke-width="3" fill="#FAD0D0" transform="translate(1383.638378, 1129.660986) rotate(33.000000) translate(-1383.638378, -1129.660986) " cx="1383.63838" cy="1129.66099" rx="15.1796551" ry="19.8876057"></ellipse>
                <ellipse id="Oval" stroke="#000000" stroke-width="3" fill="#FAD0D0" transform="translate(1353.463112, 1188.050019) rotate(49.000000) translate(-1353.463112, -1188.050019) " cx="1353.46311" cy="1188.05002" rx="12.8189075" ry="27.0931535"></ellipse>
                <ellipse id="Oval" stroke="#000000" stroke-width="3" fill="#FAD0D0" transform="translate(1291.955334, 1194.163505) rotate(49.000000) translate(-1291.955334, -1194.163505) " cx="1291.95533" cy="1194.1635" rx="14.934794" ry="17.2060716"></ellipse>
                <ellipse id="Oval" stroke="#000000" stroke-width="3" fill="#FAD0D0" transform="translate(1274.840442, 1239.671517) rotate(49.000000) translate(-1274.840442, -1239.671517) " cx="1274.84044" cy="1239.67152" rx="12.8039398" ry="17.2045383"></ellipse>
                <path d="M649.445613,677.104659 C672.071574,729.164125 681.136795,1015.62794 705.293478,1080.00115 C729.450162,1144.37435 706.277216,1218.46859 682.175648,1247.45015 C658.07408,1276.43171 479.361409,1276.48491 447.637964,1238.68 C426.489002,1213.47673 422.817307,1117.64889 436.62288,951.196491 C339.770486,1100.34041 303.641008,1205.86182 328.234444,1267.7607 C365.124599,1360.60903 705.293478,1562.49042 682.175648,1567.32068 C659.057818,1572.15094 215.572811,1337.22402 139.152569,1247.45015 C62.7323275,1157.67628 207.93746,965.926173 181.45328,979.102387 C154.9691,992.278602 -13.6496179,1121.33231 44.2219041,1294.67936 C102.093426,1468.0264 556.047503,1619.61232 556.257253,1633.33423 C556.467003,1647.05614 203.165699,1519.70206 139.152569,1505.064 C75.1394395,1490.42595 43.5259039,1494.47655 15.201649,1550.68312 C-13.1226059,1606.88969 110.525304,1730.27939 124.396507,1742.82012 C138.26771,1755.36085 -16.8292941,1567.32068 74.7177654,1567.32068 C166.264825,1567.32068 227.197072,1676.26987 350.656123,1725.64586 C407.948448,1748.55925 651.679787,1846.93905 788.911163,1788.97593 C989.593605,1706.32482 947.292894,1476.61914 989.593605,1476.61914 C1031.89432,1476.61914 1031.89432,1693.44413 1139.61357,1742.82012 C1237.49544,1788.97593 1421.60134,1772.65426 1479.53112,1762.96351 C1593.6591,1743.87166 1713.49948,1637.10773 1759.24327,1607.58947 C1804.98706,1578.07122 1817.19752,1565.18947 1863.84876,1579.09474 C1910.5,1593 1985.74675,1613.13513 1950,1567.5 C1899.44612,1502.96176 1921.09961,1493.44367 1867.5,1487 C1770,1474 1796.02368,1489.60491 1715.02853,1514.94667 C1634.03337,1540.28842 1600.15778,1574.65033 1574.70145,1567.29193 C1549.24512,1559.93353 1678.68385,1491.68211 1759.31427,1427.28912 C1839.94469,1362.89614 1929.27802,1168.65172 2000.76493,1099.50807 C2168.19422,979.030877 2113.02179,794.479127 1918.73364,725.245404 C1724.44549,656.011681 1972.8392,682.309762 1918.73364,979.102387 C1864.62808,1275.89501 1481.73413,1439.33684 1471.62496,1420.8028 C1461.51579,1402.26877 1722.51838,1242.25526 1759.36817,1060.14341 C1796.21796,878.031563 1491.79158,676.942807 1491.79158,676.942807 C1491.79158,676.942807 1688.6948,865.50661 1610.33194,1026.86829 C1531.96909,1188.22997 1325.04808,1343.51865 1301.43838,1343.51865 C1277.82868,1343.51865 1255.20272,1280.72527 1223.72312,1221.15207 C1192.24352,1161.57887 878.656441,656.710229 866.851592,633.632322 C855.046742,610.554414 626.819651,625.045193 649.445613,677.104659 Z" id="Path-2" stroke="#000000" stroke-width="9" fill="url(#linearGradient-3)"></path>
                <path d="M717.525141,0 C838.839664,0 1197.38056,1016.55095 1135.98657,1039.09327 C1074.59258,1061.63558 631.573555,1061.63558 562.321135,1039.09327 C493.068715,1016.55095 596.210618,0 717.525141,0 Z" id="Triangle" stroke="#000000" stroke-width="9" fill="url(#linearGradient-4)"></path>
                <path d="M779.907171,722.1938 C877.769914,722.1938 923.100984,642.552169 915.900381,483.268907 L779.907171,572.395946 L659.133418,471.9938 C641.78651,638.7938 682.044428,722.1938 779.907171,722.1938 Z" id="Oval-2" fill="#B59400" transform="translate(785.928105, 597.093800) rotate(-4.000000) translate(-785.928105, -597.093800) "></path>
                <path d="M776.288871,650.755834 C785.413945,650.705915 804.597993,612.22522 833.841015,535.313749 L779.120308,580.841527 L737.242828,535.841849 C754.148449,612.501026 767.163797,650.805688 776.288871,650.755834 Z" id="Oval" stroke="#000000" stroke-width="9" fill="#000000" transform="translate(785.541922, 593.034791) rotate(-4.000000) translate(-785.541922, -593.034791) "></path>
                <ellipse id="Oval" stroke="#000000" stroke-width="4" fill="#FAD0D0" transform="translate(187.488402, 745.695585) rotate(-11.000000) translate(-187.488402, -745.695585) " cx="187.488402" cy="745.695585" rx="11.0037848" ry="20.4047958"></ellipse>
                <ellipse id="Oval" stroke="#000000" stroke-width="4" fill="#FAD0D0" transform="translate(176.430397, 819.162563) rotate(-11.000000) translate(-176.430397, -819.162563) " cx="176.430397" cy="819.162563" rx="7.48333397" ry="16.6568871"></ellipse>
                <ellipse id="Oval" stroke="#000000" stroke-width="4" fill="#FAD0D0" transform="translate(201.817626, 857.931095) rotate(-11.000000) translate(-201.817626, -857.931095) " cx="201.817626" cy="857.931095" rx="11.0037848" ry="20.4047958"></ellipse>
                <ellipse id="Oval" stroke="#000000" stroke-width="4" fill="#FAD0D0" transform="translate(214.907370, 929.707375) rotate(57.000000) translate(-214.907370, -929.707375) " cx="214.90737" cy="929.707375" rx="13.117842" ry="10.8415541"></ellipse>
                <ellipse id="Oval" stroke="#000000" stroke-width="4" fill="#FAD0D0" transform="translate(214.444283, 960.212100) rotate(41.000000) translate(-214.444283, -960.212100) " cx="214.444283" cy="960.2121" rx="10.7516615" ry="5.97891902"></ellipse>
                <ellipse id="Oval" stroke="#000000" stroke-width="4" fill="#FAD0D0" transform="translate(253.246649, 1026.096742) rotate(57.000000) translate(-253.246649, -1026.096742) " cx="253.246649" cy="1026.09674" rx="16.9236316" ry="8.68106838"></ellipse>
                <ellipse id="Oval" stroke="#000000" stroke-width="4" fill="#FAD0D0" transform="translate(246.797371, 986.732725) rotate(57.000000) translate(-246.797371, -986.732725) " cx="246.797371" cy="986.732725" rx="13.1173363" ry="9.97525084"></ellipse>
                <ellipse id="Oval" stroke="#000000" stroke-width="4" fill="#FAD0D0" transform="translate(190.352200, 901.141964) rotate(-11.000000) translate(-190.352200, -901.141964) " cx="190.3522" cy="901.141964" rx="10.1218661" ry="10.4110195"></ellipse>
                <path d="M620,1545 C382.157302,1442.85983 254.018643,1388.8646 235.584024,1383.01431 C184.685398,1366.86144 142.389327,1324.64377 127.577242,1313.05648 C50.6835818,1252.90362 35,1165.70763 35,1163.97967 C35,1162.32571 49.7738277,1113.09271 90.9871891,1060.70858 C105.016536,1042.87662 131.17328,1019.97376 169.457423,992 C142.249526,1059.50237 125.05661,1109.88866 117.878674,1143.15889 C113.726301,1162.40542 100.537507,1203.43474 147.415222,1253.92545 C170.186378,1278.45164 327.714637,1375.47649 620,1545 Z" id="Path-11" stroke="#000000" stroke-width="9" fill="#A36A89"></path>
                <ellipse id="Oval" stroke="#000000" stroke-width="5" fill="#FAD0D0" transform="translate(113.843080, 1065.595434) rotate(-41.000000) translate(-113.843080, -1065.595434) " cx="113.84308" cy="1065.59543" rx="13.3340313" ry="10.6688095"></ellipse>
                <ellipse id="Oval" stroke="#000000" stroke-width="5" fill="#FAD0D0" transform="translate(102.156622, 1119.689247) rotate(-60.000000) translate(-102.156622, -1119.689247) " cx="102.156622" cy="1119.68925" rx="16.4549528" ry="10.8738274"></ellipse>
                <ellipse id="Oval" stroke="#000000" stroke-width="5" fill="#FAD0D0" transform="translate(65.996435, 1157.083269) rotate(-82.000000) translate(-65.996435, -1157.083269) " cx="65.9964346" cy="1157.08327" rx="16.223573" ry="11.012975"></ellipse>
                <ellipse id="Oval" stroke="#000000" stroke-width="5" fill="#FAD0D0" transform="translate(91.132063, 1195.321800) rotate(-95.000000) translate(-91.132063, -1195.321800) " cx="91.1320625" cy="1195.3218" rx="16.2117236" ry="11.0199521"></ellipse>
                <ellipse id="Oval" stroke="#000000" stroke-width="5" fill="#FAD0D0" transform="translate(95.982931, 1248.906366) rotate(-121.000000) translate(-95.982931, -1248.906366) " cx="95.9829313" cy="1248.90637" rx="16.4693349" ry="8.6956161"></ellipse>
                <ellipse id="Oval" stroke="#000000" stroke-width="5" fill="#FAD0D0" transform="translate(144.490499, 1274.666693) rotate(-121.000000) translate(-144.490499, -1274.666693) " cx="144.490499" cy="1274.66669" rx="13.0917364" ry="8.6914685"></ellipse>
                <ellipse id="Oval" stroke="#000000" stroke-width="5" fill="#FAD0D0" transform="translate(163.893527, 1315.384627) rotate(-121.000000) translate(-163.893527, -1315.384627) " cx="163.893527" cy="1315.38463" rx="13.0917364" ry="8.6914685"></ellipse>
                <ellipse id="Oval" stroke="#000000" stroke-width="5" fill="#FAD0D0" transform="translate(204.022515, 1320.370497) rotate(-121.000000) translate(-204.022515, -1320.370497) " cx="204.022515" cy="1320.3705" rx="16.8930142" ry="12.1665543"></ellipse>
                <ellipse id="Oval" stroke="#000000" stroke-width="5" fill="#FAD0D0" transform="translate(231.107255, 1353.135172) rotate(-153.000000) translate(-231.107255, -1353.135172) " cx="231.107255" cy="1353.13517" rx="17.431419" ry="11.7881475"></ellipse>
                <ellipse id="Oval" stroke="#000000" stroke-width="5" fill="#FAD0D0" transform="translate(275.901911, 1365.243323) rotate(-153.000000) translate(-275.901911, -1365.243323) " cx="275.901911" cy="1365.24332" rx="10.8951033" ry="8.41887539"></ellipse>
                <ellipse id="Oval" stroke="#000000" stroke-width="5" fill="#FAD0D0" transform="translate(304.124497, 1389.341693) rotate(-153.000000) translate(-304.124497, -1389.341693) " cx="304.124497" cy="1389.34169" rx="10.8951033" ry="8.41887539"></ellipse>
                <ellipse id="Oval" stroke="#000000" stroke-width="5" fill="#FAD0D0" transform="translate(341.607617, 1404.299301) rotate(-153.000000) translate(-341.607617, -1404.299301) " cx="341.607617" cy="1404.2993" rx="10.4594617" ry="8.41856027"></ellipse>
                <ellipse id="Oval" stroke="#000000" stroke-width="5" fill="#FAD0D0" transform="translate(393.643009, 1428.397671) rotate(-153.000000) translate(-393.643009, -1428.397671) " cx="393.643009" cy="1428.39767" rx="10.4594617" ry="8.41856027"></ellipse>
                <path d="M1462,650 C1532.22405,736.111111 1574.90669,791.111111 1590.04794,815 C1622.44741,866.117825 1626.46524,924.149863 1626.46524,952.083333 C1626.46524,998.75 1593.44166,1066.80556 1527.39451,1156.25 L1488.62771,1195 C1537.11537,1163.98126 1578.36221,1133.84237 1612.36822,1104.58333 C1663.37724,1060.69477 1704,1025.83333 1704,962.916667 C1704,900 1674.23848,859.166667 1661.31621,832.916667 C1652.70136,815.416667 1586.26263,754.444444 1462,650 Z" id="Path-53" stroke="#000000" stroke-width="9" fill="#A36A89"></path>
                <path d="M437.224261,947.551402 C426.982303,934.250361 397.995985,1009.94865 381.129429,1042.10514 C369.885057,1063.5428 354.867543,1096.30484 336.076886,1140.39126 C331.365509,1183.24457 342.113338,1217.52721 368.320372,1243.23919 C407.630924,1281.80716 443.334061,1281.85451 494.202476,1289.27193 C528.114752,1294.21688 562.713927,1288.54918 598,1272.26885 C511.133987,1267.01586 462.400681,1257.33931 451.800083,1243.23919 C435.899186,1222.08901 430.428852,1195.32736 428.390429,1103.48213 C426.853731,1034.24314 450.612803,964.938855 437.224261,947.551402 Z" id="Path-12" stroke="#000000" stroke-width="9" fill="#A36A89"></path>
                <ellipse id="Oval" stroke="#000000" stroke-width="4" fill="#FAD0D0" transform="translate(398.493766, 1049.056095) rotate(109.000000) translate(-398.493766, -1049.056095) " cx="398.493766" cy="1049.05609" rx="12.9651971" ry="10.0833462"></ellipse>
                <ellipse id="Oval" stroke="#000000" stroke-width="4" fill="#FAD0D0" transform="translate(406.021208, 1100.788508) rotate(109.000000) translate(-406.021208, -1100.788508) " cx="406.021208" cy="1100.78851" rx="16.728626" ry="10.0853334"></ellipse>
                <ellipse id="Oval" stroke="#000000" stroke-width="4" fill="#FAD0D0" transform="translate(365.003870, 1132.972701) rotate(88.000000) translate(-365.003870, -1132.972701) " cx="365.00387" cy="1132.9727" rx="16.6208199" ry="10.1418412"></ellipse>
                <ellipse id="Oval" stroke="#000000" stroke-width="4" fill="#FAD0D0" transform="translate(404.729822, 1164.604562) rotate(88.000000) translate(-404.729822, -1164.604562) " cx="404.729822" cy="1164.60456" rx="18.2829026" ry="11.4646862"></ellipse>
                <ellipse id="Oval" stroke="#000000" stroke-width="4" fill="#FAD0D0" transform="translate(377.092414, 1200.426445) rotate(69.000000) translate(-377.092414, -1200.426445) " cx="377.092414" cy="1200.42644" rx="21.7774003" ry="14.0136968"></ellipse>
                <ellipse id="Oval" stroke="#000000" stroke-width="4" fill="#FAD0D0" transform="translate(414.809948, 1233.948758) rotate(69.000000) translate(-414.809948, -1233.948758) " cx="414.809948" cy="1233.94876" rx="15.0771175" ry="11.3845376"></ellipse>
                <ellipse id="Oval" stroke="#000000" stroke-width="4" fill="#FAD0D0" transform="translate(447.934378, 1261.629120) rotate(32.000000) translate(-447.934378, -1261.629120) " cx="447.934378" cy="1261.62912" rx="12.5829166" ry="8.4595834"></ellipse>
                <path d="M1981.19972,1023.38188 C1936.87373,1072.22748 1888.47382,1117.76686 1836,1160 C1895.28661,1058.92481 1924.92991,972.150089 1924.92991,899.675844 C1924.92991,827.201599 1897.25408,757.642984 1841.90243,691 C1953.65506,735.150977 2020.15574,771.11042 2041.40448,798.87833 C2073.27759,840.530195 2078,876.767318 2078,890.512433 C2078,904.257549 2047.68871,950.113483 1981.19972,1023.38188 Z" id="Path-54" stroke="#000000" stroke-width="12" fill="#A36A89"></path>
                <ellipse id="Oval" stroke="#000000" stroke-width="4" fill="#FAD0D0" transform="translate(1590.453255, 785.635986) rotate(-11.000000) translate(-1590.453255, -785.635986) " cx="1590.45325" cy="785.635986" rx="9.41278863" ry="12.0193355"></ellipse>
                <ellipse id="Oval" stroke="#000000" stroke-width="4" fill="#FAD0D0" transform="translate(1627.258562, 828.015877) rotate(-11.000000) translate(-1627.258562, -828.015877) " cx="1627.25856" cy="828.015877" rx="9.41166647" ry="15.3361686"></ellipse>
                <ellipse id="Oval" stroke="#000000" stroke-width="4" fill="#FAD0D0" transform="translate(1639.004936, 879.121040) rotate(-11.000000) translate(-1639.004936, -879.121040) " cx="1639.00494" cy="879.12104" rx="9.41057049" ry="19.0676501"></ellipse>
                <ellipse id="Oval" stroke="#000000" stroke-width="4" fill="#FAD0D0" transform="translate(1913.755929, 757.992782) rotate(-34.000000) translate(-1913.755929, -757.992782) " cx="1913.75593" cy="757.992782" rx="13.9512288" ry="19.9776874"></ellipse>
                <ellipse id="Oval" stroke="#000000" stroke-width="4" fill="#FAD0D0" transform="translate(1968.686516, 778.572671) rotate(-34.000000) translate(-1968.686516, -778.572671) " cx="1968.68652" cy="778.572671" rx="11.958385" ry="16.3078929"></ellipse>
                <ellipse id="Oval" stroke="#000000" stroke-width="4" fill="#FAD0D0" transform="translate(1944.350879, 818.799286) rotate(-12.000000) translate(-1944.350879, -818.799286) " cx="1944.35088" cy="818.799286" rx="11.7684789" ry="20.7163636"></ellipse>
                <ellipse id="Oval" stroke="#000000" stroke-width="4" fill="#FAD0D0" transform="translate(2011.365011, 829.677834) rotate(-12.000000) translate(-2011.365011, -829.677834) " cx="2011.36501" cy="829.677834" rx="13.7305981" ry="21.9587303"></ellipse>
                <ellipse id="Oval" stroke="#000000" stroke-width="4" fill="#FAD0D0" transform="translate(1978.475162, 871.226747) rotate(-12.000000) translate(-1978.475162, -871.226747) " cx="1978.47516" cy="871.226747" rx="13.7300638" ry="23.6164996"></ellipse>
                <ellipse id="Oval" stroke="#000000" stroke-width="4" fill="#FAD0D0" transform="translate(1953.600033, 924.034162) rotate(9.000000) translate(-1953.600033, -924.034162) " cx="1953.60003" cy="924.034162" rx="13.736211" ry="23.6559282"></ellipse>
                <ellipse id="Oval" stroke="#000000" stroke-width="4" fill="#FAD0D0" transform="translate(2029.376118, 888.677290) rotate(9.000000) translate(-2029.376118, -888.677290) " cx="2029.37612" cy="888.67729" rx="11.3809175" ry="18.6759995"></ellipse>
                <ellipse id="Oval" stroke="#000000" stroke-width="4" fill="#FAD0D0" transform="translate(1997.269361, 938.120497) rotate(9.000000) translate(-1997.269361, -938.120497) " cx="1997.26936" cy="938.120497" rx="11.3806886" ry="18.2611035"></ellipse>
                <ellipse id="Oval" stroke="#000000" stroke-width="4" fill="#FAD0D0" transform="translate(1969.078062, 993.796040) rotate(34.000000) translate(-1969.078062, -993.796040) " cx="1969.07806" cy="993.79604" rx="13.9996843" ry="18.7904344"></ellipse>
                <ellipse id="Oval" stroke="#000000" stroke-width="4" fill="#FAD0D0" transform="translate(1929.531934, 1010.415606) rotate(25.000000) translate(-1929.531934, -1010.415606) " cx="1929.53193" cy="1010.41561" rx="9.52743454" ry="18.1050629"></ellipse>
                <ellipse id="Oval" stroke="#000000" stroke-width="4" fill="#FAD0D0" transform="translate(1924.050293, 1052.795497) rotate(35.000000) translate(-1924.050293, -1052.795497) " cx="1924.05029" cy="1052.7955" rx="6.42279872" ry="14.6836132"></ellipse>
                <ellipse id="Oval" stroke="#000000" stroke-width="4" fill="#FAD0D0" transform="translate(1651.178930, 966.438763) rotate(2.000000) translate(-1651.178930, -966.438763) " cx="1651.17893" cy="966.438763" rx="9.39990922" ry="21.1894101"></ellipse>
                <ellipse id="Oval" stroke="#000000" stroke-width="4" fill="#FAD0D0" transform="translate(1672.962856, 918.649987) rotate(-8.000000) translate(-1672.962856, -918.649987) " cx="1672.96286" cy="918.649987" rx="11.360578" ry="25.3122333"></ellipse>
                <ellipse id="Oval" stroke="#000000" stroke-width="4" fill="#FAD0D0" transform="translate(1666.021598, 1014.155008) rotate(32.000000) translate(-1666.021598, -1014.155008) " cx="1666.0216" cy="1014.15501" rx="11.5829192" ry="18.4117985"></ellipse>
                <ellipse id="Oval" stroke="#000000" stroke-width="4" fill="#FAD0D0" transform="translate(1626.291065, 1041.460110) rotate(32.000000) translate(-1626.291065, -1041.460110) " cx="1626.29106" cy="1041.46011" rx="9.58467948" ry="14.7299939"></ellipse>
                <ellipse id="Oval" stroke="#000000" stroke-width="4" fill="#FAD0D0" transform="translate(1608.522708, 1084.753841) rotate(32.000000) translate(-1608.522708, -1084.753841) " cx="1608.52271" cy="1084.75384" rx="5.20286949" ry="12.2703495"></ellipse>
                <g id="Group-3" transform="translate(1706.000000, 1446.000000)" stroke="#000000">
                    <path d="M8.08656235,105.937307 C41.8212937,82.0716599 64.8679697,65.6307065 77.2265903,56.6144464 C95.7645211,43.0900563 105.222657,39.2651901 128.584132,36.6727005 C144.158449,34.944374 160.982471,37.8248484 179.056199,45.3141237 C227.92962,75.6315236 258.843736,97.3253085 271.798547,110.395478 C342.402379,181.628016 392.608596,83.5196542 392.608596,82.1296295 C392.608596,80.687664 297.572481,184.915148 160.316989,134.413561 C157.308505,134.658779 106.565029,125.166694 8.08656235,105.937307 Z" id="Path-13" stroke-width="12" fill="#A36A89" transform="translate(200.347579, 92.211860) rotate(11.000000) translate(-200.347579, -92.211860) "></path>
                    <path d="M98.0821998,67.235122 C95.4700622,72.1386067 100.193819,79.0205383 108.633006,82.6063465 C117.072193,86.1921546 126.031062,85.1239667 128.643199,80.220482 C131.255337,75.3169973 126.53158,68.4350657 118.092393,64.8492575 C109.653206,61.2634494 100.694337,62.3316373 98.0821998,67.235122 Z" id="Oval" stroke-width="4" fill="#FAD0D0" transform="translate(113.362700, 73.727802) rotate(-14.000000) translate(-113.362700, -73.727802) "></path>
                    <path d="M90.4246014,43.1558938 C89.7682009,47.3185291 95.9303518,51.8907638 104.188151,53.3682658 C112.445949,54.8457678 119.672336,52.6690372 120.328736,48.5064018 C120.985137,44.3437665 114.822986,39.7715318 106.565187,38.2940298 C98.3073883,36.8165278 91.0810019,38.9932585 90.4246014,43.1558938 Z" id="Oval" stroke-width="4" fill="#FAD0D0" transform="translate(105.376669, 45.831148) rotate(-14.000000) translate(-105.376669, -45.831148) "></path>
                    <path d="M68.2579445,63.4088919 C64.8042816,67.9233565 65.2063208,73.7490322 69.1559241,76.4209026 C73.1055274,79.092773 79.1070603,77.5990553 82.5607232,73.0845906 C86.014386,68.570126 85.6123469,62.7444503 81.6627436,60.0725799 C77.7131403,57.4007095 71.7116073,58.8944272 68.2579445,63.4088919 Z" id="Oval" stroke-width="4" fill="#FAD0D0" transform="translate(75.409334, 68.246741) rotate(-14.000000) translate(-75.409334, -68.246741) "></path>
                    <path d="M139.798299,53.2903981 C135.770492,57.3040441 138.372439,64.8326712 145.609911,70.1060574 C152.847384,75.3794436 161.979698,76.4006649 166.007506,72.3870189 C170.035313,68.373373 167.433366,60.8447459 160.195894,55.5713597 C152.958421,50.2979734 143.826107,49.2767522 139.798299,53.2903981 Z" id="Oval" stroke-width="4" fill="#FAD0D0" transform="translate(152.902902, 62.838709) rotate(-14.000000) translate(-152.902902, -62.838709) "></path>
                    <path d="M147.646069,90.582944 C143.953959,94.5438856 145.421893,101.188369 150.92479,105.423814 C156.427688,109.659258 163.881715,109.881786 167.573825,105.920845 C171.265935,101.959903 169.798001,95.3154195 164.295103,91.0799751 C158.792206,86.8445308 151.338179,86.6220023 147.646069,90.582944 Z" id="Oval" stroke-width="4" fill="#FAD0D0" transform="translate(157.609947, 98.251894) rotate(-14.000000) translate(-157.609947, -98.251894) "></path>
                    <path d="M180.607823,81.8209619 C177.734191,84.8412429 179.227264,90.202911 183.942693,93.7965829 C188.658122,97.3902547 194.810271,97.8550798 197.683902,94.8347989 C200.557533,91.8145179 199.06446,86.4528497 194.349031,82.8591779 C189.633602,79.2655061 183.481454,78.800681 180.607823,81.8209619 Z" id="Oval" stroke-width="4" fill="#FAD0D0" transform="translate(189.145862, 88.327880) rotate(-14.000000) translate(-189.145862, -88.327880) "></path>
                    <path d="M187.420365,109.191981 C184.361249,111.822893 186.392397,116.832886 191.95706,120.382113 C197.521724,123.931341 204.512679,124.675782 207.571794,122.04487 C210.63091,119.413958 208.599763,114.403966 203.035099,110.854738 C197.470435,107.305511 190.479481,106.561069 187.420365,109.191981 Z" id="Oval" stroke-width="4" fill="#FAD0D0" transform="translate(197.496080, 115.618426) rotate(-14.000000) translate(-197.496080, -115.618426) "></path>
                    <path d="M227.22959,129.408442 C224.471535,132.164762 225.314872,136.596763 229.113238,139.307592 C232.911603,142.018421 238.226632,141.981542 240.984687,139.225222 C243.742742,136.468901 242.899404,132.036901 239.101039,129.326072 C235.302674,126.615243 229.987645,126.652121 227.22959,129.408442 Z" id="Oval" stroke-width="4" fill="#FAD0D0" transform="translate(234.107138, 134.316832) rotate(-14.000000) translate(-234.107138, -134.316832) "></path>
                </g>
                <path d="M916.139166,476.950281 C918.010271,523.272607 916.108788,560.790309 910.434717,589.503387 C901.923612,632.573003 887.993042,654.160705 878.843224,667.4486 C873.832471,674.725505 863.068984,685.521222 846.314647,696.58428 C843.886858,698.187373 840.057613,700.552514 834.826914,703.679703 C839.404554,683.522079 842.492964,671.508372 844.092144,667.638583 C846.490913,661.8339 862.35191,648.922999 864.761171,641.04984 C866.367346,635.801068 872.665174,587.917243 883.654656,497.398366 L916.139166,476.950281 Z" id="Path-55" fill="#E1E1E1" transform="translate(875.831047, 590.314992) rotate(-4.000000) translate(-875.831047, -590.314992) "></path>
                <path d="M650.180362,387.942082 C642.351306,387.984897 613.906362,439.464403 616.617138,445.244228 C618.424322,449.097445 669.75006,491.310911 770.594351,571.884626 C872.167875,508.691974 925.188967,473.910175 929.657625,467.539229 C936.360612,457.98281 921.023725,394.739465 908.52033,390.254886 C900.184733,387.265166 856.380436,431.378383 777.107439,522.594537 C697.708759,432.797709 655.399733,387.913557 650.180362,387.942082 Z" id="Path-56" fill="#000000" transform="translate(773.861722, 479.913354) rotate(-4.000000) translate(-773.861722, -479.913354) "></path>
                <ellipse id="Oval" stroke="#000000" stroke-width="13" fill="#FFFFFF" cx="318.5" cy="814" rx="54.5" ry="57"></ellipse>
                <ellipse id="Oval" stroke="#000000" stroke-width="13" fill="#FFFFFF" cx="466.5" cy="988" rx="54.5" ry="57"></ellipse>
                <ellipse id="Oval" stroke="#000000" stroke-width="13" fill="#FFFFFF" cx="1181" cy="884" rx="42" ry="53"></ellipse>
                <ellipse id="Oval" stroke="#000000" stroke-width="13" fill="#FFFFFF" cx="1514" cy="689" rx="68" ry="66"></ellipse>
                <ellipse id="Oval" stroke="#000000" stroke-width="13" fill="#FFFFFF" cx="1853" cy="711" rx="57" ry="61"></ellipse>
                <ellipse id="Oval" stroke="#000000" stroke-width="13" fill="#FFFFFF" cx="2025.92511" cy="1542.0209" rx="71" ry="65.5"></ellipse>
                <ellipse id="Oval" stroke="#000000" stroke-width="13" fill="#FFFFFF" cx="190.5" cy="1037" rx="54.5" ry="57"></ellipse>
                <ellipse id="Oval" stroke="#000000" stroke-width="13" fill="#FFFFFF" cx="135.5" cy="1704" rx="34.5" ry="41"></ellipse>
                <path d="M592.992165,764.265303 C620.610241,725.602505 750.181887,772.196134 820.380992,772.196134 C890.580097,772.196134 1033.04018,713.706259 1054.21404,745.429581 C1075.3879,777.152903 1020.15174,901.072128 1008.18391,936.760865 C996.216078,972.449602 963.994989,993.268032 947.424143,1001.19886 C930.853297,1009.12969 884.505464,1024 827.745813,1024 C789.906045,1024 754.002546,1019.37368 720.035315,1010.12105 C686.279889,994.920288 662.344223,970.466895 648.228317,936.760865 C627.054459,886.201821 565.374088,802.928102 592.992165,764.265303 Z" id="Rectangle" fill="#000000"></path>
                <polygon id="Triangle" fill="#BCA000" transform="translate(663.614090, 782.805226) scale(1, -1) rotate(-6.000000) translate(-663.614090, -782.805226) " points="664.035256 754.974713 676.512307 810.425155 650.715873 810.635738"></polygon>
                <polygon id="Triangle" fill="#BCA000" transform="translate(706.897860, 789.751712) scale(1, -1) rotate(-11.000000) translate(-706.897860, -789.751712) " points="722.527017 763.378607 717.116756 815.745396 691.268703 816.124817"></polygon>
                <polygon id="Triangle" fill="#BCA000" transform="translate(748.014507, 798.019848) scale(1, -1) rotate(-6.000000) translate(-748.014507, -798.019848) " points="747.799746 770.189335 761.548651 823.650928 734.480363 825.85036"></polygon>
                <polygon id="Triangle" fill="#BCA000" transform="translate(788.818330, 805.142506) scale(1, -1) rotate(-6.000000) translate(-788.818330, -805.142506) " points="785.511245 777.417285 797.988295 832.867727 779.648366 832.554202"></polygon>
                <polygon id="Triangle" fill="#BCA000" transform="translate(828.002539, 808.473289) scale(1, -1) rotate(2.000000) translate(-828.002539, -808.473289) " points="826.587277 777.504652 839.228837 838.632267 816.77624 839.441925"></polygon>
                <polygon id="Triangle" fill="#BCA000" transform="translate(861.257031, 803.195335) scale(1, -1) rotate(7.000000) translate(-861.257031, -803.195335) " points="864.276124 775.486679 870.65007 830.51283 851.863991 830.903992"></polygon>
                <polygon id="Triangle" fill="#BCA000" transform="translate(902.813678, 800.690460) scale(1, -1) rotate(10.000000) translate(-902.813678, -800.690460) " points="895.460252 767.647669 915.731369 833.733252 889.895986 833.386837"></polygon>
                <polygon id="Triangle" fill="#BCA000" transform="translate(731.638040, 968.748013) scale(1, -1) rotate(166.000000) translate(-731.638040, -968.748013) " points="726.220509 935.845036 744.584468 1001.17549 718.691611 1001.65099"></polygon>
                <polygon id="Triangle" fill="#BCA000" transform="translate(767.320506, 981.958503) scale(1, -1) rotate(172.000000) translate(-767.320506, -981.958503) " points="767.414848 954.703714 780.227275 1008.93411 754.413738 1009.21329"></polygon>
                <polygon id="Triangle" fill="#BCA000" transform="translate(840.683177, 984.342673) scale(1, -1) rotate(184.000000) translate(-840.683177, -984.342673) " points="838.599767 952.726482 850.34081 1014.36264 831.025545 1015.95886"></polygon>
                <polygon id="Triangle" fill="#BCA000" transform="translate(875.645345, 977.288696) scale(1, -1) rotate(189.000000) translate(-875.645345, -977.288696) " points="881.568382 943.371161 884.856521 1011.20623 866.434168 1010.42445"></polygon>
                <polygon id="Triangle" fill="#BCA000" transform="translate(904.626290, 973.120267) scale(1, -1) rotate(200.000000) translate(-904.626290, -973.120267) " points="905.287268 943.708342 914.942354 1002.53219 894.310225 1000.93547"></polygon>
                <polygon id="Triangle" fill="#BCA000" transform="translate(806.089942, 981.472940) scale(1, -1) rotate(176.000000) translate(-806.089942, -981.472940) " points="808.889013 948.802407 818.982021 1014.00251 793.197863 1014.14347"></polygon>
                <polygon id="Triangle" fill="#BCA000" transform="translate(731.638040, 968.748013) scale(1, -1) rotate(166.000000) translate(-731.638040, -968.748013) " points="726.220509 935.845036 744.584468 1001.17549 718.691611 1001.65099"></polygon>
                <polygon id="Triangle" fill="#BCA000" transform="translate(936.245990, 784.611066) scale(1, -1) rotate(10.000000) translate(-936.245990, -784.611066) " points="926.150223 758.912371 949.163682 810.309761 923.328299 809.963346"></polygon>
                <polygon id="Triangle" fill="#BCA000" transform="translate(970.924209, 774.960077) scale(1, -1) rotate(10.000000) translate(-970.924209, -774.960077) " points="975.46078 750.995865 983.8419 798.92429 958.006517 798.577875"></polygon>
            </g>
        </g>
    </g>
</svg>