<?xml version="1.0" encoding="UTF-8"?>
<svg width="1935px" height="1598px" viewBox="0 0 1935 1598" version="1.1" xmlns="http://www.w3.org/2000/svg" xmlns:xlink="http://www.w3.org/1999/xlink">
    <!-- Generator: Sketch 56.3 (81716) - https://sketch.com -->
    <title>Pepper</title>
    <desc>Created with Sketch.</desc>
    <defs>
        <radialGradient cx="108.400738%" cy="74.6355022%" fx="108.400738%" fy="74.6355022%" r="192.759187%" gradientTransform="translate(1.084007,0.746355),scale(0.769388,1.000000),rotate(176.021089),translate(-1.084007,-0.746355)" id="radialGradient-1">
            <stop stop-color="#970000" offset="0%"></stop>
            <stop stop-color="#F13300" offset="26.3249578%"></stop>
            <stop stop-color="#E4A000" offset="100%"></stop>
        </radialGradient>
        <linearGradient x1="-19.9229704%" y1="61.0035664%" x2="103.200122%" y2="31.5973354%" id="linearGradient-2">
            <stop stop-color="#FFB400" offset="0%"></stop>
            <stop stop-color="#F90000" offset="100%"></stop>
            <stop stop-color="#BB0707" offset="100%"></stop>
        </linearGradient>
        <linearGradient x1="49.5357011%" y1="-1.38690596%" x2="44.7283026%" y2="79.6919146%" id="linearGradient-3">
            <stop stop-color="#447E25" offset="0%"></stop>
            <stop stop-color="#0E3200" offset="100%"></stop>
        </linearGradient>
        <linearGradient x1="-4.03554389%" y1="44.7550243%" x2="89.1501418%" y2="54.8339805%" id="linearGradient-4">
            <stop stop-color="#E85A29" offset="0%"></stop>
            <stop stop-color="#E00000" offset="100%"></stop>
        </linearGradient>
        <linearGradient x1="12.6236803%" y1="50.0417095%" x2="97.6938455%" y2="52.0234177%" id="linearGradient-5">
            <stop stop-color="#FF9700" offset="0%"></stop>
            <stop stop-color="#FF4300" offset="67.2609428%"></stop>
            <stop stop-color="#B92D00" offset="100%"></stop>
        </linearGradient>
    </defs>
    <g id="Page-1" stroke="none" stroke-width="1" fill="none" fill-rule="evenodd">
        <g id="Charecters" transform="translate(-2717.000000, -3013.000000)">
            <g id="Pepper" transform="translate(2723.000000, 3015.000000)">
                <path d="M748.515888,1485.38856 C874.808822,1543.16146 1224.45315,1453.42908 1327.35851,1393.19775 C1418.57007,1415.32354 1873.45851,1198.98244 1727.28613,953.140287 C1569.41996,707.29813 1584.62189,339.764106 1104.00711,375.411219 C972.691254,406.74146 989.407967,460.226763 670.167493,604.044424 C569.706143,724.839396 539.197042,848.65737 505.28505,915.034752 C486.499973,951.803582 380.161494,1103.104 380.161494,1198.98244 C286.611172,1255.52614 283.846473,1352.71354 286.611172,1361.23827 C304.151857,1415.32354 495.930018,1316.98668 748.515888,1485.38856 Z" id="Oval" stroke="#060606" stroke-width="29" fill="url(#radialGradient-1)"></path>
                <path d="M1695.8463,923 C1632.80368,1037.56883 1586.10544,1119.4037 1555.75159,1168.50463 C1525.39773,1217.60556 1448.48054,1288.59731 1325,1381.4799 C1334.51187,1384.84003 1349.31032,1384.84003 1369.39535,1381.4799 C1389.48038,1378.11976 1420.04239,1368.29957 1461.0814,1352.01934 C1538.2907,1315.80741 1587.18992,1287.26749 1607.77907,1266.3996 C1638.66279,1235.09776 1712.98137,1199.81638 1734.37234,1091.17067 C1748.63299,1018.7402 1735.79097,962.683307 1695.8463,923 Z" id="Path-42" fill-opacity="0.8" fill="#A50000"></path>
                <path d="M947.086383,1169 C1014.51283,1169 1065.09067,1110.78314 1065.09067,1016.23924 C1093.87799,920.130244 1027.52563,950.966543 961.786812,901.704134 C934.527292,881.276788 891.965092,813.662561 871.395933,821.652718 C842.360685,832.931553 825,942.473174 825,997.813126 C825,1092.35703 879.659935,1169 947.086383,1169 Z" id="Oval" fill="#FFFFFF"></path>
                <path d="M1176.39016,1195 C1270.02951,1195 1313.3377,1164.21154 1357.81639,1061.9966 C1372.03278,1014.39756 1414,885.891346 1414,867.418767 C1414,848.946188 1291.09836,883.428336 1253.64262,885.891346 C1220.48794,888.071528 1138.98664,877.322729 1118.47733,885.31253 C1089.52656,896.590862 1057,1046.06729 1057,1101.40477 C1072.21639,1155.59101 1082.75082,1195 1176.39016,1195 Z" id="Oval" fill="#FFFFFF"></path>
                <path d="M1447,1323.83074 C1577.92585,1381.06242 1665.12779,1415.11061 1708.60584,1425.97531 C1773.82291,1442.27237 1824.62785,1431.06984 1875.61314,1416.13005 C1926.59843,1401.19026 1927,1353.36652 1927,1323.83074 C1927,1294.29496 1900.25678,1257.52234 1875.61314,1221.68616 C1859.18405,1197.79538 1837.38356,1175.23332 1810.21168,1154 L1774.0073,1182.30512 C1834.73723,1266.81027 1865.10219,1313.98548 1865.10219,1323.83074 C1865.10219,1338.59863 1865.10219,1354.59718 1849.91971,1363.21178 C1834.73723,1371.82638 1819.77944,1384.78462 1687.58394,1371.82638 C1599.45361,1363.18755 1519.25896,1347.18901 1447,1323.83074 Z" id="Path-30" stroke="#000000" stroke-width="4" fill="#000000"></path>
                <path d="M488,1105.10867 C459.496502,1078.64634 426.379434,1061.83491 388.648795,1054.67438 C332.052837,1043.9336 295.794684,1045.42544 274.1027,1064.51522 C252.410716,1083.605 252.545412,1136.90761 284.622239,1308.07594 C306.006791,1422.18815 329.773158,1491.48405 355.921339,1515.96362 L274.1027,1591 L429.558115,1543.02592 C344.622575,1328.16765 302.154805,1205.15718 302.154805,1173.99453 C302.154805,1127.25056 293.972941,1119.86993 302.154805,1105.10867 C310.336669,1090.34742 320.856208,1078.04637 373.453905,1085.427 C408.519036,1090.34742 446.701068,1096.90798 488,1105.10867 Z" id="Path-31" stroke="#000000" stroke-width="4" fill="#000000"></path>
                <path d="M617,1364 C478.330808,1402.01826 389.130682,1421.0274 349.399621,1421.0274 C309.668561,1421.0274 220.857955,1406.56393 82.967803,1377.63699 L0,1545 L109.844697,1453.26027 C126.983586,1463.17808 153.081439,1471.02968 188.138258,1476.81507 C240.723485,1485.49315 342.683584,1479.96692 448.727273,1453.26027 C519.423065,1435.45584 575.513974,1405.70242 617,1364 Z" id="Path-32" stroke="#000000" stroke-width="4" fill="#000000"></path>
                <path d="M1713.49215,1206.40964 C1719.61253,1216.62528 1739.15148,1207.63917 1756.64649,1200.26202 C1774.14149,1192.88487 1815.31832,1144.39373 1824.29383,1132.63816 C1833.26933,1120.8826 1839.98415,1108.30519 1830.12549,1093.29337 C1823.55305,1083.28549 1811.11216,1080.4166 1792.80282,1084.6867 C1788.91504,1015.01363 1783.47215,974.029479 1776.47415,961.734232 C1765.97715,943.291362 1706.49415,913.78277 1697.16348,921.159918 C1692.37727,924.944059 1701.58237,949.705423 1704.16148,998.619972 C1704.93434,1013.27772 1713.49215,1044.11239 1697.16348,1052.71906 C1680.83481,1061.32573 1649.34381,993.701874 1626.01714,987.55425 C1605.02314,997.390448 1614.35381,1026.89904 1620.18547,1060.09621 C1624.07325,1082.22765 1649.73259,1115.42482 1697.16348,1159.6877 L1719.32382,1159.6877 C1711.35578,1184.02524 1709.41189,1199.59922 1713.49215,1206.40964 Z" id="Path-33" stroke="#000000" stroke-width="4" fill="#FFFFFF"></path>
                <path d="M1045.78396,939 C1024.06219,1046.16846 1009.71031,1107.58423 1002.72831,1123.24731 C995.746316,1138.91039 982.170212,1154.16129 962,1169 C979.915696,1164.73268 992.328134,1160.61082 999.237314,1156.63441 C1021.36142,1143.90143 1035.00381,1125.70552 1043.45662,1113.35484 C1063.23895,1075.02151 1074.87561,973.623656 1071.38461,962.494624 C1069.05728,955.075269 1060.52373,947.243728 1045.78396,939 Z" id="Path-34" fill="#D7D7D7"></path>
                <path d="M1356.78443,868.13806 C1315.1148,1019.64232 1290.98307,1103.11993 1284.38922,1118.5709 C1277.79537,1134.02186 1255.99897,1158.16489 1219,1191 C1244.68862,1187.72637 1264.92814,1180.3607 1279.71856,1168.90299 C1301.90419,1151.71642 1318.17505,1152.29657 1354.4491,1065.78358 C1390.72315,979.270595 1414,880.414179 1414,868.13806 C1414,859.95398 1394.92814,859.95398 1356.78443,868.13806 Z" id="Path-35" fill="#D7D7D7"></path>
                <ellipse id="Oval" fill="#000000" cx="995" cy="1024" rx="24" ry="28"></ellipse>
                <ellipse id="Oval" fill="#000000" cx="1279" cy="1019" rx="27" ry="32"></ellipse>
                <path d="M958.50914,897.209696 C909.008956,859.329882 872.209771,820.343573 848.111585,780.250769 C843.00807,775.17477 844.182513,765.73598 851.634911,751.934398 C862.813509,731.232025 877.472637,715 883.344847,715 C889.217058,715 915.054783,782.713063 969.079119,846.732686 C1005.09534,889.412434 1043.06897,927.168206 1083,960 C1049.50628,956.019611 1008.00932,935.08951 958.50914,897.209696 Z" id="Path-36" fill="#000000"></path>
                <path d="M1097.61513,883.861465 C1130.92757,893.009341 1176.51836,896.245533 1234.38751,893.570039 C1292.25666,890.894546 1347.59906,883.062534 1400.41472,870.074004 C1424.69955,863.756628 1443.41191,855.138093 1456.5518,844.218397 C1469.69169,833.298701 1475.15708,821.824713 1472.94795,809.796432 L1456.63216,749.598172 C1419.94406,781.077007 1372.37943,807.744185 1313.93827,829.599704 C1255.4971,851.455222 1183.38939,869.542476 1097.61513,883.861465 Z" id="Path-37" fill="#000000" transform="translate(1285.520002, 822.038181) rotate(-1.000000) translate(-1285.520002, -822.038181) "></path>
                <path d="M949,1212.64252 C1058.34028,1254.51601 1159.14028,1266.05814 1251.4,1247.26892 C1343.65972,1228.47969 1410.85972,1182.72338 1453,1110 C1436.78396,1231.9545 1411.38861,1305.32947 1376.81395,1330.12493 C1324.95197,1367.31811 1187.99427,1368.62624 1123.64186,1346.20147 C1080.74025,1331.25162 1022.5263,1286.73197 949,1212.64252 Z" id="Path-38" fill="#780000"></path>
                <polygon id="Triangle" fill="#FFFFFF" transform="translate(1234.166013, 1286.099484) rotate(-188.000000) translate(-1234.166013, -1286.099484) " points="1247.62335 1258.04588 1263.49542 1313.75812 1204.83661 1314.15308"></polygon>
                <polygon id="Triangle" fill="#FFFFFF" transform="translate(1067.469084, 1280.428684) rotate(-327.000000) translate(-1067.469084, -1280.428684) " points="1066.59494 1260.88698 1081.71054 1299.97038 1053.22763 1299.31478"></polygon>
                <polygon id="Triangle" fill="#FFFFFF" transform="translate(1027.307916, 1256.613140) rotate(-166.000000) translate(-1027.307916, -1256.613140) " points="1026.99907 1243.07811 1036.6883 1270.14817 1017.92753 1269.92355"></polygon>
                <polygon id="Triangle" fill="#FFFFFF" transform="translate(1117.361241, 1287.373271) rotate(-175.000000) translate(-1117.361241, -1287.373271) " points="1117.15354 1262.76117 1137.24278 1311.98537 1097.47971 1311.80882"></polygon>
                <polygon id="Triangle" fill="#FFFFFF" transform="translate(1162.672338, 1310.913899) rotate(-351.000000) translate(-1162.672338, -1310.913899) " points="1176.69582 1277.44739 1182.57103 1344.3804 1142.77365 1344.06623"></polygon>
                <polygon id="Triangle" fill="#FFFFFF" transform="translate(1270.669749, 1311.165183) rotate(-362.000000) translate(-1270.669749, -1311.165183) " points="1280.12762 1272.98688 1290.54479 1349.29099 1250.79471 1349.34349"></polygon>
                <polygon id="Triangle" fill="#FFFFFF" transform="translate(1316.157323, 1262.773257) rotate(-200.000000) translate(-1316.157323, -1262.773257) " points="1324.55001 1239.59273 1340.11829 1285.95378 1292.19635 1284.04881"></polygon>
                <polygon id="Triangle" fill="#FFFFFF" transform="translate(1339.936152, 1300.640375) rotate(-23.000000) translate(-1339.936152, -1300.640375) " points="1359.755 1267.99819 1353.05896 1333.28256 1320.11731 1331.20066"></polygon>
                <polygon id="Triangle" fill="#FFFFFF" transform="translate(1374.186475, 1228.490043) rotate(144.000000) translate(-1374.186475, -1228.490043) " points="1375.10662 1212.51032 1387.81609 1244.06553 1360.55686 1244.46976"></polygon>
                <polygon id="Triangle" fill="#FFFFFF" transform="translate(1407.397216, 1241.919045) rotate(289.000000) translate(-1407.397216, -1241.919045) " points="1428.49184 1228.79119 1419.38942 1254.49253 1386.30259 1255.0469"></polygon>
                <path d="M1569.01871,716 C1533.26983,811.727273 1501.01813,870.636364 1472.2636,892.727273 C1452.22803,919.057669 1428.1364,934.194033 1399.98869,938.136364 L1386,986 C1411.64593,986 1434.57184,973.318182 1454.77773,947.954545 C1563.19009,860.818182 1615.35219,827.681818 1617.97913,827.681818 C1622.64203,827.681818 1609.81906,827.068182 1609.81906,809.272727 C1609.81906,797.409091 1612.53908,783.090909 1617.97913,766.318182 C1612.28833,746.844624 1604.90541,733.753715 1595.83037,727.045455 C1586.75533,720.337194 1577.81811,716.655376 1569.01871,716 Z" id="Path-41" fill-opacity="0.55" fill="#A50000"></path>
                <path d="M868.634452,516 C891.271856,533.142465 876.830753,562.529549 825.311145,604.161251 C773.791536,645.792952 732.810029,669.465881 702.366624,675.180036 L614,704 C626.248972,682.076315 635.885335,666.102459 642.909091,656.078431 C649.932846,646.054404 661.175271,632.230874 676.636364,614.607843 L868.634452,516 Z" id="Path-39" fill="url(#linearGradient-2)"></path>
                <path d="M1523.70792,446.204737 C1523.70792,433.888742 1461.03618,453.412331 1454.6101,485.61592 C1448.18402,517.81951 1494.42918,560.743488 1503.79838,584.143879 C1513.16757,607.544269 1502.62723,672.819041 1514.33872,696.219431 C1526.05022,719.619821 1575.2385,703.609028 1592.80574,740.557012 C1610.37298,777.504996 1592.80574,795.978988 1592.80574,810.758182 C1592.80574,825.537376 1630.15359,869.10625 1658.39011,887.11735 C1686.62663,905.128449 1711.09184,905.591342 1711.09184,899.433344 C1711.09184,864.948559 1673.0313,851.446333 1663.07471,810.758182 C1657.1239,786.439885 1653.70551,731.935816 1658.39011,720.85142 C1660.34222,716.232458 1691.44693,705.513112 1711.09184,676.513839 C1718.94769,664.917241 1718.94769,641.106318 1711.09184,605.08107 C1754.62168,578.844205 1786.6331,555.033282 1807.1261,533.6483 C1837.86558,501.570828 1848.33412,516.236272 1863.34127,446.204737 C1878.34842,376.173202 1869.19702,307.033996 1853.97208,257.770017 C1838.74713,208.506038 1679.4708,13.913321 1658.39011,4.06052519 C1637.30942,-5.79227062 1619.03004,3.83923244 1574.06735,16.37652 C1529.10465,28.9138075 1512.57913,36.8552255 1503.79838,47.1665069 C1495.01762,57.4777883 1503.79838,89.0408891 1503.79838,98.8936849 C1503.79838,108.746481 1603.75808,94.4113095 1649.02091,112.441279 C1686.4977,138.304868 1711.09184,155.547261 1762.62242,204.81124 C1797.5185,262.711391 1813.7717,305.493477 1807.1261,374.771968 C1800.48049,444.050458 1781.02181,456.147311 1726.31678,496.700316 C1689.84676,523.735652 1648.46615,536.051647 1602.17493,533.6483 C1568.28019,533.975956 1546.02835,528.228491 1535.41941,516.405907 C1519.50601,498.672031 1523.70792,458.520732 1523.70792,446.204737 Z" id="Path-16" stroke="#000000" stroke-width="4" fill="url(#linearGradient-3)"></path>
                <path d="M1039.63376,479.294964 C1033.7989,489.136691 1045.46862,523.582734 1045.46862,523.582734 C1045.46862,523.582734 1120.15481,518.661871 1218.18043,537.115108 C1316.20606,555.568345 1415.39866,622 1430.56929,622 C1445.73992,622 1458.57661,586.323741 1445.73992,569.100719 C1432.90323,551.877698 1218.18043,451 1187.83917,451 C1157.4979,451 1045.46862,469.453237 1039.63376,479.294964 Z" id="Path-40" fill="url(#linearGradient-4)"></path>
                <path d="M962.191101,1240.20149 C954.124394,1226.466 898.615197,1302.41765 797.398795,1287.01524 C696.182393,1271.61284 711.207646,1215.84862 630.26901,1206.93909 C549.330375,1198.02956 449.114348,1254.98478 415.220896,1273.46389 C381.327443,1291.94301 561.313365,1250.05702 606.894215,1261.14449 C652.475066,1272.23195 809.086193,1343.68452 862.848222,1338.75676 C916.61025,1333.829 970.257807,1253.93698 962.191101,1240.20149 Z" id="Path-43" fill="url(#linearGradient-5)"></path>
                <g id="Group-4" transform="translate(424.748549, 906.655741) scale(-1, 1) rotate(144.000000) translate(-424.748549, -906.655741) translate(258.748549, 672.655741)">
                    <path d="M331.775776,460.730363 C239.427597,455.646332 179.334042,437.071661 151.49511,405.00635 C123.656179,372.941039 116.088842,313.582852 128.793101,226.931789 L70.034958,213.606481 C59.3516594,239.449502 54.01001,268.926697 54.01001,302.038066 C54.01001,351.705121 63.2276461,417.94785 139.476399,448.616447 C190.308902,469.062178 254.408694,473.10015 331.775776,460.730363 Z" id="Path-17" stroke="#000000" stroke-width="4" fill="#000000"></path>
                    <path d="M101.370632,222.961843 C126.878862,229.399981 159.347371,244.421225 181.790178,233.922469 C196.185451,227.188353 158.521871,201.895374 168.386921,187.644269 C186.781424,161.07147 231.382232,156.404255 231.382232,129.187595 C231.382232,119.478449 249.234992,99.5256565 240.764512,91.4343258 C229.016513,80.2121825 198.49936,76.3639165 191.172459,64.6416835 C168.649535,28.6074941 187.304473,23.2348726 138.899754,23.2348726 C124.703543,23.2348726 101.156781,-1.73301457 86.627049,0.0957723629 C70.6900132,2.10168988 50.7688507,16.2776554 37.0349957,23.2348726 C28.8323366,27.3901284 5.2170086,16.5921112 2.18652582,23.2348726 C-9.68678574,49.2609486 30.3536118,107.358316 37.0349957,137.712526 C40.9643873,155.564154 2.18652582,148.673153 2.18652582,173.0301 C2.18652582,214.118783 48.2827815,209.562758 101.370632,222.961843 Z" id="Oval" stroke="#000000" stroke-width="4" fill="#FDFDFD"></path>
                    <path d="M91.7290313,121.476516 C92.3639379,123.360756 100.4889,78.8886944 100.301099,76.5083159 C98.9957362,59.9628354 92.8005398,49.71875 86.371489,49.71875 C79.9424381,49.71875 71.3703704,52.6016704 71.3703704,72.6812351 C71.3703704,92.7607998 91.7290313,121.476516 91.7290313,121.476516 Z" id="Oval" fill="#000000"></path>
                    <path d="M132.894004,125.145499 C132.951402,127.154724 155.85773,86.5187939 156.430094,84.1608991 C160.408471,67.7716973 157.216404,56.0425444 150.467175,54.1547267 C143.717945,52.2669089 133.786995,52.5387208 127.295764,71.9634477 C120.804533,91.3881747 132.894004,125.145499 132.894004,125.145499 Z" id="Oval" fill="#000000"></path>
                </g>
            </g>
        </g>
    </g>
</svg>