<?xml version="1.0" encoding="UTF-8"?>
<svg width="2182px" height="2146px" viewBox="0 0 2182 2146" version="1.1" xmlns="http://www.w3.org/2000/svg" xmlns:xlink="http://www.w3.org/1999/xlink">
    <!-- Generator: Sketch 56.3 (81716) - https://sketch.com -->
    <title>Player</title>
    <desc>Created with Sketch.</desc>
    <defs>
        <linearGradient x1="43.0033622%" y1="11.8866839%" x2="66.1848568%" y2="105.318874%" id="linearGradient-1">
            <stop stop-color="#828282" offset="0%"></stop>
            <stop stop-color="#B0B0B0" offset="100%"></stop>
        </linearGradient>
        <linearGradient x1="1.39730258%" y1="35.0403358%" x2="97.8292533%" y2="59.1115836%" id="linearGradient-2">
            <stop stop-color="#9E9E9E" offset="0%"></stop>
            <stop stop-color="#616161" offset="100%"></stop>
        </linearGradient>
        <linearGradient x1="-59.8761396%" y1="53.6580131%" x2="86.9616575%" y2="53.6580131%" id="linearGradient-3">
            <stop stop-color="#FDFDFD" offset="0%"></stop>
            <stop stop-color="#353535" offset="100%"></stop>
        </linearGradient>
    </defs>
    <g id="Page-1" stroke="none" stroke-width="1" fill="none" fill-rule="evenodd">
        <g id="Artboard" transform="translate(-1815.000000, -1315.000000)">
            <g id="Player" transform="translate(1821.000000, 1328.000000)">
                <g id="Body" transform="translate(826.000000, 1509.000000)" stroke="#000000">
                    <path d="M75.8242608,417.3 C66.2579035,448.378144 59.6943057,472.585338 56.1457744,489.820711 C54.2875694,498.846094 53.2899841,505.814845 53.1278297,510.552577 C53.1241157,510.66109 53.1208692,510.767803 53.118075,510.872694 C53.7316511,510.977641 54.3952529,511.08299 55.1060121,511.187737 C60.1660808,511.933454 67.2205724,512.59622 75.8648231,513.141458 C92.570062,514.195145 114.538446,514.766667 137.230431,514.766667 C159.916902,514.766667 181.646528,514.195356 197.909386,513.142767 C206.297367,512.599867 213.047289,511.940713 217.743341,511.204858 C217.884124,511.182798 218.022575,511.160736 218.158656,511.138689 C218.170843,510.756278 218.180238,510.354827 218.186626,509.934877 C218.263646,504.871665 217.902666,497.656891 217.090866,488.390962 C215.596561,471.33489 212.605098,447.618935 208.118349,417.3 L75.8242608,417.3 Z" id="Rectangle" stroke-width="25" fill="#6C6C6C"></path>
                    <path d="M344.173205,417.3 C334.890759,448.271916 328.520354,472.402114 325.073576,489.592716 C323.264749,498.614129 322.293168,505.583442 322.134919,510.331181 C322.130893,510.451968 322.127428,510.570574 322.124503,510.686969 C322.648706,510.777179 323.209602,510.867703 323.805293,510.957849 C328.701888,511.698847 335.540868,512.358616 343.925119,512.901652 C360.145357,513.952214 381.482723,514.522222 403.523904,514.522222 C425.559425,514.522222 446.664446,513.952436 462.454206,512.903031 C470.587894,512.362457 477.129527,511.706493 481.670297,510.975868 C481.72296,510.967395 481.775278,510.958922 481.827249,510.950451 C481.839368,510.562712 481.848689,510.155585 481.854999,509.729617 C481.930033,504.664507 481.578733,497.454702 480.788943,488.197977 C479.337136,471.182096 476.43234,447.531015 472.076322,417.3 L344.173205,417.3 Z M481.452807,515.296398 C481.452757,515.296559 481.452708,515.29672 481.452659,515.296881 C481.451927,515.299274 481.453236,515.292447 481.456255,515.276799 Z" id="Rectangle" stroke-width="25" fill="#6C6C6C"></path>
                    <path d="M459.566566,79.9666667 L470.00189,79.9666667 L457.702859,69.6991165 L459.566566,79.9666667 Z M511.989418,368.775075 L512.011933,368.899117 L511.969409,368.650604 L511.989418,368.775075 Z M521.835405,430.024397 L524.150883,444.428382 L536.424094,429.944631 L521.835405,430.024397 Z M64.4077412,79.9666667 C64.9767322,76.5013347 65.5518408,73.0163935 66.1330672,69.5118445 L53.8015123,79.9666667 L64.4077412,79.9666667 Z" id="Rectangle" stroke-width="25" fill="#6C6C6C"></path>
                    <ellipse id="Oval" stroke-width="25" fill="#FFFFFF" cx="273.068053" cy="87.5111111" rx="212.160681" ry="87.5111111"></ellipse>
                    <path d="M32.3306906,373.166667 L20.9775385,435.944444 L520.270452,435.944444 C518.244075,423.010022 516.607797,412.821912 515.362413,405.384594 C514.052203,397.560137 512.176441,386.819146 509.735916,373.166667 L32.3306906,373.166667 Z" id="Rectangle" stroke-width="13" fill="#5D3500"></path>
                    <ellipse id="Oval" stroke-width="15" fill="#D3A000" cx="273.575614" cy="404.8" rx="36.036862" ry="44.9777778"></ellipse>
                </g>
                <polygon id="Path-6" stroke="#000000" stroke-width="10" fill="url(#linearGradient-1)" points="875 1835.91942 841.50232 1855 762.325986 1718.50045 714.109629 1745.40897 695.330626 1718.50045 739.486659 1693.05968 24.8694896 609.869736 0 240 308.077146 504.192669 764.356148 1671.53287 800.391531 1648.04908 828.306265 1682.29627 783.642691 1706.75856"></polygon>
                <g id="Head" transform="translate(514.000000, 0.000000)">
                    <path d="M599.506735,1587.96187 C905.415933,1587.96187 1153.40434,1419.1194 1153.40434,1115.52057 C1153.40434,811.92174 905.415933,565.806261 599.506735,565.806261 C293.597538,565.806261 91.2182691,699.81135 45.6091346,1115.52057 C37.598342,1285.25164 113.152041,1411.66281 168.753798,1481.34468 C267.917852,1605.6202 403.499646,1587.96187 599.506735,1587.96187 Z" id="Oval" stroke="#000000" stroke-width="25" fill="#E5B060"></path>
                    <ellipse id="Oval" stroke="#000000" stroke-width="25" fill="#FFFFFF" transform="translate(603.973367, 1083.929863) rotate(5.000000) translate(-603.973367, -1083.929863) " cx="603.973367" cy="1083.92986" rx="155.32419" ry="188.290898"></ellipse>
                    <ellipse id="Oval" stroke="#000000" stroke-width="25" fill="#FFFFFF" transform="translate(259.599608, 1083.931863) rotate(5.000000) translate(-259.599608, -1083.931863) " cx="259.599608" cy="1083.93186" rx="155.32419" ry="188.295581"></ellipse>
                    <ellipse id="Oval" fill="#000000" cx="192.571901" cy="1092.04522" rx="56.7580341" ry="57.7102209"></ellipse>
                    <ellipse id="Oval" fill="#000000" cx="530.079497" cy="1092.04522" rx="56.7580341" ry="57.7102209"></ellipse>
                    <path d="M448.489823,1477.77194 C486.833428,1477.77194 517.917061,1485.79341 517.917061,1477.7977 C517.917061,1469.80199 486.833428,1459.82562 448.489823,1459.82562 C410.146218,1459.82562 379.062585,1469.80199 379.062585,1477.7977 C379.062585,1485.79341 410.146218,1477.77194 448.489823,1477.77194 Z" id="Oval" fill="#000000"></path>
                    <path d="M780.13718,1415.25437 C772.493956,1438.36914 728.675837,1395.30736 682.819195,1402.60505 C650.210028,1426.44415 638.491108,1496.01543 634.414962,1531.04433 C654.795692,1558.28902 715.659855,1621.83079 881.021792,1630.77937 C932.791141,1633.58088 1001.08969,1609.70241 1085.91744,1559.14398 C1229.21569,1402.56569 1300.69892,1254.70527 1300.3671,1115.56271 C1299.84579,906.848882 1235.64649,775.004015 1085.84813,595.967442 C936.049762,416.930869 780.45937,410.850187 556.458671,417.903894 C332.457972,424.957601 215.73314,525.278729 136.123472,624.326439 C56.5138033,723.374149 -26.4301984,963.770836 13.3122246,981.771796 C36.6167736,992.327374 161.115066,968.392299 386.807103,909.96657 L456.863003,968.363838 L509.73857,890.94695 L871.850463,854.792053 C937.617384,959.631069 957.828274,1046.55462 932.483134,1115.56271 C894.465424,1219.07485 804.654292,1341.10929 780.13718,1415.25437 Z" id="Path" stroke="#000000" stroke-width="25" fill="url(#linearGradient-2)"></path>
                    <path d="M34.578114,985.967953 C11.2467674,989.244721 -0.871934216,972.385849 0.0488462571,951.355494 C0.662699906,937.335257 7.10816322,907.688298 19.3852362,862.414617 L360.074011,804.143008 L440.181912,862.414617 L494.635469,781.695598 C776.1685,738.560768 920.841995,719.317161 928.655953,723.964779 C954.437807,739.299413 1001.39761,886.950031 1036.84766,1023.64734 C1036.84766,1163.94315 960.81772,1241.78897 933.720246,1293.5369 C906.622772,1345.28483 810.335663,1533.19532 803.429809,1537.13851 C796.523956,1541.0817 730.688152,1495.0778 730.688152,1502.52605 C730.688152,1507.49155 720.559567,1535.97016 700.302396,1587.96187 C682.059054,1578.14804 669.014664,1569.82353 661.169226,1562.98832 C649.401069,1552.73552 630.78347,1538.45291 630.78347,1532.31905 C630.78347,1526.1852 639.867988,1485.20088 646.436738,1460.02721 C653.005489,1434.85353 673.139372,1402.63186 682.347177,1398.25054 C688.485713,1395.32966 717.643762,1402.48582 769.821322,1419.71903 C779.94863,1397.56468 788.696045,1379.45521 796.063565,1365.39061 C819.66917,1320.32751 841.893793,1276.20332 860.518198,1241.39914 C907.534699,1153.5375 936.067644,1102.28498 938.784539,1077.53762 C943.081514,1038.3978 920.215466,965.37573 870.186393,858.471425 C793.497338,868.659017 732.4189,876.107267 686.951079,880.816177 C641.483259,885.525088 581.479065,890.344544 506.938497,895.274547 L457.216351,968.442657 L382.172743,919.371829 C283.842267,941.407148 215.857975,956.303649 178.219868,964.061333 C96.9161193,980.819051 43.7579118,984.678698 34.578114,985.967953 Z" id="Path-2" stroke="#000000" stroke-width="20" fill="#FDB814"></path>
                    <path d="M899.513487,506.139761 C917.678452,516.161835 931.530116,524.639042 941.068476,531.571384 C950.606837,538.503726 964.120655,549.915352 981.609929,565.806261 C1014.31518,552.273959 1037.62652,543.470705 1051.54394,539.396499 C1117.73736,520.018935 1153.40434,513.080186 1153.40434,506.139761 C1153.40434,492.445811 1079.17406,432.763316 1036.84766,398.544434 C994.521262,364.325553 956.271521,331.05282 941.068476,334.476308 C932.824093,336.332814 932.946484,375.338115 919.784214,449.89675 C917.771564,461.29755 911.014655,480.04522 899.513487,506.139761 Z" id="Path-209" stroke="#000000" stroke-width="25" fill="#868686"></path>
                    <path d="M1012.09965,369.509547 C1008.06754,339.138035 1008.06754,305.058361 1012.09965,267.270522 C1018.14781,210.588764 1037.43116,144.905705 1058.99717,106.264183 C1080.56318,67.6226621 1112.39872,0 1238.37163,0 C1364.34453,0 1365.34926,212.366643 1421.53368,237.927052 C1441.40121,246.965537 1480.61434,244.802373 1516.01336,221.423902 C1580.7211,178.689158 1645.73484,98.4683392 1648.83262,122.405004 C1651.20945,140.770888 1628.79335,210.14597 1548.19122,307.964809 C1520.44701,341.635214 1475.52344,396.229465 1390.04046,399.335906 C1304.55747,402.442348 1292.38751,418.904269 1240.69754,331.55833 C1172.76551,340.756902 1125.09269,380.37587 1097.67906,450.415232 L1012.09965,369.509547 Z" id="Path-3" stroke="#000000" stroke-width="25" fill="#C50202"></path>
                    <path d="M1639.63068,131.776159 C1628.9759,165.039252 1618.29413,191.041273 1607.58536,209.782221 C1596.87658,228.523169 1560.39946,239.245652 1498.15398,241.949669 C1511.33574,238.1968 1528.6084,227.474317 1549.97195,209.782221 C1571.3355,192.090124 1601.22175,166.088104 1639.63068,131.776159 Z" id="Path-210" fill-opacity="0.4" fill="#FFFFFF"></path>
                    <path d="M1021.11747,362.924503 C1018.80327,322.611047 1018.80327,291.512386 1021.11747,269.628523 C1023.43167,247.744659 1030.02317,216.511953 1040.89196,175.930404 C1062.25751,113.464992 1084.87317,71.9107476 1108.73893,51.2676714 C1120.42084,41.1632188 1138.13048,29.737137 1156.12953,22.7158843 C1168.64449,17.8339217 1189.89639,13.1423135 1219.88523,8.6410596 C1165.85283,47.4489559 1130.8497,75.4645593 1114.87585,92.6878697 C1073.19367,137.630381 1064.79966,175.878382 1060.32552,185.581713 C1049.75639,208.50357 1042.12936,239.357842 1035.43693,269.628523 C1030.97531,289.808977 1026.20216,320.907637 1021.11747,362.924503 Z" id="Path-4" fill-opacity="0.4" fill="#FFFFFF"></path>
                    <path d="M1095.00843,436.37351 L1071.85,415.650103 C1087.32329,385.748697 1099.30879,365.53698 1107.80651,355.014949 C1130.75047,326.605346 1155.73346,312.113715 1172.08474,300.76505 C1210.23769,274.284873 1241.88411,276.372728 1261.06403,272.326562 C1280.24395,268.280396 1296.68389,357.700665 1329.56375,367.006847 C1342.57404,370.689227 1375.7648,360.13023 1414.59586,354.214838 C1432.32387,351.514213 1464.86123,344.635731 1512.20795,333.579391 C1495.53513,350.68956 1478.75269,362.96293 1461.86066,370.399502 C1436.52262,381.55436 1426.29508,388.77391 1384.45598,389.821099 C1342.61689,390.868288 1319.56218,400.707957 1294.90228,385.332526 C1278.46235,375.082239 1261.70295,353.463376 1244.6241,320.475938 C1224.4803,324.448254 1210.20953,327.820059 1201.81178,330.591353 C1176.44828,338.961419 1157.77998,354.247416 1143.45831,366.91172 C1123.50686,384.554315 1107.3569,407.708245 1095.00843,436.37351 Z" id="Path-211" fill-opacity="0.4" fill="#6C0000"></path>
                    <path d="M38.4142045,847.352675 L130.187338,832.481205 C144.234246,777.677084 164.992455,730.170999 192.461964,689.962951 C206.553595,669.336554 233.557758,628.921374 274.052557,587.051987 C299.681692,560.552876 350.119855,514.287202 425.367045,448.254967 C389.438232,458.533016 365.078004,466.273965 352.286364,471.477815 C315.179627,486.573445 296.058362,501.026608 283.890341,507.662252 C251.097134,525.545525 211.111912,565.297587 196.287216,577.870861 C168.944836,601.060762 145.833851,628.244095 126.954261,659.420861 C113.869292,681.156625 102.62611,701.319098 93.2247159,719.908278 C83.8233213,738.497459 65.5531509,780.978924 38.4142045,847.352675 Z" id="Path-212" fill-opacity="0.3" fill="#FFFFFF"></path>
                    <path d="M1120.97117,1501.88561 C1103.78944,1519.41181 1098.79245,1535.99135 1076.37558,1550.79257 C1057.16827,1563.47461 1019.86884,1583.27724 971.981334,1601.16675 C963.782417,1604.22965 950.606445,1607.65314 932.453418,1611.43721 C1002.94178,1540.90553 1049.73337,1490.36833 1072.8282,1459.82562 C1145.23188,1364.07237 1172.35625,1291.71927 1188.37134,1254.90542 C1223.88783,1173.26375 1219.67139,1042.87472 1223.84511,968.310599 C1226.62759,918.601186 1222.2356,860.564919 1210.66914,794.201796 C1228.13597,828.591306 1240.12948,854.511999 1246.64968,871.963874 C1269.3687,932.773317 1280.85414,994.74834 1285.16406,1044.1164 C1289.73822,1096.51126 1290.15725,1152.83076 1276.04223,1215.77985 C1272.76895,1230.37779 1264.9985,1254.66825 1252.7309,1288.65123 C1209.8266,1384.97108 1165.90669,1456.0492 1120.97117,1501.88561 Z" id="Path-5" fill-opacity="0.3" fill="#000000"></path>
                </g>
                <path d="M828.410048,1827.61116 C857.01599,1818.60329 871.973232,1786.74578 861.817984,1756.45541 C855.809313,1738.53317 841.859772,1714.64318 825.949149,1708.5885 C814.969244,1704.41018 808.963706,1723.87543 794.863497,1723.15927 C780.770969,1722.4435 756.884003,1726.47091 750.632011,1738.04111 C743.402423,1751.42049 752.780885,1772.83239 758.226705,1789.07581 C768.381954,1819.36617 799.804106,1836.61904 828.410048,1827.61116 Z" id="Oval" stroke="#000000" stroke-width="8" fill="#E5B060"></path>
                <g id="Shield" transform="translate(1383.865001, 1773.549798) rotate(11.000000) translate(-1383.865001, -1773.549798) translate(1055.865001, 1404.549798)">
                    <path d="M16.2457327,228.711271 L119.04745,557.817122 L317.011916,721.374626 L538.163814,557.496337 L639.030311,227.659933 C563.994557,213.153603 496.218326,185.753074 435.79806,145.465692 C382.307319,109.798819 345.932772,71.5825526 327.042239,30.6636834 C298.067562,79.4789672 262.834111,117.790773 221.339679,145.464964 C175.785461,175.846779 107.481073,203.511971 16.2457327,228.711271 Z" id="Rectangle" stroke="#000000" stroke-width="25" fill="url(#linearGradient-3)"></path>
                    <ellipse id="Oval" fill="#48CFF8" cx="330.498001" cy="388.263093" rx="34.2653592" ry="34.3232994"></ellipse>
                    <ellipse id="Oval" stroke="#48CFF8" stroke-width="10" cx="331.653674" cy="387.086972" rx="167.269056" ry="66.7912854"></ellipse>
                    <ellipse id="Oval" stroke="#48CFF8" stroke-width="10" transform="translate(331.758262, 387.444477) rotate(-55.000000) translate(-331.758262, -387.444477) " cx="331.758262" cy="387.444477" rx="167.791186" ry="66.4162108"></ellipse>
                    <ellipse id="Oval" stroke="#48CFF8" stroke-width="10" transform="translate(331.758262, 387.444477) rotate(55.000000) translate(-331.758262, -387.444477) " cx="331.758262" cy="387.444477" rx="167.791186" ry="66.4162108"></ellipse>
                </g>
                <path d="M182,597 L686,1559" id="Line-11" stroke="#000000" stroke-width="11" stroke-linecap="square"></path>
                <path d="M691.233578,1715.8502 L709.981206,1746.0518 L833.284177,1680.53382 L807.804888,1645.96324 L691.233578,1715.8502 Z" id="Rectangle" stroke="#000000" stroke-width="9" fill="#BC9B38"></path>
            </g>
        </g>
    </g>
</svg>