<?xml version="1.0" encoding="UTF-8"?>
<svg width="1715px" height="2449px" viewBox="0 0 1715 2449" version="1.1" xmlns="http://www.w3.org/2000/svg" xmlns:xlink="http://www.w3.org/1999/xlink">
    <!-- Generator: Sketch 58 (84663) - https://sketch.com -->
    <title>Salt</title>
    <desc>Created with Sketch.</desc>
    <g id="Page-1" stroke="none" stroke-width="1" fill="none" fill-rule="evenodd">
        <g id="Artboard" transform="translate(-17281.000000, -1136.000000)">
            <g id="Salt" transform="translate(17259.000000, 1117.000000)">
                <ellipse id="Oval" stroke="#000000" stroke-width="20" fill="#ABE1F8" transform="translate(1377.499219, 1428.676171) rotate(-36.000000) translate(-1377.499219, -1428.676171) " cx="1377.49922" cy="1428.67617" rx="62.1732954" ry="140.187041"></ellipse>
                <ellipse id="Oval" stroke="#000000" stroke-width="20" fill="#ABE1F8" transform="translate(130.130383, 1382.740657) rotate(34.000000) translate(-130.130383, -1382.740657) " cx="130.130383" cy="1382.74066" rx="62.3082402" ry="139.851161"></ellipse>
                <path d="M398.176363,2035.92351 C398.176363,2048.25453 480.885805,2212.96175 416.332094,2294.87497 C373.296288,2349.48378 392.46067,2381.19213 473.825243,2390 C537.034084,2389.41281 560.905508,2371.50347 545.439515,2336.27197 C529.973522,2301.04048 506.102098,2287.24148 473.825243,2294.87497 C505.170261,2234.48546 521.308689,2190.1525 522.240525,2161.87609 C523.172362,2133.59968 509.723672,2096.31302 481.894456,2050.0161 C426.082394,2032.40036 398.176363,2027.70283 398.176363,2035.92351 Z" id="Path-9" stroke="#000000" stroke-width="20" fill="#ABE1F8"></path>
                <path d="M817.383279,2078.83597 C817.457182,2085.67915 878.183801,2132.52341 863.183368,2199.77251 C851.28771,2253.10246 767.590375,2324.76758 739.358915,2360.549 C696.804683,2414.48356 716.356673,2446.21471 798.014883,2455.74248 C861.372001,2455.75133 885.109352,2438.15467 869.226938,2402.95252 C853.344523,2367.75036 829.266434,2353.79569 796.992671,2361.0885 C893.770194,2285.37649 942.474085,2233.45667 943.104342,2205.32902 C943.7346,2177.20138 929.852337,2139.97316 901.457555,2093.64437 C845.319699,2075.59213 817.29494,2070.656 817.383279,2078.83597 Z" id="Path-9" stroke="#000000" stroke-width="20" fill="#ABE1F8" transform="translate(830.307827, 2265.376157) rotate(-4.000000) translate(-830.307827, -2265.376157) "></path>
                <path d="M964.915198,301.665882 L595.959029,306.829662 L594.617429,390.064571 L582.670621,387.440614 C493.269508,367.804854 437.809633,368.581051 417.911836,387.375254 C417.518054,387.747195 414.485623,394.783945 410.931235,405.478023 C406.860095,417.726851 401.850918,434.931639 396.070382,456.519067 C384.382585,500.167177 369.85927,560.530523 354.040079,631.330255 C319.103005,787.693206 281.771883,976.75172 251.104103,1156.08295 C215.045421,1366.93774 189.799668,1554.03892 179.343777,1697.85874 C173.522749,1777.92644 172.350609,1843.70919 176.156512,1893.44878 C180.098335,1944.96471 189.430959,1978.38611 203.005016,1991.43471 C261.503308,2047.66854 498.686957,2080.44491 779.473264,2076.51512 C1060.67666,2072.5795 1302.73936,2033.09385 1369.50942,1974.60653 C1400.87584,1947.13108 1410.3765,1843.91682 1398.08217,1680.54789 C1387.32887,1537.6565 1360.46803,1352.16551 1321.52048,1140.95398 C1289.14812,965.399569 1249.57466,778.901962 1211.67571,619.182476 C1195.22524,549.854434 1180.00769,489.581393 1167.88452,445.512725 C1162.01107,424.16229 1156.97258,407.016472 1152.97769,394.775103 C1149.46868,384.022606 1146.5735,376.842276 1146.17072,376.393681 C1138.99941,368.406723 1121.75784,363.934092 1094.40567,364.316903 C1065.25138,364.724937 1025.73459,370.599572 976.009696,381.977689 L963.574851,384.823046 L964.915198,301.665882 Z" id="Body" stroke="#000000" stroke-width="20" fill="#ABE1F8" transform="translate(788.633796, 1189.173143) rotate(6.000000) translate(-788.633796, -1189.173143) "></path>
                <path d="M547.989275,202.564336 L629.924087,205.557642 C634.898,205.739353 639.40146,208.548178 641.752562,212.935107 L682.288006,288.570316 L1099.70743,300.273775 L1118.33156,211.045769 C1119.67358,204.616182 1125.30495,199.983967 1131.87265,199.907231 L1215.78799,198.926768 C1224.09224,164.301726 1229.14001,140.077755 1230.91575,126.395787 C1236.30057,84.9059049 1231.90278,59.5287926 1219.12224,50.1280596 C1212.59695,45.3283747 1171.67266,41.1185879 1107.89028,38.9459486 C1048.11606,36.9098402 969.380455,36.5466676 886.29758,37.8017665 C714.096571,40.4031366 565.501601,49.1848206 548.334289,58.4829774 C525.890854,70.6387869 524.878386,118.751685 547.989275,202.564336 Z" id="Rectangle" stroke="#000000" stroke-width="12" fill="#989898" transform="translate(882.128385, 168.743829) rotate(5.000000) translate(-882.128385, -168.743829) "></path>
                <path d="M645.799137,234.985255 C644.714236,234.997931 643.837297,235.873306 643.822685,236.958184 L642.573856,329.677398 C642.573631,329.694164 642.573616,329.710933 642.573811,329.7277 C642.586716,330.832194 643.492547,331.717102 644.597041,331.704197 L1115.77321,326.198999 C1116.85811,326.186323 1117.73505,325.310948 1117.74966,324.226071 L1118.99849,231.506857 C1118.99872,231.49009 1118.99873,231.473322 1118.99854,231.456555 C1118.98563,230.352061 1118.0798,229.467153 1116.97531,229.480058 L645.799137,234.985255 Z" id="Rectangle" stroke="#000000" stroke-width="12" fill="#414141" transform="translate(880.786174, 280.592127) rotate(5.000000) translate(-880.786174, -280.592127) "></path>
                <ellipse id="Oval" fill="#000000" transform="translate(720.983117, 66.643278) rotate(4.000000) translate(-720.983117, -66.643278) " cx="720.983117" cy="66.643278" rx="16.1786202" ry="14.023645"></ellipse>
                <ellipse id="Oval" fill="#000000" transform="translate(783.733295, 144.728556) rotate(4.000000) translate(-783.733295, -144.728556) " cx="783.733295" cy="144.728556" rx="16.1786202" ry="14.023645"></ellipse>
                <ellipse id="Oval" fill="#000000" transform="translate(717.877675, 105.083018) rotate(4.000000) translate(-717.877675, -105.083018) " cx="717.877675" cy="105.083018" rx="16.1786202" ry="14.023645"></ellipse>
                <ellipse id="Oval" fill="#000000" transform="translate(786.838737, 106.288816) rotate(4.000000) translate(-786.838737, -106.288816) " cx="786.838737" cy="106.288816" rx="16.1786202" ry="14.023645"></ellipse>
                <ellipse id="Oval" fill="#000000" transform="translate(789.944179, 67.849076) rotate(4.000000) translate(-789.944179, -67.849076) " cx="789.944179" cy="67.8490758" rx="16.1786202" ry="14.023645"></ellipse>
                <ellipse id="Oval" fill="#000000" transform="translate(848.746739, 151.853749) rotate(5.000000) translate(-848.746739, -151.853749) " cx="848.746739" cy="151.853749" rx="16.1730819" ry="14.0300506"></ellipse>
                <ellipse id="Oval" fill="#000000" transform="translate(852.626768, 113.466775) rotate(5.000000) translate(-852.626768, -113.466775) " cx="852.626768" cy="113.466775" rx="16.1730819" ry="14.0300506"></ellipse>
                <ellipse id="Oval" fill="#000000" transform="translate(856.506797, 75.079801) rotate(5.000000) translate(-856.506797, -75.079801) " cx="856.506797" cy="75.0798007" rx="16.1730819" ry="14.0300506"></ellipse>
                <ellipse id="Oval" fill="#000000" transform="translate(911.731281, 155.428687) rotate(6.000000) translate(-911.731281, -155.428687) " cx="911.731281" cy="155.428687" rx="16.1663238" ry="14.0378596"></ellipse>
                <ellipse id="Oval" fill="#000000" transform="translate(916.807753, 113.622306) rotate(6.000000) translate(-916.807753, -113.622306) " cx="916.807753" cy="113.622306" rx="16.1663238" ry="14.0378596"></ellipse>
                <ellipse id="Oval" fill="#000000" transform="translate(921.461187, 75.299791) rotate(6.000000) translate(-921.461187, -75.299791) " cx="921.461187" cy="75.2997914" rx="16.1663238" ry="14.0378596"></ellipse>
                <ellipse id="Oval" fill="#000000" transform="translate(977.995127, 160.483771) rotate(4.000000) translate(-977.995127, -160.483771) " cx="977.995127" cy="160.483771" rx="16.1786202" ry="14.023645"></ellipse>
                <ellipse id="Oval" fill="#000000" transform="translate(981.382883, 118.549509) rotate(4.000000) translate(-981.382883, -118.549509) " cx="981.382883" cy="118.549509" rx="16.1786202" ry="14.023645"></ellipse>
                <ellipse id="Oval" fill="#000000" transform="translate(984.488325, 80.109769) rotate(4.000000) translate(-984.488325, -80.109769) " cx="984.488325" cy="80.1097687" rx="16.1786202" ry="14.023645"></ellipse>
                <ellipse id="Oval" fill="#000000" transform="translate(1045.706704, 125.298268) rotate(9.000000) translate(-1045.706704, -125.298268) " cx="1045.7067" cy="125.298268" rx="16.1388036" ry="14.0695769"></ellipse>
                <ellipse id="Oval" fill="#000000" transform="translate(1052.670907, 87.239075) rotate(9.000000) translate(-1052.670907, -87.239075) " cx="1052.67091" cy="87.2390749" rx="16.1388036" ry="14.0695769"></ellipse>
                <g id="Group-3" transform="translate(213.000000, 845.000000)">
                    <path d="M163.701031,99.0558172 C228.574301,148.068485 305.10304,171.467032 393.287248,169.251457 C532.575578,165.751922 552.073063,93.4942023 686.642063,69.7010964 C774.620204,54.1457067 860.293001,54.2833914 943.660454,70.1141505 L943.660454,70.1141522 C946.675166,70.68662 949.096776,72.9330537 949.893581,75.8963819 C982.763085,198.138582 1010.2157,348.992111 1032.25143,528.456971 C1065.7415,801.208969 1072.63896,1079.2686 1072.40641,1079.42577 C1072.16209,1079.58294 842.467445,1130.15552 570.667705,1141.03025 C392.107258,1148.17446 224.977657,1140.20354 69.2789051,1117.11748 L69.2789053,1117.11748 C65.3251698,1116.53124 62.4107872,1113.11683 62.4527093,1109.12009 C64.5951349,904.86705 72.6526888,724.13198 86.6253708,566.914875 C100.372562,412.234941 121.836929,257.913024 151.018472,103.949123 L151.018476,103.949124 C151.841245,99.6081316 156.027302,96.7560488 160.368294,97.5788186 C161.578069,97.8081132 162.718588,98.3135671 163.701031,99.0558172 Z" id="Rectangle" fill="#FFFFFF" transform="translate(567.394228, 600.849855) rotate(7.000000) translate(-567.394228, -600.849855) "></path>
                    <ellipse id="Oval" fill="#D5D5D5" cx="232.422117" cy="427.438194" rx="7.93214757" ry="12.3104829"></ellipse>
                </g>
                <path d="M573.080548,1378.24968 C681.973489,1377.23035 770.903322,1315.78418 771.710888,1241.00583 C772.227022,1193.21327 772.76633,1143.2748 772.76633,1143.2748 C734.864866,1143.62959 399.644396,1146.76754 378.430106,1146.96612 C378.430106,1146.96612 378.182229,1169.91879 377.374663,1244.69715 C376.567097,1319.4755 464.187606,1379.26901 573.080548,1378.24968 Z" id="Oval" fill="#000000" transform="translate(575.067728, 1260.768661) rotate(4.000000) translate(-575.067728, -1260.768661) "></path>
                <path d="M1034.47932,1404.42065 C1143.93069,1403.39609 1233.31321,1341.94569 1234.12078,1267.16733 C1234.63691,1219.37478 1235.17622,1169.43631 1235.17622,1169.43631 C1197.08039,1169.79292 860.14084,1172.94696 838.817758,1173.14656 C838.817758,1173.14656 838.569881,1196.09923 837.762315,1270.87758 C836.954749,1345.65594 925.027951,1405.44521 1034.47932,1404.42065 Z" id="Oval" fill="#000000" transform="translate(1036.466513, 1286.934964) rotate(4.000000) translate(-1036.466513, -1286.934964) "></path>
                <path d="M325.490256,1162.99512 L1300.20851,1153.87093" id="Line-6" stroke="#000000" stroke-width="7" stroke-linecap="square" transform="translate(812.849385, 1158.433024) rotate(4.000000) translate(-812.849385, -1158.433024) "></path>
                <path d="M541.784976,1154.08236 L645.326139,1153.11313 L539.513394,1364.42451 C520.953287,1361.53611 504.780105,1357.60361 490.993847,1352.627 C477.20759,1347.65039 463.974609,1340.96776 451.294905,1332.57911 L541.784976,1154.08236 Z" id="Path-47" fill="#FFFFFF" transform="translate(548.310522, 1258.768822) rotate(4.000000) translate(-548.310522, -1258.768822) "></path>
                <path d="M1000.01432,1181.81731 L1103.55548,1180.84808 L997.742736,1392.15946 C979.182629,1389.27106 963.009447,1385.33855 949.223189,1380.36194 C935.436931,1375.38533 922.20395,1368.7027 909.524246,1360.31406 L1000.01432,1181.81731 Z" id="Path-47" fill="#FFFFFF" transform="translate(1006.539864, 1286.503770) rotate(4.000000) translate(-1006.539864, -1286.503770) "></path>
                <path d="M319.91036,1129.63293 L243.975,1043.06136" id="Line-7" stroke="#000000" stroke-width="6" stroke-linecap="square"></path>
                <path d="M475,1511.9138 C693.554007,1427.66249 886.554007,1440.35789 1054,1550" id="Path-48" stroke="#000000" stroke-width="10"></path>
                <path d="M492,980 C530.839286,955.683688 619.232143,908.266879 717,980" id="Path-49" stroke="#000000" stroke-width="10"></path>
                <path d="M931,1086 C1003.42236,1101.66692 1089.01242,1110.10296 1143,1101.66692" id="Path-50" stroke="#000000" stroke-width="10"></path>
                <g id="Bandana" transform="translate(360.000000, 206.000000)" stroke="#000000">
                    <path d="M880.029221,121.565892 C880.938656,113.740537 916.442483,108.218573 986.540702,105 C1064.70738,113.173468 1120.80151,121.549481 1154.82307,130.128038 C1199.85231,141.482188 1323.26387,193.887098 1326.85787,197.69454 C1334.94004,206.256686 995.77747,196.763872 960.562292,185.409721 C925.347114,174.055571 878.66507,133.303924 880.029221,121.565892 Z" id="Path-28" stroke-width="9" fill="#F20000"></path>
                    <path d="M1214.7303,85.2859069 C1127.61745,109.381648 1026.34364,128.538183 910.908866,142.755511 C919.953698,146.158534 926.116746,152.920249 926.116746,160.705989 C926.116746,171.914062 913.344786,181 897.589775,181 C881.834764,181 869.062804,171.914062 869.062804,160.705989 C869.062804,158.385062 869.610474,156.155133 870.618892,154.078038 C853.097368,160.084602 839.754927,157.179565 830.591692,145.364416 C812.365493,121.863408 826.30182,100.120107 843.071322,86.0276169 C859.840825,71.9351271 948.082527,34.8169626 1047.81525,22.9822675 C1147.54797,11.1475724 1297.79783,24.8365425 1351.22625,4.06866268 C1404.65466,-16.6992171 1353.56971,46.8824009 1214.7303,85.2859069 Z" id="Oval-2" stroke-width="9" fill="#F20000"></path>
                    <ellipse id="Oval" stroke-width="9" fill="#F20000" cx="872.5" cy="140.5" rx="28.5" ry="27.5"></ellipse>
                    <polygon id="Path-147" stroke-width="14" fill="#FF0D0D" transform="translate(461.919578, 256.973416) rotate(3.000000) translate(-461.919578, -256.973416) " points="79.561106 306.968918 815.836495 96.9754688 915.57281 178.270161 8.26634693 416.971364"></polygon>
                    <path d="M881,113 C881.126663,108.696177 883.663167,103.962232 888.609512,98.7981651 C896.029029,91.0520649 896.39595,87.8183762 909.155194,83.6055046 C921.914438,79.3926329 939.544641,78.3211009 950.627034,78.3211009 C958.015296,78.3211009 963.849255,80.0825688 968.128911,83.6055046 C1012.67119,66.868065 1048.9432,55.748799 1076.94493,50.2477064 C1104.94666,44.7466139 1140.96502,41.6640451 1185,41" id="Path-29" stroke-width="10"></path>
                    <path d="M899,128 L929.809129,125.843137 C935.849144,126.272012 945.434206,121.239332 958.564315,110.745098 C971.694425,100.250864 984.839653,87.6691643 998,73" id="Path-30" stroke-width="10"></path>
                    <path d="M944.509145,138.948514 C957.723978,138.948514 986.826377,128.538008 1036.13198,131.545391 C1085.43759,134.552773 1096.76396,142.185995 1119.82592,149.641916 C1142.88789,157.097836 1151.32388,164.227765 1146.84292,168.56101 C1142.36195,172.894255 1139.82551,175.05123 1095.15824,173.496426 C1065.38006,172.45989 1029.55318,169.717992 987.677599,165.270733 C950.088741,147.722587 935.699257,138.948514 944.509145,138.948514 Z" id="Path-31" stroke-width="5"></path>
                    <path d="M148.494989,295.241223 C127.880439,301.149076 107.86221,313.436219 88.4403047,332.102652 C118.387524,335.209135 139.626717,334.966745 152.157885,331.375481 C164.689053,327.784217 172.300334,320.69277 174.991728,310.101141 C177.941786,294.286676 169.109539,289.33337 148.494989,295.241223 Z" id="Path-148" stroke-width="5" fill="#FFED00" transform="translate(131.993005, 313.547476) rotate(-36.000000) translate(-131.993005, -313.547476) "></path>
                    <path d="M212.388769,284.477179 C203.117785,291.71919 194.476287,305.52465 186.464275,325.89356 C200.577192,327.459392 210.451472,326.041172 216.087116,321.6389 C221.722759,317.236629 224.874942,309.485605 225.543665,298.38583 C226.044718,281.871385 221.659753,277.235168 212.388769,284.477179 Z" id="Path-148" stroke-width="5" fill="#FFED00" transform="translate(206.023238, 303.837724) rotate(-34.000000) translate(-206.023238, -303.837724) "></path>
                    <path d="M279.807255,280.116215 C270.034343,289.247309 260.910516,306.502649 252.435774,331.882235 C267.286918,333.586544 277.682868,331.663395 283.623624,326.112788 C289.564379,320.562181 292.898075,310.902703 293.624713,297.134356 C294.185986,276.657835 289.580167,270.985121 279.807255,280.116215 Z" id="Path-148" stroke-width="5" fill="#FFED00" transform="translate(273.053107, 304.187458) scale(1, -1) rotate(-61.000000) translate(-273.053107, -304.187458) "></path>
                    <path d="M363.317701,244.408315 C355.909393,243.296014 347.91796,247.615996 343.841156,254.855739 C340.427362,260.918085 337.795716,274.69095 335.94622,296.174335 C350.797364,297.878644 361.193314,295.955495 367.134069,290.404888 C373.074825,284.854281 377.968091,275.999308 381.813869,263.83997 C382.742237,252.876293 376.576848,246.399075 363.317701,244.408315 Z" id="Path-148" stroke-width="5" fill="#FFED00" transform="translate(358.925606, 270.504799) scale(1, -1) rotate(-61.000000) translate(-358.925606, -270.504799) "></path>
                    <path d="M443.075751,219.107981 C435.761724,218.056928 427.833051,222.508535 423.752736,229.875236 C420.336001,236.043893 414.171556,251.891199 405.259401,277.417156 C419.925251,278.992444 430.213477,276.941969 436.12408,271.265731 C442.034683,265.589493 446.933331,256.580173 450.820023,244.23777 C458.74758,229.365718 456.166156,220.989122 443.075751,219.107981 Z" id="Path-148" stroke-width="5" fill="#FFED00" transform="translate(430.282300, 248.442773) scale(1, -1) rotate(115.000000) translate(-430.282300, -248.442773) "></path>
                    <path d="M443.075751,219.107981 C435.761724,218.056928 427.833051,222.508535 423.752736,229.875236 C420.336001,236.043893 414.171556,251.891199 405.259401,277.417156 C419.925251,278.992444 430.213477,276.941969 436.12408,271.265731 C442.034683,265.589493 446.933331,256.580173 450.820023,244.23777 C458.74758,229.365718 456.166156,220.989122 443.075751,219.107981 Z" id="Path-148" stroke-width="5" fill="#FFED00" transform="translate(430.282300, 248.442773) scale(1, -1) rotate(115.000000) translate(-430.282300, -248.442773) "></path>
                    <path d="M589.056742,175.312782 C581.299934,174.100492 572.990854,178.073727 568.805178,184.918634 C565.300217,190.650356 564.957079,209.938499 567.775764,242.783063 C571.527082,235.739902 576.478837,229.622519 582.631029,224.430915 C588.783221,219.239311 593.805418,210.865403 597.69762,199.309192 C605.819915,185.481301 602.939623,177.482498 589.056742,175.312782 Z" id="Path-148" stroke-width="5" fill="#FFED00" transform="translate(584.042903, 208.939718) scale(1, -1) rotate(-48.000000) translate(-584.042903, -208.939718) "></path>
                    <path d="M507.923377,224.374563 C501.846108,223.412903 495.351975,226.668181 492.095113,232.245154 C489.367914,236.915146 489.157138,252.595274 491.462787,279.285537 C494.378949,273.548737 498.237839,268.560809 503.039458,264.321751 C507.841077,260.082693 511.74835,253.260249 514.761276,243.85442 C521.079572,232.588996 518.800272,226.09571 507.923377,224.374563 Z" id="Path-148" stroke-width="5" fill="#FFED00" transform="translate(504.061056, 251.746349) scale(1, -1) rotate(-48.000000) translate(-504.061056, -251.746349) "></path>
                    <path d="M507.923377,224.374563 C501.846108,223.412903 495.351975,226.668181 492.095113,232.245154 C489.367914,236.915146 489.157138,252.595274 491.462787,279.285537 C494.378949,273.548737 498.237839,268.560809 503.039458,264.321751 C507.841077,260.082693 511.74835,253.260249 514.761276,243.85442 C521.079572,232.588996 518.800272,226.09571 507.923377,224.374563 Z" id="Path-148" stroke-width="5" fill="#FFED00" transform="translate(504.061056, 251.746349) scale(1, -1) rotate(-48.000000) translate(-504.061056, -251.746349) "></path>
                    <path d="M641.839961,182.282118 C637.486516,181.498047 632.955488,184.986724 630.794611,190.720929 C628.985157,195.522582 629.278239,211.368936 631.673858,238.25999 C633.587682,232.374836 636.193776,227.217113 639.49214,222.786822 C642.790504,218.35653 645.379196,211.344113 647.258215,201.74957 C651.437698,190.174574 649.631614,183.685423 641.839961,182.282118 Z" id="Path-148" stroke-width="5" fill="#FFED00" transform="translate(639.536841, 210.216289) scale(1, -1) rotate(130.000000) translate(-639.536841, -210.216289) "></path>
                    <path d="M712.684061,155.099826 C706.650697,154.141928 700.202356,157.432214 696.967424,163.055282 C694.258588,167.763873 694.045211,183.557822 696.327295,210.437128 C699.224016,204.653678 703.056497,199.622854 707.82474,195.344656 C712.592982,191.066458 716.47398,184.18776 719.467733,174.708563 C725.743602,163.350486 723.482379,156.814241 712.684061,155.099826 Z" id="Path-148" stroke-width="5" fill="#FFED00" transform="translate(708.844998, 182.686053) scale(1, -1) rotate(130.000000) translate(-708.844998, -182.686053) "></path>
                    <path d="M790.585677,154.502394 C784.398437,153.544772 777.780144,156.727213 774.454895,162.196602 C771.67043,166.776507 771.431461,182.173712 773.737987,208.388217 C776.716534,202.761135 780.65394,197.871495 785.550202,193.719296 C790.446465,189.567098 794.435986,182.876095 797.518766,173.646289 C803.970425,162.597613 801.659395,156.216315 790.585677,154.502394 Z" id="Path-148" stroke-width="5" fill="#FFED00" transform="translate(786.625928, 181.360749) scale(1, -1) rotate(-43.000000) translate(-786.625928, -181.360749) "></path>
                </g>
                <g id="Chain" transform="translate(132.000000, 1571.000000)" stroke="#000000">
                    <path d="M0,61 C45.8504321,86.2790096 81.1982582,103.825676 106.043478,113.64 C130.888698,123.454324 173.540872,136.52099 234,152.84 L226.565217,180 C170.517697,165.529994 129.039436,153.583327 102.130435,144.16 C75.2214334,134.736673 42.8736073,120.830006 5.08695652,102.44 L0,61 Z" id="Path-141" stroke-width="10" fill="#D9CB16"></path>
                    <path d="M49.5003106,91 C50.1665631,98.3494907 50.1665631,103.659491 49.5003106,106.93 C48.8340582,110.200509 47.0006213,113.890509 44,118" id="Path-142" stroke-width="3"></path>
                    <path d="M93.480347,111 C94.1732177,118.906025 94.1732177,124.565819 93.480347,127.979381 C92.7874764,131.392944 90.9606941,134.73315 88,138" id="Path-143" stroke-width="3"></path>
                    <path d="M135.5,126 L135.5,152" id="Path-144" stroke-width="3"></path>
                    <path d="M177,137 C181,143.757672 183,148.875132 183,152.352381 C183,155.82963 181,161.045503 177,168" id="Path-145" stroke-width="3"></path>
                    <path d="M932.876013,78.9664832 C971.229809,107.243539 1005.98325,130.731771 1037.13635,149.431179 C1068.28944,168.130588 1120.88658,194.823446 1194.92778,229.509755 L1172.9092,254.454347 C1117.57808,231.577004 1073.18306,210.874576 1039.72414,192.347061 C1006.26521,173.819546 958.769929,143.647468 897.238295,101.830826 L932.876013,78.9664832 Z" id="Path-141" stroke-width="10" fill="#D9CB16" transform="translate(1046.083035, 166.710415) rotate(-44.000000) translate(-1046.083035, -166.710415) "></path>
                    <path d="M997.363147,156.643605 C999.920591,167.795529 1001.20759,175.761149 1001.22415,180.540466 C1001.24071,185.319782 999.999273,190.506196 997.499844,196.099707" id="Path-142" stroke-width="3" transform="translate(999.293731, 176.371656) rotate(-46.000000) translate(-999.293731, -176.371656) "></path>
                    <path d="M1056.9698,146.464742 C1059.53734,158.084734 1060.86796,166.320375 1060.96168,171.171666 C1061.05541,176.022956 1059.97188,180.577944 1057.7111,184.836631" id="Path-143" stroke-width="3" transform="translate(1058.968540, 165.650686) rotate(-46.000000) translate(-1058.968540, -165.650686) "></path>
                    <path d="M1111.09549,134.638482 L1117.18147,172.30642" id="Path-144" stroke-width="3" transform="translate(1114.138480, 153.472451) rotate(-46.000000) translate(-1114.138480, -153.472451) "></path>
                    <path d="M1159.71682,115.23384 C1164.41837,125.028088 1167.15452,132.310397 1167.92527,137.080769 C1168.69601,141.85114 1168.25029,148.744934 1166.58809,157.762151" id="Path-145" stroke-width="3" transform="translate(1164.004168, 136.497996) rotate(-46.000000) translate(-1164.004168, -136.497996) "></path>
                    <polygon id="Path-26" stroke-width="14" fill="#D9CB16" transform="translate(879.226427, 268.719072) rotate(6.000000) translate(-879.226427, -268.719072) " points="698.268756 177.653494 696.088931 220.989837 728.654314 212.544053 813.138785 203.238846 815.179082 346.524692 829.343213 428.655753 912.894465 411.839313 893.006718 195.111477 945.112229 189.265957 1007.47523 167.781543 1063.40663 173.149064 1040.99109 140.52826 1026.57272 108.782391 969.353575 134.525223 915.286015 140.261336 815.553184 151.628251 731.291918 162.566752 695.046229 158.967591"></polygon>
                    <polygon id="Path-146" stroke-width="14" fill="#D9CB16" transform="translate(773.667435, 295.107057) rotate(6.000000) translate(-773.667435, -295.107057) " points="597.601836 185.890034 639.585014 418.044306 761.758252 408.396202 852.426867 391.490695 949.733034 365.715844 888.913418 342.536984 803.13223 363.028188 716.372981 364.062692 654.331476 172.169808"></polygon>
                    <path d="M567.061117,197.5421 L661.884289,424.320642 L584.044372,424.320642 L541.586235,322.818956 L488.513565,305.902008 L448.178335,444.438094 L382.368223,424.320642 L448.178335,197.5421 L567.061117,197.5421 Z M541.342986,218.908099 L492.427674,227.525912 L492.427674,266.986423 L541.342986,274.697098 L541.342986,218.908099 Z" id="Combined-Shape" stroke-width="13" fill="#D9CB16" transform="translate(522.126256, 320.990097) rotate(6.000000) translate(-522.126256, -320.990097) "></path>
                    <path d="M450.900072,167.326857 L448.318558,220.237157 L291.406299,202.994749 L268.623175,269.132804 L433.163888,263.630708 L377.587465,414.02388 L193.044935,375.215988 L194.885223,337.497754 L313.748084,359.673568 L333.42221,317.17491 C233.176266,314.25093 187.738498,305.833145 197.108904,291.921555 C206.47931,278.009966 220.114324,230.13448 238.013947,148.295098 L450.900072,167.326857 Z" id="Path-23" stroke-width="15" fill="#D9CB16" transform="translate(321.972504, 281.159489) rotate(6.000000) translate(-321.972504, -281.159489) "></path>
                </g>
            </g>
        </g>
    </g>
</svg>