<?xml version="1.0" encoding="UTF-8"?>
<svg width="1076px" height="1847px" viewBox="0 0 1076 1847" version="1.1" xmlns="http://www.w3.org/2000/svg" xmlns:xlink="http://www.w3.org/1999/xlink">
    <!-- Generator: Sketch 56.3 (81716) - https://sketch.com -->
    <title>Salt</title>
    <desc>Created with Sketch.</desc>
    <g id="Page-1" stroke="none" stroke-width="1" fill="none" fill-rule="evenodd">
        <g id="Artboard" transform="translate(-4461.000000, -2723.000000)">
            <g id="Salt" transform="translate(4446.000000, 2709.000000)">
                <ellipse id="Oval" stroke="#000000" stroke-width="20" fill="#ABE1F8" transform="translate(1007.079958, 1075.686148) rotate(-36.000000) translate(-1007.079958, -1075.686148) " cx="1007.07996" cy="1075.68615" rx="45.7712123" ry="104.427641"></ellipse>
                <ellipse id="Oval" stroke="#000000" stroke-width="20" fill="#ABE1F8" transform="translate(96.459540, 1041.075921) rotate(34.000000) translate(-96.459540, -1041.075921) " cx="96.45954" cy="1041.07592" rx="45.8293072" ry="104.287757"></ellipse>
                <path d="M292.051958,1532.95907 C292.051958,1542.259 352.493473,1666.47953 305.319607,1728.25766 C273.870364,1769.44308 287.875105,1793.35719 347.333831,1800 C393.524907,1799.55715 410.96941,1786.0501 399.667338,1759.47886 C388.365266,1732.90763 370.920764,1722.50056 347.333831,1728.25766 C370.239806,1682.7125 382.033273,1649.27703 382.71423,1627.95124 C383.395187,1606.62546 373.567299,1578.50423 353.230564,1543.58756 C312.444827,1530.30195 292.051958,1526.75911 292.051958,1532.95907 Z" id="Path-9" stroke="#000000" stroke-width="20" fill="#ABE1F8"></path>
                <path d="M598.481631,1565.5975 C598.524439,1570.75261 642.787454,1605.94323 631.725339,1656.62902 C622.952849,1696.82391 561.724703,1750.9484 541.053276,1777.94994 C509.894537,1818.65026 524.118651,1842.5227 583.725618,1849.56725 C629.985611,1849.47067 647.346043,1836.17575 635.806914,1809.68249 C624.267786,1783.18924 606.709984,1772.71589 583.133509,1778.26244 C653.91871,1721.06795 689.56432,1681.87537 690.07034,1660.68471 C690.57636,1639.49404 680.500938,1611.47121 659.844076,1576.61623 C618.884609,1563.10827 598.430461,1559.43536 598.481631,1565.5975 Z" id="Path-9" stroke="#000000" stroke-width="20" fill="#ABE1F8" transform="translate(607.548577, 1706.134545) rotate(-4.000000) translate(-607.548577, -1706.134545) "></path>
                <path d="M701.010834,229.850314 L436.972816,232.781516 L436.186692,296.197468 L424.102525,293.421835 C359.692362,278.627351 319.954328,279.068501 306.421278,292.248311 C306.579385,292.094331 304.419877,297.29569 302.011004,304.838225 C299.083689,314.004079 295.478573,326.910573 291.319879,343.116288 C282.899508,375.929026 272.446919,421.330178 261.072728,474.589594 C235.947037,592.240117 209.151745,734.510659 187.198045,869.470537 C161.388572,1028.13369 143.41568,1168.93129 136.135524,1277.14834 C132.086042,1337.34252 131.391596,1386.7873 134.282497,1424.13619 C137.245624,1462.41819 144.033209,1487.21453 153.4355,1496.53784 C195.559428,1538.30792 368.428146,1563.51064 572.648812,1561.2435 C777.251213,1558.97212 953.511606,1529.89015 1001.41144,1486.6495 C1023.38479,1466.81349 1030.04868,1389.36396 1020.74183,1267.19486 C1012.54779,1159.63339 992.490047,1019.92663 963.545486,860.817373 C939.483633,728.54853 910.136972,588.018455 882.079013,467.660659 C869.902037,415.426136 858.648031,370.015612 849.694766,336.821323 C845.361618,320.756151 841.649084,307.860147 838.713919,298.668039 C836.258192,290.977396 834.144028,285.606946 834.167238,285.633586 C829.538489,280.320961 817.676154,277.110458 798.44088,277.323998 C777.397614,277.557608 748.748091,281.856917 712.651222,290.261816 L700.22609,293.154919 L701.010834,229.850314 Z" id="Body" stroke="#000000" stroke-width="20" fill="#ABE1F8" transform="translate(578.689519, 895.559078) rotate(6.000000) translate(-578.689519, -895.559078) "></path>
                <path d="M402.780773,149.739717 L460.146646,152.061152 C465.156663,152.263893 469.675713,155.13048 471.99413,159.576412 L500.781508,214.780765 L803.225926,224.36988 L816.060455,160.116149 C817.358357,153.618439 823.03371,148.920457 829.659495,148.859045 L887.807995,148.320087 C893.62879,122.932754 897.167107,105.130395 898.409367,95.0435513 C902.200821,64.2578983 899.007432,45.5405595 890.206801,38.8519832 C885.856576,35.5457641 855.867439,32.2808406 809.915231,30.5383213 C766.296281,28.8842798 708.830362,28.4508265 648.192308,29.2269711 C588.924115,29.985582 530.679258,31.8530856 485.677106,34.471746 C438.792862,37.1999248 407.944224,40.7427603 402.272925,43.9004371 C386.912123,52.453055 386.208391,87.8800622 402.780773,149.739717 Z" id="Rectangle" stroke="#000000" stroke-width="12" fill="#989898" transform="translate(645.276157, 126.691161) rotate(5.000000) translate(-645.276157, -126.691161) "></path>
                <path d="M474.92061,177.287417 C473.831385,177.297513 472.950535,178.177404 472.939254,179.266617 L472.256765,245.159557 C472.256626,245.179182 472.256626,245.179182 472.256744,245.198807 C472.266981,246.303329 473.170672,247.190422 474.275194,247.180185 L814.005474,244.031345 C815.094699,244.021249 815.975549,243.141358 815.98683,242.052145 L816.669319,176.159205 C816.669458,176.13958 816.669458,176.13958 816.66934,176.119955 C816.659103,175.015433 815.755412,174.12834 814.65089,174.138577 L474.92061,177.287417 Z" id="Rectangle" stroke="#000000" stroke-width="12" fill="#414141" transform="translate(644.463042, 210.659381) rotate(5.000000) translate(-644.463042, -210.659381) "></path>
                <ellipse id="Oval" fill="#000000" transform="translate(527.801536, 49.459090) rotate(4.000000) translate(-527.801536, -49.459090) " cx="527.801536" cy="49.4590904" rx="11.8123278" ry="10.5640481"></ellipse>
                <ellipse id="Oval" fill="#000000" transform="translate(573.611237, 108.292637) rotate(4.000000) translate(-573.611237, -108.292637) " cx="573.611237" cy="108.292637" rx="11.8123278" ry="10.5640481"></ellipse>
                <ellipse id="Oval" fill="#000000" transform="translate(525.534461, 78.421608) rotate(4.000000) translate(-525.534461, -78.421608) " cx="525.534461" cy="78.4216079" rx="11.8123278" ry="10.5640481"></ellipse>
                <ellipse id="Oval" fill="#000000" transform="translate(575.878312, 79.330119) rotate(4.000000) translate(-575.878312, -79.330119) " cx="575.878312" cy="79.3301193" rx="11.8123278" ry="10.5640481"></ellipse>
                <ellipse id="Oval" fill="#000000" transform="translate(578.145388, 50.367602) rotate(4.000000) translate(-578.145388, -50.367602) " cx="578.145388" cy="50.3676018" rx="11.8123278" ry="10.5640481"></ellipse>
                <ellipse id="Oval" fill="#000000" transform="translate(621.073197, 113.661131) rotate(5.000000) translate(-621.073197, -113.661131) " cx="621.073197" cy="113.661131" rx="11.8090715" ry="10.5676965"></ellipse>
                <ellipse id="Oval" fill="#000000" transform="translate(623.905746, 84.738370) rotate(5.000000) translate(-623.905746, -84.738370) " cx="623.905746" cy="84.7383702" rx="11.8090715" ry="10.5676965"></ellipse>
                <ellipse id="Oval" fill="#000000" transform="translate(626.738295, 55.815609) rotate(5.000000) translate(-626.738295, -55.815609) " cx="626.738295" cy="55.8156094" rx="11.8090715" ry="10.5676965"></ellipse>
                <ellipse id="Oval" fill="#000000" transform="translate(667.053991, 116.354676) rotate(6.000000) translate(-667.053991, -116.354676) " cx="667.053991" cy="116.354676" rx="11.8050983" ry="10.5721449"></ellipse>
                <ellipse id="Oval" fill="#000000" transform="translate(670.759984, 84.855556) rotate(6.000000) translate(-670.759984, -84.855556) " cx="670.759984" cy="84.8555559" rx="11.8050983" ry="10.5721449"></ellipse>
                <ellipse id="Oval" fill="#000000" transform="translate(674.157143, 55.981362) rotate(6.000000) translate(-674.157143, -55.981362) " cx="674.157143" cy="55.9813619" rx="11.8050983" ry="10.5721449"></ellipse>
                <ellipse id="Oval" fill="#000000" transform="translate(715.428786, 120.163442) rotate(4.000000) translate(-715.428786, -120.163442) " cx="715.428786" cy="120.163442" rx="11.8123278" ry="10.5640481"></ellipse>
                <ellipse id="Oval" fill="#000000" transform="translate(717.901959, 88.567969) rotate(4.000000) translate(-717.901959, -88.567969) " cx="717.901959" cy="88.5679687" rx="11.8123278" ry="10.5640481"></ellipse>
                <ellipse id="Oval" fill="#000000" transform="translate(720.169034, 59.605451) rotate(4.000000) translate(-720.169034, -59.605451) " cx="720.169034" cy="59.6054512" rx="11.8123278" ry="10.5640481"></ellipse>
                <ellipse id="Oval" fill="#000000" transform="translate(764.860472, 93.652838) rotate(9.000000) translate(-764.860472, -93.652838) " cx="764.860472" cy="93.6528383" rx="11.7889226" ry="10.5902189"></ellipse>
                <ellipse id="Oval" fill="#000000" transform="translate(769.944569, 64.977045) rotate(9.000000) translate(-769.944569, -64.977045) " cx="769.944569" cy="64.9770446" rx="11.7889226" ry="10.5902189"></ellipse>
                <g id="Group-3" transform="translate(156.000000, 638.000000)">
                    <path d="M121.489461,73.7496315 C168.397381,109.356386 223.415214,126.463844 286.542961,125.072005 C388.269331,122.829144 402.306797,68.4740883 500.529013,50.9369044 C564.283579,39.5537818 626.421968,39.8121115 686.94418,51.7118933 L686.94418,51.7118971 C689.951241,52.3031407 692.356273,54.5602934 693.136897,57.5238403 C717.352238,149.45444 737.724664,262.730769 754.254174,397.352828 C756.855576,418.539542 759.300834,439.758466 761.58995,461.009599 L761.589984,461.009595 C782.776857,657.699146 640.503827,834.322886 443.814276,855.50976 C435.512666,856.403987 427.182328,857.007674 418.838527,857.319714 C418.838527,857.319714 418.838527,857.319714 418.838527,857.319714 C289.115145,862.171089 167.61225,855.790532 54.3298429,838.178044 L54.3298422,838.178049 C50.4130008,837.569081 47.5327122,834.183685 47.5590427,830.219874 C48.5761994,677.096238 53.9488553,541.572401 63.6770101,423.648365 C73.1857956,308.38351 88.2194658,193.404148 108.77802,78.7102804 L108.778017,78.7102798 C109.557557,74.3613127 113.715034,71.4677204 118.064001,72.2472606 C119.308497,72.470333 120.482401,72.9851951 121.489461,73.7496315 Z" id="Rectangle" fill="#FFFFFF" transform="translate(416.323551, 450.740152) rotate(7.000000) translate(-416.323551, -450.740152) "></path>
                    <ellipse id="Oval" fill="#D5D5D5" cx="170.412466" cy="319.748172" rx="5.79095436" ry="9.27403437"></ellipse>
                </g>
                <path d="M420.008286,1037.66763 C499.514475,1037.07719 564.346185,990.932357 564.813962,934.600257 C565.112929,898.597126 565.42532,860.977431 565.42532,860.977431 C537.752259,861.182941 292.997165,863.000575 277.507939,863.115603 C277.507939,863.115603 277.364358,880.406329 276.894036,936.73843 C276.428804,993.07053 340.502097,1038.25807 420.008286,1037.66763 Z" id="Oval" fill="#000000" transform="translate(421.159678, 949.325393) rotate(4.000000) translate(-421.159678, -949.325393) "></path>
                <path d="M756.844568,1057.38621 C836.758481,1056.79275 901.920716,1010.64545 902.388494,954.313354 C902.687461,918.310223 902.999851,880.690528 902.999851,880.690528 C875.184877,880.897092 629.174629,882.724047 613.605971,882.839666 C613.605971,882.839666 613.462391,900.130391 612.992081,956.462492 C612.526836,1012.79459 676.930655,1057.97968 756.844568,1057.38621 Z" id="Oval" fill="#000000" transform="translate(757.995966, 969.041261) rotate(4.000000) translate(-757.995966, -969.041261) "></path>
                <path d="M239.030591,874.713341 L950.703296,869.428218" id="Line-6" stroke="#000000" stroke-width="7" stroke-linecap="square" transform="translate(594.866944, 872.070780) rotate(4.000000) translate(-594.866944, -872.070780) "></path>
                <path d="M396.804679,868.792073 L472.403365,868.230652 L395.488881,1027.24722 C381.932568,1025.04102 370.117359,1022.05216 360.043255,1018.28062 C349.96915,1014.50908 340.296239,1009.45323 331.024521,1003.11308 L396.804679,868.792073 Z" id="Path-47" fill="#FFFFFF" transform="translate(401.713943, 947.738934) rotate(4.000000) translate(-401.713943, -947.738934) "></path>
                <path d="M731.327222,889.689038 L806.925908,889.127617 L730.011423,1048.14418 C716.455111,1045.93799 704.639902,1042.94912 694.565797,1039.17758 C684.491693,1035.40605 674.818782,1030.3502 665.547063,1024.01004 L731.327222,889.689038 Z" id="Path-47" fill="#FFFFFF" transform="translate(736.236486, 968.635899) rotate(4.000000) translate(-736.236486, -968.635899) "></path>
                <path d="M235.203724,849.974699 L179.7125,785.046022" id="Line-7" stroke="#000000" stroke-width="6" stroke-linecap="square"></path>
                <path d="M348,1138.33296 C507.66899,1074.91801 648.66899,1084.47368 771,1167" id="Path-48" stroke="#000000" stroke-width="8"></path>
                <path d="M361,738 C389.309524,719.442814 453.738095,683.256303 525,738" id="Path-49" stroke="#000000" stroke-width="6"></path>
                <path d="M681,818 C733.950311,829.54405 796.52795,835.760076 836,829.54405" id="Path-50" stroke="#000000" stroke-width="6"></path>
            </g>
        </g>
    </g>
</svg>