<?xml version="1.0" encoding="UTF-8"?>
<svg width="1605px" height="2215px" viewBox="0 0 1605 2215" version="1.1" xmlns="http://www.w3.org/2000/svg" xmlns:xlink="http://www.w3.org/1999/xlink">
    <!-- Generator: Sketch 56.3 (81716) - https://sketch.com -->
    <title>Salt</title>
    <desc>Created with Sketch.</desc>
    <g id="Page-1" stroke="none" stroke-width="1" fill="none" fill-rule="evenodd">
        <g id="Charecters" transform="translate(-5147.000000, -2401.000000)">
            <g id="Salt" transform="translate(5147.000000, 2417.000000)">
                <g id="Body" transform="translate(361.000000, 0.000000)" stroke="#000000">
                    <polygon id="Path-137" stroke-width="20" fill="#FFFFFF" points="619.514523 1960 241.369295 1960 0 515.649819 338.491701 0 830.712656 459.338147"></polygon>
                    <polyline id="Path-19" stroke-width="15" points="0 515.649819 135 568.5 216 597 585.5 585 663.190871 558.694344 831 464.939832"></polyline>
                    <path d="M135.051867,568.718412 L241.369295,1418.99519" id="Path-20" stroke-width="10"></path>
                    <path d="M216,597 L278.149378,1445.52948" id="Path-138" stroke-width="10"></path>
                    <path d="M585.5,585 L560.321577,1764.53069" id="Path-21" stroke-width="10"></path>
                    <path d="M667.788382,555.156438 L601.69917,1632.15403" id="Path-139" stroke-width="10"></path>
                    <polyline id="Path-22" stroke-width="10" points="135 568.5 337.711104 14.7624565 216 597"></polyline>
                    <polyline id="Path-140" stroke-width="10" points="585.5 585 342.807618 14.7624565 667.911556 555.295481"></polyline>
                </g>
                <g id="Glasses" transform="translate(762.675285, 823.057405) rotate(-2.000000) translate(-762.675285, -823.057405) translate(344.175285, 677.557405)">
                    <path d="M267.917612,270.264367 C347.500652,275.351172 415.58955,232.754783 419.998421,175.122669 C422.816232,138.288669 425.760563,99.8007998 425.760563,99.8007998 C398.060754,98.0302777 153.069079,82.3708496 137.564881,81.3798491 C137.564881,81.3798491 136.21161,99.0696047 131.802739,156.701719 C127.393867,214.333832 188.334572,265.177562 267.917612,270.264367 Z" id="Oval" fill="#000000"></path>
                    <path d="M605.779444,290.31037 C685.68196,295.421872 754.025884,252.858199 758.42987,195.241745 C761.244557,158.417754 764.185627,119.940343 764.185627,119.940343 C736.374619,118.161225 490.399456,102.425769 474.833018,101.429957 C474.833018,101.429957 473.481247,119.114906 469.077261,176.731359 C464.673275,234.347813 525.876927,285.198868 605.779444,290.31037 Z" id="Oval" fill="#000000"></path>
                    <path d="M93.0812568,77.8415948 L836.007584,126.197737" id="Line-6" stroke="#000000" stroke-width="20" stroke-linecap="square"></path>
                    <path d="M256.603166,97.3019935 L332.104731,102.122935 L244.229455,258.882274 C230.851579,255.664056 219.266299,251.771487 209.473614,247.204569 C199.68093,242.63765 190.378362,236.788956 181.565908,229.658487 L256.603166,97.3019935 Z" id="Path-47" fill="#FFFFFF"></path>
                    <path d="M591.580775,118.531519 L667.08234,123.35246 L579.207064,280.1118 C565.829188,276.893582 554.243908,273.001013 544.451224,268.434095 C534.658539,263.867176 525.355971,258.018482 516.543518,250.888013 L591.580775,118.531519 Z" id="Path-47" fill="#FFFFFF"></path>
                    <path d="M89.4057108,77.967492 L0,0" id="Line-7" stroke="#000000" stroke-width="20" stroke-linecap="square"></path>
                    <path d="M836.007584,118.531519 L811.157187,91.1100485" id="Line-9" stroke="#000000" stroke-width="20" stroke-linecap="square"></path>
                </g>
                <g id="Base" transform="translate(0.000000, 1371.000000)" stroke="#000000">
                    <path d="M917.550419,751.108698 L917.550419,817.529581 L654.891705,817.529581 L672.273531,751.108698 L507.146177,685.937112 L471.456803,640.591949 L397.061275,620.765525 L81.5897436,518.080627 L209.700244,493.927579 L124.722425,408.559047 L274.721152,424.175242 L329.119831,382.115624 L520.02677,474.184264 L117.960612,229.38169 L117.960612,31.0332522 L312.701448,104.868563 L481.395323,224.738822 L467.608009,146.985207 L558.500732,19.3901719 L686.168386,121.374647 L711.86547,291.992568 L762.330873,307.662075 L758.314461,241.184436 L785.524396,201.360174 L843.098907,201.360174 L878.571355,241.15793 L862.745186,322.848061 L826.814373,524.792134 L869.045684,568.992422 L944.588816,331.970027 L1013.26417,135.534929 L1215.48581,0 L1268.95034,173.547177 L1041.02377,518.665887 L1261.19357,307.326716 L1381.56717,256.34905 L1394.49512,382.172537 L1100.0251,620.559425 L1301.1074,483.269178 L1440.17389,388.949915 L1591,427.5515 L1557.3284,502.216828 L1261.19357,645.016918 L1327.82391,733.544729 L1261.19357,811.210001 L1077.61665,800.601932 C1077.61665,800.601932 1067.84886,784.100491 1048.31329,751.097609 L917.550419,751.108698 Z" id="Path-115" stroke-width="20" fill="#FFFFFF"></path>
                    <path d="M1261.19357,339.445592 L1377.83243,262.242422" id="Line-2" stroke-width="6" stroke-linecap="square"></path>
                    <path d="M1377.83243,262.242422 L1274.12152,354.179021" id="Line-3" stroke-width="6" stroke-linecap="square"></path>
                    <path d="M1293.08252,368.617782 L1377.83243,262.242422" id="Line-4" stroke-width="6" stroke-linecap="square"></path>
                    <path d="M1314.9164,381.5832 L1377.83243,262.242422" id="Line-5" stroke-width="6" stroke-linecap="square"></path>
                    <polyline id="Path-116" stroke-width="20" points="117.78801 229.534209 305.80816 229.534209 312.569159 105.184065"></polyline>
                    <path d="M298.779343,223.640837 L495.858794,355.652364" id="Path-117" stroke-width="20"></path>
                    <path d="M209.720116,494.735938 L451.616468,565.456399" id="Path-118" stroke-width="10"></path>
                    <path d="M37.8163568,369.209033 L52.61868,494.846761 L178.972848,526.087405 L136.89955,426.467041 L37.8163568,369.209033 Z" id="Rectangle" stroke-width="14" fill="#FFFFFF" transform="translate(110.044425, 446.199834) rotate(-23.000000) translate(-110.044425, -446.199834) "></path>
                    <path d="M111.971666,381.065754 L159.835746,446.576458 L287.31109,365.651877 L301.123946,314.198837 L111.971666,381.065754 Z" id="Rectangle" stroke-width="16" fill="#FFFFFF" transform="translate(205.981550, 379.467688) rotate(37.000000) translate(-205.981550, -379.467688) "></path>
                    <path d="M274.647165,422.836802 L471.15204,504.75467" id="Path-119" stroke-width="10"></path>
                    <path d="M711.899242,292.593286 L749.821235,562.509713" id="Path-120" stroke-width="20"></path>
                    <path d="M481.494402,223.640837 L530.907909,539.525563" id="Path-120" stroke-width="20"></path>
                    <polyline id="Path-121" stroke-width="20" points="467.704586 147.150229 581.255638 208.31807 686.617913 121.685505"></polyline>
                    <path d="M580.895991,207.728733 L638.928133,669.769079" id="Path-122" stroke-width="15"></path>
                    <polygon id="Path-123" stroke-width="20" points="670.332111 756.418267 699.042418 614.226128 807.594725 505.344007 915.873601 621.096319 915.873601 815.335361 660.762008 815.335361"></polygon>
                    <path d="M699.258577,613.782047 C699.258577,613.782047 730.5808,634.605294 793.225246,676.251788 L915.873601,620.676701" id="Path-124" stroke-width="15"></path>
                    <path d="M793.488985,676.251788 L762.4619,811.210001" id="Path-125" stroke-width="15"></path>
                    <path d="M558.487541,19.1408369 L580.895991,201.246024" id="Path" stroke-width="20"></path>
                    <path d="M117.78801,30.9275804 L305.674251,227.17686" id="Path-126" stroke-width="20"></path>
                    <path d="M128.704948,323.828157 L280.967497,421.658128" id="Path-2" stroke-width="15"></path>
                    <path d="M12.6406645,406.335361 L201.676056,494.735938" id="Path-127" stroke-width="20"></path>
                    <path d="M149.964247,415.764756 L461.95883,532.453517" id="Path-128" stroke-width="10"></path>
                    <path d="M470.982714,637.568725 C458.071883,589.785446 451.616468,564.673066 451.616468,562.231585 C451.616468,559.790104 461.617816,538.86312 481.620511,499.450635 L549.538755,554.907141 L672.828097,715.783325 L672.009805,751.097609 L506.987566,685.962374 L470.982714,637.568725 Z" id="Path-3" stroke-width="20"></path>
                    <polyline id="Path-129" stroke-width="10" points="602.155291 721.63075 506.848693 571.250004 482.068978 505.344007"></polyline>
                    <polyline id="Path-130" stroke-width="10" points="455.638498 565.365732 506.838835 571.939108 549.868906 554.84833"></polyline>
                    <polyline id="Path-4" stroke-width="20" points="762.4619 307.326716 778.036335 532.453517 807.545791 504.935107 826.945527 524.853194 863.01264 322.527361"></polyline>
                    <polyline id="Path-5" stroke-width="14" points="788.317804 241.320952 812.514447 292.33344 844.051643 241.320952 812.514447 297.303887 807.348871 504.75467"></polyline>
                    <polyline id="Path-6" stroke-width="20" points="1261.19357 645.016918 1205.74702 601.995304 1151.44962 660.339684 1200.86313 805.021961"></polyline>
                    <polyline id="Path-7" stroke-width="6" points="1206.3216 608.478013 1216.08938 676.251788 1157.19538 660.339684"></polyline>
                    <path d="M1216.08938,676.251788 L1261.19357,645.016918" id="Path-8" stroke-width="6"></path>
                    <path d="M1216.08938,676.251788 L1257.74612,805.021961" id="Path-9" stroke-width="6"></path>
                    <polyline id="Path-10" stroke-width="6" points="1048.31329 751.097609 996.888769 669.769079 1048.31329 665.643719 1094.56663 613.782047 1162.36656 703.361298"></polyline>
                    <polygon id="Path-11" stroke-width="6" points="1028.49043 625.274122 1057.21921 589.913892 1019.29722 576.653805 990.281148 620.559425"></polygon>
                    <path d="M990.281148,620.559425 L996.888769,669.769079" id="Path-12" stroke-width="6"></path>
                    <path d="M1028.49043,625.274122 L1048.31329,665.643719" id="Path-13" stroke-width="6"></path>
                    <path d="M1057.21921,589.913892 L1094.56663,613.782047" id="Path-14" stroke-width="6"></path>
                    <polyline id="Path-15" stroke-width="7" points="1441.32304 394.548618 1377.83243 499.450635 1558.24919 499.450635"></polyline>
                    <path d="M1377.83243,499.450635 L1119.84796,642.3649" id="Path-16" stroke-width="8"></path>
                    <path d="M1585.54153,430.203517 L1381.56717,496.209281" id="Line" stroke-width="9" stroke-linecap="square"></path>
                    <polyline id="Path-17" stroke-width="20" points="1013.26417 135.534929 1096.92186 207.728733 1268.37577 171.484497"></polyline>
                    <path d="M1216.08938,7.94343052 L1094.56663,207.728733" id="Path-18" stroke-width="15"></path>
                    <path d="M1048.31329,665.643719 L1151.44962,802.075275" id="Line-8" stroke-width="7" stroke-linecap="square"></path>
                    <path d="M1094.56663,207.728733 L911.276995,608.478013" id="Path-131" stroke-width="14"></path>
                    <path d="M1075.89292,467.921096 L921.044782,689.217206" id="Path-132" stroke-width="17"></path>
                    <polyline id="Path-133" stroke-width="15" points="1261.19357 312.925419 1261.19357 339.445592 1274.12152 355.652364 1314.34182 381.5832 1337.32485 381.5832 1394.49512 381.5832"></polyline>
                    <polyline id="Path-134" stroke-width="8" points="1261.19357 339.445592 1033.9489 581.663171 1274.12152 355.849664"></polyline>
                    <polyline id="Path-134" stroke-width="8" points="1298.48101 368.617782 1078.7658 601.995304 1314.9164 383.129836"></polyline>
                    <path d="M993.728602,634.998186 L921.044782,715.737379" id="Path-135" stroke-width="6"></path>
                    <path d="M996.888769,660.634353 L921.044782,743.730894" id="Path-136" stroke-width="6"></path>
                </g>
                <g id="Chain" transform="translate(432.000000, 1009.000000)" stroke="#000000">
                    <path d="M0,12.1439114 C26.258334,33.3899121 46.5018733,48.1371866 60.7306179,56.3857348 C74.9593625,64.6342829 99.3860686,75.6162958 134.010736,89.3317734 L129.75287,112.158672 C97.6547099,99.9972079 73.9002985,89.9565104 58.4896357,82.0365791 C43.0789729,74.1166478 24.55352,62.4286484 2.91327687,46.9725809 L0,12.1439114 Z" id="Path-141" stroke-width="10" fill="#D9CB16"></path>
                    <path d="M28.6338216,36.5793358 C29.0504848,42.9213727 29.0504848,47.5034884 28.6338216,50.3256827 C28.2171583,53.147877 27.0705572,56.332059 25.1940184,59.8782288" id="Path-142" stroke-width="3"></path>
                    <path d="M53.3257382,53.0590406 C53.6971466,59.7149262 53.6971466,64.4797656 53.3257382,67.3535588 C52.9543298,70.227352 51.975096,73.0393883 50.3880368,75.7896679" id="Path-143" stroke-width="3"></path>
                    <path d="M76.9221626,67.2656827 L76.9221626,89.4280443" id="Path-144" stroke-width="3"></path>
                    <path d="M101.312117,75.7896679 C103.098926,81.2402077 103.992331,85.367801 103.992331,88.1724477 C103.992331,90.9770944 103.098926,95.1840645 101.312117,100.793358" id="Path-145" stroke-width="3"></path>
                    <path d="M530.405415,53.8739607 C553.541983,68.8360825 574.794685,80.8736652 594.163523,89.9867088 C613.532361,99.0997523 646.89188,111.011706 694.24208,125.72257 L675.403042,146.45805 C639.607426,137.632239 611.203417,128.879592 590.191014,120.200109 C569.178611,111.520625 539.873789,96.4425022 502.276549,74.9657392 L530.405415,53.8739607 Z" id="Path-141" stroke-width="10" fill="#D9CB16" transform="translate(598.259315, 100.166005) rotate(-44.000000) translate(-598.259315, -100.166005) "></path>
                    <path d="M573.862385,96.2811325 C574.178845,103.77279 574.020513,109.196778 573.387389,112.553098 C572.754266,115.909417 571.170328,119.721567 568.635575,123.989547" id="Path-142" stroke-width="3" transform="translate(571.328078, 110.135340) rotate(-46.000000) translate(-571.328078, -110.135340) "></path>
                    <path d="M607.83182,87.5427433 C608.092305,95.3619629 607.928606,100.969815 607.340722,104.3663 C606.752838,107.762785 605.366557,111.109908 603.181878,114.407668" id="Path-143" stroke-width="3" transform="translate(605.566834, 100.975206) rotate(-46.000000) translate(-605.566834, -100.975206) "></path>
                    <path d="M638.127174,76.9475177 L637.378452,102.596547" id="Path-144" stroke-width="3" transform="translate(637.752813, 89.772033) rotate(-46.000000) translate(-637.752813, -89.772033) "></path>
                    <path d="M665.937461,60.4641045 C667.964054,66.7123627 668.92994,71.4606239 668.83512,74.7088881 C668.7403,77.9571523 667.492636,82.8617517 665.092129,89.4226863" id="Path-145" stroke-width="3" transform="translate(666.966803, 74.943395) rotate(-46.000000) translate(-666.966803, -74.943395) "></path>
                    <polygon id="Path-26" stroke-width="14" fill="#D9CB16" transform="translate(500.275800, 187.921975) rotate(6.000000) translate(-500.275800, -187.921975) " points="396.483972 105.02362 396.446327 141.343697 414.946327 135.167572 463.294805 129.727449 468.491112 250.074549 478.946327 319.421975 526.547002 307.649903 509.020137 125.146535 538.835906 121.701895 574.11449 105.416208 606.446327 111.492425 592.63339 83.4776914 583.446327 56.4219747 551.246904 76.4270441 520.299163 79.7247566 463.235138 86.4676439 415.060935 93.2851983 394.105272 89.2461632"></polygon>
                    <polygon id="Path-146" stroke-width="14" fill="#D9CB16" transform="translate(442.693957, 205.499324) rotate(6.000000) translate(-442.693957, -205.499324) " points="338.867293 112.425043 369.540229 308.499324 439.564007 303.829352 491.257288 292.182309 546.520621 273.275701 510.876247 252.109473 462.095697 266.903944 412.206205 265.336875 371.122576 102.499324"></polygon>
                    <path d="M218.881953,317.921042 L256.55284,126.86919 L324.603472,126.86919 L378.881953,317.921042 L334.324991,317.921042 L310.021194,232.40993 L279.641447,218.158079 L256.55284,334.86919 L218.881953,317.921042 Z M281.881953,152.129352 L281.881953,185.373255 L309.881953,191.86919 L309.881953,144.86919 L281.881953,152.129352 Z" id="Combined-Shape" stroke-width="13" fill="#D9CB16" transform="translate(298.807184, 230.596546) rotate(6.000000) translate(-298.807184, -230.596546) "></path>
                    <path d="M255.332861,105.340919 L255.332861,149.687148 L164.566463,130.80707 L153.31443,185.691016 L247.831505,185.691016 L220.076491,310.387341 L112.807112,272.627186 L112.807112,241.014033 L181.81958,262.967612 L191.946409,227.841886 C134.185974,222.573028 107.806208,214.230668 112.807112,202.814807 C117.808015,191.398946 124.30919,151.589791 132.310635,83.3873409 L255.332861,105.340919 Z" id="Path-23" stroke-width="15" fill="#D9CB16" transform="translate(183.771127, 196.887341) rotate(6.000000) translate(-183.771127, -196.887341) "></path>
                </g>
                <g id="Bandana" transform="translate(375.000000, 114.000000)" stroke="#000000">
                    <path d="M620.181353,104.999716 C620.821518,98.1939032 645.813211,93.3913795 695.156433,90.592145 C750.179171,97.7007166 789.664692,104.985444 813.612996,112.446326 C845.309778,122.321178 932.181083,167.898409 934.710958,171.20979 C940.400124,178.6564 701.658337,170.400376 676.869828,160.525524 C652.081319,150.650672 619.221105,115.208436 620.181353,104.999716 Z" id="Path-28" stroke-width="9" fill="#F20000"></path>
                    <path d="M613.243299,133.689195 C600.897247,138.898848 591.495906,136.378314 585.039275,126.127591 C572.196418,105.737923 582.016471,86.8732556 593.832886,74.6464952 C605.649301,62.4197349 667.827684,30.2157097 738.103067,19.9478307 C808.378449,9.67995172 914.250088,21.5566149 951.897735,3.53823133 C989.545382,-14.4801523 953.549027,40.6837833 855.717614,74.0029815 C794.334803,94.9085985 722.973693,111.528939 641.634282,123.864002 C648.007311,126.816906 652.349778,132.683285 652.349778,139.438066 C652.349778,149.162283 643.350181,157.045317 632.248614,157.045317 C621.147048,157.045317 612.14745,149.162283 612.14745,139.438066 C612.14745,137.425004 612.533131,135.490847 613.243299,133.689195 Z" id="Oval-2" stroke-width="9" fill="#F20000"></path>
                    <ellipse id="Oval" stroke-width="9" fill="#F20000" cx="614.55959" cy="122.114804" rx="20.1011641" ry="24.1389728"></ellipse>
                    <polygon id="Path-147" stroke-width="14" fill="#FF0D0D" transform="translate(325.694590, 222.230170) rotate(3.000000) translate(-325.694590, -222.230170) " points="56.3100497 262.706172 573.414796 87.1041222 644.391689 158.344118 6.99749028 357.356217"></polygon>
                    <path d="M620.187916,97.9758308 C620.27714,94.2751786 622.06391,90.2046852 625.548226,85.7643505 C630.7747,79.1038483 631.033167,76.3233537 640.021064,72.7009063 C649.008961,69.078459 661.42807,68.1570997 669.234756,68.1570997 C674.439213,68.1570997 678.548785,69.6717019 681.56347,72.7009063 C712.940049,58.3091805 738.490862,48.748254 758.215909,44.0181269 C777.940956,39.2879998 803.313092,36.6374459 834.332317,36.0664653" id="Path-29" stroke-width="10"></path>
                    <path d="M633.320676,111.607251 L655.006579,109.713998 C659.25802,110.090456 666.004746,105.672866 675.246756,96.4612286 C684.488766,87.2495908 693.741418,76.2056163 703.004712,63.3293051" id="Path-30" stroke-width="10"></path>
                    <path d="M665.229915,120.527593 C674.548579,120.527593 695.070632,111.451954 729.839322,114.073721 C764.608013,116.695487 772.594991,123.349953 788.857531,129.849853 C805.120071,136.349752 811.068849,142.565459 807.909023,146.343081 C804.749197,150.120704 802.960578,152.001105 771.462691,150.645663 C750.464099,149.742035 725.200164,147.351712 695.670886,143.474694 C669.164462,128.176627 659.017472,120.527593 665.229915,120.527593 Z" id="Path-31" stroke-width="5"></path>
                    <path d="M106.737031,255.817644 C90.6086378,262.193985 74.4419711,273.693985 58.237031,290.317644 C80.7662405,290.527026 96.9329072,288.693693 106.737031,284.817644 C116.541155,280.941595 122.874488,274.608262 125.737031,265.817644 C129.198758,252.774636 122.865424,249.441302 106.737031,255.817644 Z" id="Path-148" stroke-width="5" fill="#FFED00" transform="translate(92.445817, 271.505439) rotate(-36.000000) translate(-92.445817, -271.505439) "></path>
                    <path d="M151.42164,247.206206 C143.878131,253.810023 136.316721,265.720285 128.737409,282.936991 C139.274683,283.153843 146.836094,281.255106 151.42164,277.240779 C156.007187,273.226452 158.969389,266.667178 160.308246,257.562955 C161.927352,244.054639 158.96515,240.602389 151.42164,247.206206 Z" id="Path-148" stroke-width="5" fill="#FFED00" transform="translate(144.737409, 263.453662) rotate(-34.000000) translate(-144.737409, -263.453662) "></path>
                    <path d="M199.802941,244.790353 C191.080758,252.240814 182.337877,265.678032 173.574299,285.102008 C185.758022,285.346662 194.500903,283.204497 199.802941,278.675513 C205.104979,274.146529 208.530025,266.746321 210.078079,256.474891 C211.95017,241.234739 208.525124,237.339893 199.802941,244.790353 Z" id="Path-148" stroke-width="5" fill="#FFED00" transform="translate(192.074299, 263.120816) scale(1, -1) rotate(-61.000000) translate(-192.074299, -263.120816) "></path>
                    <path d="M258.925127,213.48714 C252.865443,213.170497 245.949449,216.926804 242.075196,222.58169 C238.83101,227.316925 235.704773,237.722627 232.696485,253.798795 C244.880208,254.043449 253.623089,251.901283 258.925127,247.372299 C264.227166,242.843315 268.888679,235.933187 272.909666,226.641915 C274.432064,218.438783 269.770551,214.053858 258.925127,213.48714 Z" id="Path-148" stroke-width="5" fill="#FFED00" transform="translate(252.943624, 233.643075) scale(1, -1) rotate(-61.000000) translate(-252.943624, -233.643075) "></path>
                    <path d="M315.807633,193.083823 C309.747948,192.76718 302.831955,196.523487 298.957701,202.178374 C295.713516,206.913608 289.567512,218.916229 280.519688,238.186234 C292.703411,238.430888 301.446292,236.288723 306.74833,231.759739 C312.050368,227.230755 316.711881,220.320626 320.732869,211.029354 C328.294802,199.632384 326.653057,193.650541 315.807633,193.083823 Z" id="Path-148" stroke-width="5" fill="#FFED00" transform="translate(302.956169, 215.635137) scale(1, -1) rotate(115.000000) translate(-302.956169, -215.635137) "></path>
                    <path d="M315.807633,193.083823 C309.747948,192.76718 302.831955,196.523487 298.957701,202.178374 C295.713516,206.913608 289.567512,218.916229 280.519688,238.186234 C292.703411,238.430888 301.446292,236.288723 306.74833,231.759739 C312.050368,227.230755 316.711881,220.320626 320.732869,211.029354 C328.294802,199.632384 326.653057,193.650541 315.807633,193.083823 Z" id="Path-148" stroke-width="5" fill="#FFED00" transform="translate(302.956169, 215.635137) scale(1, -1) rotate(115.000000) translate(-302.956169, -215.635137) "></path>
                    <path d="M418.317393,153.845589 C412.257708,153.528946 405.341715,157.285253 401.467461,162.94014 C398.223276,167.675375 396.396414,182.687271 395.986877,207.975828 C399.532314,202.20193 403.956051,197.050489 409.258089,192.521505 C414.560128,187.992521 419.221641,181.082393 423.242629,171.79112 C430.804562,160.394151 429.162817,154.412307 418.317393,153.845589 Z" id="Path-148" stroke-width="5" fill="#FFED00" transform="translate(411.944643, 180.901412) scale(1, -1) rotate(-48.000000) translate(-411.944643, -180.901412) "></path>
                    <path d="M360.492325,196.054591 C355.745667,195.797294 350.328247,198.849577 347.293476,203.444598 C344.752248,207.292332 343.321236,219.490627 343.000438,240.039483 C345.777641,235.347757 349.242833,231.161823 353.396013,227.481683 C357.549193,223.801542 361.200638,218.186543 364.350349,210.636685 C370.273745,201.37579 368.987737,196.515092 360.492325,196.054591 Z" id="Path-148" stroke-width="5" fill="#FFED00" transform="translate(355.500438, 218.039483) scale(1, -1) rotate(-48.000000) translate(-355.500438, -218.039483) "></path>
                    <path d="M360.492325,196.054591 C355.745667,195.797294 350.328247,198.849577 347.293476,203.444598 C344.752248,207.292332 343.321236,219.490627 343.000438,240.039483 C345.777641,235.347757 349.242833,231.161823 353.396013,227.481683 C357.549193,223.801542 361.200638,218.186543 364.350349,210.636685 C370.273745,201.37579 368.987737,196.515092 360.492325,196.054591 Z" id="Path-148" stroke-width="5" fill="#FFED00" transform="translate(355.500438, 218.039483) scale(1, -1) rotate(-48.000000) translate(-355.500438, -218.039483) "></path>
                    <path d="M453.515487,159.940197 C450.097893,159.6829 446.197351,162.735183 444.012316,167.330204 C442.182632,171.177938 441.152303,183.376234 440.921328,203.925089 C442.920914,199.233363 445.415852,195.047429 448.406142,191.367289 C451.396432,187.687149 454.025473,182.072149 456.293264,174.522291 C460.558109,165.261396 459.632184,160.400698 453.515487,159.940197 Z" id="Path-148" stroke-width="5" fill="#FFED00" transform="translate(449.921328, 181.925089) scale(1, -1) rotate(130.000000) translate(-449.921328, -181.925089) "></path>
                    <path d="M503.74213,136.333952 C498.995472,136.076656 493.578053,139.128938 490.543281,143.723959 C488.002054,147.571693 486.571041,159.769989 486.250243,180.318844 C489.027446,175.627118 492.492638,171.441184 496.645818,167.761044 C500.798998,164.080904 504.450444,158.465905 507.600155,150.916046 C513.523551,141.655151 512.237542,136.794453 503.74213,136.333952 Z" id="Path-148" stroke-width="5" fill="#FFED00" transform="translate(498.750243, 158.318844) scale(1, -1) rotate(130.000000) translate(-498.750243, -158.318844) "></path>
                    <path d="M559.491887,135.015108 C554.745229,134.757811 549.327809,137.810093 546.293038,142.405114 C543.75181,146.252849 542.320798,158.451144 542,179 C544.777203,174.308273 548.242395,170.12234 552.395575,166.4422 C556.548755,162.762059 560.200201,157.14706 563.349911,149.597202 C569.273307,140.336307 567.987299,135.475609 559.491887,135.015108 Z" id="Path-148" stroke-width="5" fill="#FFED00" transform="translate(554.500000, 157.000000) scale(1, -1) rotate(-43.000000) translate(-554.500000, -157.000000) "></path>
                </g>
            </g>
        </g>
    </g>
</svg>