<?xml version="1.0" encoding="UTF-8"?>
<svg width="1605px" height="2215px" viewBox="0 0 1605 2215" version="1.1" xmlns="http://www.w3.org/2000/svg" xmlns:xlink="http://www.w3.org/1999/xlink">
    <!-- Generator: Sketch 56.3 (81716) - https://sketch.com -->
    <title>Salt</title>
    <desc>Created with Sketch.</desc>
    <g id="Page-1" stroke="none" stroke-width="1" fill="none" fill-rule="evenodd">
        <g id="Artboard" transform="translate(-2643.000000, -2119.000000)">
            <g id="Salt" transform="translate(2643.000000, 2135.000000)">
                <g id="Body" transform="translate(361.000000, 0.000000)" stroke="#000000">
                    <polygon id="Path-137" stroke-width="20" fill="#FFFFFF" points="619.514523 1960 241.369295 1960 0 515.649819 338.491701 0 830.712656 459.338147"></polygon>
                    <polyline id="Path-19" stroke-width="15" points="0 515.649819 135 568.5 216 597 585.5 585 663.190871 558.694344 831 464.939832"></polyline>
                    <path d="M135.051867,568.718412 L241.369295,1418.99519" id="Path-20" stroke-width="10"></path>
                    <path d="M216,597 L278.149378,1445.52948" id="Path-138" stroke-width="10"></path>
                    <path d="M585.5,585 L560.321577,1764.53069" id="Path-21" stroke-width="10"></path>
                    <path d="M667.788382,555.156438 L601.69917,1632.15403" id="Path-139" stroke-width="10"></path>
                    <polyline id="Path-22" stroke-width="10" points="135 568.5 337.711104 14.7624565 216 597"></polyline>
                    <polyline id="Path-140" stroke-width="10" points="585.5 585 342.807618 14.7624565 667.911556 555.295481"></polyline>
                </g>
                <g id="Glasses" transform="translate(762.675285, 823.057405) rotate(-2.000000) translate(-762.675285, -823.057405) translate(344.175285, 677.557405)">
                    <path d="M267.917612,270.264367 C347.500652,275.351172 415.58955,232.754783 419.998421,175.122669 C422.816232,138.288669 425.760563,99.8007998 425.760563,99.8007998 C398.060754,98.0302777 153.069079,82.3708496 137.564881,81.3798491 C137.564881,81.3798491 136.21161,99.0696047 131.802739,156.701719 C127.393867,214.333832 188.334572,265.177562 267.917612,270.264367 Z" id="Oval" fill="#000000"></path>
                    <path d="M605.779444,290.31037 C685.68196,295.421872 754.025884,252.858199 758.42987,195.241745 C761.244557,158.417754 764.185627,119.940343 764.185627,119.940343 C736.374619,118.161225 490.399456,102.425769 474.833018,101.429957 C474.833018,101.429957 473.481247,119.114906 469.077261,176.731359 C464.673275,234.347813 525.876927,285.198868 605.779444,290.31037 Z" id="Oval" fill="#000000"></path>
                    <path d="M93.0812568,77.8415948 L836.007584,126.197737" id="Line-6" stroke="#000000" stroke-width="20" stroke-linecap="square"></path>
                    <path d="M256.603166,97.3019935 L332.104731,102.122935 L244.229455,258.882274 C230.851579,255.664056 219.266299,251.771487 209.473614,247.204569 C199.68093,242.63765 190.378362,236.788956 181.565908,229.658487 L256.603166,97.3019935 Z" id="Path-47" fill="#FFFFFF"></path>
                    <path d="M591.580775,118.531519 L667.08234,123.35246 L579.207064,280.1118 C565.829188,276.893582 554.243908,273.001013 544.451224,268.434095 C534.658539,263.867176 525.355971,258.018482 516.543518,250.888013 L591.580775,118.531519 Z" id="Path-47" fill="#FFFFFF"></path>
                    <path d="M89.4057108,77.967492 L0,0" id="Line-7" stroke="#000000" stroke-width="20" stroke-linecap="square"></path>
                    <path d="M836.007584,118.531519 L811.157187,91.1100485" id="Line-9" stroke="#000000" stroke-width="20" stroke-linecap="square"></path>
                </g>
                <g id="Base" transform="translate(0.000000, 1371.000000)" stroke="#000000">
                    <path d="M917.550419,751.108698 L917.550419,817.529581 L654.891705,817.529581 L672.273531,751.108698 L507.146177,685.937112 L471.456803,640.591949 L397.061275,620.765525 L81.5897436,518.080627 L209.700244,493.927579 L124.722425,408.559047 L274.721152,424.175242 L329.119831,382.115624 L520.02677,474.184264 L117.960612,229.38169 L117.960612,31.0332522 L312.701448,104.868563 L481.395323,224.738822 L467.608009,146.985207 L558.500732,19.3901719 L686.168386,121.374647 L711.86547,291.992568 L762.330873,307.662075 L758.314461,241.184436 L785.524396,201.360174 L843.098907,201.360174 L878.571355,241.15793 L862.745186,322.848061 L826.814373,524.792134 L869.045684,568.992422 L944.588816,331.970027 L1013.26417,135.534929 L1215.48581,0 L1268.95034,173.547177 L1041.02377,518.665887 L1261.19357,307.326716 L1381.56717,256.34905 L1394.49512,382.172537 L1100.0251,620.559425 L1301.1074,483.269178 L1440.17389,388.949915 L1591,427.5515 L1557.3284,502.216828 L1261.19357,645.016918 L1327.82391,733.544729 L1261.19357,811.210001 L1077.61665,800.601932 C1077.61665,800.601932 1067.84886,784.100491 1048.31329,751.097609 L917.550419,751.108698 Z" id="Path-115" stroke-width="20" fill="#FFFFFF"></path>
                    <path d="M1261.19357,339.445592 L1377.83243,262.242422" id="Line-2" stroke-width="6" stroke-linecap="square"></path>
                    <path d="M1377.83243,262.242422 L1274.12152,354.179021" id="Line-3" stroke-width="6" stroke-linecap="square"></path>
                    <path d="M1293.08252,368.617782 L1377.83243,262.242422" id="Line-4" stroke-width="6" stroke-linecap="square"></path>
                    <path d="M1314.9164,381.5832 L1377.83243,262.242422" id="Line-5" stroke-width="6" stroke-linecap="square"></path>
                    <polyline id="Path-116" stroke-width="20" points="117.78801 229.534209 305.80816 229.534209 312.569159 105.184065"></polyline>
                    <path d="M298.779343,223.640837 L495.858794,355.652364" id="Path-117" stroke-width="20"></path>
                    <path d="M209.720116,494.735938 L451.616468,565.456399" id="Path-118" stroke-width="10"></path>
                    <path d="M37.8163568,369.209033 L52.61868,494.846761 L178.972848,526.087405 L136.89955,426.467041 L37.8163568,369.209033 Z" id="Rectangle" stroke-width="14" fill="#FFFFFF" transform="translate(110.044425, 446.199834) rotate(-23.000000) translate(-110.044425, -446.199834) "></path>
                    <path d="M111.971666,381.065754 L159.835746,446.576458 L287.31109,365.651877 L301.123946,314.198837 L111.971666,381.065754 Z" id="Rectangle" stroke-width="16" fill="#FFFFFF" transform="translate(205.981550, 379.467688) rotate(37.000000) translate(-205.981550, -379.467688) "></path>
                    <path d="M274.647165,422.836802 L471.15204,504.75467" id="Path-119" stroke-width="10"></path>
                    <path d="M711.899242,292.593286 L749.821235,562.509713" id="Path-120" stroke-width="20"></path>
                    <path d="M481.494402,223.640837 L530.907909,539.525563" id="Path-120" stroke-width="20"></path>
                    <polyline id="Path-121" stroke-width="20" points="467.704586 147.150229 581.255638 208.31807 686.617913 121.685505"></polyline>
                    <path d="M580.895991,207.728733 L638.928133,669.769079" id="Path-122" stroke-width="15"></path>
                    <polygon id="Path-123" stroke-width="20" points="670.332111 756.418267 699.042418 614.226128 807.594725 505.344007 915.873601 621.096319 915.873601 815.335361 660.762008 815.335361"></polygon>
                    <path d="M699.258577,613.782047 C699.258577,613.782047 730.5808,634.605294 793.225246,676.251788 L915.873601,620.676701" id="Path-124" stroke-width="15"></path>
                    <path d="M793.488985,676.251788 L762.4619,811.210001" id="Path-125" stroke-width="15"></path>
                    <path d="M558.487541,19.1408369 L580.895991,201.246024" id="Path" stroke-width="20"></path>
                    <path d="M117.78801,30.9275804 L305.674251,227.17686" id="Path-126" stroke-width="20"></path>
                    <path d="M128.704948,323.828157 L280.967497,421.658128" id="Path-2" stroke-width="15"></path>
                    <path d="M12.6406645,406.335361 L201.676056,494.735938" id="Path-127" stroke-width="20"></path>
                    <path d="M149.964247,415.764756 L461.95883,532.453517" id="Path-128" stroke-width="10"></path>
                    <path d="M470.982714,637.568725 C458.071883,589.785446 451.616468,564.673066 451.616468,562.231585 C451.616468,559.790104 461.617816,538.86312 481.620511,499.450635 L549.538755,554.907141 L672.828097,715.783325 L672.009805,751.097609 L506.987566,685.962374 L470.982714,637.568725 Z" id="Path-3" stroke-width="20"></path>
                    <polyline id="Path-129" stroke-width="10" points="602.155291 721.63075 506.848693 571.250004 482.068978 505.344007"></polyline>
                    <polyline id="Path-130" stroke-width="10" points="455.638498 565.365732 506.838835 571.939108 549.868906 554.84833"></polyline>
                    <polyline id="Path-4" stroke-width="20" points="762.4619 307.326716 778.036335 532.453517 807.545791 504.935107 826.945527 524.853194 863.01264 322.527361"></polyline>
                    <polyline id="Path-5" stroke-width="14" points="788.317804 241.320952 812.514447 292.33344 844.051643 241.320952 812.514447 297.303887 807.348871 504.75467"></polyline>
                    <polyline id="Path-6" stroke-width="20" points="1261.19357 645.016918 1205.74702 601.995304 1151.44962 660.339684 1200.86313 805.021961"></polyline>
                    <polyline id="Path-7" stroke-width="6" points="1206.3216 608.478013 1216.08938 676.251788 1157.19538 660.339684"></polyline>
                    <path d="M1216.08938,676.251788 L1261.19357,645.016918" id="Path-8" stroke-width="6"></path>
                    <path d="M1216.08938,676.251788 L1257.74612,805.021961" id="Path-9" stroke-width="6"></path>
                    <polyline id="Path-10" stroke-width="6" points="1048.31329 751.097609 996.888769 669.769079 1048.31329 665.643719 1094.56663 613.782047 1162.36656 703.361298"></polyline>
                    <polygon id="Path-11" stroke-width="6" points="1028.49043 625.274122 1057.21921 589.913892 1019.29722 576.653805 990.281148 620.559425"></polygon>
                    <path d="M990.281148,620.559425 L996.888769,669.769079" id="Path-12" stroke-width="6"></path>
                    <path d="M1028.49043,625.274122 L1048.31329,665.643719" id="Path-13" stroke-width="6"></path>
                    <path d="M1057.21921,589.913892 L1094.56663,613.782047" id="Path-14" stroke-width="6"></path>
                    <polyline id="Path-15" stroke-width="7" points="1441.32304 394.548618 1377.83243 499.450635 1558.24919 499.450635"></polyline>
                    <path d="M1377.83243,499.450635 L1119.84796,642.3649" id="Path-16" stroke-width="8"></path>
                    <path d="M1585.54153,430.203517 L1381.56717,496.209281" id="Line" stroke-width="9" stroke-linecap="square"></path>
                    <polyline id="Path-17" stroke-width="20" points="1013.26417 135.534929 1096.92186 207.728733 1268.37577 171.484497"></polyline>
                    <path d="M1216.08938,7.94343052 L1094.56663,207.728733" id="Path-18" stroke-width="15"></path>
                    <path d="M1048.31329,665.643719 L1151.44962,802.075275" id="Line-8" stroke-width="7" stroke-linecap="square"></path>
                    <path d="M1094.56663,207.728733 L911.276995,608.478013" id="Path-131" stroke-width="14"></path>
                    <path d="M1075.89292,467.921096 L921.044782,689.217206" id="Path-132" stroke-width="17"></path>
                    <polyline id="Path-133" stroke-width="15" points="1261.19357 312.925419 1261.19357 339.445592 1274.12152 355.652364 1314.34182 381.5832 1337.32485 381.5832 1394.49512 381.5832"></polyline>
                    <polyline id="Path-134" stroke-width="8" points="1261.19357 339.445592 1033.9489 581.663171 1274.12152 355.849664"></polyline>
                    <polyline id="Path-134" stroke-width="8" points="1298.48101 368.617782 1078.7658 601.995304 1314.9164 383.129836"></polyline>
                    <path d="M993.728602,634.998186 L921.044782,715.737379" id="Path-135" stroke-width="6"></path>
                    <path d="M996.888769,660.634353 L921.044782,743.730894" id="Path-136" stroke-width="6"></path>
                </g>
                <g id="Chain" transform="translate(432.000000, 974.000000)" stroke="#000000">
                    <path d="M0,47.1439114 C26.258334,68.3899121 46.5018733,83.1371866 60.7306179,91.3857348 C74.9593625,99.6342829 99.3860686,110.616296 134.010736,124.331773 L129.75287,147.158672 C97.6547099,134.997208 73.9002985,124.95651 58.4896357,117.036579 C43.0789729,109.116648 24.55352,97.4286484 2.91327687,81.9725809 L0,47.1439114 Z" id="Path-141" stroke-width="10" fill="#D9CB16"></path>
                    <path d="M28.6338216,71.5793358 C29.0504848,77.9213727 29.0504848,82.5034884 28.6338216,85.3256827 C28.2171583,88.147877 27.0705572,91.332059 25.1940184,94.8782288" id="Path-142" stroke-width="3"></path>
                    <path d="M53.3257382,88.0590406 C53.6971466,94.7149262 53.6971466,99.4797656 53.3257382,102.353559 C52.9543298,105.227352 51.975096,108.039388 50.3880368,110.789668" id="Path-143" stroke-width="3"></path>
                    <path d="M76.9221626,102.265683 L76.9221626,124.428044" id="Path-144" stroke-width="3"></path>
                    <path d="M101.312117,110.789668 C103.098926,116.240208 103.992331,120.367801 103.992331,123.172448 C103.992331,125.977094 103.098926,130.184065 101.312117,135.793358" id="Path-145" stroke-width="3"></path>
                    <path d="M530.405415,88.8739607 C553.541983,103.836083 574.794685,115.873665 594.163523,124.986709 C613.532361,134.099752 646.89188,146.011706 694.24208,160.72257 L675.403042,181.45805 C639.607426,172.632239 611.203417,163.879592 590.191014,155.200109 C569.178611,146.520625 539.873789,131.442502 502.276549,109.965739 L530.405415,88.8739607 Z" id="Path-141" stroke-width="10" fill="#D9CB16" transform="translate(598.259315, 135.166005) rotate(-44.000000) translate(-598.259315, -135.166005) "></path>
                    <path d="M573.862385,131.281132 C574.178845,138.77279 574.020513,144.196778 573.387389,147.553098 C572.754266,150.909417 571.170328,154.721567 568.635575,158.989547" id="Path-142" stroke-width="3" transform="translate(571.328078, 145.135340) rotate(-46.000000) translate(-571.328078, -145.135340) "></path>
                    <path d="M607.83182,122.542743 C608.092305,130.361963 607.928606,135.969815 607.340722,139.3663 C606.752838,142.762785 605.366557,146.109908 603.181878,149.407668" id="Path-143" stroke-width="3" transform="translate(605.566834, 135.975206) rotate(-46.000000) translate(-605.566834, -135.975206) "></path>
                    <path d="M638.127174,111.947518 L637.378452,137.596547" id="Path-144" stroke-width="3" transform="translate(637.752813, 124.772033) rotate(-46.000000) translate(-637.752813, -124.772033) "></path>
                    <path d="M665.937461,95.4641045 C667.964054,101.712363 668.92994,106.460624 668.83512,109.708888 C668.7403,112.957152 667.492636,117.861752 665.092129,124.422686" id="Path-145" stroke-width="3" transform="translate(666.966803, 109.943395) rotate(-46.000000) translate(-666.966803, -109.943395) "></path>
                    <polygon id="Path-26" stroke-width="14" fill="#D9CB16" transform="translate(514.430566, 150.464323) rotate(-23.000000) translate(-514.430566, -150.464323) " points="419.868278 46.4336809 412.188669 64.262015 434.369093 70.275568 500.596498 85.7995506 485.41176 201.840824 484.009487 270.002692 513.773067 262.876293 527.300106 85.2274539 557.244004 87.1093384 594.733961 77.6544953 616.672462 59.8811655 609.450607 37.6857636 577.104148 45.9489551 546.070262 43.7299366 488.735667 40.2719538 440.143243 38.4291084 420.187314 30.9259545"></polygon>
                    <polygon id="Path-146" stroke-width="14" fill="#D9CB16" transform="translate(456.057037, 144.155585) rotate(-7.000000) translate(-456.057037, -144.155585) " points="362.52114 48.6056773 369.763656 241.307172 439.818094 245.340314 492.504274 240.415492 549.592933 228.929461 516.71888 204.186896 466.551279 212.499974 417.21909 204.909737 395.710525 42.9708563"></polygon>
                    <path d="M234.78681,274.730108 L272.522876,88.9114391 L340.691254,88.9114391 L395.06365,274.730108 L350.429593,274.730108 L326.083744,191.561268 L295.651433,177.699795 L272.522876,291.214022 L234.78681,274.730108 Z M297.503834,113.637926 L297.503834,146.195392 L325.91411,152.557196 L325.91411,106.527675 L297.503834,113.637926 Z" id="Combined-Shape" stroke-width="13" fill="#D9CB16"></path>
                    <path d="M268.557515,80.6303682 L268.557515,123.593232 L177.791117,105.302112 L166.539085,158.473973 L261.05616,158.473973 L233.301146,279.280443 L126.031767,242.698202 L126.031767,212.07121 L195.044234,233.339954 L205.171064,199.309963 C147.410629,194.205464 121.030863,186.123341 126.031767,175.063594 C131.03267,164.003847 137.533845,125.436524 145.53529,59.3616236 L268.557515,80.6303682 Z" id="Path-23" stroke-width="15" fill="#D9CB16"></path>
                </g>
                <g id="Bandana" transform="translate(375.000000, 114.000000)" stroke="#000000">
                    <path d="M620.181353,104.999716 C620.821518,98.1939032 645.813211,93.3913795 695.156433,90.592145 C750.179171,97.7007166 789.664692,104.985444 813.612996,112.446326 C845.309778,122.321178 932.181083,167.898409 934.710958,171.20979 C940.400124,178.6564 701.658337,170.400376 676.869828,160.525524 C652.081319,150.650672 619.221105,115.208436 620.181353,104.999716 Z" id="Path-28" stroke-width="9" fill="#F20000"></path>
                    <path d="M613.243299,133.689195 C600.897247,138.898848 591.495906,136.378314 585.039275,126.127591 C572.196418,105.737923 582.016471,86.8732556 593.832886,74.6464952 C605.649301,62.4197349 667.827684,30.2157097 738.103067,19.9478307 C808.378449,9.67995172 914.250088,21.5566149 951.897735,3.53823133 C989.545382,-14.4801523 953.549027,40.6837833 855.717614,74.0029815 C794.334803,94.9085985 722.973693,111.528939 641.634282,123.864002 C648.007311,126.816906 652.349778,132.683285 652.349778,139.438066 C652.349778,149.162283 643.350181,157.045317 632.248614,157.045317 C621.147048,157.045317 612.14745,149.162283 612.14745,139.438066 C612.14745,137.425004 612.533131,135.490847 613.243299,133.689195 Z" id="Oval-2" stroke-width="9" fill="#F20000"></path>
                    <ellipse id="Oval" stroke-width="9" fill="#F20000" cx="614.55959" cy="122.114804" rx="20.1011641" ry="24.1389728"></ellipse>
                    <polygon id="Path-147" stroke-width="14" fill="#FF0D0D" transform="translate(325.694590, 222.230170) rotate(3.000000) translate(-325.694590, -222.230170) " points="56.3100497 262.706172 573.414796 87.1041222 644.391689 158.344118 6.99749028 357.356217"></polygon>
                    <path d="M620.187916,97.9758308 C620.27714,94.2751786 622.06391,90.2046852 625.548226,85.7643505 C630.7747,79.1038483 631.033167,76.3233537 640.021064,72.7009063 C649.008961,69.078459 661.42807,68.1570997 669.234756,68.1570997 C674.439213,68.1570997 678.548785,69.6717019 681.56347,72.7009063 C712.940049,58.3091805 738.490862,48.748254 758.215909,44.0181269 C777.940956,39.2879998 803.313092,36.6374459 834.332317,36.0664653" id="Path-29" stroke-width="10"></path>
                    <path d="M633.320676,111.607251 L655.006579,109.713998 C659.25802,110.090456 666.004746,105.672866 675.246756,96.4612286 C684.488766,87.2495908 693.741418,76.2056163 703.004712,63.3293051" id="Path-30" stroke-width="10"></path>
                    <path d="M665.229915,120.527593 C674.548579,120.527593 695.070632,111.451954 729.839322,114.073721 C764.608013,116.695487 772.594991,123.349953 788.857531,129.849853 C805.120071,136.349752 811.068849,142.565459 807.909023,146.343081 C804.749197,150.120704 802.960578,152.001105 771.462691,150.645663 C750.464099,149.742035 725.200164,147.351712 695.670886,143.474694 C669.164462,128.176627 659.017472,120.527593 665.229915,120.527593 Z" id="Path-31" stroke-width="5"></path>
                </g>
            </g>
        </g>
    </g>
</svg>