<?xml version="1.0" encoding="UTF-8"?>
<svg width="1890px" height="1639px" viewBox="0 0 1890 1639" version="1.1" xmlns="http://www.w3.org/2000/svg" xmlns:xlink="http://www.w3.org/1999/xlink">
    <!-- Generator: Sketch 56.3 (81716) - https://sketch.com -->
    <title>Skull</title>
    <desc>Created with Sketch.</desc>
    <defs>
        <linearGradient x1="6.70739071%" y1="31.3527864%" x2="79.0761422%" y2="75.6035656%" id="linearGradient-1">
            <stop stop-color="#FFFFFF" offset="0%"></stop>
            <stop stop-color="#FFFFFF" offset="100%"></stop>
        </linearGradient>
    </defs>
    <g id="Page-1" stroke="none" stroke-width="1" fill="none" fill-rule="evenodd">
        <g id="Artboard" transform="translate(-684.000000, -349.000000)">
            <g id="Skull" transform="translate(699.000000, 137.000000)">
                <path d="M363.266593,529.734975 C419.866328,605.988742 1537.53117,1361.26529 1579.2068,1386.89614 C1620.88242,1412.52699 1616.58222,1339.27142 1663.89471,1329.63182 C1711.2072,1319.99223 1738.23771,1338.35118 1769.53175,1348.11873 C1800.82578,1357.88628 1826.78087,1392.41372 1844.29353,1431.64191 C1861.80619,1470.87011 1835.54166,1517.20793 1812.32143,1537.94769 C1789.10121,1558.68745 1687.46569,1552.55489 1677.71222,1581.2341 C1667.95874,1609.91331 1700.88996,1616.65874 1700.88996,1653.82902 C1700.88996,1690.9993 1707.00274,1691.58895 1677.71222,1728.22755 C1648.42169,1764.86615 1635.22415,1777.90024 1593.47002,1788.19727 C1551.7159,1798.49429 1529.04191,1800.81869 1495.17978,1794.50798 C1461.31766,1788.19727 1391.20875,1777.82966 1399.31658,1707.96104 C1407.42441,1638.09242 1435.08643,1609.69421 1442.81468,1581.2341 C1410.95762,1510.85282 243.226096,688.304489 213.948423,668.161318 C184.670749,648.018147 181.272998,683.942823 138.620749,683.942823 C95.9685,683.942823 79.3278597,683.529865 53.0413798,668.161318 C26.7548999,652.792772 38.1347365,663.362578 21.3948423,615.406002 C4.65494808,567.449426 0,540.047606 0,516.207971 C0,492.368336 3.33071476,481.180453 21.3948423,470.216157 C39.4589698,459.251861 121.542587,487.002461 138.620749,470.216157 C155.69891,453.429853 138.787023,459.58562 138.787023,395.78325 C138.787023,331.98088 129.725327,302.024067 146.894856,284.894986 C164.064384,267.765904 180.792902,266.544782 243.812057,280.838098 C306.831212,295.131414 336.903491,310.26883 363.266593,331.789814 C389.629695,353.310798 390.639378,379.173701 384.661435,395.817634 C378.683492,412.461566 306.666858,453.481208 363.266593,529.734975 Z" id="Path-93" stroke="#000000" stroke-width="28" fill="#FFFFFF" transform="translate(925.000000, 1034.500000) scale(-1, 1) translate(-925.000000, -1034.500000) "></path>
                <path d="M419.726471,537.102908 C475.911863,612.740339 1577.72983,1367.87894 1618.78869,1393.54524 C1659.84756,1419.21154 1654.88984,1347.08442 1701.10652,1338.10615 C1747.3232,1329.12787 1773.9714,1347.48201 1804.70551,1357.42814 C1835.43961,1367.37428 1861.2002,1401.62615 1878.74433,1440.41298 C1896.28847,1479.19981 1871.05085,1524.51337 1848.53193,1544.67189 C1826.01301,1564.83041 1726.45737,1557.70754 1717.2024,1585.82247 C1707.94744,1613.93739 1740.25335,1620.9274 1740.63298,1657.50173 C1741.01261,1694.07605 1747.00255,1694.72172 1718.70367,1730.45915 C1690.4048,1766.19659 1677.61858,1778.88034 1636.84981,1788.56504 C1596.08104,1798.24974 1573.90876,1800.29401 1540.696,1793.72178 C1507.48325,1787.14954 1438.74637,1776.19722 1445.9697,1707.53565 C1453.19304,1638.87408 1479.9819,1611.22747 1487.25656,1583.30645 C1455.35224,1513.71237 303.835957,691.844293 274.969738,671.710482 C246.103519,651.576671 243.144298,686.88897 201.391169,686.432115 C159.63804,685.975261 143.343971,685.390683 117.454655,669.986984 C91.5653389,654.583285 102.813237,665.105515 85.9364349,617.738528 C69.0596327,570.371541 64.2229524,543.359197 63.9668284,519.901785 C63.7359955,496.444373 66.8822341,485.471542 84.453585,474.876524 C102.024936,464.281507 182.661633,492.466388 199.208341,476.132147 C215.755049,459.797906 199.262538,465.673831 198.610913,402.89441 C197.959288,340.114989 188.782661,310.541416 205.415309,293.870871 C222.047957,277.200327 238.411362,276.177965 300.248038,290.917122 C362.084713,305.656279 391.677663,320.873103 417.704822,342.331418 C443.731981,363.789733 444.984522,389.24879 439.302583,405.561838 C433.620644,421.874886 363.541079,461.465477 419.726471,537.102908 Z" id="Path-93" stroke="#000000" stroke-width="28" fill="#FFFFFF" transform="translate(974.291234, 1039.052828) scale(-1, 1) rotate(-79.000000) translate(-974.291234, -1039.052828) "></path>
                <g id="Head" transform="translate(503.000000, 557.000000)">
                    <path d="M484,1039.64805 C576.442604,1039.64805 667.0367,1042.73327 731.348066,1002.24416 C798.584565,959.91344 739.294658,884.141068 797.753223,822.885714 C883.767956,732.755844 968,537.180607 968,411.442857 C968,130.947474 751.305819,3.41060513e-13 484,3.41060513e-13 C216.694181,3.41060513e-13 0,130.947474 0,411.442857 C0,549.912293 93.482446,673.343816 166.235727,806.211688 C198.18962,864.568447 174.061408,967.779134 224.173112,1002.24416 C291.087247,1048.26528 384.775263,1039.64805 484,1039.64805 Z" id="Oval" stroke="#000000" stroke-width="34" fill="url(#linearGradient-1)"></path>
                    <path d="M266.511971,616.938961 C349.85267,631.81039 385.060773,579.535065 399.767956,554.298701 C433.639042,508.783117 436.647691,485.993619 445.226519,456.057143 C467.19783,379.386577 468.401473,322.042029 468.401473,281.205195 C468.401473,224.423377 411.355433,175.302597 394.865562,160.431169 C378.375691,145.55974 338.265193,150.066234 250.022099,174.851948 C202.844873,188.103084 188.073665,257.771429 176.93186,338.437662 C161.300974,406.012322 115.706887,445.686092 119.440147,475.885714 C122.87073,503.636867 145.696705,548.526629 166.6814,574.127273 C194.767474,608.391369 241.554328,616.938961 266.511971,616.938961 Z" id="Oval" fill="#000000"></path>
                    <path d="M651.383405,601.166234 C699.516002,601.166234 769.486536,557.903896 784.193718,532.667532 C818.064805,487.151948 828.204209,480.082304 836.783037,450.145828 C858.754348,373.475262 859.957991,316.130714 859.957991,275.29388 C859.957991,218.512062 862.186352,175.302597 811.825394,159.980519 C761.464437,144.658442 736.061122,151.868831 658.068488,206.397403 C615.479227,236.173696 596.120054,289.316883 584.978249,369.983117 C569.347362,437.557777 526.149519,403.331169 510.996665,469.974399 C495.84381,536.61763 528.823553,556.604822 553.335523,574.127273 C577.847494,591.649724 603.250809,601.166234 651.383405,601.166234 Z" id="Oval" fill="#000000" transform="translate(683.566472, 377.052634) scale(-1, 1) translate(-683.566472, -377.052634) "></path>
                    <path d="M278.990792,780.524675 C253.587477,808.464935 307.959484,921.127273 320.438306,934.646753 C332.917127,948.166234 619.038674,955.376623 645.333333,926.985714 C671.627993,898.594805 713.966851,796.297403 686.780847,772.412987 C659.594843,748.528571 304.394107,752.584416 278.990792,780.524675 Z" id="Path-92" fill="#000000"></path>
                    <path d="M381.941068,934.196104 C381.941068,926.084416 381.049724,934.196104 376.14733,902.2 C371.244936,870.203896 349.406998,875.161039 346.287293,875.161039 C343.167587,875.161039 324.895028,876.512987 328.906077,908.509091 C330.688766,920.676623 328.906077,913.466234 333.808471,930.14026 C353.86372,935.097403 359.949978,934.196104 381.941068,934.196104 Z" id="Oval" fill="#FFFFFF"></path>
                    <path d="M444.016279,936.276104 C444.016279,928.164416 442.106814,912.114286 440.769797,905.354545 C439.432781,898.594805 430.073665,881.47013 418.93186,881.47013 C407.790055,881.47013 396.64825,898.144156 395.311234,905.354545 C393.974217,912.564935 393.974217,917.972727 395.311234,935.097403 C420.268877,936.449351 422.025189,936.276104 444.016279,936.276104 Z" id="Oval" fill="#FFFFFF"></path>
                    <path d="M504.627697,938.078702 C504.627697,929.967013 504.500921,920.676623 503.163904,904.903896 C501.826888,889.131169 491.576427,882.371429 480.434622,882.371429 C469.292818,882.371429 459.488029,888.680519 457.705341,900.397403 C455.922652,912.114286 456.813996,920.225974 456.813996,937.350649 C480.434622,938.251948 482.636607,938.078702 504.627697,938.078702 Z" id="Oval" fill="#FFFFFF"></path>
                    <path d="M373.804425,820.490065 C373.815221,812.379707 371.65353,809.549974 370.337358,793.78164 C369.021187,778.013306 354.72728,770.979422 348.976707,770.273343 C343.226134,769.567264 330.942366,777.46038 329.143722,789.177749 C327.345078,800.895118 326.006434,802.704856 325.983557,819.826722 C349.60698,820.695965 351.809569,820.519772 373.804425,820.490065 Z" id="Oval" fill="#FFFFFF" transform="translate(349.893991, 795.377029) rotate(173.000000) translate(-349.893991, -795.377029) "></path>
                    <path d="M645.936083,818.59614 C645.932958,810.484561 645.365232,805.280501 644.022116,789.507465 C642.679,773.734429 639.628558,766.7254 629.85794,767.004961 C620.087322,767.284521 607.661448,772.406202 605.883242,784.122233 C604.105035,795.838264 603.423561,800.235559 603.43011,817.360004 C627.051546,818.270491 623.944606,818.587574 645.936083,818.59614 Z" id="Oval" fill="#FFFFFF" transform="translate(624.683097, 792.796535) rotate(182.000000) translate(-624.683097, -792.796535) "></path>
                    <path d="M508.383557,814.250013 C508.38512,806.138352 506.166959,799.21967 501.994041,782.920983 C497.821123,766.622297 495.282885,763.547973 484.770984,763.301984 C474.259083,763.055995 467.700678,769.672609 465.91572,781.3898 C464.130762,793.106991 460.572999,796.406663 460.569699,813.531281 C484.190298,814.427973 486.392329,814.254298 508.383557,814.250013 Z" id="Oval" fill="#FFFFFF" transform="translate(484.476628, 788.780807) rotate(179.000000) translate(-484.476628, -788.780807) "></path>
                    <path d="M578.151005,815.30657 C578.149442,807.194909 576.737595,788.845877 575.355142,782.949678 C573.972689,777.053479 569.574748,759.094749 554.518887,764.349334 C539.463025,769.60392 534.208018,775.243845 532.991321,781.88627 C531.774624,788.528694 530.333756,797.444585 530.33705,814.569202 C553.957909,815.475101 556.159865,815.302284 578.151005,815.30657 Z" id="Oval" fill="#FFFFFF" transform="translate(554.244028, 789.357602) rotate(181.000000) translate(-554.244028, -789.357602) "></path>
                    <path d="M624.936955,930.463682 C624.950737,922.354186 622.558247,922.988612 621.247781,907.222455 C619.937314,891.456297 611.97712,874.793985 600.83227,874.813194 C589.687421,874.832436 582.361308,881.760788 580.558138,893.47758 C578.754967,905.194373 577.140592,912.698283 577.111369,929.818329 C600.736913,930.678627 602.939794,930.501628 624.936955,930.463682 Z" id="Oval" fill="#FFFFFF" transform="translate(601.024162, 902.658802) rotate(-9.000000) translate(-601.024162, -902.658802) "></path>
                    <path d="M487.119705,520.499091 C477.338724,520.753595 478.115698,558.877957 450.128913,629.557143 C444.959903,642.611214 409.572744,662.454545 414.029466,669.664935 C416.215296,673.201321 471.966851,665.158442 490.239411,663.355844 C508.511971,661.553247 571.258182,671.961188 576.254144,669.664935 C586.058932,665.158442 534.568238,649.860409 526.78453,634.514286 C493.623623,569.135243 496.504364,520.256058 487.119705,520.499091 Z" id="Path" fill="#000000"></path>
                </g>
            </g>
        </g>
    </g>
</svg>