<?xml version="1.0" encoding="UTF-8"?>
<svg width="2500px" height="2500px" viewBox="0 0 2500 2500" version="1.1" xmlns="http://www.w3.org/2000/svg" xmlns:xlink="http://www.w3.org/1999/xlink">
    <!-- Generator: Sketch 56.3 (81716) - https://sketch.com -->
    <title>Artboard</title>
    <desc>Created with Sketch.</desc>
    <defs>
        <linearGradient x1="48.221844%" y1="1.93322114%" x2="48.221844%" y2="97.7642952%" id="linearGradient-1">
            <stop stop-color="#331E01" offset="0%"></stop>
            <stop stop-color="#4D2E00" offset="24.2655524%"></stop>
            <stop stop-color="#694000" offset="47.2402692%"></stop>
            <stop stop-color="#7D5600" offset="62.8827848%"></stop>
            <stop stop-color="#A06D00" offset="76.4303859%"></stop>
            <stop stop-color="#BC8100" offset="84.3818155%"></stop>
            <stop stop-color="#F7A900" offset="92.4834464%"></stop>
            <stop stop-color="#FFE3A6" offset="97.0838401%"></stop>
            <stop stop-color="#FFFFFF" offset="100%"></stop>
        </linearGradient>
        <linearGradient x1="59.235664%" y1="4.02755357%" x2="59.235664%" y2="91.9329878%" id="linearGradient-2">
            <stop stop-color="#331E01" offset="0%"></stop>
            <stop stop-color="#4D2E00" offset="100%"></stop>
        </linearGradient>
    </defs>
    <g id="Artboard" stroke="none" stroke-width="1" fill="none" fill-rule="evenodd">
        <g id="Tombstone" transform="translate(-95.000000, 794.000000)">
            <g id="Stone" transform="translate(844.000000, 0.000000)">
                <path d="M147.721026,1204.10909 L137.351351,348.761226 C212.830563,332.919726 262.526946,314.338185 286.440501,293.016604 C310.354055,271.695022 312.579266,233.102592 293.116134,177.239312 C378.16865,59.0797705 484.978787,0 613.546544,0 C742.114301,0 846.946473,59.0797705 928.043058,177.239312 C913.459679,242.513123 913.459679,286.108276 928.043058,308.024771 C942.626436,329.941266 996.27875,343.520085 1089,348.761226 L980.691745,1204.10909 L147.721026,1204.10909 Z" id="Path-94" stroke="#000000" stroke-width="21" fill="#595959"></path>
                <path d="M10.8293611,1281.96514 L3.74590214,691.70148 L65.7324324,646.543719 L3.04491616,633.288414 L0,379.555967 C78.8251974,362.842867 130.724616,343.238968 155.698256,320.744272 C180.671896,298.249575 182.99575,257.533786 162.669819,198.596904 L216.845854,133.168847 L270.287838,151.359898 L254.734185,98.2230216 C355.526551,40.4782544 436.383448,11.6058708 497.304877,11.6058708 C631.572029,11.6058708 741.0514,73.936215 825.742988,198.596904 C810.51313,267.462085 810.51313,313.455847 825.742988,336.57819 C840.972847,359.700532 897.003562,374.026458 993.835135,379.555967 L880.725586,1281.96514 L10.8293611,1281.96514 Z" id="Path-94" stroke="#000000" stroke-width="21" fill="#8C8C8C"></path>
                <path d="M95.1648649,1163.00497 L95.1648649,429.768706 C158.89422,416.134335 200.854362,400.14168 221.045291,381.790744 C241.23622,363.439807 243.115032,330.224295 226.681728,282.144207 C298.49411,180.447329 388.677102,129.598891 497.230703,129.598891 C605.784304,129.598891 694.29724,180.447329 762.769512,282.144207 C750.456329,338.323697 750.456329,375.844924 762.769512,394.707888 C775.082694,413.570851 820.382947,425.257791 898.67027,429.768706 L798.466946,1163.00497 L95.1648649,1163.00497 Z" id="Path-94" stroke="#000000" stroke-width="21" fill="#DBDBDB"></path>
                <polyline id="Path-2" stroke="#000000" stroke-width="7" points="935.460811 877.693979 957.044595 889.299849 969.308108 870.923887 1024.73919 858.350861"></polyline>
                <polyline id="Path-4" stroke="#000000" stroke-width="7" points="935.460811 877.693979 905.537838 840.942054 885.425676 847.228568"></polyline>
                <polyline id="Path-5" stroke="#000000" stroke-width="7" points="917.801351 558.532532 927.612162 585.129319 947.233784 585.129319 968.327027 571.589136 993.835135 596.251612 1014.43784 571.589136 1063.98243 556.114642"></polyline>
                <polyline id="Path-6" stroke="#000000" stroke-width="7" points="937.422973 586.096475 928.102703 606.890327 909.462162 609.791794"></polyline>
                <polyline id="Path-96" stroke="#000000" stroke-width="5" points="875.614865 116.058708 838.824324 129.598891 830.975676 147.007697 799.581081 152.810632 749.545946 165.383659 739.244595 186.661089"></polyline>
                <polyline id="Path-97" stroke="#000000" stroke-width="5" points="694.605405 143.622651 727.471622 135.885404 766.224324 161.031457"></polyline>
                <polyline id="Path-3" stroke="#000000" stroke-width="9" points="260.967568 150.87632 295.795946 168.285126 295.795946 205.520629 316.398649 231.633838 305.116216 274.672275 277.155405 292.56466"></polyline>
                <polyline id="Path-7" stroke="#000000" stroke-width="9" points="316.398649 231.633838 343.378378 244.690443 354.660811 273.705119"></polyline>
                <polyline id="Path-8" stroke="#000000" stroke-width="12" points="72.1094595 646.060141 128.031081 666.370415 150.595946 641.224361 150.595946 597.702346"></polyline>
                <polyline id="Path-9" stroke="#000000" stroke-width="12" points="128.031081 666.370415 137.351351 697.319403 170.217568 697.319403"></polyline>
                <text id="Failed-to-Compile" fill="#424242" font-family="Luminari-Regular, Luminari" font-size="134" font-weight="normal">
                    <tspan x="213.385135" y="569.638044">Failed to       </tspan>
                    <tspan x="213.385135" y="749.638044">	Compile</tspan>
                </text>
            </g>
            <path d="M461.370719,1419.20883 C507.104208,1370.7328 462.230001,1411.60355 482.488185,1380.61369 C502.746369,1349.62383 507.226944,1326.65479 535.740925,1315.81634 C564.254905,1304.97788 573.939784,1335.8975 633.983048,1304.48565 C694.026312,1273.0738 672.102644,1272.26402 714.321233,1272.26402 C756.539822,1272.26402 762.67114,1300.74851 810.380227,1287.24302 C858.089313,1273.73753 839.527063,1231.26614 857.55274,1219.15143 C875.578416,1207.03673 880.543242,1216.1803 940.535082,1199.76848 C1000.52692,1183.35666 952.321101,1165.68477 1004.45685,1165.68477 C1056.5926,1165.68477 1084.24732,1211.29418 1150.49291,1199.76848 C1216.73851,1188.24278 1178.24515,1154 1244.09418,1154 C1309.9432,1154 1347.65229,1191.13236 1413.17771,1199.76848 C1478.70313,1208.4046 1424.96986,1255.97616 1514.94863,1196.84415 C1604.9274,1137.71214 1629.71747,1252.43532 1659.55736,1235.79338 C1689.39726,1219.15143 1714.6464,1168.87152 1733.46849,1165.68477 C1741.04783,1164.40152 1796.52882,1199.71787 1829.58225,1199.71787 C1862.63567,1199.71787 1898.97827,1224.51021 1925.24681,1235.74591 C1969.22435,1254.55619 2001.10942,1245.35364 2047.9351,1249.95673 C2072.50142,1252.37167 2071.65944,1284.38123 2095.21986,1304.48565 C2116.56779,1322.70212 2162.24486,1380.61369 2185.19863,1419.20883 C2195.47775,1436.49244 2232.49662,1457.09581 2258.19161,1457.09581 C2283.59378,1457.09581 2311.7504,1457.09581 2342.66147,1457.09581 C2356.38662,1464.00209 2374.29056,1485.48318 2396.37329,1521.53907 C2418.45602,1557.59497 2448.25416,1614.00015 2485.76772,1690.75462 L2519.85729,1893.62222 L2681,1956 L0,1956 C85.3265906,1933.0355 139.983181,1906.56046 163.969772,1876.57488 C228.38596,1796.04835 234.904657,1662.29024 241.014555,1652.90419 C255.298459,1630.96122 300.036705,1528.31558 318.598288,1521.53907 C337.15987,1514.76256 349.795954,1475.78753 400.313699,1457.09581 C450.831443,1438.40408 415.637231,1467.68486 461.370719,1419.20883 Z" id="Path-95" stroke="#000000" stroke-width="17" fill="url(#linearGradient-1)"></path>
            <g id="Group" transform="translate(378.000000, 1228.000000)" stroke="#000000" stroke-width="5">
                <path d="M745.773826,205.744914 C734.627969,169.830582 798.463331,135.806478 828.354492,152.81853" id="Path"></path>
                <path d="M660.01699,326.183099 C648.871134,290.268766 712.706495,256.244662 742.597656,273.256714" id="Path"></path>
                <path d="M842.580243,330.953253 C829.439119,272.870076 897.616342,250.042136 928.055904,247.856815" id="Path" transform="translate(884.487145, 289.405034) rotate(29.000000) translate(-884.487145, -289.405034) "></path>
                <path d="M245.019531,446.621283 C279.140901,401.718143 314.951448,388.820433 352.451172,407.928152" id="Path-98"></path>
                <path d="M363.759766,240.949922 C379.543232,205.614853 389.282633,172.139525 449.516602,188.877189" id="Path"></path>
                <path d="M480.414035,313.212833 C454.698613,260.545268 526.298414,234.211486 562.602539,260.545268" id="Path"></path>
                <path d="M445.778896,502.575763 C419.424917,449.937344 490.913486,424.596915 527.594645,451.187845" id="Path" transform="translate(483.835464, 471.547763) rotate(12.000000) translate(-483.835464, -471.547763) "></path>
                <path d="M1665.49283,537.22146 C1637.4792,486.466305 1711.81785,462.985015 1750.35043,488.889024" id="Path" transform="translate(1704.839013, 507.740571) rotate(64.000000) translate(-1704.839013, -507.740571) "></path>
                <path d="M181.879883,368.799687 C196.969571,332.966018 235.69977,315.992175 263.867187,315.992175" id="Path"></path>
                <path d="M0,446.621283 C15.2631327,410.787615 54.4385065,393.813772 82.9296875,393.813772" id="Path"></path>
                <path d="M181.879883,242.802817 C196.969571,207.597809 235.69977,190.921753 263.867187,190.921753" id="Path"></path>
                <path d="M865.745213,104.976519 C853.866225,68.8914813 917.551497,36.1240138 947.97005,53.6861539" id="Path" transform="translate(906.128386, 76.890084) rotate(21.000000) translate(-906.128386, -76.890084) "></path>
                <path d="M686.692479,70.1135487 C674.81349,34.0285107 738.498762,1.26104329 768.917316,18.8231834" id="Path" transform="translate(727.075652, 42.027114) rotate(21.000000) translate(-727.075652, -42.027114) "></path>
                <path d="M537.158203,154.790297 C552.247891,118.956629 590.97809,101.982786 619.145508,101.982786" id="Path"></path>
                <path d="M1486.1377,158.701979 C1522.54963,156.199288 1542.96792,176.512504 1547.39258,219.641628" id="Path-98"></path>
                <path d="M1672.72949,212.756078 C1697.56239,201.151193 1719.10991,185.992209 1733.04199,245.58216" id="Path"></path>
                <path d="M1695.34668,369.60315 C1713.52852,314.988769 1755.59554,353.729559 1755.65918,399.372457" id="Path"></path>
                <path d="M1584.14551,237.219309 C1608.81102,224.952382 1632.66304,245.360044 1643.51562,268.743349" id="Path"></path>
                <path d="M1401.32324,73.238088 C1428.33785,60.971161 1454.46149,81.3788229 1466.34766,104.762128" id="Path"></path>
                <path d="M1581.31836,54.612269 C1608.33297,42.6681559 1634.45661,62.538774 1646.34277,85.3067293" id="Path"></path>
                <path d="M1829.16504,431.359851 C1845.1425,398.931445 1891.4467,426.725275 1894.18945,461.444444" id="Path"></path>
                <path d="M1797.12402,291.879716 C1824.53015,279.612789 1851.03239,300.02045 1863.09082,323.403756" id="Path"></path>
                <path d="M1046.04492,179.275102 C1076.51214,156.144677 1105.09775,157.865182 1131.80176,184.43662" id="Path-98"></path>
                <path d="M1344.78027,231.42406 C1368.36753,214.887189 1387.55989,196.393152 1417.34375,240.949922" id="Path"></path>
                <path d="M1316.50879,355.904817 C1336.11108,308.452979 1381.46459,342.113009 1381.5332,381.769953" id="Path"></path>
                <path d="M1227.9248,166.947716 C1250.99829,150.838077 1281.31379,160.103156 1298.60352,175.172144" id="Path"></path>
                <path d="M1008.34961,96.238349 C1033.11201,78.444611 1065.40254,86.912931 1083.74023,101.982786" id="Path"></path>
                <path d="M1026.25488,318.585767 C1051.01728,300.792029 1083.30781,309.260349 1101.64551,324.330203" id="Path"></path>
                <path d="M678.515625,438.979159 C732.064313,375.13104 801.89258,405.517365 841.547852,459.591549" id="Path"></path>
                <path d="M967.255702,501.095213 C1014.24664,436.526006 1073.46407,465.711436 1106.42628,519.019213" id="Path" transform="translate(1036.840991, 491.585722) rotate(-21.000000) translate(-1036.840991, -491.585722) "></path>
                <path d="M1168.70806,407.483304 C1206.91893,343.762742 1257.69754,374.694722 1286.84269,429.201671" id="Path" transform="translate(1227.775373, 400.550041) rotate(9.000000) translate(-1227.775373, -400.550041) "></path>
                <path d="M1224.15527,64.0384271 C1249.62131,45.9645222 1282.69328,54.3990467 1301.43066,69.5571205" id="Path"></path>
                <path d="M1523.83301,345.862049 C1553.58823,335.85482 1582.3621,352.503175 1595.4541,371.57903" id="Path"></path>
                <path d="M1452.21191,436.393126 C1501.15142,417.992735 1548.47686,448.604228 1570.00977,483.679186" id="Path"></path>
            </g>
            <path d="M1179,894 C1183.25955,876.019166 1185.58846,864.966853 1185.98673,860.84306 C1186.58413,854.657372 1182.49208,854.323679 1182.93004,848.728025 C1183.36799,843.13237 1183.83897,840.480701 1187.73341,838.525889 C1191.62785,836.571078 1193.42367,840.615399 1196.90349,841.714057 C1200.38332,842.812715 1202.34471,839.312129 1206.25313,841.733333 C1208.5633,843.164455 1210.76801,843.725887 1211.98615,848.733333 C1212.14193,849.373695 1211.03065,854.333333 1206.25313,856.666667 C1201.47561,859 1206.34163,852.903044 1201.47561,870.666667 C1198.23159,882.509082 1197.43534,890.28686 1199.08685,894 L1179,894 Z" id="Path-101" stroke="#000000" stroke-width="5" fill="#FFFFFF"></path>
            <path d="M1207,1395.83429 L985.094228,1319 L862.598472,1349.54857 L731.151104,1427.77143 L709.00764,1465.26286 L652,1481 C841.205265,1480.90059 969.668763,1475.65487 1037.39049,1465.26286 C1105.11222,1454.87084 1161.64872,1431.72798 1207,1395.83429 Z" id="Path-13" fill="url(#linearGradient-2)"></path>
            <polyline id="Path-99" stroke="#000000" stroke-width="12" points="732 1428 854.626866 1349.8375 981.970149 1317 1206 1393.775"></polyline>
            <polyline id="Path-100" stroke="#000000" stroke-width="12" points="994.525 1319 1014 1382.54819 957 1473"></polyline>
            <path d="M1164.3745,978.146203 L1050.50513,1388.01053 L1010.82568,1379.45038 L978.671645,1396 L941.728712,1388.01053 L910.942934,1374.31429 L874,1382.30376 L1021.39166,967.30335 L992.354213,978.146203 L964.076906,967.503194 L937.684753,949.919092 L929.672849,917.064585 L929.672849,898.555004 L950.409541,889.300213 L963.924877,905.099615 L964.076906,926.782115 L989.055194,938.813343 L1013.09091,921.69198 C1004.29352,909.043766 997.38129,894.544594 992.354213,878.194464 C984.813598,853.669269 984.342309,844.652472 984.342309,819.426544 C984.342309,794.200616 984.603418,788.179578 998.480963,767.599716 C1012.35851,747.019854 1017.8798,744 1034.29889,744 C1050.71797,744 1047.96625,754.630131 1047.96625,774.07807 C1035.65194,795.193099 1035.29026,810.956234 1031.65359,825.20491 C1028.01691,839.453586 1024.94243,833.96932 1040.54726,865.722939 C1050.95048,886.892019 1062.12457,904.012313 1074.06955,917.083821 L1091.85689,917.083821 C1097.32992,910.616154 1095.73362,901.295106 1087.06799,889.120674 C1074.06955,870.859027 1065.30744,860.973764 1068.59652,833.194381 C1071.72647,806.759084 1093.66603,752.329312 1107.3486,752.329312 C1119.48255,752.329312 1119.6021,744 1131.38431,752.329312 C1132.28285,752.964527 1150.49429,761.881196 1143.63781,782.870121 C1139.83752,794.503459 1119.85037,816.952676 1117.16964,833.194381 C1114.4889,849.436085 1124.84651,857.243916 1131.53634,878.277821 C1135.99622,892.300425 1140.10099,905.235758 1143.85065,917.083821 L1164.3745,917.083821 L1164.3745,889.120674 L1177.09929,884.210078 C1184.45809,884.210078 1190.42774,884.210078 1195.00825,884.210078 C1199.58875,884.210078 1206.25267,885.846943 1215,889.120674 L1193.10789,938.769527 L1164.3745,978.146203 Z" id="Path-10" stroke="#000000" stroke-width="12" fill="#238B00"></path>
            <polyline id="Path-11" stroke="#000000" stroke-width="10" points="732 1428 706.911243 1467.10345 652 1482"></polyline>
            <path d="" id="Path-12" stroke="#979797"></path>
            <path d="M876,1385 L844,1396" id="Path-14" stroke="#000000" stroke-width="10"></path>
            <path d="M1051,1387 L1102,1397" id="Path-15" stroke="#000000" stroke-width="11"></path>
            <path d="M1159,1310.36364 L1133.21622,1304.86777 L1123.66667,1299 L1112.68468,1299 L1106,1304.90909 L1106,1317.18182 L1112.68468,1324 C1117.67974,1323.47951 1121.3404,1323.02496 1123.66667,1322.63636 C1125.99293,1322.24777 1129.17612,1321.55906 1133.21622,1320.57025 L1152.98378,1320.57025 L1159,1310.36364 Z" id="Path-16" stroke="#000000" stroke-width="4" fill="#FFFFFF"></path>
            <polygon id="Path-17" stroke="#000000" stroke-width="5" fill="#36B72B" points="1147 1298 1147 1328.4252 1174.41304 1328.4252 1194.7971 1335.48819 1205.34058 1341.46457 1210.96377 1346.89764 1215.18116 1353.96063 1215.18116 1361.02362 1225.72464 1367 1240.48551 1367 1244 1351.7874 1233.45652 1328.4252 1205.34058 1317.01575 1174.41304 1301.25984"></polygon>
        </g>
        <g id="Crow" transform="translate(1076.000000, 124.000000)">
            <path d="M570.488963,599.948362 C717.750279,694.154923 786.633011,746.14654 777.137157,755.923213 C763.82671,769.627286 686.160976,737.504739 576.188128,660.51637 C523.216158,623.432438 492.820115,598.260315 485,585 L570.488963,599.948362 Z" id="Path-109" stroke="#000000" stroke-width="10" fill="#5C5C5C"></path>
            <path d="M632.541444,615.978556 C748.671199,700.375713 802.922333,745.557658 795.294847,751.524391 C787.66736,757.491123 704.902411,707.316327 547,601 L632.541444,615.978556 Z" id="Path-109" stroke="#000000" stroke-width="10" fill="#5C5C5C"></path>
            <path d="M671.493648,623.498662 C754.976485,693.922781 793.976296,731.624271 788.493083,736.603134 C783.009869,741.581997 723.512175,699.714286 610,611 L671.493648,623.498662 Z" id="Path-109" stroke="#000000" stroke-width="10" fill="#5C5C5C"></path>
            <path d="M727,529 C727,529 710.265378,491.290988 675.237296,466.534202 C651.885241,450.029678 578.472809,420.518277 455,378 L473.719461,415.053203" id="Path-108" stroke="#000000" stroke-width="10" fill="#5C5C5C"></path>
            <path d="M126,232.762323 C130.380684,181.918088 135.183042,147.790006 140.407073,130.378077 C151.72733,92.6471514 172.808337,72.7466576 181.11277,63.3603097 C202.192093,39.5347387 220.723366,22.7782932 240.991946,17.8037234 C254.504333,14.4873436 268.98189,8.55276908 284.424617,0 C274.772913,14.1382509 270.68059,22.8219298 272.147649,26.0510364 C272.147649,26.0510364 277.268971,19.6611901 290.447281,10.8655077 C294.00701,8.48961519 300.917631,4.86777931 311.179143,0 C301.99072,16.2328066 298.747747,25.5710341 301.450224,28.0146824 C301.450224,28.0146824 305.485974,20.9520642 318.591652,10.8655077 C321.547435,8.5906412 327.570098,5.27426135 336.659643,0.916368116 C323.22447,18.981911 319.82707,28.0146824 326.467443,28.0146824 C326.467443,28.0146824 349.757371,15.5765517 364.350749,14.2674544 C370.672413,13.7003702 379.672556,15.7072892 392.250159,26.0479213 C397.464431,30.3348161 402.523025,36.6195216 407.425942,44.9020377 C394.840119,38.0074585 383.258074,33.7747106 372.679805,32.2037938 C356.812403,29.8474186 347.083484,32.2037938 349.631534,39.5347387 C349.631534,39.5347387 368.290373,47.9148087 377.552063,55.6375592 C386.813752,63.3603097 391.143957,84.1706521 392.302161,99.3561809 C393.460366,114.54171 377.552063,158.258516 377.552063,179.986932 C377.552063,191.62123 382.038286,213.181242 383.818542,222.944093 C388.231135,247.142569 397.022074,270.857055 417.290654,309.344516 C430.803041,335.002823 450.569732,364.762968 476.590728,398.624952 L708,585.956777 C469.255432,624.531511 305.022025,604.502322 215.299778,525.86921 C169.512091,470.101665 158.123079,393.955838 181.132743,297.43173 L126,232.762323 Z" id="Path-102" stroke="#000000" stroke-width="6" fill="#5C5C5C"></path>
            <path d="M447.780546,685.418762 C477.9367,684.87263 486.083814,625.150849 477.862105,583.146864 C441.489669,554.936341 447.350205,559.158281 422.213899,547.314767 C408.723319,540.958389 402.187386,536.256702 387.556891,525.647185 C373.638796,537.819812 377.143373,584.148688 380.467596,606.943054 C383.791819,629.73742 417.624392,685.964894 447.780546,685.418762 Z" id="Oval" stroke="#000000" stroke-width="4" fill="#5C5C5C" transform="translate(429.174556, 605.534949) rotate(-5.000000) translate(-429.174556, -605.534949) "></path>
            <path d="M417,547.690223 C450.185779,570.655473 507.447515,591.131877 588.785208,609.119437 C710.791748,636.100777 793.215529,648.833854 802,618.119247 C802,618.119247 694.070808,581.746164 478.212424,509" id="Path-106" stroke="#000000" stroke-width="10" fill="#5C5C5C"></path>
            <g id="Mouth" transform="translate(0.000000, 163.000000)">
                <path d="M3.94152495,146.359786 C26.0449786,119.770042 37.0967055,106.475171 37.0967055,106.475171 C37.0967055,106.475171 46.680021,96.8854271 65.8466522,77.7059399 L109.89899,53.382863 L150.009803,35.9905553 L155.690236,23.8290168 L162.99365,12.582863 L172.49968,3.03670915 L182.933129,0.0290168411 L193.482504,2.25209376 L203.568171,10.7520938 L208.089332,19.9059399 L212.958275,31.8059399 L215.044964,43.8367091 L249.939053,53.382863 L267.096279,60.7059399 L285.180923,72.4751707 L291.672847,80.8444015 L293.063973,89.8674784 L291.672847,96.1444015 L286.803904,102.290555 L283.210161,107.521325 L267.096279,116.544401 L232.086263,128.052094 L203.568171,133.413632 L189.077271,165.713632 L170.181136,188.075171 L141.199335,204.944401 L114.88386,214.359786 L76.3960278,225.213632 C50.1964796,232.36235 36.7102814,235.936709 35.9374334,235.936709 C35.1645854,235.936709 33.6575317,235.936709 31.4162724,235.936709 L77.9030814,191.475171 L96.5673614,167.936709 L108.971572,141.259786 L115.231641,121.90594 L94.4806717,120.467478 L65.8466522,121.90594 L44.5160465,128.052094 L3.94152495,146.359786 Z" id="Path-103" fill="#9B9B9B"></path>
                <path d="M0,150.675171 C33.9052009,107.130841 59.7183252,80.4975082 77.4393726,70.7751707 C95.1604201,61.0528332 124.837784,47.147705 166.471466,29.0597861" id="Path-2" stroke="#000000" stroke-width="4"></path>
                <path d="M150.009803,35.9905553 C160.984245,9.40081171 173.658952,-2.45559854 188.033926,0.421324533 C202.408899,3.29824761 211.683075,20.9520938 215.856455,53.382863" id="Path-3" stroke="#000000" stroke-width="4"></path>
                <path d="M214.233474,43.8367091 C270.574095,57.3495297 296.657716,73.1726066 292.484337,91.3059399 C288.310958,109.439273 258.672236,123.475171 203.568171,133.413632" id="Path-4" stroke="#000000" stroke-width="4"></path>
                <path d="M125.69697,123.446154 C118.811132,146.512874 111.522692,163.600053 103.83165,174.707692 C96.1406081,185.815331 80.7623814,201.464049 57.6969697,221.653846 C89.2311539,212.316354 110.485924,205.167636 121.461279,200.207692 C149.016638,187.754973 162.939028,174.282851 169.542088,165.946154 C184.767677,146.723077 178.157914,133.007888 193.239057,120.438462 C222.178686,96.3186373 234.580482,82.0647912 230.444444,77.6769231 C206.725981,94.3319238 186.921267,105.883206 171.030303,112.330769 C155.139339,118.778333 140.028228,122.483461 125.69697,123.446154 Z" id="Path-104" stroke="#000000" stroke-width="5" fill="#790A0A"></path>
                <path d="M63.1919192,218.384615 C80.6491094,202.529935 92.7456302,190.629935 99.4814815,182.684615 C106.217333,174.739296 110.681979,167.939296 112.875421,162.284615 C118.751964,152.258974 125.239057,145.241026 132.3367,141.230769 C135.641306,139.363626 141.517849,139.363626 149.96633,141.230769 C156.959265,132.856944 162.454214,128.367201 166.451178,127.761538 C173.930415,126.628205 180.684624,126.628205 186.713805,127.761538 C183.799139,133.903459 181.700374,138.8291 180.417508,142.538462 C176.754209,153.130769 176.778577,153.094152 170.457912,162.284615 C164.744228,170.592508 157.358212,178.090193 149.96633,182.684615 C132.312934,195.984572 103.38813,207.884572 63.1919192,218.384615 Z" id="Path-10" stroke="#000000" stroke-width="5" fill="#FF8383"></path>
                <path d="M208.089332,116.544401 C198.685097,153.480475 183.421348,179.067654 162.298086,193.30594 C141.174825,207.544226 96.4269238,222.408328 28.0543835,237.898248" id="Path-5" stroke="#000000" stroke-width="5"></path>
                <path d="M28.0543835,237.898248 C58.6921226,211.268239 79.4430922,190.6067 90.3072923,175.913632 C101.171492,161.220564 109.363682,142.738513 114.88386,120.467478" id="Path-6" stroke="#000000" stroke-width="5"></path>
                <path d="M0,150.675171 C25.8131242,133.936709 47.3369419,124.521325 64.5714529,122.429017 C90.4232195,119.290555 113.724588,122.952094 135.17112,120.467478 C156.617653,117.982863 161.561145,115.937759 181.773857,106.867478 C195.248998,100.820625 211.478807,91.1001117 230.463283,77.7059399" id="Path-7" stroke="#000000" stroke-width="5"></path>
                <path d="M203.568171,74.3853465 C205.563062,74.3853465 217.567279,73.5359773 230.463283,77.3930388 C234.855777,78.7067883 241.3477,82.1067883 249.939053,87.5930388" id="Path-8" stroke="#000000" stroke-width="5"></path>
                <path d="M150.080808,140.969231 L140.579125,154.176923" id="Path-11" stroke="#000000" stroke-width="5"></path>
                <path d="M407.250118,130.613831 C407.250118,130.613831 404.367037,127.594385 398.036518,124.388166 C396.288543,123.502869 393.029541,122.372032 388.259512,120.995657" id="Path-9" stroke="#000000" stroke-width="5" transform="translate(397.754815, 125.804744) rotate(-9.000000) translate(-397.754815, -125.804744) "></path>
            </g>
            <path d="M152,174 C166.911688,174 179,159.225397 179,141 C179,139.969955 174.384615,142.559055 170.346154,141 C166.307692,139.440945 166.307692,137.622047 163.884615,132.035433 C161.461538,126.448819 152.850526,108 152,108 C137.088312,108 125,122.774603 125,141 C125,159.225397 137.088312,174 152,174 Z" id="Oval" stroke="#000000" stroke-width="3" fill="#D9CB16"></path>
            <path d="M240,174 C254.911688,174 267,159.006679 267,140.511479 C267,139.466186 262.384615,142.093614 258.346154,140.511479 C254.307692,138.929344 252.692308,136.687987 248.538462,132.337116 C244.384615,127.986245 226.427449,109 225.576923,109 C221.654312,109 220.269231,109.132472 217.269231,112.428586 C214.269231,115.7247 213,126.881556 213,140.511479 C213,159.006679 225.088312,174 240,174 Z" id="Oval" stroke="#000000" stroke-width="4" fill="#D9CB16" transform="translate(240.000000, 141.500000) scale(-1, 1) translate(-240.000000, -141.500000) "></path>
            <path d="M203.123909,115.114926 C214.427586,114.837541 223.854753,102.416444 224.180076,87.3716293 C224.195314,86.6669024 225.641658,64.6476693 214.429258,58.6050471 C212.11334,57.3569453 208.375271,61.6707596 204.949937,61.5896641 C200.63226,61.4874422 196.98028,57.2700537 194.216252,58.499749 C184.171266,62.9686892 183.433852,79.6814249 183.245841,88.3761306 C182.920518,103.420945 191.820232,115.392311 203.123909,115.114926 Z" id="Oval" stroke="#000000" stroke-width="4" fill="#D9CB16" transform="translate(203.742868, 86.697433) scale(-1, 1) rotate(-10.000000) translate(-203.742868, -86.697433) "></path>
            <polyline id="Path-12" stroke="#000000" stroke-width="6" points="149 96 167.332335 137.6 170.368263 142 174.45509 142 188 139.6"></polyline>
            <path d="M202,135.28132 C210.781548,137.988024 215.70131,139.468101 216.759287,139.72155 C218.346252,140.101724 217.449425,140.083801 220.534918,139.72155 C223.620411,139.359299 227.170877,137.31114 226.141159,138.199186 C225.111441,139.087232 253.359186,109.649287 254.515602,108.639942 C255.672018,107.630596 257.85606,107.958375 260.007429,108.639942 C261.441676,109.09432 262.662082,110.024654 263.668648,111.430943 L265.728083,114.602536 C267.316877,116.900781 268.689834,118.465434 269.846954,119.296493 C271.004073,120.127553 274.055089,120.761871 279,121.199449" id="Path-13" stroke="#000000" stroke-width="5"></path>
            <ellipse id="Oval" fill="#000000" cx="161" cy="154" rx="10" ry="14"></ellipse>
            <ellipse id="Oval" fill="#000000" cx="250" cy="151" rx="10" ry="14"></ellipse>
            <ellipse id="Oval" fill="#000000" cx="210.5" cy="92" rx="8.5" ry="13"></ellipse>
            <g id="Wing" transform="translate(284.000000, 330.000000)" stroke="#000000" stroke-width="5">
                <path d="M482.843708,238.008165 C454.057795,208.915314 421.176958,183.775705 384.201197,162.589337 C347.225436,141.402969 288.707205,114.172747 208.646501,80.8986727 L265.408747,127.780647" id="Path-107" fill="#5C5C5C"></path>
                <path d="M229.541931,249.871054 C250.409743,251.494442 271.092736,253.881047 291.590912,257.030871 C413.472568,275.759643 519.986414,264.042067 531.470725,233.931244 C531.470725,233.931244 419.464148,213.36798 195.450994,172.241453" id="Path-106" fill="#5C5C5C" transform="translate(363.460859, 219.150109) scale(1, -1) rotate(-29.000000) translate(-363.460859, -219.150109) "></path>
                <path d="M52.0235574,0.147772328 C35.1316093,16.6720707 23.0615328,30.8990624 15.813328,42.8287473 C4.94102086,60.7232748 0,74.2156797 0,85.7723745 C0,97.3290692 5.36232562,116.85621 47.3253948,159.052325 C89.2884639,201.24844 135.90295,224.84669 142.434542,216.835799 C146.788936,211.495205 128.913,182.997447 88.8067335,131.342523" id="Path-105"></path>
                <path d="M45.6065548,107.910373 C70.5106366,129.44785 85.2162677,137.808943 89.7234482,132.993654 C94.2306286,128.178364 89.1123051,113.820047 74.3684775,89.9187006" id="Path-14"></path>
                <path d="M123.985659,180.852454 C163.633568,202.652583 186.589631,207.599199 192.853848,195.692301 C198.423254,185.106086 188.073458,153.907896 146.445168,127.928045 C138.729486,123.112756 133.229198,119.698278 129.944304,117.684611" id="Path-15"></path>
                <path d="M232.011533,138.744104 C242.962168,143.713544 250.196748,146.325837 253.715272,146.580984 C266.67284,147.520606 270.564785,141.09172 270.799617,139.324575 C271.404168,134.775248 259.941155,121.698065 238.508634,111.414901 C234.536179,109.508946 231.704506,108.157013 230.013616,107.359101" id="Path-15" transform="translate(250.417990, 127.016670) rotate(12.000000) translate(-250.417990, -127.016670) "></path>
                <path d="M203.096431,143.051741 C239.599608,163.464787 258.359669,169.003769 259.376615,159.668689 C259.939457,154.502069 242.563569,142.126258 207.248951,122.541254" id="Path-15" transform="translate(231.243145, 143.302011) rotate(10.000000) translate(-231.243145, -143.302011) "></path>
                <path d="M166.269123,142.50524 C204.54196,171.572078 224.977058,183.654077 227.574416,178.751237 C231.164752,171.974028 226.657702,156.55713 188.843222,124.644893 C181.581478,118.516593 175.355458,114.927014 170.16516,113.876155" id="Path-15"></path>
                <path d="M48.5858774,83.8024833 C61.8018472,90.2812365 70.3960472,92.2073522 74.3684775,89.5808307 C78.3409077,86.9543092 80.2125335,76.9735273 79.9833548,59.6384852" id="Path-14"></path>
                <path d="M108.471577,117.54116 C113.510627,120.15886 117.615575,121.492638 120.786422,121.542496 C123.179012,121.580117 125.907348,119.885638 127.288314,118.960219 C130.578832,116.755161 132.282116,109.934488 130.005395,96.5067868 C129.619916,94.233299 128.463357,90.1292312 126.535718,84.1945834" id="Path-14" transform="translate(119.759262, 102.868848) rotate(-18.000000) translate(-119.759262, -102.868848) "></path>
                <path d="M149.882075,113.626581 C154.921125,116.244281 159.026074,117.578059 162.196921,117.627917 C164.58951,117.665538 166.207975,116.735822 167.58894,115.810403 C170.879459,113.605346 174.35528,109.447687 174.591911,105.382041 C174.749665,102.67161 175.258368,98.5102529 176.118019,92.8979689" id="Path-14" transform="translate(163.000047, 105.263495) rotate(-18.000000) translate(-163.000047, -105.263495) "></path>
                <path d="M149.882075,113.626581 C154.921125,116.244281 159.026074,117.578059 162.196921,117.627917 C164.58951,117.665538 166.207975,116.735822 167.58894,115.810403 C170.879459,113.605346 174.35528,109.447687 174.591911,105.382041 C174.749665,102.67161 175.258368,98.5102529 176.118019,92.8979689" id="Path-14" transform="translate(163.000047, 105.263495) rotate(-18.000000) translate(-163.000047, -105.263495) "></path>
                <path d="M107.026438,76.7108752 C110.264236,82.6356564 114.656828,84.9995258 120.204211,83.8024833 C125.751594,82.6054408 129.265667,74.8572023 130.74643,60.5577677" id="Path-16"></path>
                <path d="M155.612315,89.1430993 C158.30266,92.0509982 161.952542,93.2111919 166.561962,92.6236801 C171.171382,92.0361684 174.091288,88.2333115 175.32168,81.2151096" id="Path-16"></path>
                <path d="M197.892413,116.682015 C200.557135,119.250962 204.345833,120.091873 209.258507,119.204749 C214.171181,118.317624 217.497021,114.498132 219.236027,107.746273" id="Path-16" transform="translate(208.564220, 113.646295) rotate(-39.000000) translate(-208.564220, -113.646295) "></path>
            </g>
            <g id="Foot" transform="translate(305.191723, 668.557569) rotate(8.000000) translate(-305.191723, -668.557569) translate(161.191723, 610.557569)" stroke="#000000" stroke-width="4">
                <path d="M141.299056,46.740437 C132.200643,42.7813513 125.129871,40.2704533 120.086738,39.2077432 C108.557499,36.7782535 94.4882703,36.7451317 90.2188197,36.7451317 C79.6126609,36.7451317 70.4935137,38.3009318 59.1318025,41.3806356 C47.7700913,44.4603394 42.9359002,47.3219032 40.4795922,62.8198413 C38.8420536,73.1518 42.1742567,82.6642403 50.4762017,91.3571623 L141.299056,68.1796427 L141.299056,46.740437 Z" id="Path-22" fill="#9E9E9E"></path>
                <path d="M169.599585,9.09494702e-13 L165.69259,51.3350251 C189.319217,45.8306109 204.743708,43.2614359 211.966065,43.6275001 C222.7996,44.1765963 232.111509,47.5539751 233.698726,53.2255501 C235.285943,58.8971251 237.483628,65.0049751 218.9254,74.4576001 C200.367173,83.9102251 181.564758,77.5115251 160.076285,77.5115251 C138.587811,77.5115251 90.0939272,108.981676 78.7619463,110.959275 C67.4299654,112.936874 64.3549013,104.269725 62.4014037,98.4527252 C60.4479061,92.6357251 58.3953599,85.0450934 59.2269701,76.4935501 C60.0585803,67.9420068 62.6455909,64.1324251 67.529335,59.6242501 C72.413079,55.1160751 127.965667,54.5343751 138.465717,51.3350251 C144.163419,44.2576751 148.72158,29.327375 152.140201,6.54412501 L169.599585,9.09494702e-13 Z" id="Path-18" fill="#9C9C9C"></path>
                <path d="M76.8836924,57.9831436 C76.8836924,57.9831436 79.9523611,61.5482833 83.1056309,68.192117 C84.0231694,70.1253398 85.2024911,73.5769451 86.6435959,78.5469329" id="Path-19"></path>
                <path d="M71.8643134,39.1049108 C71.8643134,39.1049108 74.3192484,40.7998133 76.8418642,43.9583572 C77.575895,44.8774303 78.5193524,46.5183574 79.6722363,48.8811385" id="Path-19"></path>
                <path d="M86.6435959,36.7451317 C86.6435959,36.7451317 89.0985309,38.4400342 91.6211467,41.5985781 C92.3551775,42.5176512 93.2986349,44.1585783 94.4515188,46.5213594" id="Path-19"></path>
                <path d="M186.752321,46.5213594 C186.752321,46.5213594 189.207256,48.9760458 191.729872,53.5504886 C192.463902,54.8815601 193.40736,57.2580752 194.560244,60.680034" id="Path-19"></path>
                <path d="M202.368166,43.824469 C202.368166,43.824469 204.823101,46.2791554 207.345717,50.8535982 C208.079748,52.1846697 209.023205,54.5611848 210.176089,57.9831436" id="Path-19"></path>
                <path d="M100.86517,56.2975871 C104.061614,59.5765563 106.168514,62.0808117 107.185869,63.8103532 C108.203224,65.5398948 109.070771,68.0923089 109.78851,71.4675956" id="Path-20"></path>
                <path d="M7.27395081,61.4057524 C8.47472526,67.1221631 8.85311128,71.7278529 8.40910887,75.2228218 C7.96510647,78.7177907 6.40421918,83.42017 3.72644701,89.3299599 C11.1871535,89.3920941 16.551101,89.1246548 19.8182894,88.527642 C30.9088189,86.5010715 32.2971451,84.8873177 38.8026111,83.9642693 C48.1827707,82.6333361 55.497601,77.9285233 60.747102,69.8498311 C47.292444,66.8987442 37.7578378,65.4748137 32.1432836,65.5780397 C23.1828992,65.7427803 14.8931216,64.3520178 7.27395081,61.4057524 Z" id="Path-21" fill="#989898" transform="translate(32.236775, 75.372249) rotate(164.000000) translate(-32.236775, -75.372249) "></path>
                <path d="M233.124306,50.9038063 C234.550005,54.5107327 235.118108,57.3984793 234.828616,59.5670459 C234.539124,61.7356126 233.200023,64.6233591 230.811314,68.2302856 C238.167041,68.5013634 243.442287,68.5013634 246.63705,68.2302856 C257.481731,67.3101071 265.950921,65.2832244 272.323437,64.909377 C281.511898,64.3703306 286.54367,64.3703306 287.418754,64.909377 C274.694961,59.2397372 264.956046,55.5337958 258.202011,53.7915529 C251.447976,52.0493099 243.088741,51.0867277 233.124306,50.9038063 Z" id="Path-21" fill="#989898"></path>
                <path d="M19.4557944,79.6263063 C20.6565689,85.3427171 21.0349549,89.9484068 20.5909525,93.4433757 C20.1469501,96.9383446 18.5860628,101.640724 15.9082906,107.550514 C23.3689971,107.612648 28.7329446,107.345209 32.000133,106.748196 C43.0906625,104.721625 51.8421253,101.039356 58.3475913,100.116308 C67.7277509,98.7853744 73.3748304,92.6742409 75.2888298,81.782907 C69.1939818,85.6008247 64.7160351,87.6423663 61.8549896,87.9075317 C55.2375662,88.5208429 46.3610221,83.7794766 42.268044,82.2910654 C35.5206651,79.8373815 27.9165819,78.9491285 19.4557944,79.6263063 Z" id="Path-21" fill="#989898" transform="translate(45.598560, 93.482952) rotate(164.000000) translate(-45.598560, -93.482952) "></path>
            </g>
            <g id="Foot" transform="translate(274.000000, 680.000000)" stroke="#000000" stroke-width="4">
                <path d="M161.052599,46.2212617 C150.645876,41.6007251 142.558357,38.6703274 136.790045,37.4300686 C123.602952,34.5946801 107.510631,34.5560247 102.627252,34.5560247 C90.4959746,34.5560247 80.0655345,36.3717548 67.0700597,39.9659897 C54.0745848,43.5602245 48.5452584,46.8998744 45.7357443,64.9870779 C43.8627349,77.0452135 47.674094,88.1469126 57.1698218,98.292175 L161.052599,71.2423499 L161.052599,46.2212617 Z" id="Path-22" fill="#9E9E9E"></path>
                <path d="M191.208931,0.143704461 L188.940593,51.6312267 C215.923957,45.2321619 233.539874,42.2454104 241.788342,42.6709722 C254.161044,43.3093149 264.795937,47.2356302 266.608656,53.829025 C268.421376,60.4224199 270.931295,67.522999 249.73642,78.5119904 C228.541545,89.5009819 207.067789,82.06228 182.526355,82.06228 C157.98492,82.06228 102.601299,118.647379 89.6593348,120.946404 C76.7173701,123.245428 73.2054183,113.169579 70.9743788,106.407123 C68.7433393,99.6446663 66.3991789,90.8203041 67.3489396,80.8788501 C68.2987003,70.9373962 71.2532588,66.5086305 76.8308575,61.2677269 C82.4084563,56.0268233 145.853643,55.3505777 157.84548,51.6312267 C164.352679,43.4035716 169.983496,27.4865029 174.737932,3.88002046 C179.314322,4.3258294 182.585159,4.3258294 184.550442,3.88002046 C186.515725,3.43421151 188.735222,2.18877285 191.208931,0.143704461 Z" id="Path-18" fill="#9C9C9C"></path>
                <path d="M87.2888553,59.4080515 C87.2888553,59.4080515 90.7962266,63.5407812 94.4002937,71.2423499 C95.4490052,73.4833525 96.796925,77.4844725 98.4440529,83.2457098" id="Path-19"></path>
                <path d="M81.7112565,37.4300686 C81.7112565,37.4300686 84.5171535,39.4231581 87.4004073,43.1373898 C88.2393765,44.218157 89.3177122,46.1477752 90.6354146,48.9262442" id="Path-19"></path>
                <path d="M98.4440529,34.7250861 C98.4440529,34.7250861 101.24995,36.7181756 104.133204,40.4324073 C104.972173,41.5131745 106.050509,43.4427927 107.368211,46.2212617" id="Path-19"></path>
                <path d="M212.784828,46.2212617 C212.784828,46.2212617 215.590725,49.0936554 218.473979,54.4465188 C219.312948,56.0040951 220.391284,58.7850154 221.708986,62.7892796" id="Path-19"></path>
                <path d="M230.633144,42.8400336 C230.633144,42.8400336 233.439041,45.7124273 236.322295,51.0652907 C237.161264,52.622867 238.2396,55.4037872 239.557302,59.4080515" id="Path-19"></path>
                <path d="M114.897969,57.2102532 C118.494299,61.0471957 120.864778,63.9775934 122.009408,66.0014463 C123.154037,68.0252993 124.130117,71.0120508 124.937647,74.9617009" id="Path-20"></path>
                <path d="M7.8498791,63.2701879 C9.19274588,69.9055762 9.60055781,75.2549071 9.07331491,79.3181804 C8.546072,83.3814537 6.73406631,88.8537442 3.63729784,95.7350517 C12.1749287,95.7664088 18.3148498,95.4263078 22.0570611,94.7147486 C34.7600644,92.2993483 36.3576865,90.4167107 43.8075406,89.3086019 C54.5494029,87.7108321 62.9461869,82.2042193 68.9978924,72.7887634 C53.6166459,69.4335089 42.7131154,67.8312174 36.2873009,67.9818889 C26.032209,68.2223487 16.5530685,66.6517817 7.8498791,63.2701879 Z" id="Path-21" fill="#989898" transform="translate(36.317595, 79.503612) rotate(164.000000) translate(-36.317595, -79.503612) "></path>
                <path d="M265.772017,51.1240425 C267.405048,55.3473498 268.055768,58.728578 267.724176,61.2677269 C267.392585,63.8068759 265.858745,67.188104 263.122657,71.4114113 C271.548092,71.7288131 277.590491,71.7288131 281.249853,71.4114113 C293.671624,70.3339853 303.372447,67.9607324 310.671687,67.522999 C321.196381,66.891836 326.959899,66.891836 327.962243,67.522999 C313.38809,60.884485 302.232892,56.5452422 294.49665,54.5052707 C286.760408,52.4652991 277.18553,51.338223 265.772017,51.1240425 Z" id="Path-21" fill="#989898"></path>
                <path d="M21.7389195,84.4972595 C23.0817863,91.1326478 23.4895982,96.4819786 22.9623553,100.545252 C22.4351124,104.608525 20.6231067,110.080816 17.5263382,116.962123 C26.0639691,116.99348 32.2038902,116.653379 35.9461015,115.94182 C48.6491047,113.52642 58.684362,109.200048 66.134216,108.091939 C76.8760784,106.494169 83.3719998,99.3626655 85.6219801,86.6974275 C78.6261885,91.1668694 73.4904885,93.5634699 70.2148802,93.8872288 C62.6385984,94.6360634 52.5063071,89.1756043 47.8304838,87.4686064 C40.1222696,84.6545767 31.4250815,83.6641277 21.7389195,84.4972595 Z" id="Path-21" fill="#989898" transform="translate(51.574159, 100.587948) rotate(164.000000) translate(-51.574159, -100.587948) "></path>
            </g>
            <path d="M290,572 C295.744734,607.689441 307.752169,624.647467 326.022305,622.874079 C344.292441,621.100691 357.61834,611.291636 366,593.446916 C348.001342,590.125287 334.675444,587.243531 326.022305,584.801647 C317.369166,582.359764 305.361731,578.092548 290,572 Z" id="Path-110" stroke="#000000" stroke-width="6" fill="#5C5C5C"></path>
        </g>
    </g>
</svg>