<?xml version="1.0" encoding="UTF-8"?>
<svg width="1942px" height="1804px" viewBox="0 0 1942 1804" version="1.1" xmlns="http://www.w3.org/2000/svg" xmlns:xlink="http://www.w3.org/1999/xlink">
    <!-- Generator: Sketch 56.3 (81716) - https://sketch.com -->
    <title>Whale</title>
    <desc>Created with Sketch.</desc>
    <defs>
        <radialGradient cx="5.0861578%" cy="88.3796419%" fx="5.0861578%" fy="88.3796419%" r="207.934432%" gradientTransform="translate(0.050862,0.883796),scale(0.465499,1.000000),rotate(-15.155894),translate(-0.050862,-0.883796)" id="radialGradient-1">
            <stop stop-color="#3863FF" offset="0%"></stop>
            <stop stop-color="#28367B" offset="100%"></stop>
            <stop stop-color="#0026E1" offset="100%"></stop>
        </radialGradient>
        <radialGradient cx="-28.9128241%" cy="109.290028%" fx="-28.9128241%" fy="109.290028%" r="301.895738%" gradientTransform="translate(-0.289128,1.092900),scale(0.732528,1.000000),rotate(-25.743443),translate(0.289128,-1.092900)" id="radialGradient-2">
            <stop stop-color="#3863FF" offset="0%"></stop>
            <stop stop-color="#28367B" offset="100%"></stop>
            <stop stop-color="#0026E1" offset="100%"></stop>
        </radialGradient>
    </defs>
    <g id="Page-1" stroke="none" stroke-width="1" fill="none" fill-rule="evenodd">
        <g id="Artboard" transform="translate(-2273.000000, -295.000000)">
            <g id="Whale" transform="translate(2280.000000, 270.000000)">
                <path d="M1362.3251,1583 C1568.11499,1583 1920,1442.7637 1920,1229.79467 C1920,1016.82564 1774.42852,665.997202 1362.3251,709.731913 C950.221678,753.466624 929.847236,941.801448 808.045147,1073.75957 C532.687117,1426.10134 300.865749,1356.25084 197.708984,1317.26991 C94.5522187,1278.28897 74.6539594,1105.72701 128.065077,1044.87872 C21.7664807,1079.58126 17.8783632,1326.77054 64.1811914,1412.82074 C98.6559235,1476.88935 168.133339,1507.91364 315.719568,1557.15253 C504.229393,1576.16763 1255.22355,1583 1362.3251,1583 Z" id="Path-28" stroke="#000000" stroke-width="16" fill="url(#radialGradient-1)"></path>
                <path d="M1678.5,1116 C1742.7585,1116 1794.8503,1073.73962 1794.8503,1021.60879 C1794.8503,969.477967 1804.03585,976.772968 1678.5,927.217584 C1552.96415,877.6622 1562.1497,969.477967 1562.1497,1021.60879 C1562.1497,1073.73962 1614.2415,1116 1678.5,1116 Z" id="Oval" fill="#FFFFFF"></path>
                <path d="M1919.71838,1246.90714 C1863.58764,1247.95447 1783.6477,1268.17888 1679.89855,1307.58036 C1576.1494,1346.98183 1503.68922,1395.48752 1462.51801,1453.09742 C851.905406,1488.53917 492.565236,1500.87112 384.497498,1490.09328 C222.395891,1473.92653 102.142671,1371.70813 72.6849745,1314.48625 C59.8990462,1289.64945 32.2574334,1236.72824 51.1806625,1167.98263 C57.9418513,1143.42012 78.4289413,1105.75924 112.641933,1055 C66.0334049,1079.7451 35.5242862,1113.6451 21.1145766,1156.7 C6.43668868,1192.90144 11.5708339,1168.4 1.07271686,1256.6 C-7.3306246,1327.20073 35.2428846,1419.52557 72.6849745,1453.09742 C115.963075,1491.90203 196.370503,1527.08921 313.907257,1558.65895 C462.879157,1576.08811 625.563952,1584.80269 801.961641,1584.80269 C978.359331,1584.80269 1181.71532,1584.80269 1412.02962,1584.80269 C1546.66531,1594.01055 1671.48382,1550.10879 1786.48514,1453.09742 C1901.48646,1356.08604 1945.89754,1287.35595 1919.71838,1246.90714 Z" id="Path-29" fill="#74A6D5"></path>
                <path d="M127.597174,1054.84374 C236.589813,1126.98927 430.051105,1021.5201 430,1016.59493 C429.948875,1011.66976 299.728173,1019.95395 190.735535,947.808426 C81.7428961,875.662899 59.5268762,776 59.5268762,776 C59.5268762,776 18.6045355,982.698215 127.597174,1054.84374 Z" id="Oval" stroke="#000000" stroke-width="15" fill="#445FE5"></path>
                <path d="M1242.00594,1607.42836 C1363.43555,1607.56824 1430.66993,1573.59682 1443.70908,1505.51409 C1430.50927,1431.84214 1363.19456,1394.93618 1241.76495,1394.79622 C1120.33535,1394.65642 1032.40786,1508.37569 977.982498,1735.95403 C1032.56852,1650.13037 1120.57634,1607.28848 1242.00594,1607.42836 Z" id="Oval" fill="url(#radialGradient-2)" transform="translate(1210.845788, 1565.375125) scale(-1, 1) rotate(-86.000000) translate(-1210.845788, -1565.375125) "></path>
                <text id="404" fill="#000000" transform="translate(1293.295149, 658.066781) rotate(74.000000) translate(-1293.295149, -658.066781) " font-family="Futura-Bold, Futura" font-size="72" font-weight="bold">
                    <tspan x="1155.04918" y="664.45041">404</tspan>
                </text>
                <text id="404" fill="#000000" transform="translate(1473.124092, 148.746079) rotate(-37.000000) translate(-1473.124092, -148.746079) " font-family="Futura-Bold, Futura" font-size="72" font-weight="bold">
                    <tspan x="1334.87812" y="155.129708">404</tspan>
                </text>
                <text id="404" fill="#000000" transform="translate(1318.544603, 343.182124) rotate(288.000000) translate(-1318.544603, -343.182124) " font-family="Futura-Bold, Futura" font-size="72" font-weight="bold">
                    <tspan x="1180.29863" y="349.565753">404</tspan>
                </text>
                <text id="404" fill="#000000" transform="translate(625.370280, 350.716993) rotate(-18.000000) translate(-625.370280, -350.716993) " font-family="Futura-Bold, Futura" font-size="72" font-weight="bold">
                    <tspan x="487.124312" y="357.100622">404</tspan>
                </text>
                <text id="404" fill="#000000" transform="translate(912.595313, 302.752770) rotate(6.000000) translate(-912.595313, -302.752770) " font-family="Futura-Bold, Futura" font-size="72" font-weight="bold">
                    <tspan x="774.349345" y="309.136399">404</tspan>
                </text>
                <text id="404" fill="#000000" transform="translate(1148.354450, 407.820354) rotate(37.000000) translate(-1148.354450, -407.820354) " font-family="Futura-Bold, Futura" font-size="72" font-weight="bold">
                    <tspan x="1010.10848" y="414.203983">404</tspan>
                </text>
                <text id="404" fill="#000000" transform="translate(1725.149669, 102.520274) rotate(375.000000) translate(-1725.149669, -102.520274) " font-family="Futura-Bold, Futura" font-size="72" font-weight="bold">
                    <tspan x="1586.12378" y="108.683236">404</tspan>
                </text>
                <path d="M1883,1317 C1820.90179,1412.00308 1637.47321,1541.55273 1562,1538.96174" id="Path-45" stroke="#555555" stroke-width="4"></path>
                <path d="M1837,1317 C1774.90179,1412.00308 1591.47321,1541.55273 1516,1538.96174" id="Path-45" stroke="#555555" stroke-width="4"></path>
                <path d="M1793,1319 C1730.90179,1414.00308 1547.47321,1543.55273 1472,1540.96174" id="Path-45" stroke="#555555" stroke-width="4"></path>
                <path d="M1738,1317 C1675.90179,1412.00308 1492.47321,1541.55273 1417,1538.96174" id="Path-45" stroke="#555555" stroke-width="4"></path>
                <path d="M112.455969,1055 C104.837814,1060.23153 59.1288848,1082.02956 45.7971137,1112.5468 C32.4653426,1143.06404 1,1156.86404 1,1245.8 C1,1334.73596 27.7039958,1386.33005 52.4629993,1429.92611 C68.6515784,1474.39409 234.346448,1548.50739 336.23927,1563.33005 C376.841999,1569.23665 475.014325,1577.64411 666.676739,1582.51232 C752.669848,1584.69653 919.277602,1585.85909 1166.5,1586" id="Path-7" stroke="#000000" stroke-width="16"></path>
                <path d="M1919.37584,1246 L1927,1285.23077 C1915.56376,1334.63248 1862.19463,1397.40171 1766.89262,1473.53846 C1696.36913,1517.12821 1687.79195,1549.38462 1507.67114,1586 C1460.65548,1586 1411.09843,1586 1359,1586" id="Path-46" stroke="#000000" stroke-width="15"></path>
                <path d="M1166.73649,1586 C1166.5154,1635.71691 1160.15654,1674.1323 1147.65991,1701.24615 C1135.16328,1728.36001 1105.27664,1765.61129 1058,1813 C1169.28003,1773.42051 1243.04279,1741.11667 1279.28829,1716.08846 C1342.87688,1654.39103 1371.49174,1612.19231 1365.13288,1589.49231" id="Path-51" stroke="#000000" stroke-width="13"></path>
            </g>
        </g>
    </g>
</svg>