<?xml version="1.0" encoding="UTF-8"?>
<svg width="1505px" height="2031px" viewBox="0 0 1505 2031" version="1.1" xmlns="http://www.w3.org/2000/svg" xmlns:xlink="http://www.w3.org/1999/xlink">
    <!-- Generator: Sketch 56.3 (81716) - https://sketch.com -->
    <title>Whale</title>
    <desc>Created with Sketch.</desc>
    <defs>
        <radialGradient cx="76.9376104%" cy="64.6766639%" fx="76.9376104%" fy="64.6766639%" r="91.8686058%" gradientTransform="translate(0.769376,0.646767),scale(0.883296,1.000000),rotate(-161.464099),translate(-0.769376,-0.646767)" id="radialGradient-1">
            <stop stop-color="#0036FF" offset="0%"></stop>
            <stop stop-color="#0D2183" offset="100%"></stop>
            <stop stop-color="#0026E1" offset="100%"></stop>
        </radialGradient>
        <linearGradient x1="50%" y1="0%" x2="50%" y2="100%" id="linearGradient-2">
            <stop stop-color="#006CD6" offset="0%"></stop>
            <stop stop-color="#005D8D" offset="100%"></stop>
        </linearGradient>
        <radialGradient cx="29.6899018%" cy="8.80625394%" fx="29.6899018%" fy="8.80625394%" r="128.834028%" gradientTransform="translate(0.296899,0.088063),scale(0.724852,1.000000),rotate(14.971913),translate(-0.296899,-0.088063)" id="radialGradient-3">
            <stop stop-color="#0031E7" offset="0%"></stop>
            <stop stop-color="#28367B" offset="100%"></stop>
            <stop stop-color="#0026E1" offset="100%"></stop>
        </radialGradient>
    </defs>
    <g id="Page-1" stroke="none" stroke-width="1" fill="none" fill-rule="evenodd">
        <g id="Charecters" transform="translate(-3095.000000, -200.000000)">
            <g id="Whale" transform="translate(2977.000000, 171.000000)">
                <ellipse id="Oval" stroke="#979797" fill="#D8D8D8" cx="739" cy="1146.5" rx="73" ry="71.5"></ellipse>
                <path d="M1548.75393,5.95212463 C1561.70604,4.51913199 1568.08881,95.9496263 1567.90222,280.243607 L1474.12706,285.292311 C1510.92619,100.498513 1535.80181,7.38511726 1548.75393,5.95212463 Z" id="Triangle" stroke="#000000" stroke-width="15" fill="#D39C1A" transform="translate(1521.016626, 145.613926) rotate(29.000000) translate(-1521.016626, -145.613926) "></path>
                <path d="M794.679805,1510.04089 C933.281327,1512.97407 1082.86665,1532.20877 1193.66622,1501.02072 C1322.8002,1464.67188 1370.18592,1351.35356 1425.33607,1274.45192 C1465.07874,1219.03455 1471.54691,1182.1371 1529.67554,1145.44769 C1538.81247,932.723912 1298.56158,768.386172 882.016218,759.570974 C776.128764,757.330116 373.698499,879.00042 225.787471,1100.61278 C79.6004867,1319.64203 71.0121708,1619.67623 144.614804,1786.96515 C289.497916,2116.26506 920.329685,2009.7178 1007.80185,1995.83978 C1158.76551,1971.88843 527.694347,1972.58828 354.01544,1764.8017 C283.167576,1680.04048 673.992204,1507.48683 794.679805,1510.04089 Z" id="Oval" stroke="#000000" stroke-width="10" fill="url(#radialGradient-1)" transform="translate(814.604519, 1391.381909) rotate(-10.000000) translate(-814.604519, -1391.381909) "></path>
                <path d="M1003.37481,890.148043 C1025.41095,891.436135 1041.93417,870.739749 1040.28046,843.921372 C1039.61678,833.158323 1029.87175,826.790207 1022.90916,817.920452 C1013.92488,806.475213 1010.57856,793.801248 997.386209,793.030108 C975.350074,791.742016 958.826852,812.438401 960.480559,839.256779 C962.134267,866.075156 981.338679,888.859951 1003.37481,890.148043 Z" id="Oval" fill="#000000" transform="translate(1000.380512, 841.589075) rotate(-33.000000) translate(-1000.380512, -841.589075) "></path>
                <path d="M1369.38254,938.329838 C1384.17271,937.412447 1397.36202,918.018267 1398.84168,895.011724 C1400.32135,872.005181 1389.53105,854.098386 1374.74087,855.015777 C1367.16429,855.48573 1363.53401,864.040779 1358.15657,872.209927 C1353.03676,879.987685 1346.00341,887.112948 1345.28173,898.333891 C1343.80207,921.340434 1354.59237,939.247229 1369.38254,938.329838 Z" id="Oval" fill="#000000" transform="translate(1372.061707, 896.672807) rotate(37.000000) translate(-1372.061707, -896.672807) "></path>
                <path d="M1476,1024.63381 C1377.37481,984.484375 1261.62886,959.232496 1128.76215,948.878169 C1039.64215,941.933031 760.726206,936.199401 693.448873,962.03239 C646.847277,979.926359 584.030986,1027.26043 505,1104.03459 C821.733967,1155.06663 1023.56597,1193.73687 1110.496,1220.04531 C1197.42603,1246.35376 1268.86298,1280.00532 1324.80685,1321 C1343.71398,1286.65102 1356.13255,1262.61419 1362.06258,1248.88951 C1387.80436,1189.31177 1402.97864,1138.48054 1420.83982,1104.03459 C1444.87292,1057.68588 1463.25964,1031.21895 1476,1024.63381 Z" id="Path-111" stroke="#000000" stroke-width="7" fill="#FFFFFF"></path>
                <path d="M1316.87256,1294.78347 C1341.28769,1307.14433 1352.50056,1323.78396 1346.89413,1330.28134 C1343.1565,1334.61292 1326.33719,1330.75676 1296.4362,1318.71284 C1208.14706,1271.26172 1108.07518,1233.59806 996.220564,1205.72184 C828.438633,1163.90753 495.800887,1133.29985 481.875222,1115.70939 C467.949557,1098.11892 623.844664,966.586632 690.217639,944.400463 C756.590614,922.214293 1005.23954,918.08856 1164.05196,932.198069 C1322.86437,946.307578 1482.71458,1010.00814 1496.45939,1016.0301 C1510.2042,1022.05206 1496.45939,1051.21102 1476.20387,1045.34753 C1455.94836,1039.48405 1298.00195,979.224258 1156.63699,965.318851 C1015.27203,951.413443 756.590614,955.335075 704.50501,969.43914 C652.419406,983.543204 528.896948,1088.29362 540.290674,1099.54518 C551.6844,1110.79673 888.848616,1150.55931 1010.50793,1180.84164 C1213.75171,1231.43124 1306.69061,1289.62856 1316.87256,1294.78347 Z" id="Path-112" stroke="#000000" stroke-width="9" fill="#5F6985"></path>
                <path d="M1090.57509,836.561994 C1086.46606,838.856449 1058.24721,832.37582 1008.00315,811.439974 C987.589215,802.933834 940.485759,783.552227 936.379971,777.329341 C932.274184,771.106455 962.61139,749.672071 971.051064,752.207321 C979.490738,754.74257 1003.54704,778.922335 1016.67092,788.853203 C1063.26054,824.107663 1095.0836,834.044475 1090.57509,836.561994 Z" id="Path-113" fill="#000000"></path>
                <path d="M1443.62992,895.592912 C1440.05108,897.725406 1415.47338,891.702233 1371.71242,872.244211 C1353.93254,864.338505 1312.90695,846.325011 1309.33094,840.541387 C1305.75493,834.757764 1332.17766,814.836395 1339.52835,817.192686 C1346.87903,819.548977 1367.83129,842.021935 1379.26177,851.251801 C1419.83983,884.01771 1447.55669,893.253101 1443.62992,895.592912 Z" id="Path-113" fill="#000000" transform="translate(1376.500000, 856.500000) scale(-1, 1) translate(-1376.500000, -856.500000) "></path>
                <path d="M1290.67556,415.057276 C1297.4386,413.769751 1347.10893,434.522004 1348.67852,443.774975 C1353.41291,471.684941 1305.85503,584.449869 1206.00489,782.069759 C1165.45447,785.976747 1131.59988,785.976747 1104.44111,782.069759 C1077.28234,778.162771 1042.80197,762.751873 1001,735.837066 C1166.89239,527.166809 1263.4509,420.240213 1290.67556,415.057276 Z" id="Triangle" stroke="#000000" stroke-width="15" fill="#D39C1A"></path>
                <path d="M1054,674 C1089.72708,682.799132 1119.75922,687.714063 1144.09641,688.744793 C1168.4336,689.775524 1205.06813,687.684064 1254,682.470413" id="Path-114" stroke="#000000" stroke-width="7"></path>
                <path d="M1096,617 C1129.58346,625.799132 1157.81366,630.714063 1180.69062,631.744793 C1203.56758,632.775524 1238.00404,630.684064 1284,625.470413" id="Path-114" stroke="#000000" stroke-width="7"></path>
                <path d="M1149,551 C1177.7603,559.212523 1201.93617,563.799792 1221.52761,564.761807 C1241.11905,565.723822 1270.60984,563.771793 1310,558.905719" id="Path-114" stroke="#000000" stroke-width="7"></path>
                <path d="M1211,480 C1233.6867,488.212523 1252.7571,492.799792 1268.21122,493.761807 C1283.66533,494.723822 1306.92826,492.771793 1338,487.905719" id="Path-114" stroke="#000000" stroke-width="7"></path>
                <path d="M1440,214 C1457.149,222.212523 1471.56442,226.799792 1483.24628,227.761807 C1494.92813,228.723822 1512.5127,226.771793 1536,221.905719" id="Path-114" stroke="#000000" stroke-width="7"></path>
                <path d="M1469,176 C1484.00537,184.212523 1496.61887,188.799792 1506.84049,189.761807 C1517.06211,190.723822 1532.44861,188.771793 1553,183.905719" id="Path-114" stroke="#000000" stroke-width="7"></path>
                <path d="M1499,142 C1511.68311,150.212523 1522.34452,154.799792 1530.98422,155.761807 C1539.62393,156.723822 1552.62919,154.771793 1570,149.905719" id="Path-114" stroke="#000000" stroke-width="7"></path>
                <path d="M1532,104 C1542.36085,112.212523 1551.07017,116.799792 1558.12796,117.761807 C1565.18574,118.723822 1575.80976,116.771793 1590,111.905719" id="Path-114" stroke="#000000" stroke-width="7"></path>
                <path d="M1333.70515,513 L1389.74043,474.371024 C1417.13482,469.908087 1442.32057,463.681012 1465.29767,455.689798 C1499.76334,443.702978 1512.65652,431.309215 1520.60992,408.195156 C1528.56331,385.081097 1544.3355,377.96536 1530.55166,331.253835 C1516.76782,284.54231 1486.62723,263.178181 1467.10526,250.354628 C1454.472,242.056112 1408.47236,227.218216 1358.64989,228.032146 C1331.48256,228.475968 1306.71489,251.956085 1296.64957,259.061979 C1266.82434,280.117937 1288.69617,298.957479 1254.89425,320.013437 C1221.09233,341.069395 1222.52792,348.424611 1210.78906,362.283668 C1192.34277,384.061626 1193.20392,414.6568 1192.53241,431.467531 C1192.17135,440.506524 1187.04433,457.104153 1189.82103,469.938191 C1191.69692,478.608669 1201.62662,484.836799 1202.11263,488.619417 C1231.03152,459.145468 1253.38537,438.247826 1269.17421,425.926489 C1284.96304,413.605152 1294.12149,409.911125 1296.64957,414.844406 L1327.37859,425.926489 L1349.25042,443.816138 C1351.90253,444.572705 1351.90253,450.852552 1349.25042,462.655679 C1346.59832,474.458806 1341.41656,491.240246 1333.70515,513 Z" id="Path-262" stroke="#000000" stroke-width="12" fill="#FFFFFF"></path>
                <ellipse id="Oval" fill="#000000" transform="translate(1428.218517, 418.429922) rotate(-35.000000) translate(-1428.218517, -418.429922) " cx="1428.21852" cy="418.429922" rx="43.0555367" ry="22.7119961"></ellipse>
                <path d="M1375,389 C1387.03054,389 1401.73937,386.962669 1410.63481,381.546642 C1423.38256,373.785121 1428,360.32497 1428,346.5 C1428,334.58703 1417.94954,326.62343 1408.10239,318.906716 C1398.54772,311.419203 1389.41492,304 1375,304 C1345.72891,304 1322,323.027898 1322,346.5 C1322,369.972102 1345.72891,389 1375,389 Z" id="Oval" fill="#000000"></path>
                <path d="M1395,409.64 L1369.28707,445 L1348.78864,430.44 L1338,405.32 L1383.67192,397 C1383.67192,397 1387.44795,401.213333 1395,409.64 Z" id="Path-263" fill="#000000"></path>
                <path d="M1189,368.059459 L1261.68428,362 C1268.92694,374.480731 1276.03867,384.314064 1283.01947,391.5 C1290.00027,398.685936 1301.99378,408.519269 1319,421" id="Path-264" stroke="#000000" stroke-width="12"></path>
                <path d="M1217.24871,472 C1214.95639,449.961983 1214.41665,432.723964 1215.6295,420.285942 C1216.84235,407.847921 1220.08078,397.410221 1225.3448,388.972843 C1234.75268,383.430689 1241.88923,379.740593 1246.75445,377.902556 C1251.61967,376.064519 1258.5763,374.430334 1267.62436,373 L1318,420.444089 L1288.31435,412.378594 C1282.79718,415.959393 1274.82103,422.127124 1264.38592,430.881789 C1253.95081,439.636454 1238.23841,453.342524 1217.24871,472 Z" id="Path-265" fill="#000000"></path>
                <rect id="Rectangle" stroke="#979797" fill="#D8D8D8" x="1226.5" y="395.5" width="16" height="12" rx="6"></rect>
                <path d="M1265.03739,380.239204 C1264.83222,380.227428 1264.62653,380.227777 1264.4214,380.240249 C1261.54324,380.415233 1259.35189,382.890288 1259.52688,385.768439 C1259.7344,389.181782 1262.46224,391.900386 1265.87627,392.096329 L1268.73115,392.260181 C1268.93633,392.271957 1269.14202,392.271608 1269.34715,392.259137 C1272.2253,392.084153 1274.41665,389.609098 1274.24167,386.730946 C1274.03414,383.317603 1271.3063,380.598999 1267.89228,380.403056 L1265.03739,380.239204 Z" id="Rectangle" stroke="#979797" fill="#D8D8D8" transform="translate(1266.884273, 386.249693) rotate(-32.000000) translate(-1266.884273, -386.249693) "></path>
                <path d="M1275.81132,392.331705 C1275.60615,392.319929 1275.40046,392.320278 1275.19533,392.332749 C1272.31718,392.507733 1270.12583,394.982788 1270.30081,397.86094 C1270.50833,401.274283 1273.23617,403.992887 1276.6502,404.18883 L1279.50509,404.352682 C1279.71026,404.364458 1279.91595,404.364109 1280.12108,404.351637 C1282.99923,404.176653 1285.19058,401.701598 1285.0156,398.823447 C1284.80808,395.410104 1282.08024,392.6915 1278.66621,392.495557 L1275.81132,392.331705 Z" id="Rectangle" stroke="#979797" fill="#D8D8D8" transform="translate(1277.658205, 398.342193) rotate(-32.000000) translate(-1277.658205, -398.342193) "></path>
                <path d="M1287.55631,403.464905 C1287.39726,403.455776 1287.2378,403.456047 1287.07878,403.465715 C1284.84756,403.601367 1283.14876,405.520097 1283.28442,407.751318 C1283.44621,410.412612 1285.57304,412.532236 1288.23487,412.685008 L1291.63225,412.879996 C1291.7913,412.889125 1291.95076,412.888854 1292.10978,412.879186 C1294.341,412.743534 1296.0398,410.824804 1295.90414,408.593583 C1295.74234,405.932288 1293.61552,403.812664 1290.95369,403.659892 L1287.55631,403.464905 Z" id="Rectangle" stroke="#979797" fill="#D8D8D8" transform="translate(1289.594280, 408.172450) rotate(-32.000000) translate(-1289.594280, -408.172450) "></path>
                <rect id="Rectangle" stroke="#979797" fill="#D8D8D8" x="1221.5" y="447.5" width="16" height="12" rx="6"></rect>
                <rect id="Rectangle" stroke="#979797" fill="#D8D8D8" x="1221.5" y="429.5" width="16" height="12" rx="6"></rect>
                <rect id="Rectangle" stroke="#979797" fill="#D8D8D8" x="1221.5" y="413.5" width="16" height="12" rx="6"></rect>
                <polygon id="Path-266" fill="#000000" points="1441.70569 242 1436.46823 260.909091 1422.20067 271.151515 1408.47492 268.630303 1398 271.151515 1408.47492 275.090909 1428.16054 278.084848 1436.46823 275.090909 1436.46823 294 1444.59532 289.115152 1444.59532 271.151515 1444.59532 254.606061 1452 245.466667"></polygon>
                <path d="M1516.95226,332.81016 L1510.88436,353.935662 L1497.09825,366.041699 L1490.03883,369.898693 L1480.24971,373.282538 L1489.60931,377.012771 L1502.11161,373.330605 L1509.94151,369.551931 L1517.75136,376.627375 C1520.16968,385.375178 1521.7308,389.779936 1522.43472,389.841649 C1523.13865,389.903361 1523.64218,385.679609 1523.9453,377.170391 L1517.66837,364.74265 L1518.76837,346.523669 L1526.1774,336.030326 L1516.95226,332.81016 Z" id="Path-266" fill="#000000" transform="translate(1503.213556, 361.326237) rotate(55.000000) translate(-1503.213556, -361.326237) "></path>
                <path d="M1280,419.619672 C1280,420.144262 1303,434.937705 1349,464 L1349,445.586885 L1305.19048,416 C1288.39683,417.888525 1280,419.095082 1280,419.619672 Z" id="Path-267" fill="#000000"></path>
                <g id="Teeth" transform="translate(579.000000, 957.000000)" stroke="#000000">
                    <path d="M0,95.2941176 C66.7894856,97.565084 112.316499,99.1717184 136.58104,100.114021 C154.141707,100.795981 172.743002,102.365818 192.384924,104.823529 C206.032784,103.910344 214.756019,103.551403 218.554628,103.746706 C235.72489,104.629507 260.958485,104.988448 294.255413,104.823529 C293.910139,106.999078 294.080603,108.109172 294.766805,108.153809 C327.715418,110.297114 356.23118,109.301277 383.433841,111.768694 C384.067575,111.826177 383.789241,112.79527 382.598837,114.675972 C413.144867,117.76964 434.298302,120.030857 446.059142,121.459621 C457.961569,122.905586 478.447001,124.520741 507.515437,126.305085 L591.51684,142.133599 L609.886929,144.717846 L607.548917,150.209372 L675.184242,164.907278 L750.334603,175.082752 L769.372694,180.735793 L793.253809,184.127617 L820.307939,194.949153" id="Path-268" stroke-width="15"></path>
                    <path d="M135.938653,11.7906281 L103.039495,97.555334" id="Path-269" stroke-width="11"></path>
                    <path d="M46.5932237,97.555334 L33.0661588,153.11665" id="Path-270" stroke-width="11"></path>
                    <path d="M135.938653,101.754736 L119.405573,167.33001" id="Path-271" stroke-width="11"></path>
                    <path d="M232.632117,3.71485543 L192.384924,104.823529" id="Path-272" stroke-width="11"></path>
                    <path d="M217.602045,104.823529 L202.404972,179.443669" id="Path-273" stroke-width="11"></path>
                    <path d="M324.649559,0.161515454 L294.255413,105.792622" id="Path-274" stroke-width="11"></path>
                    <path d="M314.128508,110.638086 L299.265437,195.110668" id="Path-275" stroke-width="11"></path>
                    <path d="M417.001002,0.161515454 L382.598837,114.675972" id="Path-276" stroke-width="11"></path>
                    <path d="M411.489976,117.421735 L392.785886,212.392822" id="Path-277" stroke-width="11"></path>
                    <path d="M516.53348,3.71485543 L481.964314,126.305085" id="Path-278" stroke-width="11"></path>
                    <path d="M507.515437,125.335992 L481.964314,231.774676" id="Path-279" stroke-width="11"></path>
                    <path d="M626.086006,11.7906281 L591.51684,142.133599" id="Path-280" stroke-width="11"></path>
                    <path d="M606.04591,151.663011 L574.649759,260.847458" id="Path-281" stroke-width="11"></path>
                    <path d="M729.125501,34.2412762 L675.184242,164.907278" id="Path-282" stroke-width="11"></path>
                    <path d="M712.926423,167.33001 L660.321171,294.604187" id="Path-283" stroke-width="11"></path>
                    <path d="M788.243785,52.6540379 L750.334603,175.082752" id="Path-284" stroke-width="11"></path>
                    <path d="M833,68.3210369 C806.502539,145.525424 793.253809,184.127617 793.253809,184.127617" id="Path-285" stroke-width="11"></path>
                    <path d="M769.372694,180.735793 L721.109463,324" id="Path-286" stroke-width="11"></path>
                </g>
                <g id="Teeth" transform="translate(579.000000, 957.000000)" stroke="#000000">
                    <path d="M0,95.2941176 C66.7894856,97.565084 112.316499,99.1717184 136.58104,100.114021 C154.141707,100.795981 172.743002,102.365818 192.384924,104.823529 C206.032784,103.910344 214.756019,103.551403 218.554628,103.746706 C235.72489,104.629507 260.958485,104.988448 294.255413,104.823529 C293.910139,106.999078 294.080603,108.109172 294.766805,108.153809 C327.715418,110.297114 356.23118,109.301277 383.433841,111.768694 C384.067575,111.826177 383.789241,112.79527 382.598837,114.675972 C413.144867,117.76964 434.298302,120.030857 446.059142,121.459621 C457.961569,122.905586 478.447001,124.520741 507.515437,126.305085 L591.51684,142.133599 L609.886929,144.717846 L607.548917,150.209372 L675.184242,164.907278 L750.334603,175.082752 L769.372694,180.735793 L793.253809,184.127617 L820.307939,194.949153" id="Path-268" stroke-width="15"></path>
                    <path d="M135.938653,11.7906281 L103.039495,97.555334" id="Path-269" stroke-width="11"></path>
                    <path d="M46.5932237,97.555334 L33.0661588,153.11665" id="Path-270" stroke-width="11"></path>
                    <path d="M135.938653,101.754736 L119.405573,167.33001" id="Path-271" stroke-width="11"></path>
                    <path d="M232.632117,3.71485543 L192.384924,104.823529" id="Path-272" stroke-width="11"></path>
                    <path d="M217.602045,104.823529 L202.404972,179.443669" id="Path-273" stroke-width="11"></path>
                    <path d="M324.649559,0.161515454 L294.255413,105.792622" id="Path-274" stroke-width="11"></path>
                    <path d="M314.128508,110.638086 L299.265437,195.110668" id="Path-275" stroke-width="11"></path>
                    <path d="M417.001002,0.161515454 L382.598837,114.675972" id="Path-276" stroke-width="11"></path>
                    <path d="M411.489976,117.421735 L392.785886,212.392822" id="Path-277" stroke-width="11"></path>
                    <path d="M516.53348,3.71485543 L481.964314,126.305085" id="Path-278" stroke-width="11"></path>
                    <path d="M507.515437,125.335992 L481.964314,231.774676" id="Path-279" stroke-width="11"></path>
                    <path d="M626.086006,11.7906281 L591.51684,142.133599" id="Path-280" stroke-width="11"></path>
                    <path d="M606.04591,151.663011 L574.649759,260.847458" id="Path-281" stroke-width="11"></path>
                    <path d="M729.125501,34.2412762 L675.184242,164.907278" id="Path-282" stroke-width="11"></path>
                    <path d="M712.926423,167.33001 L660.321171,294.604187" id="Path-283" stroke-width="11"></path>
                    <path d="M788.243785,52.6540379 L750.334603,175.082752" id="Path-284" stroke-width="11"></path>
                    <path d="M833,68.3210369 C806.502539,145.525424 793.253809,184.127617 793.253809,184.127617" id="Path-285" stroke-width="11"></path>
                    <path d="M769.372694,180.735793 L721.109463,324" id="Path-286" stroke-width="11"></path>
                </g>
                <path d="M494.613381,1123 C646.614739,1209.66979 725.1191,1272.89347 730.126466,1312.67102 C733.838023,1342.15492 520.584985,1525.46533 390.960917,1686.19195 C360.790667,1723.60138 351.33231,1769.57733 362.585847,1824.11981 L381.113099,1852.74025 C479.643978,1935.37976 583.018254,1983.13439 691.235928,1996.00412 C799.453601,2008.87385 944.444648,1990.65595 1126.20907,1941.35041 C892.450591,1945.20274 726.706797,1939.16604 628.977685,1923.2403 C531.248573,1907.31456 458.697412,1872.22623 411.324203,1817.97531 C421.018706,1748.57269 491.56692,1678.88112 622.968846,1608.90061 C675.854553,1580.73535 717.047434,1546.96432 803.067088,1511.55879 C859.354387,1488.39104 1092.17928,1492.60246 1220.34754,1436.04611 C1262.8545,1417.28922 1297.40533,1382.57818 1324,1331.91301 C1233.5273,1280.16737 1134.15892,1240.65931 1025.89485,1213.38883 C917.630779,1186.11835 740.536956,1155.98874 494.613381,1123 Z" id="Path-287" stroke="#000000" stroke-width="13" fill="url(#linearGradient-2)"></path>
                <path d="M688.179776,1252 C757.171239,1310.61441 793.394544,1345.64273 796.84969,1357.08495 C802.032409,1374.24829 789.01403,1382.2749 771.604833,1401.45056 C759.998702,1414.23433 738.376175,1432.5311 706.737254,1456.34085 C656.775038,1478.81146 619.548626,1491.71095 595.05802,1495.03932 C558.32211,1500.03186 480.369465,1495.03932 462.815094,1485.1623 C445.260724,1475.28529 514.964078,1463.76104 529.521703,1445.49233 C544.079327,1427.22361 516.648498,1410.03223 541.057432,1410.03223 C565.466366,1410.03223 595.893942,1401.45056 604.420351,1401.45056 C612.946759,1401.45056 602.292335,1365.68933 604.420351,1360.80907 C605.454294,1358.43789 611.709252,1350.35612 628.99647,1350.12247 C633.284898,1350.06451 641.811307,1352.38534 654.575695,1357.08495" id="Path-288" stroke="#000000" stroke-width="12" fill="url(#radialGradient-3)"></path>
                <path d="M654.808845,1152 C823.358784,1297.87913 858.760951,1397.01872 761.015345,1449.41876 C707.486119,1478.11502 633.504074,1505.8545 579.495744,1541.44229 C485.573386,1603.33069 421.018007,1672.35551 406.492702,1692.17328 C383.614887,1723.38688 369.921596,1774.4931 376.768241,1801.17831 C379.810702,1813.03648 486.871372,1940.42514 698.894562,1978.91796 C769.603301,1991.75513 901.971781,1980.27241 1096,1944.46978" id="Path-289" stroke="#000000" stroke-width="6"></path>
                <path d="M840.826234,1177 C866.859282,1292.76851 864.689861,1367.96949 834.317972,1402.60294 C788.760139,1454.55312 526.927757,1563.95598 442.487231,1671.74046 C386.193547,1743.59677 367.336275,1789.12735 385.915416,1808.33219 C486.024668,1897.66918 583.092335,1951.1838 677.118416,1968.87604 C771.144497,1986.56828 915.105025,1978.5303 1109,1944.76209" id="Path-290" stroke="#000000" stroke-width="6"></path>
                <path d="M978.525428,1204 C931.919422,1332.43467 886.03642,1408.99941 840.876423,1433.69424 C773.136428,1470.73648 506.848172,1545.46799 386.050742,1776.29452 C352.315319,1840.75807 607.740381,1947.99414 689.879636,1959.40289 C767.519237,1970.18666 907.226025,1965.38788 1109,1945.00656" id="Path-291" stroke="#000000" stroke-width="6"></path>
                <path d="M1291,1310 C1263.92987,1352.85895 1233.98577,1383.62766 1201.16771,1402.30612 C1151.94062,1430.3238 1146.43193,1423.16396 1065.08349,1438.5808 C983.73504,1453.99764 944.79528,1442.10703 793.08201,1496.71746 C641.368739,1551.32789 632.13434,1566.95742 555.81123,1621.89751 C504.929157,1658.52423 448.658747,1712.5584 387,1784" id="Path-292" stroke="#000000" stroke-width="6"></path>
                <path d="M1143,1251 C1108.32189,1306.40526 1073.45022,1344.17631 1038.38499,1364.31316 C859.16156,1467.23548 659.941488,1532.7821 570.20361,1596.11952 C454.12978,1678.04498 392.395243,1741.33847 385,1786" id="Path-293" stroke="#000000" stroke-width="6"></path>
                <path d="M1139,1941.45029 C1147.84386,1900.80272 1179.97811,1865.81981 1235.40277,1836.50157 C1290.82743,1807.18333 1360.52462,1768.68281 1444.49435,1721 C1441.58495,1782.86707 1425.08003,1825.73563 1394.97957,1849.60567 C1364.87911,1873.4757 1328.41067,1896.20493 1285.57424,1917.79334 C1288.25483,1917.70387 1290.25514,1917.64205 1291.5752,1917.60789 C1350.46924,1916.08382 1391.46054,1923.91532 1414.54907,1941.10239 C1438.41387,1958.86732 1466.56418,1989.71412 1499,2033.64281 C1392.32168,2046.11906 1313.38699,2046.11906 1262.19591,2033.64281 C1211.00484,2021.16656 1169.93954,1990.43572 1139,1941.45029 Z" id="Path-294" stroke="#000000" stroke-width="15" fill="#005D91"></path>
                <path d="M1443,1724 C1316.52799,1802.69349 1241.05635,1850.93368 1216.58507,1868.72057 C1192.11379,1886.50745 1166.2521,1910.6006 1139,1941" id="Path-295" stroke="#000000" stroke-width="6"></path>
                <path d="M1139,1941 C1170.08667,1922.34071 1207.29413,1897.54687 1250.62239,1866.61848 C1293.95065,1835.69008 1358.07652,1788.15059 1443,1724" id="Path-296" stroke="#000000" stroke-width="6"></path>
                <path d="M1143,1941 C1218.51084,1910.43043 1273.94209,1882.40261 1309.29373,1856.91654 C1344.64537,1831.43048 1389.54746,1787.12496 1444,1724" id="Path-297" stroke="#000000" stroke-width="6"></path>
                <path d="M1143,1941 C1232.00285,1921.01276 1294.34211,1898.1593 1330.01777,1872.43964 C1365.69343,1846.71998 1403.6875,1797.2401 1444,1724" id="Path-298" stroke="#000000" stroke-width="6"></path>
                <path d="M1143,1943 C1178.22692,1980.25565 1218.0058,2004.56692 1262.33666,2015.93381 C1306.66752,2027.3007 1383.88863,2032.98943 1494,2033" id="Path-299" stroke="#000000" stroke-width="7"></path>
                <path d="M1143,1941 C1187.90786,1967.95156 1233.5251,1987.48138 1279.85171,1999.58947 C1326.17832,2011.69757 1397.89442,2022.83441 1495,2033" id="Path-300" stroke="#000000" stroke-width="7"></path>
                <path d="M1143,1941 C1198.02784,1954.03118 1248.09917,1966.45925 1293.21398,1978.28421 C1338.32879,1990.10918 1405.25746,2008.34777 1494,2033" id="Path-301" stroke="#000000" stroke-width="7"></path>
                <path d="M1143,1940.51636 C1236.61209,1930.76746 1306.43377,1931.9573 1352.46505,1944.08591 C1398.49633,1956.21451 1445.67464,1985.85254 1494,2033" id="Path-302" stroke="#000000" stroke-width="7"></path>
                <path d="M981.340427,1496.23965 C988.002047,1557.55011 982.149296,1600.40844 963.782174,1624.81464 C945.415053,1649.22084 899.150452,1675.61596 824.988371,1704 C835.441533,1674.26348 838.50726,1653.69796 834.185551,1642.30343 C822.938916,1612.6508 783.06225,1593.43583 780.841908,1573.80567 C777.34176,1542.86069 784.755245,1521.70141 803.082361,1510.32784 C838.020606,1502.58858 865.946588,1497.89251 886.860307,1496.23965 C907.774027,1494.58678 939.2674,1494.58678 981.340427,1496.23965 Z" id="Path-303" stroke="#000000" stroke-width="15" fill="#0066BA"></path>
                <path d="M954.334548,1497 C962.802747,1549.32937 959.74306,1587.46122 945.155488,1611.39555 C930.567915,1635.32989 892.182752,1665.19804 830,1701" id="Path-304" stroke="#000000" stroke-width="7"></path>
                <path d="M923.077847,1497 C933.640718,1532.39727 933.640718,1561.67129 923.077847,1584.82208 C912.514977,1607.97287 881.489028,1646.69884 830,1701" id="Path-305" stroke="#000000" stroke-width="7"></path>
                <path d="M882.136185,1501 C893.190973,1534.47698 895.808922,1562.37641 889.990033,1584.6983 C884.171145,1607.02018 864.174467,1645.78741 830,1701" id="Path-306" stroke="#000000" stroke-width="7"></path>
                <path d="M830.692768,1508 C814.230923,1517.15516 806,1537.32042 806,1568.49576 C806,1584.68734 844.980436,1599.52955 847.710756,1623.31392 C849.395193,1637.98738 843.72253,1663.88274 830.692768,1701" id="Path-307" stroke="#000000" stroke-width="7"></path>
                <path d="M847.370746,1505 C846.052127,1509.22194 843.992134,1527.05666 841.190769,1558.50413 C839.796598,1574.15478 866.762829,1580.67491 864.908519,1604.11157 C863.660767,1619.88195 852.024593,1651.84476 830,1700" id="Path-308" stroke="#000000" stroke-width="7"></path>
                <path d="M739,1136.3807 C737.813057,1113.48663 728.831855,1099.79739 712.056395,1095.31299 C686.893204,1088.58638 659.118739,1108.76621 654.72705,1131.66028 C650.335361,1154.55435 666.477785,1181.6968 685.94365,1186.41723 C693.527624,1188.25633 705.118892,1187.36661 715,1180.5 C719.684569,1177.24459 726.339367,1169.6188 734.964394,1157.62263 L716.5,1155.5 C709.261616,1169.05484 700.261616,1174.88817 689.5,1173 C673.357576,1170.16774 664.01484,1153.53386 669,1133 C673.98516,1112.46614 691.756685,1107.60565 706,1111.5 C715.495544,1114.09623 720.16221,1121.2629 720,1133 L739,1136.3807 Z" id="Path-309" stroke="#000000" stroke-width="4" fill="#BB9602"></path>
                <path d="M782,1142.3807 C780.813057,1119.48663 771.831855,1105.79739 755.056395,1101.31299 C729.893204,1094.58638 702.118739,1114.76621 697.72705,1137.66028 C693.335361,1160.55435 709.477785,1187.6968 728.94365,1192.41723 C736.527624,1194.25633 748.118892,1193.36661 758,1186.5 C762.684569,1183.24459 769.339367,1175.6188 777.964394,1163.62263 L759.5,1161.5 C752.261616,1175.05484 743.261616,1180.88817 732.5,1179 C716.357576,1176.16774 707.01484,1159.53386 712,1139 C716.98516,1118.46614 734.756685,1113.60565 749,1117.5 C758.495544,1120.09623 763.16221,1127.2629 763,1139 L782,1142.3807 Z" id="Path-309" stroke="#000000" stroke-width="4" fill="#BB9602"></path>
                <path d="M821,1147.3807 C822.77546,1128.61131 815.27546,1116.98441 798.5,1112.5 C773.336809,1105.77339 754.891689,1117.60593 750.5,1140.5 C746.108311,1163.39407 758.034136,1188.27957 777.5,1193 C785.083974,1194.8391 792.118892,1193.86661 802,1187 C806.684569,1183.74459 811.6727,1177.6188 816.964394,1168.62263 L798.5,1166.5 C796.928283,1179.7215 790.761616,1185.38817 780,1183.5 C763.857576,1180.66774 754.51484,1164.03386 759.5,1143.5 C764.48516,1122.96614 782.256685,1118.10565 796.5,1122 C805.995544,1124.59623 807.828877,1131.92957 802,1144 L821,1147.3807 Z" id="Path-309" stroke="#000000" stroke-width="4" fill="#BB9602"></path>
                <path d="M533.5,863 C559.942171,867.228969 577.608838,870.728969 586.5,873.5 C625.901726,885.779994 635.706732,896 624.5,896 C615.439621,896 598.734788,889.027076 564.5,890 C549.53803,890.425207 520.03803,893.75854 476,900 L533.5,863 Z" id="Triangle" stroke="#000000" stroke-width="6" fill="#32356E"></path>
                <path d="M430.161613,934.797721 C459.228055,939.483875 478.648061,943.362254 488.421632,946.432856 C531.733808,960.040416 542.511918,971.365288 530.192967,971.365288 C520.233385,971.365288 501.87067,963.638535 464.238228,964.71664 C447.791348,965.187815 415.363601,968.881508 366.954989,975.797721 L430.161613,934.797721 Z" id="Triangle" stroke="#000000" stroke-width="6" fill="#32356E" transform="translate(450.954989, 955.297721) rotate(-3.000000) translate(-450.954989, -955.297721) "></path>
                <path d="M346.174762,999.763238 C375.241204,1004.44939 394.66121,1008.32777 404.434781,1011.39837 C447.746957,1025.00593 458.525067,1036.33081 446.206115,1036.33081 C436.246533,1036.33081 417.883819,1028.60405 380.251377,1029.68216 C363.804497,1030.15333 331.37675,1033.84703 282.968137,1040.76324 L346.174762,999.763238 Z" id="Triangle" stroke="#000000" stroke-width="6" fill="#32356E" transform="translate(366.968137, 1020.263238) rotate(-10.000000) translate(-366.968137, -1020.263238) "></path>
                <path d="M279.206624,1069 C315.25996,1079.38698 338.173413,1086.11577 347.946984,1089.18637 C391.25916,1102.79394 402.03727,1114.11881 389.718319,1114.11881 C379.758737,1114.11881 361.396022,1106.39205 323.76358,1107.47016 C307.3167,1107.94133 271.395507,1108.78461 216,1110 L279.206624,1069 Z" id="Triangle" stroke="#000000" stroke-width="6" fill="#32356E" transform="translate(305.240170, 1091.559404) rotate(-16.000000) translate(-305.240170, -1091.559404) "></path>
                <path d="M210.058948,1160.52438 C259.388675,1165.38545 288.940323,1169.35128 298.713894,1172.42188 C342.02607,1186.02944 376.179771,1204.62636 363.86082,1204.62636 C353.901238,1204.62636 288.792897,1199.32003 251.160455,1200.39813 C234.713575,1200.86931 206.621586,1202.6969 166.884486,1205.88092 L210.058948,1160.52438 Z" id="Triangle" stroke="#000000" stroke-width="6" fill="#32356E" transform="translate(266.644545, 1183.202648) rotate(-16.000000) translate(-266.644545, -1183.202648) "></path>
                <path d="M165.039528,1255.55184 C214.369254,1260.4129 243.920903,1264.37874 253.694474,1267.44934 C297.00665,1281.0569 331.160351,1299.65381 318.841399,1299.65381 C308.881817,1299.65381 243.773477,1294.34748 206.141035,1295.42559 C189.694155,1295.89676 161.602165,1297.72436 121.865066,1300.90838 L165.039528,1255.55184 Z" id="Triangle" stroke="#000000" stroke-width="6" fill="#32356E" transform="translate(221.625124, 1278.230107) rotate(-25.000000) translate(-221.625124, -1278.230107) "></path>
                <path d="M139.442736,1354.32395 C188.772462,1359.18502 218.324111,1363.15086 228.097682,1366.22146 C271.409858,1379.82902 305.563559,1398.42593 293.244607,1398.42593 C283.285025,1398.42593 218.176685,1393.1196 180.544243,1394.19771 C164.097363,1394.66888 136.005373,1396.49648 96.2682736,1399.68049 L139.442736,1354.32395 Z" id="Triangle" stroke="#000000" stroke-width="6" fill="#32356E" transform="translate(196.028332, 1377.002224) rotate(-33.000000) translate(-196.028332, -1377.002224) "></path>
                <path d="M131.046047,1455.45985 C163.922636,1455.45056 185.247717,1456.98121 195.021288,1460.05181 C238.333464,1473.65937 264.648442,1494.43233 252.329491,1494.43233 C242.369909,1494.43233 205.978044,1490.76455 168.345602,1491.84266 C151.898722,1492.31383 126.08626,1496.11005 90.9082157,1503.2313 L131.046047,1455.45985 Z" id="Triangle" stroke="#000000" stroke-width="6" fill="#32356E" transform="translate(173.138948, 1479.345578) rotate(-40.000000) translate(-173.138948, -1479.345578) "></path>
            </g>
        </g>
    </g>
</svg>