<?xml version="1.0" encoding="UTF-8"?>
<svg width="2101px" height="1455px" viewBox="0 0 2101 1455" version="1.1" xmlns="http://www.w3.org/2000/svg" xmlns:xlink="http://www.w3.org/1999/xlink">
    <!-- Generator: Sketch 56.3 (81716) - https://sketch.com -->
    <title>Whale</title>
    <desc>Created with Sketch.</desc>
    <defs>
        <radialGradient cx="5.0861578%" cy="88.3796419%" fx="5.0861578%" fy="88.3796419%" r="176.846598%" gradientTransform="translate(0.050862,0.883796),scale(0.555174,1.000000),rotate(-17.902963),translate(-0.050862,-0.883796)" id="radialGradient-1">
            <stop stop-color="#3863FF" offset="0%"></stop>
            <stop stop-color="#28367B" offset="100%"></stop>
            <stop stop-color="#0026E1" offset="100%"></stop>
        </radialGradient>
        <radialGradient cx="-28.9128241%" cy="109.290028%" fx="-28.9128241%" fy="109.290028%" r="348.005955%" gradientTransform="translate(-0.289128,1.092900),scale(0.617941,1.000000),rotate(-22.135147),translate(0.289128,-1.092900)" id="radialGradient-2">
            <stop stop-color="#3863FF" offset="0%"></stop>
            <stop stop-color="#28367B" offset="100%"></stop>
            <stop stop-color="#0026E1" offset="100%"></stop>
        </radialGradient>
    </defs>
    <g id="Page-1" stroke="none" stroke-width="1" fill="none" fill-rule="evenodd">
        <g id="Artboard" transform="translate(-2273.000000, -645.000000)">
            <g id="Whale" transform="translate(2280.000000, 653.000000)">
                <path d="M1475.4442,1132 C1698.16479,1132 2079,950.988035 2079,676.095288 C2079,401.202542 1921.4521,-51.6341706 1475.4442,4.81701844 C1029.43631,61.2682075 1007.38562,304.364012 875.562662,474.690796 C577.550442,929.480869 326.656721,839.320361 215.013067,789.005171 C103.369413,738.68998 81.8340888,515.953224 139.639433,437.412439 C24.595464,482.20523 20.3874642,801.268247 70.4997077,912.338747 C107.810737,995.036194 183.004182,1035.08124 342.73259,1098.63702 C546.751451,1123.18102 1359.53122,1132 1475.4442,1132 Z" id="Path-28" stroke="#000000" stroke-width="16" fill="url(#radialGradient-1)"></path>
                <path d="M1816.5,530 C1886.27425,530 1942.83745,475.457042 1942.83745,408.174894 C1942.83745,340.892746 1952.81146,350.307969 1816.5,286.349788 C1680.18854,222.391608 1690.16255,340.892746 1690.16255,408.174894 C1690.16255,475.457042 1746.72575,530 1816.5,530 Z" id="Oval" fill="#FFFFFF"></path>
                <path d="M2078.11756,698.563823 C2017.35538,699.9149 1930.81946,726.004764 1818.5098,776.833415 C1706.20013,827.662066 1627.76114,890.235317 1583.19282,964.553167 C922.197549,1010.27369 533.20762,1026.18214 416.223031,1012.27853 C240.746148,991.423107 110.570634,859.559449 78.6823336,785.742149 C64.8414169,753.702213 34.9190483,685.43285 55.4036648,596.74972 C62.7227306,565.063618 84.9002447,516.480378 121.936207,451 C71.4819318,482.921641 38.4554546,526.653279 22.8567757,582.194915 C6.96779065,628.895461 12.5255628,597.288136 1.16122853,711.067797 C-7.93548672,802.144067 38.150834,921.244853 78.6823336,964.553167 C125.531383,1014.61185 212.573362,1060.00397 339.808271,1100.72953 C501.072092,1123.21348 677.180282,1134.45545 868.132841,1134.45545 C1059.0854,1134.45545 1279.22064,1134.45545 1528.53855,1134.45545 C1674.28326,1146.33376 1809.40075,1089.69967 1933.89102,964.553167 C2058.3813,839.406666 2106.45681,750.743551 2078.11756,698.563823 Z" id="Path-29" fill="#74A6D5"></path>
                <path d="M138.796942,450.478916 C256.728131,543.745995 466.055296,407.399339 466,401.03226 C465.944682,394.66518 325.044505,405.374682 207.113317,312.107603 C89.1821283,218.840524 65.1441597,90 65.1441597,90 C65.1441597,90 20.8657541,357.211837 138.796942,450.478916 Z" id="Oval" stroke="#000000" stroke-width="15" fill="#445FE5"></path>
                <path d="M1349.78222,1154.69418 C1506.51682,1153.07746 1593.79505,1115.28932 1611.61692,1041.32977 C1595.65194,961.696219 1509.30216,922.687805 1352.56756,924.304526 C1195.83296,925.921246 1080.68356,1050.41986 1007.11936,1297.80037 C1078.82667,1204.01296 1193.04763,1156.3109 1349.78222,1154.69418 Z" id="Oval" fill="url(#radialGradient-2)" transform="translate(1309.368140, 1111.028318) scale(-1, 1) rotate(-86.000000) translate(-1309.368140, -1111.028318) "></path>
                <path d="M2038,789 C1970.67857,911.819296 1771.82143,1079.30015 1690,1075.95054" id="Path-45" stroke="#555555" stroke-width="4"></path>
                <path d="M1989,789 C1921.67857,911.819296 1722.82143,1079.30015 1641,1075.95054" id="Path-45" stroke="#555555" stroke-width="4"></path>
                <path d="M1941,791 C1873.67857,913.819296 1674.82143,1081.30015 1593,1077.95054" id="Path-45" stroke="#555555" stroke-width="4"></path>
                <path d="M1882,789 C1814.67857,911.819296 1615.82143,1079.30015 1534,1075.95054" id="Path-45" stroke="#555555" stroke-width="4"></path>
                <path d="M121.684198,451 C113.435282,457.748768 63.9417869,485.868637 49.5061841,525.236453 C35.0705812,564.604269 1,582.406529 1,697.135593 C1,811.864657 29.9150088,878.422003 56.7239855,934.661741 C74.2529318,992.026273 253.666853,1087.63383 363.996103,1106.75534 C407.96062,1114.37497 514.261329,1125.22074 721.792831,1131.50082 C814.905919,1134.3185 995.308308,1135.81823 1263,1136" id="Path-7" stroke="#000000" stroke-width="16"></path>
                <path d="M2077.74497,698 L2086,748.769231 C2073.61745,812.700855 2015.83221,893.931624 1912.6443,992.461538 C1836.28523,1048.87179 1826.99832,1090.61538 1631.97315,1138 C1581.06711,1138 1527.4094,1138 1471,1138" id="Path-46" stroke="#000000" stroke-width="15"></path>
                <path d="M1262.5625,1138 C1262.32347,1201.95303 1255.44847,1251.36842 1241.9375,1286.24615 C1228.42653,1321.12389 1196.11403,1369.04184 1145,1430 C1265.3125,1379.08718 1345.0625,1337.53333 1384.25,1305.33846 C1453,1225.97436 1483.9375,1171.69231 1477.0625,1142.49231" id="Path-51" stroke="#000000" stroke-width="13"></path>
            </g>
        </g>
    </g>
</svg>