<?xml version="1.0" encoding="UTF-8"?>
<svg width="2033px" height="1678px" viewBox="0 0 2033 1678" version="1.1" xmlns="http://www.w3.org/2000/svg" xmlns:xlink="http://www.w3.org/1999/xlink">
    <!-- Generator: Sketch 56.3 (81716) - https://sketch.com -->
    <title>Whale</title>
    <desc>Created with Sketch.</desc>
    <defs>
        <radialGradient cx="62.9674333%" cy="55.4085782%" fx="62.9674333%" fy="55.4085782%" r="75.7702765%" gradientTransform="translate(0.629674,0.554086),scale(0.864704,1.000000),rotate(-39.416391),translate(-0.629674,-0.554086)" id="radialGradient-1">
            <stop stop-color="#6F81FF" offset="0%"></stop>
            <stop stop-color="#000BD4" offset="100%"></stop>
        </radialGradient>
        <linearGradient x1="36.7517186%" y1="-20.6212028%" x2="63.8671448%" y2="100%" id="linearGradient-2">
            <stop stop-color="#2A43FF" offset="0%"></stop>
            <stop stop-color="#2687EE" offset="100%"></stop>
        </linearGradient>
    </defs>
    <g id="Page-1" stroke="none" stroke-width="1" fill="none" fill-rule="evenodd">
        <g id="Artboard" transform="translate(-2378.000000, -425.000000)">
            <g id="Whale" transform="translate(2406.000000, 446.000000)">
                <g id="Body" fill="url(#radialGradient-1)" stroke="#000000" stroke-width="40">
                    <path d="M679.304075,1324.32685 C654.341672,1286.52916 541.148775,1095.69714 533.51547,1053.41412 C525.882165,1011.13111 530.800618,1024.42965 527.465575,980.853761 C518.080416,858.226698 528.260381,672.541663 554.068968,582.547161 C579.877554,492.552658 655.315831,347.522163 766.884032,230.44367 C878.452233,113.365176 899.523242,105.801284 1063.04814,48.4297884 C1226.57303,-8.94170695 1371.39251,-4.21813862 1480.63953,7.03231724 C1553.47087,14.5326211 1618.90904,49.4054909 1676.95402,111.650926 C1722.78894,175.697014 1753.88617,223.244109 1770.24571,254.292213 C1893.57691,492.552658 1893.57691,652.067914 1893.57691,789.084544 C1893.57691,926.101174 1899.16627,953.893826 1854.65248,1095.74081 C1810.13869,1237.5878 1802.68436,1225.7607 1709.74362,1324.32685 C1647.78312,1390.03761 1571.41509,1446.05919 1480.63953,1492.39158 C1357.3099,1550.25605 1255.76792,1589.40366 1176.01359,1609.83441 C1056.38209,1640.48053 1012.45293,1638.68113 924.697191,1634.80788 C836.941454,1630.93463 779.365234,1609.83441 752.92201,1591.16055 C726.478786,1572.48669 628.418061,1484.83364 554.068968,1428.94546 C479.719874,1373.05727 388.405246,1250.92427 348,1239 C307.594754,1227.07573 236.110595,1222.67176 168.820716,1218.07628 C123.960797,1215.01262 67.9431424,1246.49022 0.767753251,1312.50908 L119.107455,468.872045 C270.834824,692.733648 360.600754,812.426336 388.405246,827.95011 C416.209738,843.473884 458.315139,859.166945 514.721451,875.029294 L533.549026,1053.44339 C647.360661,1259.23082 695.945677,1349.52531 679.304075,1324.32685 Z" id="Path-111"></path>
                </g>
                <path d="M829.23945,1599.21072 C989.289332,1490.16114 1047.84163,1411.36604 1004.89633,1362.82541 C940.478387,1290.01446 845.47492,1264.35189 812.646313,1162.6989 C779.817706,1061.04592 835.596595,901.83427 812.646313,828.523908 C789.69603,755.213546 667.560613,700.404222 639.640014,680.608362 C605.495066,621.543549 616.471288,589.860522 623.057022,524.020437 C674.61043,393.342425 715.656423,345.184298 758.164338,309.338537 C800.672252,273.492777 894.26009,229.813359 929.59297,239.49712 C964.925851,249.180881 1080.02246,297.813871 1130.75719,281.818244 C1181.49191,265.822617 1235.07079,165.265232 1294.00354,121.784268 C1352.9363,78.3033029 1384.40926,54.2126164 1468.62526,61.1933691 C1552.84126,68.1741218 1572.20617,93.1034995 1633.26859,165.724232 C1694.33102,238.344965 1682.34159,276.218982 1684.15835,317.432741 C1689.54668,441.85222 1663.60288,470.066302 1653.6245,543.607927 C1643.64611,617.149552 1760.85899,928.752019 1778.953,1028.94132 C1791.01567,1095.73419 1792.18281,1161.00083 1782.45441,1224.74122 L1758.5012,1251.57165 L1733.11489,1277.0143 L1702.20091,1309.16455 L1657.16069,1354.49872 L1581.82068,1411.62903 L1522.6542,1448.17392 L1421.72315,1499.52181 L1253.43648,1566.36658 L1153.32435,1594.81608 L1083.512,1608 L1004.89633,1615.1702 L961.084474,1615.1702 L866.5,1608 L829.23945,1599.21072 Z" id="Path-45" fill="url(#linearGradient-2)"></path>
                <g id="Eye" transform="translate(748.000000, 111.000000)">
                    <path d="M10.2571639,527.996091 C11.5765336,527.996091 30.9437987,476.245578 57.6333062,438.972238 C82.2851125,404.544658 119.980737,371.442446 129.120521,363.886463 C148.155578,348.149923 173.340615,339.651216 193.839715,342.979346 C214.338816,346.307476 228.275117,354.219051 230.852327,376.92531 C233.429536,399.631569 211.394268,417.390698 187.494696,434.251276 C176.665698,441.890876 143.861636,466.182214 105.855451,485.732242 C59.9820804,509.329077 8.86913837,527.996091 10.2571639,527.996091 Z" id="Path-28" stroke="#000000" stroke-width="19" fill="#FFFFFF"></path>
                    <path d="M644.487598,286.234869 C645.559415,286.25637 675.769097,260.815426 696.946187,234.906573 C716.50644,210.97582 746.681047,188.19452 754.00363,183.003139 C769.254075,172.191263 789.139013,158.55337 805.836933,161.239911 C822.534854,163.926453 835.215181,171.860597 837.616266,187.950974 C840.017351,204.041351 828.220451,230.846784 809.033439,242.373783 C800.339721,247.596716 778.136098,261.338865 744.54258,271.109783 C702.005113,283.482113 643.360008,286.21222 644.487598,286.234869 Z" id="Path-28" stroke="#000000" stroke-width="19" fill="#FFFFFF" transform="translate(741.198318, 223.565828) rotate(-160.000000) translate(-741.198318, -223.565828) "></path>
                    <ellipse id="Oval" fill="#000000" cx="174.911346" cy="388.951769" rx="13.5360407" ry="24.054425"></ellipse>
                    <ellipse id="Oval" stroke="#979797" fill="#000000" cx="686.855897" cy="223.064399" rx="11.4210343" ry="24.5040404"></ellipse>
                    <path d="M224.04721,279.47663 C231.287669,277.990917 238.478691,281.662776 245.620275,290.492208 C256.332652,303.736356 258.373352,311.500018 264.232331,329.159134 C268.138317,340.931879 270.887825,360.939765 272.480856,389.182793" id="Path" stroke="#000000" stroke-width="15"></path>
                    <path d="M593.271844,156.659492 C610.297141,168.119542 621.462636,177.934592 626.768329,186.104642 C634.726868,198.359717 638.996856,213.782207 642.859664,233.018034 C645.43487,245.841919 644.883698,263.415602 641.20615,285.739083" id="Path" stroke="#000000" stroke-width="21" transform="translate(618.861206, 221.199287) scale(-1, 1) rotate(33.000000) translate(-618.861206, -221.199287) "></path>
                    <path d="M4.68353113,259.086842 C10.3464691,257.173346 47.408096,264.860511 87.005336,267.739212 C135.40561,271.257889 187.742535,270.377163 193.003138,270.642467 C202.567548,271.124821 204.560433,271.321358 207.132155,274.951123 C209.703876,278.580888 212.093286,289.044383 213.427433,298.789382 C214.76158,308.534381 214.107032,315.942559 213.575764,320.997235 C213.044496,326.051912 204.51194,327.978862 197.135204,329.794225 C189.758468,331.609589 160.772318,328.455953 129.062957,321.503655 C97.3535968,314.551358 -7.90129707,263.33923 4.68353113,259.086842 Z" id="Path-2" fill="#000000" transform="translate(108.928859, 294.541837) rotate(-6.000000) translate(-108.928859, -294.541837) "></path>
                    <path d="M602.564071,40.3085598 C608.227591,38.6391174 647.143753,51.2470244 688.233919,58.5058995 C738.459017,67.3785266 792.340111,71.5166819 797.788327,72.344641 C807.693838,73.8499701 809.766591,74.2754504 812.750544,78.7558537 C815.734497,83.236257 819.156268,95.6561916 821.42422,107.135359 C823.692172,118.614527 823.695699,127.176379 823.610813,133.009867 C823.525927,138.843354 814.904932,140.245339 807.465422,141.631423 C800.025912,143.017508 769.851085,136.485407 736.520647,125.261284 C703.190209,114.037162 589.977949,44.0185856 602.564071,40.3085598 Z" id="Path-2" fill="#000000" transform="translate(712.614013, 90.986799) scale(-1, 1) rotate(23.000000) translate(-712.614013, -90.986799) "></path>
                </g>
                <g id="Mouth" transform="translate(893.000000, 449.000000)" stroke="#000000" stroke-width="24">
                    <path d="M42.3325635,735.46397 C36.7083114,725.213813 42.3325635,659.677262 42.3325635,639.331837 C42.3325635,618.986412 54.4919169,559.98468 54.4919169,550.066286 C54.4919169,543.454023 50.4387991,498.43977 42.3325635,415.023528 L0,341.779999 L0,278.9635 L31.2990762,238.781286 L461.379908,40.6677113 L653.677829,0.231179423 L691.732102,44.9911141 L743.52194,390.354701 L765.814088,426.722148 L780,513.444521 L765.814088,457.240285 L718.752887,411.208761 C682.725173,407.817857 661.033487,406.122405 653.677829,406.122405 C642.644342,406.122405 649.849885,409.937172 642.419169,409.937172 C637.465358,409.937172 478.192841,464.106866 164.601617,572.446253 L107.182448,617.460505 L88.7182448,639.331837 L62.147806,675.444966 C52.6871458,722.291073 46.082065,742.297407 42.3325635,735.46397 Z" id="Path-29" fill="#29304B"></path>
                    <polygon id="Path-3" fill="#FFFFFF" points="145.999028 578.642095 130.67125 526.24279 115.343471 466.975615 115.343471 433.653726 145.999028 414.067578 195.814307 406.182246 209.338817 433.653726 217.228115 486.561763 238.867331 542.776551"></polygon>
                    <polygon id="Path-3" fill="#E7C100" points="250.204264 532.86857 231.25064 479.189208 227.414788 422.202587 234.860854 386.331544 264.645121 381.497858 293.978111 368.268821 314.96248 393.200467 324.890569 438.738883 343.167278 496.997527"></polygon>
                    <polygon id="Path-3" fill="#FFFFFF" points="362.087266 498.191656 343.17864 444.578857 325.170425 390.711969 332.598814 354.885406 351.957645 354.885406 371.991785 337.353259 401.030032 328.968319 426.016431 354.885406 436.596257 404.178691 454.829575 462.365094"></polygon>
                    <polygon id="Path-3" fill="#FFFFFF" points="471.074742 460.74059 455.731331 430.466447 459.115907 399.429091 448.285265 350.074607 455.731331 314.203564 485.515598 309.369878 514.848588 296.140841 535.832958 321.072487 545.761047 366.610903 564.037756 424.869547"></polygon>
                    <polygon id="Path-3" fill="#FFFFFF" transform="translate(601.969302, 339.333403) rotate(6.000000) translate(-601.969302, -339.333403) " points="578.24228 420.796213 558.661623 366.948826 533.220033 301.161914 540.234194 265.448598 568.116633 257.870593 616.576179 270.772331 637.843969 295.945556 648.307939 341.543935 670.718571 386.230999"></polygon>
                    <polygon id="Path-3" fill="#FFFFFF" points="145.999028 578.642095 130.67125 526.24279 115.343471 466.975615 115.343471 433.653726 145.999028 414.067578 195.814307 406.182246 209.338817 433.653726 217.228115 486.561763 238.867331 542.776551"></polygon>
                    <polygon id="Path-3" fill="#E7C100" points="250.204264 532.86857 231.25064 479.189208 227.414788 422.202587 234.860854 386.331544 264.645121 381.497858 293.978111 368.268821 314.96248 393.200467 324.890569 438.738883 343.167278 496.997527"></polygon>
                    <polygon id="Path-3" fill="#FFFFFF" points="362.087266 498.191656 343.17864 444.578857 325.170425 390.711969 332.598814 354.885406 351.957645 354.885406 371.991785 337.353259 401.030032 328.968319 426.016431 354.885406 436.596257 404.178691 454.829575 462.365094"></polygon>
                    <polygon id="Path-3" fill="#FFFFFF" points="471.074742 460.74059 455.731331 430.466447 459.115907 399.429091 448.285265 350.074607 455.731331 314.203564 485.515598 309.369878 514.848588 296.140841 535.832958 321.072487 545.761047 366.610903 564.037756 424.869547"></polygon>
                    <polygon id="Path-3" fill="#FFFFFF" transform="translate(601.969302, 339.333403) rotate(6.000000) translate(-601.969302, -339.333403) " points="578.24228 420.796213 558.661623 366.948826 533.220033 301.161914 540.234194 265.448598 568.116633 257.870593 616.576179 270.772331 637.843969 295.945556 648.307939 341.543935 670.718571 386.230999"></polygon>
                    <polygon id="Path-3" fill="#FFFFFF" transform="translate(557.817437, 99.292647) rotate(189.000000) translate(-557.817437, -99.292647) " points="530.7146 181.877076 514.426937 129.329014 493.08035 75.7116077 492.490538 42.489818 522.864199 23.574833 572.645184 16.7082187 586.684535 44.3673191 600.46436 91.4961104 623.144336 147.974261"></polygon>
                    <polygon id="Path-3" fill="#FFFFFF" transform="translate(450.492788, 129.768012) rotate(178.000000) translate(-450.492788, -129.768012) " points="415.179829 212.124913 396.476587 158.558033 392.87567 101.617468 400.450926 65.7309997 430.198037 60.7655944 459.528267 47.4111109 480.373251 72.2356458 490.100591 117.706345 508.109907 175.853244"></polygon>
                    <path d="M324.284569,265.734674 L305.581517,212.167454 L287.780315,158.341891 C281.399179,138.761511 283.92424,126.79928 295.355497,122.455196 C308.008379,140.190681 333.476066,146.423865 333.866584,135.240902 C334.126928,127.785593 334.45043,117.616017 334.837089,104.732173 L363.922508,96.2098997 L388.816968,122.033409 L399.204589,171.315513 L417.213721,229.46278 L324.284569,265.734674 Z" id="Path-3" fill="#FFFFFF" transform="translate(350.782528, 180.972287) rotate(178.000000) translate(-350.782528, -180.972287) "></path>
                    <polygon id="Path-3" fill="#FFFFFF" transform="translate(228.061189, 230.369806) rotate(178.000000) translate(-228.061189, -230.369806) " points="186.442685 318.505422 171.24943 288.315449 174.751558 257.278285 164.138707 207.997134 184.325537 160.554215 214.072416 155.588773 243.402418 142.23419 264.247238 167.058915 273.9745 212.529961 291.983671 270.677304"></polygon>
                    <polygon id="Path-3" fill="#FFFFFF" transform="translate(127.103285, 279.275637) rotate(184.000000) translate(-127.103285, -279.275637) " points="103.090378 360.776883 83.7359773 306.976357 58.571929 241.253459 65.72144 205.482188 93.6131847 197.77439 141.986327 210.470063 163.139434 235.567456 173.416307 281.153383 195.63464 325.774132"></polygon>
                </g>
                <path d="M1143.76421,1073.42232 C1150.82648,1070.29447 1159.6022,1070.48496 1180.94164,1067.58549 C1233.96896,1064.35162 1303.17667,1048.3771 1386.26745,1044.31135 C1416.26026,1042.84376 1465.27335,1044.62867 1533.30673,1049.66608 C1540.41969,1050.27433 1544.79356,1051.46974 1546.42833,1053.25233 C1551.6943,1058.99444 1549.99911,1069.19812 1548.42035,1075.09011 C1546.10643,1083.72578 1544.98936,1087.89473 1545.06916,1087.59694 C1477.74264,1080.26716 1431.41642,1076.47144 1406.09049,1076.2098 C1379.26487,1075.93266 1350.03431,1080.23962 1332.14643,1080.81239 C1267.31693,1082.88825 1148.13775,1101.40377 1143.5126,1100.19973 C1138.88745,1098.9957 1137.1026,1093.64524 1137.1637,1086.97389 C1137.22798,1080.30254 1136.70194,1076.55018 1143.76421,1073.42232 Z" id="Rectangle" fill="#000000" transform="translate(1343.578013, 1072.035321) rotate(-15.000000) translate(-1343.578013, -1072.035321) "></path>
                <path d="M1860,476.186308 C1891.33796,464.594248 1912.98326,451.097714 1924.93592,435.696707 C1936.88857,420.2957 1949.18096,390.063464 1961.8131,345 C1986.66706,412.6866 1995.08468,482.020223 1987.06596,553.000867 C1979.04724,623.98151 1950.52086,732.647888 1901.48683,879 C1897.69818,765.178398 1892.88811,679.957427 1887.05663,623.337088 C1881.22515,566.71675 1872.20628,517.66649 1860,476.186308 Z" id="Path-46" stroke="#000000" stroke-width="30" fill="#0013EE"></path>
                <path d="M1880,538 C1880,538 1901.06402,532.548444 1920.53074,512.139785 C1926.46353,505.919926 1933.61995,492.873331 1942,473" id="Path-51" stroke="#000000" stroke-width="16"></path>
                <path d="M1890,606 C1904.86126,600.009266 1916.02792,592.720242 1923.5,584.132931 C1930.97208,575.545619 1942.13874,557.167975 1957,529" id="Path-112" stroke="#000000" stroke-width="16"></path>
                <path d="M1894,694 C1917.71535,674.06639 1933.81627,656.788154 1942.30275,642.165289 C1950.78924,627.542425 1956.35499,607.487329 1959,582" id="Path-113" stroke="#000000" stroke-width="16"></path>
                <path d="M554.930171,686.259707 C511.637142,692.804027 480.377128,692.7151 461.150128,685.992927 C441.923129,679.270753 418.591061,660.273111 391.153926,629 C375.825881,698.736957 382.108496,761.319789 410.001772,816.748494 C437.895049,872.177199 501.561124,948.594367 601,1046 C577.746913,948.470423 562.882534,874.422708 556.406862,823.856857 C549.93119,773.291006 549.438959,727.425289 554.930171,686.259707 Z" id="Path-46" stroke="#000000" stroke-width="30" fill="#0013EE"></path>
                <path d="M508,762.362693 C508,762.362693 479.792336,768.718299 449.964295,761.696875 C440.873733,759.556986 428.552301,752.324694 413,740" id="Path-51" stroke="#000000" stroke-width="18"></path>
                <path d="M546,809.98038 C524.995159,812.845574 508.52623,812.662174 496.593212,809.430179 C484.660194,806.198185 465.462457,796.721459 439,781" id="Path-112" stroke="#000000" stroke-width="18"></path>
                <path d="M568,886 C532.317065,881.640433 507.164165,875.543811 492.541301,867.710133 C477.918437,859.876456 465.738003,845.973078 456,826" id="Path-113" stroke="#000000" stroke-width="18"></path>
                <path d="M113,590 L269,868" id="Path-114" stroke="#000000" stroke-width="26"></path>
                <path d="M86,741 L245,899" id="Path-4" stroke="#000000" stroke-width="26"></path>
                <path d="M69,869 L245,957" id="Path-5" stroke="#000000" stroke-width="26"></path>
                <path d="M53,980 L239,1011" id="Path-6" stroke="#000000" stroke-width="26"></path>
                <path d="M41,1064 L246,1056" id="Path-7" stroke="#000000" stroke-width="26"></path>
                <path d="M26,1181 L269,1119" id="Path-8" stroke="#000000" stroke-width="26"></path>
            </g>
        </g>
    </g>
</svg>